<svg width="335" height="426" viewBox="0 0 335 426" fill="none" xmlns="http://www.w3.org/2000/svg">
<g opacity="0.85">
<g opacity="0.05" filter="url(#filter0_f_12263_251)">
<rect x="136" y="136" width="326" height="185" rx="25" fill="url(#paint0_linear_12263_251)"/>
</g>
<rect x="161" y="136" width="276" height="160" rx="25" fill="white"/>
<g clip-path="url(#clip0_12263_251)">
<circle cx="291" cy="256" r="19" fill="#F2F6FF" stroke="white" stroke-width="2"/>
<path d="M290 255.7C290.127 255.7 290.23 255.743 290.31 255.83C290.397 255.91 290.44 256.013 290.44 256.14C290.44 256.267 290.397 256.373 290.31 256.46C290.23 256.54 290.127 256.58 290 256.58H288.44V258.13C288.44 258.257 288.397 258.363 288.31 258.45C288.23 258.537 288.127 258.58 288 258.58C287.873 258.58 287.767 258.537 287.68 258.45C287.6 258.363 287.56 258.257 287.56 258.13V256.58H286C285.873 256.58 285.767 256.54 285.68 256.46C285.6 256.373 285.56 256.267 285.56 256.14C285.56 256.013 285.6 255.91 285.68 255.83C285.767 255.743 285.873 255.7 286 255.7H287.56V254.14C287.56 254.013 287.6 253.91 287.68 253.83C287.767 253.743 287.873 253.7 288 253.7C288.127 253.7 288.23 253.743 288.31 253.83C288.397 253.91 288.44 254.013 288.44 254.14V255.7H290ZM295.976 257.96C296.376 257.96 296.576 258.13 296.576 258.47C296.576 258.823 296.376 259 295.976 259H292.176C292.003 259 291.866 258.95 291.766 258.85C291.666 258.743 291.616 258.613 291.616 258.46C291.616 258.26 291.693 258.08 291.846 257.92L294.126 255.47C294.406 255.163 294.609 254.883 294.736 254.63C294.869 254.37 294.936 254.113 294.936 253.86C294.936 253.547 294.846 253.307 294.666 253.14C294.486 252.973 294.229 252.89 293.896 252.89C293.623 252.89 293.356 252.943 293.096 253.05C292.843 253.15 292.586 253.29 292.326 253.47C292.259 253.517 292.193 253.557 292.126 253.59C292.059 253.617 291.993 253.63 291.926 253.63C291.813 253.63 291.713 253.577 291.626 253.47C291.546 253.363 291.506 253.237 291.506 253.09C291.506 252.99 291.523 252.903 291.556 252.83C291.596 252.757 291.656 252.687 291.736 252.62C292.029 252.387 292.373 252.203 292.766 252.07C293.159 251.93 293.553 251.86 293.946 251.86C294.633 251.86 295.179 252.033 295.586 252.38C295.999 252.727 296.206 253.193 296.206 253.78C296.206 254.187 296.119 254.57 295.946 254.93C295.773 255.283 295.479 255.68 295.066 256.12L293.336 257.96H295.976Z" fill="#234CAD"/>
</g>
<g clip-path="url(#clip1_12263_251)">
<circle cx="261" cy="256" r="19" fill="#F2F6FF" stroke="white" stroke-width="2"/>
<path d="M255.4 259.06C255.207 259.06 255.05 259.003 254.93 258.89C254.817 258.77 254.76 258.61 254.76 258.41V252.56C254.76 252.367 254.813 252.217 254.92 252.11C255.033 252.003 255.187 251.95 255.38 251.95H257.84C258.593 251.95 259.18 252.14 259.6 252.52C260.02 252.893 260.23 253.42 260.23 254.1C260.23 254.78 260.02 255.31 259.6 255.69C259.18 256.07 258.593 256.26 257.84 256.26H256.05V258.41C256.05 258.61 255.99 258.77 255.87 258.89C255.757 259.003 255.6 259.06 255.4 259.06ZM257.68 255.27C258.567 255.27 259.01 254.883 259.01 254.11C259.01 253.337 258.567 252.95 257.68 252.95H256.05V255.27H257.68ZM265.702 255.36C266.108 255.473 266.422 255.68 266.642 255.98C266.868 256.28 266.982 256.647 266.982 257.08C266.982 257.68 266.765 258.15 266.332 258.49C265.905 258.83 265.315 259 264.562 259H261.982C261.788 259 261.635 258.947 261.522 258.84C261.415 258.733 261.362 258.583 261.362 258.39V252.56C261.362 252.367 261.415 252.217 261.522 252.11C261.635 252.003 261.788 251.95 261.982 251.95H264.462C265.195 251.95 265.768 252.113 266.182 252.44C266.602 252.76 266.812 253.21 266.812 253.79C266.812 254.163 266.712 254.487 266.512 254.76C266.318 255.033 266.048 255.233 265.702 255.36ZM262.622 254.92H264.252C265.138 254.92 265.582 254.59 265.582 253.93C265.582 253.597 265.472 253.35 265.252 253.19C265.032 253.03 264.698 252.95 264.252 252.95H262.622V254.92ZM264.422 258C264.888 258 265.228 257.917 265.442 257.75C265.655 257.583 265.762 257.323 265.762 256.97C265.762 256.617 265.652 256.353 265.432 256.18C265.218 256.007 264.882 255.92 264.422 255.92H262.622V258H264.422Z" fill="#234CAD"/>
</g>
<g clip-path="url(#clip2_12263_251)">
<circle cx="231" cy="256" r="19" fill="#F2F6FF" stroke="white" stroke-width="2"/>
<path d="M225.38 259C225.187 259 225.033 258.947 224.92 258.84C224.813 258.733 224.76 258.583 224.76 258.39V252.56C224.76 252.367 224.813 252.217 224.92 252.11C225.033 252.003 225.187 251.95 225.38 251.95H227.36C228.513 251.95 229.407 252.26 230.04 252.88C230.68 253.493 231 254.357 231 255.47C231 256.59 230.68 257.46 230.04 258.08C229.407 258.693 228.513 259 227.36 259H225.38ZM227.28 257.95C228.9 257.95 229.71 257.123 229.71 255.47C229.71 253.823 228.9 253 227.28 253H226.05V257.95H227.28ZM232.919 259C232.726 259 232.572 258.947 232.459 258.84C232.352 258.733 232.299 258.583 232.299 258.39V252.56C232.299 252.367 232.352 252.217 232.459 252.11C232.572 252.003 232.726 251.95 232.919 251.95H236.529C236.722 251.95 236.872 251.993 236.979 252.08C237.086 252.167 237.139 252.29 237.139 252.45C237.139 252.617 237.086 252.747 236.979 252.84C236.872 252.927 236.722 252.97 236.529 252.97H233.559V254.91H236.329C236.522 254.91 236.672 254.953 236.779 255.04C236.886 255.127 236.939 255.253 236.939 255.42C236.939 255.58 236.886 255.703 236.779 255.79C236.672 255.877 236.522 255.92 236.329 255.92H233.559V257.98H236.529C236.722 257.98 236.872 258.027 236.979 258.12C237.086 258.207 237.139 258.333 237.139 258.5C237.139 258.66 237.086 258.783 236.979 258.87C236.872 258.957 236.722 259 236.529 259H232.919Z" fill="#234CAD"/>
</g>
<g clip-path="url(#clip3_12263_251)">
<circle cx="201" cy="256" r="19" fill="#F2F6FF" stroke="white" stroke-width="2"/>
<path d="M197.07 259.05C196.87 259.05 196.71 258.993 196.59 258.88C196.477 258.76 196.42 258.603 196.42 258.41V253.01H194.6C194.2 253.01 194 252.833 194 252.48C194 252.127 194.2 251.95 194.6 251.95H199.53C199.93 251.95 200.13 252.127 200.13 252.48C200.13 252.833 199.93 253.01 199.53 253.01H197.71V258.41C197.71 258.603 197.65 258.76 197.53 258.88C197.417 258.993 197.263 259.05 197.07 259.05ZM206.533 258.19C206.613 258.31 206.653 258.427 206.653 258.54C206.653 258.693 206.589 258.82 206.463 258.92C206.343 259.02 206.199 259.07 206.033 259.07C205.926 259.07 205.823 259.047 205.723 259C205.629 258.947 205.549 258.87 205.483 258.77L204.153 256.75C204.019 256.537 203.876 256.387 203.723 256.3C203.576 256.213 203.383 256.17 203.143 256.17H202.163V258.41C202.163 258.61 202.106 258.77 201.993 258.89C201.879 259.003 201.726 259.06 201.533 259.06C201.339 259.06 201.183 259.003 201.063 258.89C200.949 258.77 200.893 258.61 200.893 258.41V252.56C200.893 252.367 200.946 252.217 201.053 252.11C201.166 252.003 201.319 251.95 201.513 251.95H204.013C204.813 251.95 205.419 252.13 205.833 252.49C206.253 252.843 206.463 253.357 206.463 254.03C206.463 254.577 206.306 255.027 205.993 255.38C205.686 255.727 205.249 255.95 204.683 256.05C204.876 256.097 205.046 256.18 205.193 256.3C205.339 256.42 205.483 256.587 205.623 256.8L206.533 258.19ZM203.833 255.18C204.319 255.18 204.676 255.09 204.903 254.91C205.129 254.723 205.243 254.44 205.243 254.06C205.243 253.673 205.129 253.393 204.903 253.22C204.676 253.04 204.319 252.95 203.833 252.95H202.153V255.18H203.833Z" fill="#234CAD"/>
</g>
<g clip-path="url(#clip4_12263_251)">
<path d="M264.924 196.696C265.46 196.696 265.928 196.808 266.328 197.032C266.736 197.256 267.048 197.572 267.264 197.98C267.488 198.38 267.6 198.844 267.6 199.372C267.6 199.9 267.48 200.372 267.24 200.788C267 201.196 266.664 201.516 266.232 201.748C265.808 201.972 265.316 202.084 264.756 202.084C264.26 202.084 263.776 201.996 263.304 201.82C262.832 201.644 262.432 201.404 262.104 201.1C261.976 200.98 261.912 200.844 261.912 200.692C261.912 200.572 261.944 200.472 262.008 200.392C262.072 200.312 262.148 200.272 262.236 200.272C262.348 200.272 262.46 200.316 262.572 200.404C262.924 200.692 263.276 200.908 263.628 201.052C263.98 201.188 264.348 201.256 264.732 201.256C265.324 201.256 265.788 201.088 266.124 200.752C266.46 200.416 266.628 199.96 266.628 199.384C266.628 198.824 266.46 198.372 266.124 198.028C265.788 197.684 265.336 197.512 264.768 197.512C264.04 197.512 263.448 197.792 262.992 198.352C262.88 198.472 262.744 198.532 262.584 198.532C262.472 198.532 262.376 198.5 262.296 198.436C262.224 198.364 262.188 198.268 262.188 198.148V194.008C262.188 193.872 262.228 193.76 262.308 193.672C262.396 193.584 262.516 193.54 262.668 193.54H266.892C267.036 193.54 267.148 193.576 267.228 193.648C267.316 193.72 267.36 193.82 267.36 193.948C267.36 194.076 267.316 194.176 267.228 194.248C267.148 194.32 267.036 194.356 266.892 194.356H263.16V197.368C263.384 197.152 263.644 196.988 263.94 196.876C264.244 196.756 264.572 196.696 264.924 196.696ZM269.575 197.38C269.383 197.38 269.223 197.32 269.095 197.2C268.967 197.072 268.903 196.908 268.903 196.708C268.903 196.508 268.967 196.348 269.095 196.228C269.223 196.1 269.383 196.036 269.575 196.036C269.759 196.036 269.911 196.1 270.031 196.228C270.159 196.348 270.223 196.508 270.223 196.708C270.223 196.908 270.159 197.072 270.031 197.2C269.911 197.32 269.759 197.38 269.575 197.38ZM269.575 202.06C269.383 202.06 269.223 202 269.095 201.88C268.967 201.752 268.903 201.588 268.903 201.388C268.903 201.188 268.967 201.024 269.095 200.896C269.223 200.768 269.383 200.704 269.575 200.704C269.759 200.704 269.911 200.768 270.031 200.896C270.159 201.024 270.223 201.188 270.223 201.388C270.223 201.588 270.159 201.752 270.031 201.88C269.911 202 269.759 202.06 269.575 202.06ZM277.334 199.348C277.478 199.348 277.59 199.388 277.67 199.468C277.75 199.54 277.79 199.636 277.79 199.756C277.79 200.028 277.638 200.164 277.334 200.164H276.434V201.556C276.434 201.716 276.386 201.84 276.29 201.928C276.202 202.016 276.086 202.06 275.942 202.06C275.798 202.06 275.682 202.016 275.594 201.928C275.506 201.84 275.462 201.716 275.462 201.556V200.164H271.91C271.766 200.164 271.654 200.124 271.574 200.044C271.494 199.964 271.454 199.864 271.454 199.744C271.454 199.632 271.498 199.508 271.586 199.372L275.51 193.696C275.622 193.552 275.766 193.48 275.942 193.48C276.078 193.48 276.194 193.524 276.29 193.612C276.386 193.7 276.434 193.824 276.434 193.984V199.348H277.334ZM272.57 199.348H275.462V195.184L272.57 199.348ZM282.057 196.696C282.593 196.696 283.061 196.808 283.461 197.032C283.869 197.256 284.181 197.572 284.397 197.98C284.621 198.38 284.733 198.844 284.733 199.372C284.733 199.9 284.613 200.372 284.373 200.788C284.133 201.196 283.797 201.516 283.365 201.748C282.941 201.972 282.449 202.084 281.889 202.084C281.393 202.084 280.909 201.996 280.437 201.82C279.965 201.644 279.565 201.404 279.237 201.1C279.109 200.98 279.045 200.844 279.045 200.692C279.045 200.572 279.077 200.472 279.141 200.392C279.205 200.312 279.281 200.272 279.369 200.272C279.481 200.272 279.593 200.316 279.705 200.404C280.057 200.692 280.409 200.908 280.761 201.052C281.113 201.188 281.481 201.256 281.865 201.256C282.457 201.256 282.921 201.088 283.257 200.752C283.593 200.416 283.761 199.96 283.761 199.384C283.761 198.824 283.593 198.372 283.257 198.028C282.921 197.684 282.469 197.512 281.901 197.512C281.173 197.512 280.581 197.792 280.125 198.352C280.013 198.472 279.877 198.532 279.717 198.532C279.605 198.532 279.509 198.5 279.429 198.436C279.357 198.364 279.321 198.268 279.321 198.148V194.008C279.321 193.872 279.361 193.76 279.441 193.672C279.529 193.584 279.649 193.54 279.801 193.54H284.025C284.169 193.54 284.281 193.576 284.361 193.648C284.449 193.72 284.493 193.82 284.493 193.948C284.493 194.076 284.449 194.176 284.361 194.248C284.281 194.32 284.169 194.356 284.025 194.356H280.293V197.368C280.517 197.152 280.777 196.988 281.073 196.876C281.377 196.756 281.705 196.696 282.057 196.696ZM289.958 202.06C289.806 202.06 289.686 202.016 289.598 201.928C289.51 201.832 289.466 201.708 289.466 201.556V194.02C289.466 193.876 289.51 193.76 289.598 193.672C289.694 193.584 289.818 193.54 289.97 193.54H292.814C293.702 193.54 294.39 193.756 294.878 194.188C295.374 194.62 295.622 195.232 295.622 196.024C295.622 196.816 295.374 197.432 294.878 197.872C294.382 198.312 293.694 198.532 292.814 198.532H290.45V201.556C290.45 201.708 290.406 201.832 290.318 201.928C290.23 202.016 290.11 202.06 289.958 202.06ZM292.718 197.716C294.006 197.716 294.65 197.152 294.65 196.024C294.65 194.912 294.006 194.356 292.718 194.356H290.45V197.716H292.718ZM304.712 193.48C304.864 193.48 304.98 193.528 305.06 193.624C305.148 193.712 305.192 193.832 305.192 193.984V201.58C305.192 201.724 305.152 201.84 305.072 201.928C304.992 202.016 304.88 202.06 304.736 202.06C304.592 202.06 304.484 202.016 304.412 201.928C304.34 201.84 304.304 201.724 304.304 201.58V195.448L301.7 200.44C301.588 200.672 301.424 200.788 301.208 200.788C301 200.788 300.836 200.672 300.716 200.44L298.1 195.508V201.58C298.1 201.724 298.06 201.84 297.98 201.928C297.908 202.016 297.8 202.06 297.656 202.06C297.512 202.06 297.4 202.016 297.32 201.928C297.24 201.84 297.2 201.724 297.2 201.58V193.984C297.2 193.832 297.244 193.712 297.332 193.624C297.42 193.528 297.54 193.48 297.692 193.48C297.892 193.48 298.052 193.596 298.172 193.828L301.22 199.672L304.232 193.828C304.296 193.7 304.364 193.612 304.436 193.564C304.516 193.508 304.608 193.48 304.712 193.48ZM315.244 201.172C315.388 201.172 315.5 201.208 315.58 201.28C315.66 201.352 315.7 201.452 315.7 201.58C315.7 201.716 315.66 201.82 315.58 201.892C315.508 201.964 315.396 202 315.244 202H311.272C311.12 202 311.004 201.964 310.924 201.892C310.852 201.82 310.816 201.716 310.816 201.58C310.816 201.452 310.856 201.352 310.936 201.28C311.016 201.208 311.128 201.172 311.272 201.172H312.76V194.74L311.452 195.592C311.388 195.632 311.324 195.652 311.26 195.652C311.148 195.652 311.048 195.6 310.96 195.496C310.88 195.392 310.84 195.28 310.84 195.16C310.84 194.992 310.904 194.872 311.032 194.8L312.856 193.612C312.992 193.524 313.132 193.48 313.276 193.48C313.412 193.48 313.524 193.524 313.612 193.612C313.7 193.7 313.744 193.824 313.744 193.984V201.172H315.244ZM320.109 202.06C319.909 202.076 319.757 202.048 319.653 201.976C319.549 201.904 319.497 201.796 319.497 201.652C319.497 201.388 319.645 201.252 319.941 201.244L320.301 201.22C320.709 201.196 321.013 201.072 321.213 200.848C321.413 200.616 321.513 200.248 321.513 199.744V193.984C321.513 193.832 321.561 193.712 321.657 193.624C321.753 193.528 321.869 193.48 322.005 193.48C322.157 193.48 322.277 193.528 322.365 193.624C322.453 193.712 322.497 193.832 322.497 193.984V199.756C322.497 200.492 322.329 201.048 321.993 201.424C321.657 201.792 321.149 201.996 320.469 202.036L320.109 202.06ZM328.883 196.036C329.035 196.036 329.151 196.08 329.231 196.168C329.319 196.256 329.363 196.372 329.363 196.516V201.592C329.363 201.728 329.319 201.84 329.231 201.928C329.151 202.016 329.035 202.06 328.883 202.06C328.739 202.06 328.623 202.02 328.535 201.94C328.455 201.852 328.415 201.74 328.415 201.604V201.004C328.231 201.356 327.971 201.624 327.635 201.808C327.307 201.992 326.935 202.084 326.519 202.084C325.823 202.084 325.299 201.892 324.947 201.508C324.595 201.116 324.419 200.54 324.419 199.78V196.516C324.419 196.372 324.463 196.256 324.551 196.168C324.639 196.08 324.759 196.036 324.911 196.036C325.063 196.036 325.179 196.08 325.259 196.168C325.347 196.256 325.391 196.372 325.391 196.516V199.756C325.391 200.276 325.495 200.66 325.703 200.908C325.911 201.148 326.239 201.268 326.687 201.268C327.199 201.268 327.611 201.104 327.923 200.776C328.235 200.44 328.391 200 328.391 199.456V196.516C328.391 196.372 328.435 196.256 328.523 196.168C328.611 196.08 328.731 196.036 328.883 196.036ZM334.11 196.012C335.51 196.012 336.21 196.784 336.21 198.328V201.58C336.21 201.732 336.166 201.852 336.078 201.94C335.998 202.02 335.882 202.06 335.73 202.06C335.578 202.06 335.458 202.02 335.37 201.94C335.282 201.852 335.238 201.732 335.238 201.58V198.388C335.238 197.844 335.13 197.448 334.914 197.2C334.706 196.952 334.37 196.828 333.906 196.828C333.37 196.828 332.942 196.992 332.622 197.32C332.302 197.648 332.142 198.092 332.142 198.652V201.58C332.142 201.732 332.098 201.852 332.01 201.94C331.93 202.02 331.814 202.06 331.662 202.06C331.51 202.06 331.39 202.02 331.302 201.94C331.214 201.852 331.17 201.732 331.17 201.58V196.516C331.17 196.372 331.214 196.256 331.302 196.168C331.39 196.08 331.51 196.036 331.662 196.036C331.806 196.036 331.918 196.08 331.998 196.168C332.086 196.256 332.13 196.368 332.13 196.504V197.116C332.322 196.756 332.59 196.484 332.934 196.3C333.278 196.108 333.67 196.012 334.11 196.012ZM346.28 201.172C346.424 201.172 346.536 201.208 346.616 201.28C346.696 201.352 346.736 201.452 346.736 201.58C346.736 201.86 346.584 202 346.28 202H341.576C341.44 202 341.328 201.96 341.24 201.88C341.152 201.792 341.108 201.688 341.108 201.568C341.108 201.416 341.164 201.284 341.276 201.172L344.168 197.992C344.568 197.544 344.856 197.144 345.032 196.792C345.216 196.432 345.308 196.072 345.308 195.712C345.308 195.248 345.172 194.892 344.9 194.644C344.636 194.396 344.26 194.272 343.772 194.272C343.388 194.272 343.02 194.344 342.668 194.488C342.316 194.624 341.964 194.836 341.612 195.124C341.492 195.22 341.38 195.268 341.276 195.268C341.188 195.268 341.112 195.228 341.048 195.148C340.984 195.06 340.952 194.956 340.952 194.836C340.952 194.668 341.016 194.532 341.144 194.428C341.472 194.124 341.872 193.884 342.344 193.708C342.816 193.532 343.3 193.444 343.796 193.444C344.556 193.444 345.16 193.644 345.608 194.044C346.064 194.444 346.292 194.984 346.292 195.664C346.292 196.152 346.18 196.62 345.956 197.068C345.74 197.516 345.38 198.016 344.876 198.568L342.476 201.172H346.28ZM350.979 202.096C350.011 202.096 349.275 201.728 348.771 200.992C348.267 200.256 348.015 199.184 348.015 197.776C348.015 196.36 348.267 195.284 348.771 194.548C349.275 193.812 350.011 193.444 350.979 193.444C351.947 193.444 352.683 193.812 353.187 194.548C353.691 195.276 353.943 196.348 353.943 197.764C353.943 199.18 353.691 200.256 353.187 200.992C352.683 201.728 351.947 202.096 350.979 202.096ZM350.979 201.268C351.651 201.268 352.147 200.984 352.467 200.416C352.787 199.848 352.947 198.964 352.947 197.764C352.947 196.556 352.787 195.672 352.467 195.112C352.155 194.552 351.659 194.272 350.979 194.272C350.307 194.272 349.811 194.556 349.491 195.124C349.171 195.684 349.011 196.564 349.011 197.764C349.011 198.964 349.171 199.848 349.491 200.416C349.811 200.984 350.307 201.268 350.979 201.268ZM360.67 201.172C360.814 201.172 360.926 201.208 361.006 201.28C361.086 201.352 361.126 201.452 361.126 201.58C361.126 201.86 360.974 202 360.67 202H355.966C355.83 202 355.718 201.96 355.63 201.88C355.542 201.792 355.498 201.688 355.498 201.568C355.498 201.416 355.554 201.284 355.666 201.172L358.558 197.992C358.958 197.544 359.246 197.144 359.422 196.792C359.606 196.432 359.698 196.072 359.698 195.712C359.698 195.248 359.562 194.892 359.29 194.644C359.026 194.396 358.65 194.272 358.162 194.272C357.778 194.272 357.41 194.344 357.058 194.488C356.706 194.624 356.354 194.836 356.002 195.124C355.882 195.22 355.77 195.268 355.666 195.268C355.578 195.268 355.502 195.228 355.438 195.148C355.374 195.06 355.342 194.956 355.342 194.836C355.342 194.668 355.406 194.532 355.534 194.428C355.862 194.124 356.262 193.884 356.734 193.708C357.206 193.532 357.69 193.444 358.186 193.444C358.946 193.444 359.55 193.644 359.998 194.044C360.454 194.444 360.682 194.984 360.682 195.664C360.682 196.152 360.57 196.62 360.346 197.068C360.13 197.516 359.77 198.016 359.266 198.568L356.866 201.172H360.67ZM365.37 202.096C364.402 202.096 363.666 201.728 363.162 200.992C362.658 200.256 362.406 199.184 362.406 197.776C362.406 196.36 362.658 195.284 363.162 194.548C363.666 193.812 364.402 193.444 365.37 193.444C366.338 193.444 367.074 193.812 367.578 194.548C368.082 195.276 368.334 196.348 368.334 197.764C368.334 199.18 368.082 200.256 367.578 200.992C367.074 201.728 366.338 202.096 365.37 202.096ZM365.37 201.268C366.042 201.268 366.538 200.984 366.858 200.416C367.178 199.848 367.338 198.964 367.338 197.764C367.338 196.556 367.178 195.672 366.858 195.112C366.546 194.552 366.05 194.272 365.37 194.272C364.698 194.272 364.202 194.556 363.882 195.124C363.562 195.684 363.402 196.564 363.402 197.764C363.402 198.964 363.562 199.848 363.882 200.416C364.202 200.984 364.698 201.268 365.37 201.268Z" fill="#234CAD"/>
<path d="M263.24 180.096C262.931 180.096 262.68 180.005 262.488 179.824C262.307 179.632 262.216 179.376 262.216 179.056V169.696C262.216 169.387 262.301 169.147 262.472 168.976C262.653 168.805 262.899 168.72 263.208 168.72H267.144C268.349 168.72 269.288 169.024 269.96 169.632C270.632 170.229 270.968 171.072 270.968 172.16C270.968 173.248 270.632 174.096 269.96 174.704C269.288 175.312 268.349 175.616 267.144 175.616H264.28V179.056C264.28 179.376 264.184 179.632 263.992 179.824C263.811 180.005 263.56 180.096 263.24 180.096ZM266.888 174.032C268.307 174.032 269.016 173.413 269.016 172.176C269.016 170.939 268.307 170.32 266.888 170.32H264.28V174.032H266.888ZM276.814 172.016C277.092 171.995 277.31 172.053 277.47 172.192C277.63 172.331 277.71 172.539 277.71 172.816C277.71 173.104 277.641 173.317 277.502 173.456C277.364 173.595 277.113 173.685 276.75 173.728L276.27 173.776C275.641 173.84 275.177 174.053 274.878 174.416C274.59 174.779 274.446 175.232 274.446 175.776V179.136C274.446 179.445 274.35 179.685 274.158 179.856C273.966 180.016 273.726 180.096 273.438 180.096C273.15 180.096 272.91 180.016 272.718 179.856C272.537 179.685 272.446 179.445 272.446 179.136V172.944C272.446 172.645 272.537 172.416 272.718 172.256C272.91 172.096 273.145 172.016 273.422 172.016C273.7 172.016 273.924 172.096 274.094 172.256C274.265 172.405 274.35 172.624 274.35 172.912V173.552C274.553 173.083 274.852 172.72 275.246 172.464C275.652 172.208 276.1 172.064 276.59 172.032L276.814 172.016ZM281.983 180.128C281.183 180.128 280.479 179.963 279.871 179.632C279.274 179.301 278.81 178.827 278.479 178.208C278.148 177.589 277.983 176.869 277.983 176.048C277.983 175.227 278.148 174.512 278.479 173.904C278.81 173.285 279.274 172.811 279.871 172.48C280.479 172.149 281.183 171.984 281.983 171.984C282.783 171.984 283.482 172.149 284.079 172.48C284.687 172.811 285.151 173.285 285.471 173.904C285.802 174.512 285.967 175.227 285.967 176.048C285.967 176.869 285.802 177.589 285.471 178.208C285.151 178.827 284.687 179.301 284.079 179.632C283.482 179.963 282.783 180.128 281.983 180.128ZM281.967 178.576C282.618 178.576 283.114 178.363 283.455 177.936C283.796 177.509 283.967 176.88 283.967 176.048C283.967 175.227 283.796 174.603 283.455 174.176C283.114 173.739 282.623 173.52 281.983 173.52C281.343 173.52 280.847 173.739 280.495 174.176C280.154 174.603 279.983 175.227 279.983 176.048C279.983 176.88 280.154 177.509 280.495 177.936C280.836 178.363 281.327 178.576 281.967 178.576ZM286.498 182.912C286.114 182.933 285.821 182.88 285.618 182.752C285.405 182.624 285.298 182.427 285.298 182.16C285.298 181.723 285.565 181.483 286.098 181.44L286.53 181.408C286.893 181.387 287.165 181.275 287.346 181.072C287.527 180.869 287.618 180.56 287.618 180.144V172.96C287.618 172.651 287.709 172.416 287.89 172.256C288.082 172.096 288.322 172.016 288.61 172.016C288.898 172.016 289.138 172.096 289.33 172.256C289.522 172.416 289.618 172.651 289.618 172.96V180C289.618 181.792 288.722 182.752 286.93 182.88L286.498 182.912ZM288.594 170.592C288.231 170.592 287.943 170.496 287.73 170.304C287.517 170.101 287.41 169.84 287.41 169.52C287.41 169.2 287.517 168.944 287.73 168.752C287.943 168.56 288.231 168.464 288.594 168.464C288.946 168.464 289.229 168.56 289.442 168.752C289.666 168.944 289.778 169.2 289.778 169.52C289.778 169.84 289.671 170.101 289.458 170.304C289.245 170.496 288.957 170.592 288.594 170.592ZM297.873 177.856C298.054 177.856 298.198 177.925 298.305 178.064C298.422 178.203 298.481 178.389 298.481 178.624C298.481 178.955 298.283 179.232 297.889 179.456C297.526 179.659 297.115 179.824 296.657 179.952C296.198 180.069 295.761 180.128 295.345 180.128C294.086 180.128 293.089 179.765 292.353 179.04C291.617 178.315 291.249 177.323 291.249 176.064C291.249 175.264 291.409 174.555 291.729 173.936C292.049 173.317 292.497 172.837 293.073 172.496C293.659 172.155 294.321 171.984 295.057 171.984C295.761 171.984 296.374 172.139 296.897 172.448C297.419 172.757 297.825 173.195 298.113 173.76C298.401 174.325 298.545 174.992 298.545 175.76C298.545 176.219 298.342 176.448 297.937 176.448H293.217C293.281 177.184 293.489 177.728 293.841 178.08C294.193 178.421 294.705 178.592 295.377 178.592C295.718 178.592 296.017 178.549 296.273 178.464C296.539 178.379 296.838 178.261 297.169 178.112C297.489 177.941 297.723 177.856 297.873 177.856ZM295.105 173.392C294.561 173.392 294.123 173.563 293.793 173.904C293.473 174.245 293.281 174.736 293.217 175.376H296.833C296.811 174.725 296.651 174.235 296.353 173.904C296.054 173.563 295.638 173.392 295.105 173.392ZM303.653 180.128C302.874 180.128 302.186 179.963 301.589 179.632C301.002 179.301 300.549 178.832 300.229 178.224C299.909 177.616 299.749 176.907 299.749 176.096C299.749 175.285 299.914 174.571 300.245 173.952C300.586 173.323 301.061 172.837 301.669 172.496C302.277 172.155 302.975 171.984 303.765 171.984C304.181 171.984 304.597 172.043 305.013 172.16C305.439 172.277 305.813 172.437 306.133 172.64C306.474 172.864 306.645 173.147 306.645 173.488C306.645 173.723 306.586 173.915 306.469 174.064C306.362 174.203 306.218 174.272 306.037 174.272C305.919 174.272 305.797 174.245 305.669 174.192C305.541 174.139 305.413 174.075 305.285 174C305.05 173.861 304.826 173.755 304.613 173.68C304.399 173.595 304.154 173.552 303.877 173.552C303.215 173.552 302.703 173.771 302.341 174.208C301.989 174.635 301.813 175.253 301.813 176.064C301.813 176.864 301.989 177.483 302.341 177.92C302.703 178.347 303.215 178.56 303.877 178.56C304.143 178.56 304.378 178.523 304.581 178.448C304.794 178.363 305.029 178.251 305.285 178.112C305.445 178.016 305.583 177.947 305.701 177.904C305.818 177.851 305.935 177.824 306.053 177.824C306.223 177.824 306.367 177.899 306.485 178.048C306.602 178.197 306.661 178.384 306.661 178.608C306.661 178.789 306.618 178.949 306.533 179.088C306.458 179.216 306.33 179.333 306.149 179.44C305.818 179.653 305.434 179.824 304.997 179.952C304.559 180.069 304.111 180.128 303.653 180.128ZM312.104 178.608C312.637 178.64 312.904 178.88 312.904 179.328C312.904 179.584 312.797 179.781 312.584 179.92C312.381 180.048 312.088 180.101 311.704 180.08L311.272 180.048C309.48 179.92 308.584 178.96 308.584 177.168V173.68H307.784C307.496 173.68 307.272 173.616 307.112 173.488C306.963 173.36 306.888 173.173 306.888 172.928C306.888 172.683 306.963 172.496 307.112 172.368C307.272 172.24 307.496 172.176 307.784 172.176H308.584V170.704C308.584 170.416 308.675 170.187 308.856 170.016C309.037 169.845 309.283 169.76 309.592 169.76C309.891 169.76 310.131 169.845 310.312 170.016C310.493 170.187 310.584 170.416 310.584 170.704V172.176H311.944C312.232 172.176 312.451 172.24 312.6 172.368C312.76 172.496 312.84 172.683 312.84 172.928C312.84 173.173 312.76 173.36 312.6 173.488C312.451 173.616 312.232 173.68 311.944 173.68H310.584V177.312C310.584 178.101 310.947 178.523 311.672 178.576L312.104 178.608ZM328.482 168.64C328.781 168.64 329.021 168.736 329.202 168.928C329.383 169.109 329.474 169.355 329.474 169.664V179.136C329.474 179.435 329.389 179.669 329.218 179.84C329.047 180.011 328.823 180.096 328.546 180.096C328.269 180.096 328.05 180.011 327.89 179.84C327.73 179.669 327.65 179.435 327.65 179.136V172.544L324.93 177.696C324.802 177.931 324.663 178.107 324.514 178.224C324.365 178.331 324.189 178.384 323.986 178.384C323.783 178.384 323.607 178.331 323.458 178.224C323.309 178.117 323.17 177.941 323.042 177.696L320.306 172.624V179.136C320.306 179.424 320.221 179.659 320.05 179.84C319.89 180.011 319.671 180.096 319.394 180.096C319.117 180.096 318.898 180.011 318.738 179.84C318.578 179.669 318.498 179.435 318.498 179.136V169.664C318.498 169.355 318.583 169.109 318.754 168.928C318.935 168.736 319.175 168.64 319.474 168.64C319.89 168.64 320.215 168.869 320.45 169.328L324.002 176.096L327.538 169.328C327.773 168.869 328.087 168.64 328.482 168.64ZM337.935 177.856C338.116 177.856 338.26 177.925 338.367 178.064C338.484 178.203 338.543 178.389 338.543 178.624C338.543 178.955 338.346 179.232 337.951 179.456C337.588 179.659 337.178 179.824 336.719 179.952C336.26 180.069 335.823 180.128 335.407 180.128C334.148 180.128 333.151 179.765 332.415 179.04C331.679 178.315 331.311 177.323 331.311 176.064C331.311 175.264 331.471 174.555 331.791 173.936C332.111 173.317 332.559 172.837 333.135 172.496C333.722 172.155 334.383 171.984 335.119 171.984C335.823 171.984 336.436 172.139 336.959 172.448C337.482 172.757 337.887 173.195 338.175 173.76C338.463 174.325 338.607 174.992 338.607 175.76C338.607 176.219 338.404 176.448 337.999 176.448H333.279C333.343 177.184 333.551 177.728 333.903 178.08C334.255 178.421 334.767 178.592 335.439 178.592C335.78 178.592 336.079 178.549 336.335 178.464C336.602 178.379 336.9 178.261 337.231 178.112C337.551 177.941 337.786 177.856 337.935 177.856ZM335.167 173.392C334.623 173.392 334.186 173.563 333.855 173.904C333.535 174.245 333.343 174.736 333.279 175.376H336.895C336.874 174.725 336.714 174.235 336.415 173.904C336.116 173.563 335.7 173.392 335.167 173.392ZM346.435 177.856C346.616 177.856 346.76 177.925 346.867 178.064C346.984 178.203 347.043 178.389 347.043 178.624C347.043 178.955 346.846 179.232 346.451 179.456C346.088 179.659 345.678 179.824 345.219 179.952C344.76 180.069 344.323 180.128 343.907 180.128C342.648 180.128 341.651 179.765 340.915 179.04C340.179 178.315 339.811 177.323 339.811 176.064C339.811 175.264 339.971 174.555 340.291 173.936C340.611 173.317 341.059 172.837 341.635 172.496C342.222 172.155 342.883 171.984 343.619 171.984C344.323 171.984 344.936 172.139 345.459 172.448C345.982 172.757 346.387 173.195 346.675 173.76C346.963 174.325 347.107 174.992 347.107 175.76C347.107 176.219 346.904 176.448 346.499 176.448H341.779C341.843 177.184 342.051 177.728 342.403 178.08C342.755 178.421 343.267 178.592 343.939 178.592C344.28 178.592 344.579 178.549 344.835 178.464C345.102 178.379 345.4 178.261 345.731 178.112C346.051 177.941 346.286 177.856 346.435 177.856ZM343.667 173.392C343.123 173.392 342.686 173.563 342.355 173.904C342.035 174.245 341.843 174.736 341.779 175.376H345.395C345.374 174.725 345.214 174.235 344.915 173.904C344.616 173.563 344.2 173.392 343.667 173.392ZM352.698 178.608C353.231 178.64 353.498 178.88 353.498 179.328C353.498 179.584 353.391 179.781 353.178 179.92C352.975 180.048 352.682 180.101 352.298 180.08L351.866 180.048C350.074 179.92 349.178 178.96 349.178 177.168V173.68H348.378C348.09 173.68 347.866 173.616 347.706 173.488C347.556 173.36 347.482 173.173 347.482 172.928C347.482 172.683 347.556 172.496 347.706 172.368C347.866 172.24 348.09 172.176 348.378 172.176H349.178V170.704C349.178 170.416 349.268 170.187 349.45 170.016C349.631 169.845 349.876 169.76 350.186 169.76C350.484 169.76 350.724 169.845 350.906 170.016C351.087 170.187 351.178 170.416 351.178 170.704V172.176H352.538C352.826 172.176 353.044 172.24 353.194 172.368C353.354 172.496 353.434 172.683 353.434 172.928C353.434 173.173 353.354 173.36 353.194 173.488C353.044 173.616 352.826 173.68 352.538 173.68H351.178V177.312C351.178 178.101 351.54 178.523 352.266 178.576L352.698 178.608ZM355.532 180.096C355.244 180.096 355.004 180.016 354.812 179.856C354.631 179.685 354.54 179.445 354.54 179.136V172.96C354.54 172.651 354.631 172.416 354.812 172.256C355.004 172.096 355.244 172.016 355.532 172.016C355.82 172.016 356.06 172.096 356.252 172.256C356.444 172.416 356.54 172.651 356.54 172.96V179.136C356.54 179.445 356.444 179.685 356.252 179.856C356.06 180.016 355.82 180.096 355.532 180.096ZM355.532 170.592C355.169 170.592 354.881 170.496 354.668 170.304C354.455 170.101 354.348 169.84 354.348 169.52C354.348 169.2 354.455 168.944 354.668 168.752C354.881 168.56 355.169 168.464 355.532 168.464C355.884 168.464 356.167 168.56 356.38 168.752C356.604 168.944 356.716 169.2 356.716 169.52C356.716 169.84 356.609 170.101 356.396 170.304C356.183 170.496 355.895 170.592 355.532 170.592ZM363.147 171.984C364.085 171.984 364.784 172.251 365.243 172.784C365.701 173.317 365.931 174.123 365.931 175.2V179.136C365.931 179.435 365.84 179.669 365.659 179.84C365.488 180.011 365.248 180.096 364.939 180.096C364.629 180.096 364.384 180.011 364.203 179.84C364.021 179.669 363.931 179.435 363.931 179.136V175.312C363.931 174.704 363.813 174.261 363.579 173.984C363.355 173.707 362.997 173.568 362.507 173.568C361.931 173.568 361.467 173.749 361.115 174.112C360.773 174.475 360.603 174.96 360.603 175.568V179.136C360.603 179.435 360.512 179.669 360.331 179.84C360.149 180.011 359.904 180.096 359.595 180.096C359.285 180.096 359.04 180.011 358.859 179.84C358.688 179.669 358.603 179.435 358.603 179.136V172.944C358.603 172.667 358.693 172.443 358.875 172.272C359.056 172.101 359.301 172.016 359.611 172.016C359.888 172.016 360.112 172.101 360.283 172.272C360.464 172.432 360.555 172.645 360.555 172.912V173.344C360.821 172.907 361.179 172.571 361.627 172.336C362.075 172.101 362.581 171.984 363.147 171.984ZM374.586 172.016C374.885 172.016 375.125 172.101 375.306 172.272C375.487 172.443 375.578 172.672 375.578 172.96V179.28C375.578 180.507 375.237 181.435 374.554 182.064C373.871 182.693 372.863 183.008 371.53 183.008C370.367 183.008 369.397 182.789 368.618 182.352C368.223 182.117 368.026 181.835 368.026 181.504C368.026 181.269 368.079 181.083 368.186 180.944C368.303 180.805 368.453 180.736 368.634 180.736C368.73 180.736 368.847 180.757 368.986 180.8C369.125 180.853 369.269 180.912 369.418 180.976C369.802 181.136 370.143 181.259 370.442 181.344C370.751 181.429 371.103 181.472 371.498 181.472C372.895 181.472 373.594 180.789 373.594 179.424V178.4C373.359 178.837 373.018 179.179 372.57 179.424C372.122 179.659 371.61 179.776 371.034 179.776C370.351 179.776 369.743 179.616 369.21 179.296C368.687 178.965 368.277 178.507 367.978 177.92C367.679 177.333 367.53 176.656 367.53 175.888C367.53 175.12 367.674 174.443 367.962 173.856C368.261 173.259 368.677 172.8 369.21 172.48C369.743 172.149 370.351 171.984 371.034 171.984C371.61 171.984 372.122 172.107 372.57 172.352C373.018 172.587 373.359 172.923 373.594 173.36V172.944C373.594 172.667 373.685 172.443 373.866 172.272C374.047 172.101 374.287 172.016 374.586 172.016ZM371.562 178.224C372.202 178.224 372.698 178.016 373.05 177.6C373.413 177.184 373.594 176.613 373.594 175.888C373.594 175.152 373.413 174.576 373.05 174.16C372.698 173.744 372.202 173.536 371.562 173.536C370.933 173.536 370.437 173.744 370.074 174.16C369.711 174.576 369.53 175.152 369.53 175.888C369.53 176.613 369.711 177.184 370.074 177.6C370.437 178.016 370.933 178.224 371.562 178.224Z" fill="#234CAD"/>
</g>
<circle cx="211" cy="186" r="29" stroke="#234CAD" stroke-width="2"/>
<path d="M203.333 179.333C203.333 179.886 203.781 180.333 204.333 180.333C204.886 180.333 205.333 179.886 205.333 179.333H203.333ZM205.333 176C205.333 175.448 204.886 175 204.333 175C203.781 175 203.333 175.448 203.333 176H205.333ZM207.778 179.333C207.778 179.886 208.225 180.333 208.778 180.333C209.33 180.333 209.778 179.886 209.778 179.333H207.778ZM209.778 176C209.778 175.448 209.33 175 208.778 175C208.225 175 207.778 175.448 207.778 176H209.778ZM212.222 179.333C212.222 179.886 212.67 180.333 213.222 180.333C213.775 180.333 214.222 179.886 214.222 179.333H212.222ZM214.222 176C214.222 175.448 213.775 175 213.222 175C212.67 175 212.222 175.448 212.222 176H214.222ZM216.667 179.333C216.667 179.886 217.114 180.333 217.667 180.333C218.219 180.333 218.667 179.886 218.667 179.333H216.667ZM218.667 176C218.667 175.448 218.219 175 217.667 175C217.114 175 216.667 175.448 216.667 176H218.667ZM221 184.778C221.552 184.778 222 184.33 222 183.778C222 183.225 221.552 182.778 221 182.778V184.778ZM201 182.778C200.448 182.778 200 183.225 200 183.778C200 184.33 200.448 184.778 201 184.778V182.778ZM205.333 179.333V176H203.333V179.333H205.333ZM209.778 179.333V176H207.778V179.333H209.778ZM214.222 179.333V176H212.222V179.333H214.222ZM218.667 179.333V176H216.667V179.333H218.667ZM221 182.778H201V184.778H221V182.778ZM203.222 197H218.778V195H203.222V197ZM218.778 197C220.557 197 222 195.557 222 193.778H220C220 194.453 219.453 195 218.778 195V197ZM222 193.778V180.444H220V193.778H222ZM222 180.444C222 178.665 220.557 177.222 218.778 177.222V179.222C219.453 179.222 220 179.769 220 180.444H222ZM218.778 177.222H203.222V179.222H218.778V177.222ZM203.222 177.222C201.443 177.222 200 178.665 200 180.444H202C202 179.769 202.547 179.222 203.222 179.222V177.222ZM200 180.444V193.778H202V180.444H200ZM200 193.778C200 195.557 201.443 197 203.222 197V195C202.547 195 202 194.453 202 193.778H200Z" fill="#234CAD"/>
</g>
<defs>
<filter id="filter0_f_12263_251" x="0.085907" y="0.085907" width="597.828" height="456.828" filterUnits="userSpaceOnUse" color-interpolation-filters="sRGB">
<feFlood flood-opacity="0" result="BackgroundImageFix"/>
<feBlend mode="normal" in="SourceGraphic" in2="BackgroundImageFix" result="shape"/>
<feGaussianBlur stdDeviation="67.957" result="effect1_foregroundBlur_12263_251"/>
</filter>
<linearGradient id="paint0_linear_12263_251" x1="382.875" y1="388.706" x2="489.954" y2="114.702" gradientUnits="userSpaceOnUse">
<stop stop-color="#234CAD"/>
<stop offset="1" stop-color="#234CAD" stop-opacity="0.5"/>
</linearGradient>
<clipPath id="clip0_12263_251">
<rect width="40" height="40" fill="white" transform="translate(271 236)"/>
</clipPath>
<clipPath id="clip1_12263_251">
<rect width="40" height="40" fill="white" transform="translate(241 236)"/>
</clipPath>
<clipPath id="clip2_12263_251">
<rect width="40" height="40" fill="white" transform="translate(211 236)"/>
</clipPath>
<clipPath id="clip3_12263_251">
<rect width="40" height="40" fill="white" transform="translate(181 236)"/>
</clipPath>
<clipPath id="clip4_12263_251">
<rect width="116" height="45" fill="white" transform="translate(261 164)"/>
</clipPath>
</defs>
</svg>
