<svg width="537" height="241" viewBox="0 0 537 241" fill="none" xmlns="http://www.w3.org/2000/svg">
<g opacity="0.7">
<g opacity="0.0962147" filter="url(#filter0_f_12263_234)">
<rect x="75" y="136" width="326" height="185" rx="25" fill="url(#paint0_linear_12263_234)"/>
</g>
<rect x="100" y="136" width="276" height="160" rx="25" fill="white"/>
<g clip-path="url(#clip0_12263_234)">
<path d="M205.904 201.172C206.048 201.172 206.16 201.208 206.24 201.28C206.32 201.352 206.36 201.452 206.36 201.58C206.36 201.716 206.32 201.82 206.24 201.892C206.168 201.964 206.056 202 205.904 202H201.932C201.78 202 201.664 201.964 201.584 201.892C201.512 201.82 201.476 201.716 201.476 201.58C201.476 201.452 201.516 201.352 201.596 201.28C201.676 201.208 201.788 201.172 201.932 201.172H203.42V194.74L202.112 195.592C202.048 195.632 201.984 195.652 201.92 195.652C201.808 195.652 201.708 195.6 201.62 195.496C201.54 195.392 201.5 195.28 201.5 195.16C201.5 194.992 201.564 194.872 201.692 194.8L203.516 193.612C203.652 193.524 203.792 193.48 203.936 193.48C204.072 193.48 204.184 193.524 204.272 193.612C204.36 193.7 204.404 193.824 204.404 193.984V201.172H205.904ZM210.795 202.096C209.827 202.096 209.091 201.728 208.587 200.992C208.083 200.256 207.831 199.184 207.831 197.776C207.831 196.36 208.083 195.284 208.587 194.548C209.091 193.812 209.827 193.444 210.795 193.444C211.763 193.444 212.499 193.812 213.003 194.548C213.507 195.276 213.759 196.348 213.759 197.764C213.759 199.18 213.507 200.256 213.003 200.992C212.499 201.728 211.763 202.096 210.795 202.096ZM210.795 201.268C211.467 201.268 211.963 200.984 212.283 200.416C212.603 199.848 212.763 198.964 212.763 197.764C212.763 196.556 212.603 195.672 212.283 195.112C211.971 194.552 211.475 194.272 210.795 194.272C210.123 194.272 209.627 194.556 209.307 195.124C208.987 195.684 208.827 196.564 208.827 197.764C208.827 198.964 208.987 199.848 209.307 200.416C209.627 200.984 210.123 201.268 210.795 201.268ZM215.771 197.38C215.579 197.38 215.419 197.32 215.291 197.2C215.163 197.072 215.099 196.908 215.099 196.708C215.099 196.508 215.163 196.348 215.291 196.228C215.419 196.1 215.579 196.036 215.771 196.036C215.955 196.036 216.107 196.1 216.227 196.228C216.355 196.348 216.419 196.508 216.419 196.708C216.419 196.908 216.355 197.072 216.227 197.2C216.107 197.32 215.955 197.38 215.771 197.38ZM215.771 202.06C215.579 202.06 215.419 202 215.291 201.88C215.163 201.752 215.099 201.588 215.099 201.388C215.099 201.188 215.163 201.024 215.291 200.896C215.419 200.768 215.579 200.704 215.771 200.704C215.955 200.704 216.107 200.768 216.227 200.896C216.355 201.024 216.419 201.188 216.419 201.388C216.419 201.588 216.355 201.752 216.227 201.88C216.107 202 215.955 202.06 215.771 202.06ZM223.037 201.172C223.181 201.172 223.293 201.208 223.373 201.28C223.453 201.352 223.493 201.452 223.493 201.58C223.493 201.716 223.453 201.82 223.373 201.892C223.301 201.964 223.189 202 223.037 202H219.065C218.913 202 218.797 201.964 218.717 201.892C218.645 201.82 218.609 201.716 218.609 201.58C218.609 201.452 218.649 201.352 218.729 201.28C218.809 201.208 218.921 201.172 219.065 201.172H220.553V194.74L219.245 195.592C219.181 195.632 219.117 195.652 219.053 195.652C218.941 195.652 218.841 195.6 218.753 195.496C218.673 195.392 218.633 195.28 218.633 195.16C218.633 194.992 218.697 194.872 218.825 194.8L220.649 193.612C220.785 193.524 220.925 193.48 221.069 193.48C221.205 193.48 221.317 193.524 221.405 193.612C221.493 193.7 221.537 193.824 221.537 193.984V201.172H223.037ZM228.252 196.696C228.788 196.696 229.256 196.808 229.656 197.032C230.064 197.256 230.376 197.572 230.592 197.98C230.816 198.38 230.928 198.844 230.928 199.372C230.928 199.9 230.808 200.372 230.568 200.788C230.328 201.196 229.992 201.516 229.56 201.748C229.136 201.972 228.644 202.084 228.084 202.084C227.588 202.084 227.104 201.996 226.632 201.82C226.16 201.644 225.76 201.404 225.432 201.1C225.304 200.98 225.24 200.844 225.24 200.692C225.24 200.572 225.272 200.472 225.336 200.392C225.4 200.312 225.476 200.272 225.564 200.272C225.676 200.272 225.788 200.316 225.9 200.404C226.252 200.692 226.604 200.908 226.956 201.052C227.308 201.188 227.676 201.256 228.06 201.256C228.652 201.256 229.116 201.088 229.452 200.752C229.788 200.416 229.956 199.96 229.956 199.384C229.956 198.824 229.788 198.372 229.452 198.028C229.116 197.684 228.664 197.512 228.096 197.512C227.368 197.512 226.776 197.792 226.32 198.352C226.208 198.472 226.072 198.532 225.912 198.532C225.8 198.532 225.704 198.5 225.624 198.436C225.552 198.364 225.516 198.268 225.516 198.148V194.008C225.516 193.872 225.556 193.76 225.636 193.672C225.724 193.584 225.844 193.54 225.996 193.54H230.22C230.364 193.54 230.476 193.576 230.556 193.648C230.644 193.72 230.688 193.82 230.688 193.948C230.688 194.076 230.644 194.176 230.556 194.248C230.476 194.32 230.364 194.356 230.22 194.356H226.488V197.368C226.712 197.152 226.972 196.988 227.268 196.876C227.572 196.756 227.9 196.696 228.252 196.696ZM242.945 201.436C242.977 201.5 242.993 201.568 242.993 201.64C242.993 201.76 242.945 201.86 242.849 201.94C242.761 202.02 242.653 202.06 242.525 202.06C242.325 202.06 242.185 201.964 242.105 201.772L241.253 199.828H236.729L235.865 201.772C235.785 201.964 235.645 202.06 235.445 202.06C235.317 202.06 235.205 202.02 235.109 201.94C235.013 201.852 234.965 201.748 234.965 201.628C234.965 201.564 234.981 201.5 235.013 201.436L238.445 193.804C238.493 193.692 238.565 193.608 238.661 193.552C238.757 193.496 238.861 193.468 238.973 193.468C239.093 193.468 239.201 193.5 239.297 193.564C239.393 193.62 239.465 193.7 239.513 193.804L242.945 201.436ZM237.089 199.012H240.893L238.985 194.704L237.089 199.012ZM251.892 193.48C252.044 193.48 252.16 193.528 252.24 193.624C252.328 193.712 252.372 193.832 252.372 193.984V201.58C252.372 201.724 252.332 201.84 252.252 201.928C252.172 202.016 252.06 202.06 251.916 202.06C251.772 202.06 251.664 202.016 251.592 201.928C251.52 201.84 251.484 201.724 251.484 201.58V195.448L248.88 200.44C248.768 200.672 248.604 200.788 248.388 200.788C248.18 200.788 248.016 200.672 247.896 200.44L245.28 195.508V201.58C245.28 201.724 245.24 201.84 245.16 201.928C245.088 202.016 244.98 202.06 244.836 202.06C244.692 202.06 244.58 202.016 244.5 201.928C244.42 201.84 244.38 201.724 244.38 201.58V193.984C244.38 193.832 244.424 193.712 244.512 193.624C244.6 193.528 244.72 193.48 244.872 193.48C245.072 193.48 245.232 193.596 245.352 193.828L248.4 199.672L251.412 193.828C251.476 193.7 251.544 193.612 251.616 193.564C251.696 193.508 251.788 193.48 251.892 193.48ZM262.616 201.172C262.76 201.172 262.872 201.208 262.952 201.28C263.032 201.352 263.072 201.452 263.072 201.58C263.072 201.86 262.92 202 262.616 202H257.912C257.776 202 257.664 201.96 257.576 201.88C257.488 201.792 257.444 201.688 257.444 201.568C257.444 201.416 257.5 201.284 257.612 201.172L260.504 197.992C260.904 197.544 261.192 197.144 261.368 196.792C261.552 196.432 261.644 196.072 261.644 195.712C261.644 195.248 261.508 194.892 261.236 194.644C260.972 194.396 260.596 194.272 260.108 194.272C259.724 194.272 259.356 194.344 259.004 194.488C258.652 194.624 258.3 194.836 257.948 195.124C257.828 195.22 257.716 195.268 257.612 195.268C257.524 195.268 257.448 195.228 257.384 195.148C257.32 195.06 257.288 194.956 257.288 194.836C257.288 194.668 257.352 194.532 257.48 194.428C257.808 194.124 258.208 193.884 258.68 193.708C259.152 193.532 259.636 193.444 260.132 193.444C260.892 193.444 261.496 193.644 261.944 194.044C262.4 194.444 262.628 194.984 262.628 195.664C262.628 196.152 262.516 196.62 262.292 197.068C262.076 197.516 261.716 198.016 261.212 198.568L258.812 201.172H262.616ZM267.289 202.06C267.089 202.076 266.937 202.048 266.833 201.976C266.729 201.904 266.677 201.796 266.677 201.652C266.677 201.388 266.825 201.252 267.121 201.244L267.481 201.22C267.889 201.196 268.193 201.072 268.393 200.848C268.593 200.616 268.693 200.248 268.693 199.744V193.984C268.693 193.832 268.741 193.712 268.837 193.624C268.933 193.528 269.049 193.48 269.185 193.48C269.337 193.48 269.457 193.528 269.545 193.624C269.633 193.712 269.677 193.832 269.677 193.984V199.756C269.677 200.492 269.509 201.048 269.173 201.424C268.837 201.792 268.329 201.996 267.649 202.036L267.289 202.06ZM276.063 196.036C276.215 196.036 276.331 196.08 276.411 196.168C276.499 196.256 276.543 196.372 276.543 196.516V201.592C276.543 201.728 276.499 201.84 276.411 201.928C276.331 202.016 276.215 202.06 276.063 202.06C275.919 202.06 275.803 202.02 275.715 201.94C275.635 201.852 275.595 201.74 275.595 201.604V201.004C275.411 201.356 275.151 201.624 274.815 201.808C274.487 201.992 274.115 202.084 273.699 202.084C273.003 202.084 272.479 201.892 272.127 201.508C271.775 201.116 271.599 200.54 271.599 199.78V196.516C271.599 196.372 271.643 196.256 271.731 196.168C271.819 196.08 271.939 196.036 272.091 196.036C272.243 196.036 272.359 196.08 272.439 196.168C272.527 196.256 272.571 196.372 272.571 196.516V199.756C272.571 200.276 272.675 200.66 272.883 200.908C273.091 201.148 273.419 201.268 273.867 201.268C274.379 201.268 274.791 201.104 275.103 200.776C275.415 200.44 275.571 200 275.571 199.456V196.516C275.571 196.372 275.615 196.256 275.703 196.168C275.791 196.08 275.911 196.036 276.063 196.036ZM278.841 202.06C278.697 202.06 278.577 202.02 278.481 201.94C278.393 201.852 278.349 201.732 278.349 201.58V193.96C278.349 193.808 278.393 193.692 278.481 193.612C278.577 193.524 278.697 193.48 278.841 193.48C278.977 193.48 279.089 193.524 279.177 193.612C279.273 193.692 279.321 193.808 279.321 193.96V201.58C279.321 201.732 279.273 201.852 279.177 201.94C279.089 202.02 278.977 202.06 278.841 202.06ZM289.428 201.172C289.572 201.172 289.684 201.208 289.764 201.28C289.844 201.352 289.884 201.452 289.884 201.58C289.884 201.86 289.732 202 289.428 202H284.724C284.588 202 284.476 201.96 284.388 201.88C284.3 201.792 284.256 201.688 284.256 201.568C284.256 201.416 284.312 201.284 284.424 201.172L287.316 197.992C287.716 197.544 288.004 197.144 288.18 196.792C288.364 196.432 288.456 196.072 288.456 195.712C288.456 195.248 288.32 194.892 288.048 194.644C287.784 194.396 287.408 194.272 286.92 194.272C286.536 194.272 286.168 194.344 285.816 194.488C285.464 194.624 285.112 194.836 284.76 195.124C284.64 195.22 284.528 195.268 284.424 195.268C284.336 195.268 284.26 195.228 284.196 195.148C284.132 195.06 284.1 194.956 284.1 194.836C284.1 194.668 284.164 194.532 284.292 194.428C284.62 194.124 285.02 193.884 285.492 193.708C285.964 193.532 286.448 193.444 286.944 193.444C287.704 193.444 288.308 193.644 288.756 194.044C289.212 194.444 289.44 194.984 289.44 195.664C289.44 196.152 289.328 196.62 289.104 197.068C288.888 197.516 288.528 198.016 288.024 198.568L285.624 201.172H289.428ZM294.127 202.096C293.159 202.096 292.423 201.728 291.919 200.992C291.415 200.256 291.163 199.184 291.163 197.776C291.163 196.36 291.415 195.284 291.919 194.548C292.423 193.812 293.159 193.444 294.127 193.444C295.095 193.444 295.831 193.812 296.335 194.548C296.839 195.276 297.091 196.348 297.091 197.764C297.091 199.18 296.839 200.256 296.335 200.992C295.831 201.728 295.095 202.096 294.127 202.096ZM294.127 201.268C294.799 201.268 295.295 200.984 295.615 200.416C295.935 199.848 296.095 198.964 296.095 197.764C296.095 196.556 295.935 195.672 295.615 195.112C295.303 194.552 294.807 194.272 294.127 194.272C293.455 194.272 292.959 194.556 292.639 195.124C292.319 195.684 292.159 196.564 292.159 197.764C292.159 198.964 292.319 199.848 292.639 200.416C292.959 200.984 293.455 201.268 294.127 201.268ZM303.819 201.172C303.963 201.172 304.075 201.208 304.155 201.28C304.235 201.352 304.275 201.452 304.275 201.58C304.275 201.86 304.123 202 303.819 202H299.115C298.979 202 298.867 201.96 298.779 201.88C298.691 201.792 298.647 201.688 298.647 201.568C298.647 201.416 298.703 201.284 298.815 201.172L301.707 197.992C302.107 197.544 302.395 197.144 302.571 196.792C302.755 196.432 302.847 196.072 302.847 195.712C302.847 195.248 302.711 194.892 302.439 194.644C302.175 194.396 301.799 194.272 301.311 194.272C300.927 194.272 300.559 194.344 300.207 194.488C299.855 194.624 299.503 194.836 299.151 195.124C299.031 195.22 298.919 195.268 298.815 195.268C298.727 195.268 298.651 195.228 298.587 195.148C298.523 195.06 298.491 194.956 298.491 194.836C298.491 194.668 298.555 194.532 298.683 194.428C299.011 194.124 299.411 193.884 299.883 193.708C300.355 193.532 300.839 193.444 301.335 193.444C302.095 193.444 302.699 193.644 303.147 194.044C303.603 194.444 303.831 194.984 303.831 195.664C303.831 196.152 303.719 196.62 303.495 197.068C303.279 197.516 302.919 198.016 302.415 198.568L300.015 201.172H303.819ZM308.518 202.096C307.55 202.096 306.814 201.728 306.31 200.992C305.806 200.256 305.554 199.184 305.554 197.776C305.554 196.36 305.806 195.284 306.31 194.548C306.814 193.812 307.55 193.444 308.518 193.444C309.486 193.444 310.222 193.812 310.726 194.548C311.23 195.276 311.482 196.348 311.482 197.764C311.482 199.18 311.23 200.256 310.726 200.992C310.222 201.728 309.486 202.096 308.518 202.096ZM308.518 201.268C309.19 201.268 309.686 200.984 310.006 200.416C310.326 199.848 310.486 198.964 310.486 197.764C310.486 196.556 310.326 195.672 310.006 195.112C309.694 194.552 309.198 194.272 308.518 194.272C307.846 194.272 307.35 194.556 307.03 195.124C306.71 195.684 306.55 196.564 306.55 197.764C306.55 198.964 306.71 199.848 307.03 200.416C307.35 200.984 307.846 201.268 308.518 201.268Z" fill="#234CAD"/>
<path d="M202.24 180.096C201.931 180.096 201.68 180.005 201.488 179.824C201.307 179.632 201.216 179.376 201.216 179.056V169.696C201.216 169.387 201.301 169.147 201.472 168.976C201.653 168.805 201.899 168.72 202.208 168.72H206.144C207.349 168.72 208.288 169.024 208.96 169.632C209.632 170.229 209.968 171.072 209.968 172.16C209.968 173.248 209.632 174.096 208.96 174.704C208.288 175.312 207.349 175.616 206.144 175.616H203.28V179.056C203.28 179.376 203.184 179.632 202.992 179.824C202.811 180.005 202.56 180.096 202.24 180.096ZM205.888 174.032C207.307 174.032 208.016 173.413 208.016 172.176C208.016 170.939 207.307 170.32 205.888 170.32H203.28V174.032H205.888ZM215.814 172.016C216.092 171.995 216.31 172.053 216.47 172.192C216.63 172.331 216.71 172.539 216.71 172.816C216.71 173.104 216.641 173.317 216.502 173.456C216.364 173.595 216.113 173.685 215.75 173.728L215.27 173.776C214.641 173.84 214.177 174.053 213.878 174.416C213.59 174.779 213.446 175.232 213.446 175.776V179.136C213.446 179.445 213.35 179.685 213.158 179.856C212.966 180.016 212.726 180.096 212.438 180.096C212.15 180.096 211.91 180.016 211.718 179.856C211.537 179.685 211.446 179.445 211.446 179.136V172.944C211.446 172.645 211.537 172.416 211.718 172.256C211.91 172.096 212.145 172.016 212.422 172.016C212.7 172.016 212.924 172.096 213.094 172.256C213.265 172.405 213.35 172.624 213.35 172.912V173.552C213.553 173.083 213.852 172.72 214.246 172.464C214.652 172.208 215.1 172.064 215.59 172.032L215.814 172.016ZM223.607 177.856C223.788 177.856 223.932 177.925 224.039 178.064C224.156 178.203 224.215 178.389 224.215 178.624C224.215 178.955 224.018 179.232 223.623 179.456C223.26 179.659 222.85 179.824 222.391 179.952C221.932 180.069 221.495 180.128 221.079 180.128C219.82 180.128 218.823 179.765 218.087 179.04C217.351 178.315 216.983 177.323 216.983 176.064C216.983 175.264 217.143 174.555 217.463 173.936C217.783 173.317 218.231 172.837 218.807 172.496C219.394 172.155 220.055 171.984 220.791 171.984C221.495 171.984 222.108 172.139 222.631 172.448C223.154 172.757 223.559 173.195 223.847 173.76C224.135 174.325 224.279 174.992 224.279 175.76C224.279 176.219 224.076 176.448 223.671 176.448H218.951C219.015 177.184 219.223 177.728 219.575 178.08C219.927 178.421 220.439 178.592 221.111 178.592C221.452 178.592 221.751 178.549 222.007 178.464C222.274 178.379 222.572 178.261 222.903 178.112C223.223 177.941 223.458 177.856 223.607 177.856ZM220.839 173.392C220.295 173.392 219.858 173.563 219.527 173.904C219.207 174.245 219.015 174.736 218.951 175.376H222.567C222.546 174.725 222.386 174.235 222.087 173.904C221.788 173.563 221.372 173.392 220.839 173.392ZM228.747 180.128C227.584 180.128 226.646 179.899 225.931 179.44C225.59 179.237 225.419 178.949 225.419 178.576C225.419 178.363 225.478 178.192 225.595 178.064C225.712 177.925 225.856 177.856 226.027 177.856C226.208 177.856 226.459 177.941 226.779 178.112C227.12 178.272 227.43 178.395 227.707 178.48C227.995 178.565 228.358 178.608 228.795 178.608C229.243 178.608 229.59 178.533 229.835 178.384C230.091 178.235 230.219 178.027 230.219 177.76C230.219 177.579 230.166 177.435 230.059 177.328C229.963 177.221 229.782 177.125 229.515 177.04C229.259 176.944 228.864 176.837 228.331 176.72C227.382 176.528 226.699 176.256 226.283 175.904C225.878 175.552 225.675 175.067 225.675 174.448C225.675 173.979 225.814 173.557 226.091 173.184C226.368 172.8 226.747 172.507 227.227 172.304C227.718 172.091 228.272 171.984 228.891 171.984C229.339 171.984 229.771 172.043 230.187 172.16C230.603 172.267 230.976 172.427 231.307 172.64C231.648 172.853 231.819 173.136 231.819 173.488C231.819 173.701 231.76 173.883 231.643 174.032C231.526 174.171 231.382 174.24 231.211 174.24C231.094 174.24 230.976 174.219 230.859 174.176C230.752 174.123 230.614 174.048 230.443 173.952C230.134 173.792 229.867 173.675 229.643 173.6C229.419 173.515 229.142 173.472 228.811 173.472C228.416 173.472 228.102 173.552 227.867 173.712C227.643 173.872 227.531 174.091 227.531 174.368C227.531 174.635 227.648 174.837 227.883 174.976C228.118 175.115 228.571 175.253 229.243 175.392C229.958 175.541 230.518 175.712 230.923 175.904C231.328 176.096 231.616 176.336 231.787 176.624C231.968 176.912 232.059 177.28 232.059 177.728C232.059 178.453 231.755 179.035 231.147 179.472C230.55 179.909 229.75 180.128 228.747 180.128ZM239.873 177.856C240.054 177.856 240.198 177.925 240.305 178.064C240.422 178.203 240.481 178.389 240.481 178.624C240.481 178.955 240.283 179.232 239.889 179.456C239.526 179.659 239.115 179.824 238.657 179.952C238.198 180.069 237.761 180.128 237.345 180.128C236.086 180.128 235.089 179.765 234.353 179.04C233.617 178.315 233.249 177.323 233.249 176.064C233.249 175.264 233.409 174.555 233.729 173.936C234.049 173.317 234.497 172.837 235.073 172.496C235.659 172.155 236.321 171.984 237.057 171.984C237.761 171.984 238.374 172.139 238.897 172.448C239.419 172.757 239.825 173.195 240.113 173.76C240.401 174.325 240.545 174.992 240.545 175.76C240.545 176.219 240.342 176.448 239.937 176.448H235.217C235.281 177.184 235.489 177.728 235.841 178.08C236.193 178.421 236.705 178.592 237.377 178.592C237.718 178.592 238.017 178.549 238.273 178.464C238.539 178.379 238.838 178.261 239.169 178.112C239.489 177.941 239.723 177.856 239.873 177.856ZM237.105 173.392C236.561 173.392 236.123 173.563 235.793 173.904C235.473 174.245 235.281 174.736 235.217 175.376H238.833C238.811 174.725 238.651 174.235 238.353 173.904C238.054 173.563 237.638 173.392 237.105 173.392ZM246.725 171.984C247.663 171.984 248.362 172.251 248.821 172.784C249.279 173.317 249.509 174.123 249.509 175.2V179.136C249.509 179.435 249.418 179.669 249.237 179.84C249.066 180.011 248.826 180.096 248.517 180.096C248.207 180.096 247.962 180.011 247.781 179.84C247.599 179.669 247.509 179.435 247.509 179.136V175.312C247.509 174.704 247.391 174.261 247.157 173.984C246.933 173.707 246.575 173.568 246.085 173.568C245.509 173.568 245.045 173.749 244.693 174.112C244.351 174.475 244.181 174.96 244.181 175.568V179.136C244.181 179.435 244.09 179.669 243.909 179.84C243.727 180.011 243.482 180.096 243.173 180.096C242.863 180.096 242.618 180.011 242.437 179.84C242.266 179.669 242.181 179.435 242.181 179.136V172.944C242.181 172.667 242.271 172.443 242.453 172.272C242.634 172.101 242.879 172.016 243.189 172.016C243.466 172.016 243.69 172.101 243.861 172.272C244.042 172.432 244.133 172.645 244.133 172.912V173.344C244.399 172.907 244.757 172.571 245.205 172.336C245.653 172.101 246.159 171.984 246.725 171.984ZM255.604 178.608C256.137 178.64 256.404 178.88 256.404 179.328C256.404 179.584 256.297 179.781 256.084 179.92C255.881 180.048 255.588 180.101 255.204 180.08L254.772 180.048C252.98 179.92 252.084 178.96 252.084 177.168V173.68H251.284C250.996 173.68 250.772 173.616 250.612 173.488C250.463 173.36 250.388 173.173 250.388 172.928C250.388 172.683 250.463 172.496 250.612 172.368C250.772 172.24 250.996 172.176 251.284 172.176H252.084V170.704C252.084 170.416 252.175 170.187 252.356 170.016C252.537 169.845 252.783 169.76 253.092 169.76C253.391 169.76 253.631 169.845 253.812 170.016C253.993 170.187 254.084 170.416 254.084 170.704V172.176H255.444C255.732 172.176 255.951 172.24 256.1 172.368C256.26 172.496 256.34 172.683 256.34 172.928C256.34 173.173 256.26 173.36 256.1 173.488C255.951 173.616 255.732 173.68 255.444 173.68H254.084V177.312C254.084 178.101 254.447 178.523 255.172 178.576L255.604 178.608ZM260.838 171.984C261.926 171.984 262.732 172.256 263.254 172.8C263.788 173.333 264.054 174.149 264.054 175.248V179.152C264.054 179.44 263.969 179.669 263.798 179.84C263.628 180 263.393 180.08 263.094 180.08C262.817 180.08 262.588 179.995 262.406 179.824C262.236 179.653 262.15 179.429 262.15 179.152V178.8C261.969 179.216 261.681 179.541 261.286 179.776C260.902 180.011 260.454 180.128 259.942 180.128C259.42 180.128 258.945 180.021 258.518 179.808C258.092 179.595 257.756 179.301 257.51 178.928C257.265 178.555 257.142 178.139 257.142 177.68C257.142 177.104 257.286 176.651 257.574 176.32C257.873 175.989 258.353 175.749 259.014 175.6C259.676 175.451 260.588 175.376 261.75 175.376H262.15V175.008C262.15 174.485 262.038 174.107 261.814 173.872C261.59 173.627 261.228 173.504 260.726 173.504C260.417 173.504 260.102 173.552 259.782 173.648C259.462 173.733 259.084 173.861 258.646 174.032C258.369 174.171 258.166 174.24 258.038 174.24C257.846 174.24 257.686 174.171 257.558 174.032C257.441 173.893 257.382 173.712 257.382 173.488C257.382 173.307 257.425 173.152 257.51 173.024C257.606 172.885 257.761 172.757 257.974 172.64C258.348 172.437 258.79 172.277 259.302 172.16C259.825 172.043 260.337 171.984 260.838 171.984ZM260.342 178.688C260.876 178.688 261.308 178.512 261.638 178.16C261.98 177.797 262.15 177.333 262.15 176.768V176.432H261.862C261.148 176.432 260.593 176.464 260.198 176.528C259.804 176.592 259.521 176.704 259.35 176.864C259.18 177.024 259.094 177.243 259.094 177.52C259.094 177.861 259.212 178.144 259.446 178.368C259.692 178.581 259.99 178.688 260.342 178.688ZM270.151 178.608C270.684 178.64 270.951 178.88 270.951 179.328C270.951 179.584 270.844 179.781 270.631 179.92C270.428 180.048 270.135 180.101 269.751 180.08L269.319 180.048C267.527 179.92 266.631 178.96 266.631 177.168V173.68H265.831C265.543 173.68 265.319 173.616 265.159 173.488C265.01 173.36 264.935 173.173 264.935 172.928C264.935 172.683 265.01 172.496 265.159 172.368C265.319 172.24 265.543 172.176 265.831 172.176H266.631V170.704C266.631 170.416 266.722 170.187 266.903 170.016C267.084 169.845 267.33 169.76 267.639 169.76C267.938 169.76 268.178 169.845 268.359 170.016C268.54 170.187 268.631 170.416 268.631 170.704V172.176H269.991C270.279 172.176 270.498 172.24 270.647 172.368C270.807 172.496 270.887 172.683 270.887 172.928C270.887 173.173 270.807 173.36 270.647 173.488C270.498 173.616 270.279 173.68 269.991 173.68H268.631V177.312C268.631 178.101 268.994 178.523 269.719 178.576L270.151 178.608ZM272.985 180.096C272.697 180.096 272.457 180.016 272.265 179.856C272.084 179.685 271.993 179.445 271.993 179.136V172.96C271.993 172.651 272.084 172.416 272.265 172.256C272.457 172.096 272.697 172.016 272.985 172.016C273.273 172.016 273.513 172.096 273.705 172.256C273.897 172.416 273.993 172.651 273.993 172.96V179.136C273.993 179.445 273.897 179.685 273.705 179.856C273.513 180.016 273.273 180.096 272.985 180.096ZM272.985 170.592C272.622 170.592 272.334 170.496 272.121 170.304C271.908 170.101 271.801 169.84 271.801 169.52C271.801 169.2 271.908 168.944 272.121 168.752C272.334 168.56 272.622 168.464 272.985 168.464C273.337 168.464 273.62 168.56 273.833 168.752C274.057 168.944 274.169 169.2 274.169 169.52C274.169 169.84 274.062 170.101 273.849 170.304C273.636 170.496 273.348 170.592 272.985 170.592ZM279.624 180.128C278.824 180.128 278.12 179.963 277.512 179.632C276.914 179.301 276.45 178.827 276.12 178.208C275.789 177.589 275.624 176.869 275.624 176.048C275.624 175.227 275.789 174.512 276.12 173.904C276.45 173.285 276.914 172.811 277.512 172.48C278.12 172.149 278.824 171.984 279.624 171.984C280.424 171.984 281.122 172.149 281.72 172.48C282.328 172.811 282.792 173.285 283.112 173.904C283.442 174.512 283.608 175.227 283.608 176.048C283.608 176.869 283.442 177.589 283.112 178.208C282.792 178.827 282.328 179.301 281.72 179.632C281.122 179.963 280.424 180.128 279.624 180.128ZM279.608 178.576C280.258 178.576 280.754 178.363 281.096 177.936C281.437 177.509 281.608 176.88 281.608 176.048C281.608 175.227 281.437 174.603 281.096 174.176C280.754 173.739 280.264 173.52 279.624 173.52C278.984 173.52 278.488 173.739 278.136 174.176C277.794 174.603 277.624 175.227 277.624 176.048C277.624 176.88 277.794 177.509 278.136 177.936C278.477 178.363 278.968 178.576 279.608 178.576ZM289.803 171.984C290.741 171.984 291.44 172.251 291.899 172.784C292.357 173.317 292.587 174.123 292.587 175.2V179.136C292.587 179.435 292.496 179.669 292.315 179.84C292.144 180.011 291.904 180.096 291.595 180.096C291.285 180.096 291.04 180.011 290.859 179.84C290.677 179.669 290.587 179.435 290.587 179.136V175.312C290.587 174.704 290.469 174.261 290.235 173.984C290.011 173.707 289.653 173.568 289.163 173.568C288.587 173.568 288.123 173.749 287.771 174.112C287.429 174.475 287.259 174.96 287.259 175.568V179.136C287.259 179.435 287.168 179.669 286.987 179.84C286.805 180.011 286.56 180.096 286.251 180.096C285.941 180.096 285.696 180.011 285.515 179.84C285.344 179.669 285.259 179.435 285.259 179.136V172.944C285.259 172.667 285.349 172.443 285.531 172.272C285.712 172.101 285.957 172.016 286.267 172.016C286.544 172.016 286.768 172.101 286.939 172.272C287.12 172.432 287.211 172.645 287.211 172.912V173.344C287.477 172.907 287.835 172.571 288.283 172.336C288.731 172.101 289.237 171.984 289.803 171.984Z" fill="#234CAD"/>
</g>
<circle cx="150" cy="186" r="29" stroke="#234CAD" stroke-width="2"/>
<path d="M142.333 179.333C142.333 179.886 142.781 180.333 143.333 180.333C143.886 180.333 144.333 179.886 144.333 179.333H142.333ZM144.333 176C144.333 175.448 143.886 175 143.333 175C142.781 175 142.333 175.448 142.333 176H144.333ZM146.778 179.333C146.778 179.886 147.225 180.333 147.778 180.333C148.33 180.333 148.778 179.886 148.778 179.333H146.778ZM148.778 176C148.778 175.448 148.33 175 147.778 175C147.225 175 146.778 175.448 146.778 176H148.778ZM151.222 179.333C151.222 179.886 151.67 180.333 152.222 180.333C152.775 180.333 153.222 179.886 153.222 179.333H151.222ZM153.222 176C153.222 175.448 152.775 175 152.222 175C151.67 175 151.222 175.448 151.222 176H153.222ZM155.667 179.333C155.667 179.886 156.114 180.333 156.667 180.333C157.219 180.333 157.667 179.886 157.667 179.333H155.667ZM157.667 176C157.667 175.448 157.219 175 156.667 175C156.114 175 155.667 175.448 155.667 176H157.667ZM160 184.778C160.552 184.778 161 184.33 161 183.778C161 183.225 160.552 182.778 160 182.778V184.778ZM140 182.778C139.448 182.778 139 183.225 139 183.778C139 184.33 139.448 184.778 140 184.778V182.778ZM144.333 179.333V176H142.333V179.333H144.333ZM148.778 179.333V176H146.778V179.333H148.778ZM153.222 179.333V176H151.222V179.333H153.222ZM157.667 179.333V176H155.667V179.333H157.667ZM160 182.778H140V184.778H160V182.778ZM142.222 197H157.778V195H142.222V197ZM157.778 197C159.557 197 161 195.557 161 193.778H159C159 194.453 158.453 195 157.778 195V197ZM161 193.778V180.444H159V193.778H161ZM161 180.444C161 178.665 159.557 177.222 157.778 177.222V179.222C158.453 179.222 159 179.769 159 180.444H161ZM157.778 177.222H142.222V179.222H157.778V177.222ZM142.222 177.222C140.443 177.222 139 178.665 139 180.444H141C141 179.769 141.547 179.222 142.222 179.222V177.222ZM139 180.444V193.778H141V180.444H139ZM139 193.778C139 195.557 140.443 197 142.222 197V195C141.547 195 141 194.453 141 193.778H139Z" fill="#234CAD"/>
</g>
<defs>
<filter id="filter0_f_12263_234" x="-60.9141" y="0.085907" width="597.828" height="456.828" filterUnits="userSpaceOnUse" color-interpolation-filters="sRGB">
<feFlood flood-opacity="0" result="BackgroundImageFix"/>
<feBlend mode="normal" in="SourceGraphic" in2="BackgroundImageFix" result="shape"/>
<feGaussianBlur stdDeviation="67.957" result="effect1_foregroundBlur_12263_234"/>
</filter>
<linearGradient id="paint0_linear_12263_234" x1="321.875" y1="388.706" x2="428.954" y2="114.702" gradientUnits="userSpaceOnUse">
<stop stop-color="#234CAD"/>
<stop offset="1" stop-color="#234CAD" stop-opacity="0.5"/>
</linearGradient>
<clipPath id="clip0_12263_234">
<rect width="113" height="45" fill="white" transform="translate(200 164)"/>
</clipPath>
</defs>
</svg>
