<svg width="335" height="446" viewBox="0 0 335 446" fill="none" xmlns="http://www.w3.org/2000/svg">
<g opacity="0.05" filter="url(#filter0_f_12263_305)">
<rect x="136" y="100" width="326" height="210" rx="25" fill="url(#paint0_linear_12263_305)"/>
</g>
<path fill-rule="evenodd" clip-rule="evenodd" d="M161 125C161 111.193 172.193 100 186 100H412C425.807 100 437 111.193 437 125V235C437 248.807 425.807 260 412 260H256H186C172.193 260 161 248.807 161 235V125Z" fill="white"/>
<g clip-path="url(#clip0_12263_305)">
<circle cx="261" cy="220" r="19" fill="#F2F6FF" stroke="white" stroke-width="2"/>
<path d="M262.15 222.23C262.19 222.317 262.21 222.403 262.21 222.49C262.21 222.643 262.147 222.773 262.02 222.88C261.9 222.987 261.76 223.04 261.6 223.04C261.493 223.04 261.393 223.013 261.3 222.96C261.207 222.9 261.133 222.81 261.08 222.69L260.48 221.35H256.96L256.36 222.69C256.307 222.81 256.233 222.9 256.14 222.96C256.047 223.013 255.943 223.04 255.83 223.04C255.677 223.04 255.537 222.987 255.41 222.88C255.283 222.773 255.22 222.643 255.22 222.49C255.22 222.403 255.24 222.317 255.28 222.23L258.04 216.3C258.1 216.167 258.19 216.067 258.31 216C258.437 215.927 258.57 215.89 258.71 215.89C258.85 215.89 258.98 215.927 259.1 216C259.227 216.067 259.32 216.167 259.38 216.3L262.15 222.23ZM257.4 220.35H260.04L258.72 217.38L257.4 220.35ZM263.247 223.06C262.734 223.08 262.477 222.903 262.477 222.53C262.477 222.37 262.521 222.25 262.607 222.17C262.687 222.083 262.817 222.033 262.997 222.02L263.317 222C263.591 221.987 263.797 221.9 263.937 221.74C264.077 221.58 264.147 221.337 264.147 221.01V216.54C264.147 216.347 264.204 216.193 264.317 216.08C264.437 215.96 264.594 215.9 264.787 215.9C264.987 215.9 265.144 215.96 265.257 216.08C265.377 216.193 265.437 216.347 265.437 216.54V221.01C265.437 222.27 264.814 222.947 263.567 223.04L263.247 223.06Z" fill="#234CAD"/>
</g>
<g clip-path="url(#clip1_12263_305)">
<circle cx="231" cy="220" r="19" fill="#F2F6FF" stroke="white" stroke-width="2"/>
<path d="M231.23 222.03C231.363 222.157 231.43 222.3 231.43 222.46C231.43 222.613 231.37 222.75 231.25 222.87C231.137 222.983 231 223.04 230.84 223.04C230.673 223.04 230.52 222.97 230.38 222.83L227.05 219.71V222.41C227.05 222.603 226.99 222.76 226.87 222.88C226.757 223 226.6 223.06 226.4 223.06C226.207 223.06 226.05 223 225.93 222.88C225.817 222.76 225.76 222.603 225.76 222.41V216.54C225.76 216.347 225.817 216.193 225.93 216.08C226.05 215.96 226.207 215.9 226.4 215.9C226.6 215.9 226.757 215.96 226.87 216.08C226.99 216.193 227.05 216.347 227.05 216.54V219.11L230.27 216.09C230.39 215.97 230.527 215.91 230.68 215.91C230.833 215.91 230.967 215.97 231.08 216.09C231.2 216.203 231.26 216.337 231.26 216.49C231.26 216.643 231.193 216.783 231.06 216.91L228.37 219.37L231.23 222.03ZM236.683 216.12C236.803 215.973 236.947 215.9 237.113 215.9C237.267 215.9 237.403 215.96 237.523 216.08C237.643 216.193 237.703 216.33 237.703 216.49C237.703 216.623 237.653 216.75 237.553 216.87L235.283 219.64V222.41C235.283 222.617 235.223 222.777 235.103 222.89C234.983 223.003 234.83 223.06 234.643 223.06C234.45 223.06 234.293 223.003 234.173 222.89C234.053 222.777 233.993 222.617 233.993 222.41V219.64L231.723 216.87C231.623 216.75 231.573 216.623 231.573 216.49C231.573 216.33 231.633 216.193 231.753 216.08C231.873 215.96 232.01 215.9 232.163 215.9C232.33 215.9 232.473 215.973 232.593 216.12L234.643 218.66L236.683 216.12Z" fill="#234CAD"/>
</g>
<g clip-path="url(#clip2_12263_305)">
<circle cx="201" cy="220" r="19" fill="#F2F6FF" stroke="white" stroke-width="2"/>
<path d="M200.02 215.9C200.207 215.9 200.357 215.96 200.47 216.08C200.583 216.193 200.64 216.347 200.64 216.54V222.46C200.64 222.647 200.587 222.793 200.48 222.9C200.373 223.007 200.233 223.06 200.06 223.06C199.887 223.06 199.75 223.007 199.65 222.9C199.55 222.793 199.5 222.647 199.5 222.46V218.34L197.8 221.56C197.72 221.707 197.633 221.817 197.54 221.89C197.447 221.957 197.337 221.99 197.21 221.99C197.083 221.99 196.973 221.957 196.88 221.89C196.787 221.823 196.7 221.713 196.62 221.56L194.91 218.39V222.46C194.91 222.64 194.857 222.787 194.75 222.9C194.65 223.007 194.513 223.06 194.34 223.06C194.167 223.06 194.03 223.007 193.93 222.9C193.83 222.793 193.78 222.647 193.78 222.46V216.54C193.78 216.347 193.833 216.193 193.94 216.08C194.053 215.96 194.203 215.9 194.39 215.9C194.65 215.9 194.853 216.043 195 216.33L197.22 220.56L199.43 216.33C199.577 216.043 199.773 215.9 200.02 215.9ZM205.318 223.09C204.638 223.09 204.042 222.943 203.528 222.65C203.022 222.357 202.632 221.937 202.358 221.39C202.085 220.843 201.948 220.203 201.948 219.47C201.948 218.737 202.085 218.1 202.358 217.56C202.632 217.013 203.022 216.593 203.528 216.3C204.042 216.007 204.638 215.86 205.318 215.86C205.758 215.86 206.172 215.927 206.558 216.06C206.945 216.187 207.288 216.373 207.588 216.62C207.675 216.687 207.735 216.757 207.768 216.83C207.802 216.903 207.818 216.993 207.818 217.1C207.818 217.247 207.778 217.37 207.698 217.47C207.618 217.57 207.522 217.62 207.408 217.62C207.275 217.62 207.138 217.573 206.998 217.48C206.712 217.267 206.445 217.12 206.198 217.04C205.952 216.953 205.678 216.91 205.378 216.91C204.685 216.91 204.158 217.127 203.798 217.56C203.445 217.993 203.268 218.63 203.268 219.47C203.268 220.317 203.445 220.957 203.798 221.39C204.158 221.823 204.685 222.04 205.378 222.04C205.665 222.04 205.928 221.997 206.168 221.91C206.415 221.823 206.692 221.677 206.998 221.47C207.065 221.43 207.132 221.397 207.198 221.37C207.265 221.343 207.335 221.33 207.408 221.33C207.522 221.33 207.618 221.38 207.698 221.48C207.778 221.58 207.818 221.703 207.818 221.85C207.818 221.95 207.802 222.04 207.768 222.12C207.735 222.193 207.675 222.263 207.588 222.33C207.288 222.577 206.945 222.767 206.558 222.9C206.172 223.027 205.758 223.09 205.318 223.09Z" fill="#234CAD"/>
</g>
<g clip-path="url(#clip3_12263_305)">
<path d="M266.064 161.656C266.56 161.808 266.944 162.068 267.216 162.436C267.496 162.804 267.636 163.244 267.636 163.756C267.636 164.484 267.372 165.056 266.844 165.472C266.316 165.88 265.568 166.084 264.6 166.084C263.632 166.084 262.884 165.88 262.356 165.472C261.828 165.056 261.564 164.484 261.564 163.756C261.564 163.236 261.704 162.792 261.984 162.424C262.264 162.056 262.652 161.8 263.148 161.656C262.724 161.496 262.388 161.244 262.14 160.9C261.892 160.556 261.768 160.152 261.768 159.688C261.768 159 262.016 158.456 262.512 158.056C263.016 157.648 263.712 157.444 264.6 157.444C265.488 157.444 266.18 157.648 266.676 158.056C267.18 158.456 267.432 159 267.432 159.688C267.432 160.152 267.308 160.56 267.06 160.912C266.812 161.256 266.48 161.504 266.064 161.656ZM262.74 159.76C262.74 160.256 262.896 160.636 263.208 160.9C263.528 161.164 263.992 161.296 264.6 161.296C265.208 161.296 265.668 161.164 265.98 160.9C266.3 160.636 266.46 160.256 266.46 159.76C266.46 159.288 266.3 158.92 265.98 158.656C265.668 158.392 265.208 158.26 264.6 158.26C263.992 158.26 263.528 158.392 263.208 158.656C262.896 158.92 262.74 159.288 262.74 159.76ZM264.6 165.268C265.976 165.268 266.664 164.744 266.664 163.696C266.664 162.648 265.976 162.124 264.6 162.124C263.224 162.124 262.536 162.648 262.536 163.696C262.536 164.744 263.224 165.268 264.6 165.268ZM269.575 161.38C269.383 161.38 269.223 161.32 269.095 161.2C268.967 161.072 268.903 160.908 268.903 160.708C268.903 160.508 268.967 160.348 269.095 160.228C269.223 160.1 269.383 160.036 269.575 160.036C269.759 160.036 269.911 160.1 270.031 160.228C270.159 160.348 270.223 160.508 270.223 160.708C270.223 160.908 270.159 161.072 270.031 161.2C269.911 161.32 269.759 161.38 269.575 161.38ZM269.575 166.06C269.383 166.06 269.223 166 269.095 165.88C268.967 165.752 268.903 165.588 268.903 165.388C268.903 165.188 268.967 165.024 269.095 164.896C269.223 164.768 269.383 164.704 269.575 164.704C269.759 164.704 269.911 164.768 270.031 164.896C270.159 165.024 270.223 165.188 270.223 165.388C270.223 165.588 270.159 165.752 270.031 165.88C269.911 166 269.759 166.06 269.575 166.06ZM275.666 161.656C276.178 161.8 276.566 162.048 276.83 162.4C277.102 162.752 277.238 163.188 277.238 163.708C277.238 164.444 276.99 165.024 276.494 165.448C275.998 165.872 275.322 166.084 274.465 166.084C273.946 166.084 273.446 165.996 272.966 165.82C272.494 165.644 272.094 165.404 271.766 165.1C271.638 164.98 271.574 164.844 271.574 164.692C271.574 164.572 271.606 164.472 271.67 164.392C271.734 164.312 271.81 164.272 271.898 164.272C272.01 164.272 272.122 164.316 272.234 164.404C272.602 164.7 272.962 164.916 273.314 165.052C273.666 165.188 274.046 165.256 274.454 165.256C275.046 165.256 275.494 165.12 275.798 164.848C276.11 164.576 276.266 164.184 276.266 163.672C276.266 162.64 275.618 162.124 274.322 162.124H273.686C273.558 162.124 273.454 162.084 273.374 162.004C273.302 161.916 273.266 161.816 273.266 161.704C273.266 161.592 273.302 161.496 273.374 161.416C273.454 161.336 273.558 161.296 273.686 161.296H274.13C274.754 161.296 275.234 161.16 275.57 160.888C275.906 160.608 276.074 160.208 276.074 159.688C276.074 159.232 275.938 158.884 275.666 158.644C275.394 158.396 275.01 158.272 274.514 158.272C274.138 158.272 273.774 158.344 273.422 158.488C273.07 158.624 272.718 158.836 272.366 159.124C272.254 159.212 272.142 159.256 272.03 159.256C271.942 159.256 271.866 159.216 271.802 159.136C271.738 159.056 271.706 158.956 271.706 158.836C271.706 158.684 271.77 158.548 271.898 158.428C272.226 158.124 272.622 157.884 273.086 157.708C273.558 157.532 274.042 157.444 274.538 157.444C275.306 157.444 275.918 157.64 276.374 158.032C276.83 158.424 277.054 158.952 277.046 159.616C277.038 160.096 276.91 160.516 276.662 160.876C276.422 161.236 276.09 161.496 275.666 161.656ZM281.733 166.096C280.765 166.096 280.029 165.728 279.525 164.992C279.021 164.256 278.769 163.184 278.769 161.776C278.769 160.36 279.021 159.284 279.525 158.548C280.029 157.812 280.765 157.444 281.733 157.444C282.701 157.444 283.437 157.812 283.941 158.548C284.445 159.276 284.697 160.348 284.697 161.764C284.697 163.18 284.445 164.256 283.941 164.992C283.437 165.728 282.701 166.096 281.733 166.096ZM281.733 165.268C282.405 165.268 282.901 164.984 283.221 164.416C283.541 163.848 283.701 162.964 283.701 161.764C283.701 160.556 283.541 159.672 283.221 159.112C282.909 158.552 282.413 158.272 281.733 158.272C281.061 158.272 280.565 158.556 280.245 159.124C279.925 159.684 279.765 160.564 279.765 161.764C279.765 162.964 279.925 163.848 280.245 164.416C280.565 164.984 281.061 165.268 281.733 165.268ZM296.75 165.436C296.782 165.5 296.798 165.568 296.798 165.64C296.798 165.76 296.75 165.86 296.654 165.94C296.566 166.02 296.458 166.06 296.33 166.06C296.13 166.06 295.99 165.964 295.91 165.772L295.058 163.828H290.534L289.67 165.772C289.59 165.964 289.45 166.06 289.25 166.06C289.122 166.06 289.01 166.02 288.914 165.94C288.818 165.852 288.77 165.748 288.77 165.628C288.77 165.564 288.786 165.5 288.818 165.436L292.25 157.804C292.298 157.692 292.37 157.608 292.466 157.552C292.562 157.496 292.666 157.468 292.778 157.468C292.898 157.468 293.006 157.5 293.102 157.564C293.198 157.62 293.27 157.7 293.318 157.804L296.75 165.436ZM290.894 163.012H294.698L292.79 158.704L290.894 163.012ZM305.697 157.48C305.849 157.48 305.965 157.528 306.045 157.624C306.133 157.712 306.177 157.832 306.177 157.984V165.58C306.177 165.724 306.137 165.84 306.057 165.928C305.977 166.016 305.865 166.06 305.721 166.06C305.577 166.06 305.469 166.016 305.397 165.928C305.325 165.84 305.289 165.724 305.289 165.58V159.448L302.685 164.44C302.573 164.672 302.409 164.788 302.193 164.788C301.985 164.788 301.821 164.672 301.701 164.44L299.085 159.508V165.58C299.085 165.724 299.045 165.84 298.965 165.928C298.893 166.016 298.785 166.06 298.641 166.06C298.497 166.06 298.385 166.016 298.305 165.928C298.225 165.84 298.185 165.724 298.185 165.58V157.984C298.185 157.832 298.229 157.712 298.317 157.624C298.405 157.528 298.525 157.48 298.677 157.48C298.877 157.48 299.037 157.596 299.157 157.828L302.205 163.672L305.217 157.828C305.281 157.7 305.349 157.612 305.421 157.564C305.501 157.508 305.593 157.48 305.697 157.48ZM316.42 165.172C316.564 165.172 316.676 165.208 316.756 165.28C316.836 165.352 316.876 165.452 316.876 165.58C316.876 165.86 316.724 166 316.42 166H311.716C311.58 166 311.468 165.96 311.38 165.88C311.292 165.792 311.248 165.688 311.248 165.568C311.248 165.416 311.304 165.284 311.416 165.172L314.308 161.992C314.708 161.544 314.996 161.144 315.172 160.792C315.356 160.432 315.448 160.072 315.448 159.712C315.448 159.248 315.312 158.892 315.04 158.644C314.776 158.396 314.4 158.272 313.912 158.272C313.528 158.272 313.16 158.344 312.808 158.488C312.456 158.624 312.104 158.836 311.752 159.124C311.632 159.22 311.52 159.268 311.416 159.268C311.328 159.268 311.252 159.228 311.188 159.148C311.124 159.06 311.092 158.956 311.092 158.836C311.092 158.668 311.156 158.532 311.284 158.428C311.612 158.124 312.012 157.884 312.484 157.708C312.956 157.532 313.44 157.444 313.936 157.444C314.696 157.444 315.3 157.644 315.748 158.044C316.204 158.444 316.432 158.984 316.432 159.664C316.432 160.152 316.32 160.62 316.096 161.068C315.88 161.516 315.52 162.016 315.016 162.568L312.616 165.172H316.42ZM322.584 161.656C323.08 161.808 323.464 162.068 323.736 162.436C324.016 162.804 324.156 163.244 324.156 163.756C324.156 164.484 323.892 165.056 323.364 165.472C322.836 165.88 322.088 166.084 321.12 166.084C320.152 166.084 319.404 165.88 318.876 165.472C318.348 165.056 318.084 164.484 318.084 163.756C318.084 163.236 318.224 162.792 318.504 162.424C318.784 162.056 319.172 161.8 319.668 161.656C319.244 161.496 318.908 161.244 318.66 160.9C318.412 160.556 318.288 160.152 318.288 159.688C318.288 159 318.536 158.456 319.032 158.056C319.536 157.648 320.232 157.444 321.12 157.444C322.008 157.444 322.7 157.648 323.196 158.056C323.7 158.456 323.952 159 323.952 159.688C323.952 160.152 323.828 160.56 323.58 160.912C323.332 161.256 323 161.504 322.584 161.656ZM319.26 159.76C319.26 160.256 319.416 160.636 319.728 160.9C320.048 161.164 320.512 161.296 321.12 161.296C321.728 161.296 322.188 161.164 322.5 160.9C322.82 160.636 322.98 160.256 322.98 159.76C322.98 159.288 322.82 158.92 322.5 158.656C322.188 158.392 321.728 158.26 321.12 158.26C320.512 158.26 320.048 158.392 319.728 158.656C319.416 158.92 319.26 159.288 319.26 159.76ZM321.12 165.268C322.496 165.268 323.184 164.744 323.184 163.696C323.184 162.648 322.496 162.124 321.12 162.124C319.744 162.124 319.056 162.648 319.056 163.696C319.056 164.744 319.744 165.268 321.12 165.268ZM336.137 165.436C336.169 165.5 336.185 165.568 336.185 165.64C336.185 165.76 336.137 165.86 336.041 165.94C335.953 166.02 335.845 166.06 335.717 166.06C335.517 166.06 335.377 165.964 335.297 165.772L334.445 163.828H329.921L329.057 165.772C328.977 165.964 328.837 166.06 328.637 166.06C328.509 166.06 328.397 166.02 328.301 165.94C328.205 165.852 328.157 165.748 328.157 165.628C328.157 165.564 328.173 165.5 328.205 165.436L331.637 157.804C331.685 157.692 331.757 157.608 331.853 157.552C331.949 157.496 332.053 157.468 332.165 157.468C332.285 157.468 332.393 157.5 332.489 157.564C332.585 157.62 332.657 157.7 332.705 157.804L336.137 165.436ZM330.281 163.012H334.085L332.177 158.704L330.281 163.012ZM340.367 160.012C340.879 160.012 341.331 160.14 341.723 160.396C342.115 160.652 342.419 161.012 342.635 161.476C342.851 161.932 342.959 162.464 342.959 163.072C342.959 163.68 342.851 164.212 342.635 164.668C342.419 165.116 342.115 165.464 341.723 165.712C341.339 165.96 340.887 166.084 340.367 166.084C339.911 166.084 339.511 165.984 339.167 165.784C338.831 165.584 338.575 165.3 338.399 164.932V167.752C338.399 167.896 338.355 168.008 338.267 168.088C338.187 168.176 338.071 168.22 337.919 168.22C337.767 168.22 337.647 168.176 337.559 168.088C337.471 168 337.427 167.888 337.427 167.752V160.516C337.427 160.372 337.471 160.256 337.559 160.168C337.647 160.08 337.767 160.036 337.919 160.036C338.071 160.036 338.187 160.08 338.267 160.168C338.355 160.256 338.399 160.372 338.399 160.516V161.164C338.575 160.796 338.831 160.512 339.167 160.312C339.511 160.112 339.911 160.012 340.367 160.012ZM340.175 165.28C340.743 165.28 341.183 165.088 341.495 164.704C341.807 164.32 341.963 163.776 341.963 163.072C341.963 162.368 341.807 161.82 341.495 161.428C341.183 161.028 340.743 160.828 340.175 160.828C339.607 160.828 339.167 161.02 338.855 161.404C338.551 161.788 338.399 162.336 338.399 163.048C338.399 163.76 338.551 164.312 338.855 164.704C339.167 165.088 339.607 165.28 340.175 165.28ZM347.304 160.036C347.64 160.012 347.808 160.148 347.808 160.444C347.808 160.572 347.772 160.676 347.7 160.756C347.628 160.828 347.504 160.872 347.328 160.888L346.968 160.924C346.432 160.972 346.032 161.164 345.768 161.5C345.512 161.828 345.384 162.216 345.384 162.664V165.58C345.384 165.74 345.34 165.86 345.252 165.94C345.164 166.02 345.048 166.06 344.904 166.06C344.76 166.06 344.64 166.02 344.544 165.94C344.456 165.852 344.412 165.732 344.412 165.58V160.516C344.412 160.364 344.46 160.248 344.556 160.168C344.652 160.08 344.768 160.036 344.904 160.036C345.032 160.036 345.14 160.08 345.228 160.168C345.316 160.248 345.36 160.36 345.36 160.504V161.176C345.528 160.824 345.764 160.556 346.068 160.372C346.38 160.188 346.736 160.08 347.136 160.048L347.304 160.036ZM356.932 165.172C357.076 165.172 357.188 165.208 357.268 165.28C357.348 165.352 357.388 165.452 357.388 165.58C357.388 165.86 357.236 166 356.932 166H352.228C352.092 166 351.98 165.96 351.892 165.88C351.804 165.792 351.76 165.688 351.76 165.568C351.76 165.416 351.816 165.284 351.928 165.172L354.82 161.992C355.22 161.544 355.508 161.144 355.684 160.792C355.868 160.432 355.96 160.072 355.96 159.712C355.96 159.248 355.824 158.892 355.552 158.644C355.288 158.396 354.912 158.272 354.424 158.272C354.04 158.272 353.672 158.344 353.32 158.488C352.968 158.624 352.616 158.836 352.264 159.124C352.144 159.22 352.032 159.268 351.928 159.268C351.84 159.268 351.764 159.228 351.7 159.148C351.636 159.06 351.604 158.956 351.604 158.836C351.604 158.668 351.668 158.532 351.796 158.428C352.124 158.124 352.524 157.884 352.996 157.708C353.468 157.532 353.952 157.444 354.448 157.444C355.208 157.444 355.812 157.644 356.26 158.044C356.716 158.444 356.944 158.984 356.944 159.664C356.944 160.152 356.832 160.62 356.608 161.068C356.392 161.516 356.032 162.016 355.528 162.568L353.128 165.172H356.932ZM361.631 166.096C360.663 166.096 359.927 165.728 359.423 164.992C358.919 164.256 358.667 163.184 358.667 161.776C358.667 160.36 358.919 159.284 359.423 158.548C359.927 157.812 360.663 157.444 361.631 157.444C362.599 157.444 363.335 157.812 363.839 158.548C364.343 159.276 364.595 160.348 364.595 161.764C364.595 163.18 364.343 164.256 363.839 164.992C363.335 165.728 362.599 166.096 361.631 166.096ZM361.631 165.268C362.303 165.268 362.799 164.984 363.119 164.416C363.439 163.848 363.599 162.964 363.599 161.764C363.599 160.556 363.439 159.672 363.119 159.112C362.807 158.552 362.311 158.272 361.631 158.272C360.959 158.272 360.463 158.556 360.143 159.124C359.823 159.684 359.663 160.564 359.663 161.764C359.663 162.964 359.823 163.848 360.143 164.416C360.463 164.984 360.959 165.268 361.631 165.268ZM371.323 165.172C371.467 165.172 371.579 165.208 371.659 165.28C371.739 165.352 371.779 165.452 371.779 165.58C371.779 165.86 371.627 166 371.323 166H366.619C366.483 166 366.371 165.96 366.283 165.88C366.195 165.792 366.151 165.688 366.151 165.568C366.151 165.416 366.207 165.284 366.319 165.172L369.211 161.992C369.611 161.544 369.899 161.144 370.075 160.792C370.259 160.432 370.351 160.072 370.351 159.712C370.351 159.248 370.215 158.892 369.943 158.644C369.679 158.396 369.303 158.272 368.815 158.272C368.431 158.272 368.063 158.344 367.711 158.488C367.359 158.624 367.007 158.836 366.655 159.124C366.535 159.22 366.423 159.268 366.319 159.268C366.231 159.268 366.155 159.228 366.091 159.148C366.027 159.06 365.995 158.956 365.995 158.836C365.995 158.668 366.059 158.532 366.187 158.428C366.515 158.124 366.915 157.884 367.387 157.708C367.859 157.532 368.343 157.444 368.839 157.444C369.599 157.444 370.203 157.644 370.651 158.044C371.107 158.444 371.335 158.984 371.335 159.664C371.335 160.152 371.223 160.62 370.999 161.068C370.783 161.516 370.423 162.016 369.919 162.568L367.519 165.172H371.323ZM376.022 166.096C375.054 166.096 374.318 165.728 373.814 164.992C373.31 164.256 373.058 163.184 373.058 161.776C373.058 160.36 373.31 159.284 373.814 158.548C374.318 157.812 375.054 157.444 376.022 157.444C376.99 157.444 377.726 157.812 378.23 158.548C378.734 159.276 378.986 160.348 378.986 161.764C378.986 163.18 378.734 164.256 378.23 164.992C377.726 165.728 376.99 166.096 376.022 166.096ZM376.022 165.268C376.694 165.268 377.19 164.984 377.51 164.416C377.83 163.848 377.99 162.964 377.99 161.764C377.99 160.556 377.83 159.672 377.51 159.112C377.198 158.552 376.702 158.272 376.022 158.272C375.35 158.272 374.854 158.556 374.534 159.124C374.214 159.684 374.054 160.564 374.054 161.764C374.054 162.964 374.214 163.848 374.534 164.416C374.854 164.984 375.35 165.268 376.022 165.268Z" fill="#234CAD"/>
<path d="M263.208 144C262.899 144 262.653 143.915 262.472 143.744C262.301 143.573 262.216 143.333 262.216 143.024V133.696C262.216 133.387 262.301 133.147 262.472 132.976C262.653 132.805 262.899 132.72 263.208 132.72H266.376C268.221 132.72 269.651 133.216 270.664 134.208C271.688 135.189 272.2 136.571 272.2 138.352C272.2 140.144 271.688 141.536 270.664 142.528C269.651 143.509 268.221 144 266.376 144H263.208ZM266.248 142.32C268.84 142.32 270.136 140.997 270.136 138.352C270.136 135.717 268.84 134.4 266.248 134.4H264.28V142.32H266.248ZM277.495 135.984C278.583 135.984 279.388 136.256 279.911 136.8C280.444 137.333 280.711 138.149 280.711 139.248V143.152C280.711 143.44 280.625 143.669 280.455 143.84C280.284 144 280.049 144.08 279.751 144.08C279.473 144.08 279.244 143.995 279.063 143.824C278.892 143.653 278.807 143.429 278.807 143.152V142.8C278.625 143.216 278.337 143.541 277.943 143.776C277.559 144.011 277.111 144.128 276.599 144.128C276.076 144.128 275.601 144.021 275.174 143.808C274.748 143.595 274.412 143.301 274.167 142.928C273.921 142.555 273.799 142.139 273.799 141.68C273.799 141.104 273.943 140.651 274.231 140.32C274.529 139.989 275.009 139.749 275.671 139.6C276.332 139.451 277.244 139.376 278.407 139.376H278.807V139.008C278.807 138.485 278.695 138.107 278.471 137.872C278.247 137.627 277.884 137.504 277.383 137.504C277.073 137.504 276.759 137.552 276.439 137.648C276.119 137.733 275.74 137.861 275.303 138.032C275.025 138.171 274.823 138.24 274.695 138.24C274.503 138.24 274.343 138.171 274.215 138.032C274.097 137.893 274.039 137.712 274.039 137.488C274.039 137.307 274.081 137.152 274.167 137.024C274.263 136.885 274.417 136.757 274.631 136.64C275.004 136.437 275.447 136.277 275.959 136.16C276.481 136.043 276.993 135.984 277.495 135.984ZM276.999 142.688C277.532 142.688 277.964 142.512 278.295 142.16C278.636 141.797 278.807 141.333 278.807 140.768V140.432H278.519C277.804 140.432 277.249 140.464 276.855 140.528C276.46 140.592 276.177 140.704 276.007 140.864C275.836 141.024 275.751 141.243 275.751 141.52C275.751 141.861 275.868 142.144 276.103 142.368C276.348 142.581 276.647 142.688 276.999 142.688ZM283.735 144.096C283.447 144.096 283.207 144.016 283.015 143.856C282.834 143.685 282.743 143.445 282.743 143.136V136.96C282.743 136.651 282.834 136.416 283.015 136.256C283.207 136.096 283.447 136.016 283.735 136.016C284.023 136.016 284.263 136.096 284.455 136.256C284.647 136.416 284.743 136.651 284.743 136.96V143.136C284.743 143.445 284.647 143.685 284.455 143.856C284.263 144.016 284.023 144.096 283.735 144.096ZM283.735 134.592C283.372 134.592 283.084 134.496 282.871 134.304C282.658 134.101 282.551 133.84 282.551 133.52C282.551 133.2 282.658 132.944 282.871 132.752C283.084 132.56 283.372 132.464 283.735 132.464C284.087 132.464 284.37 132.56 284.583 132.752C284.807 132.944 284.919 133.2 284.919 133.52C284.919 133.84 284.812 134.101 284.599 134.304C284.386 134.496 284.098 134.592 283.735 134.592ZM287.798 144.096C287.51 144.096 287.27 144.016 287.078 143.856C286.896 143.685 286.806 143.445 286.806 143.136V133.584C286.806 133.275 286.896 133.04 287.078 132.88C287.27 132.72 287.51 132.64 287.798 132.64C288.086 132.64 288.326 132.72 288.518 132.88C288.71 133.04 288.806 133.275 288.806 133.584V143.136C288.806 143.445 288.71 143.685 288.518 143.856C288.326 144.016 288.086 144.096 287.798 144.096ZM296.324 136.592C296.409 136.4 296.521 136.261 296.66 136.176C296.809 136.08 296.969 136.032 297.14 136.032C297.385 136.032 297.604 136.117 297.796 136.288C297.999 136.448 298.1 136.651 298.1 136.896C298.1 137.013 298.068 137.136 298.004 137.264L293.636 146.416C293.455 146.779 293.172 146.96 292.788 146.96C292.543 146.96 292.324 146.88 292.132 146.72C291.951 146.571 291.86 146.379 291.86 146.144C291.86 146.027 291.892 145.893 291.956 145.744L293.044 143.456L290.068 137.264C290.015 137.157 289.988 137.035 289.988 136.896C289.988 136.651 290.089 136.443 290.292 136.272C290.505 136.101 290.745 136.016 291.012 136.016C291.193 136.016 291.359 136.064 291.508 136.16C291.657 136.245 291.775 136.384 291.86 136.576L294.1 141.52L296.324 136.592ZM304.802 144C304.492 144 304.247 143.915 304.066 143.744C303.895 143.573 303.81 143.333 303.81 143.024V133.696C303.81 133.387 303.895 133.147 304.066 132.976C304.247 132.805 304.492 132.72 304.802 132.72H310.578C310.887 132.72 311.127 132.789 311.298 132.928C311.468 133.067 311.554 133.264 311.554 133.52C311.554 133.787 311.468 133.995 311.298 134.144C311.127 134.283 310.887 134.352 310.578 134.352H305.826V137.456H310.258C310.567 137.456 310.807 137.525 310.978 137.664C311.148 137.803 311.234 138.005 311.234 138.272C311.234 138.528 311.148 138.725 310.978 138.864C310.807 139.003 310.567 139.072 310.258 139.072H305.826V142.368H310.578C310.887 142.368 311.127 142.443 311.298 142.592C311.468 142.731 311.554 142.933 311.554 143.2C311.554 143.456 311.468 143.653 311.298 143.792C311.127 143.931 310.887 144 310.578 144H304.802ZM322.352 135.984C323.205 135.984 323.856 136.24 324.304 136.752C324.762 137.253 324.992 138.069 324.992 139.2V143.136C324.992 143.445 324.896 143.685 324.704 143.856C324.522 144.016 324.282 144.096 323.984 144.096C323.696 144.096 323.456 144.016 323.264 143.856C323.082 143.685 322.992 143.445 322.992 143.136V139.2C322.992 138.613 322.885 138.197 322.672 137.952C322.469 137.696 322.154 137.568 321.728 137.568C321.205 137.568 320.789 137.749 320.48 138.112C320.17 138.464 320.016 138.949 320.016 139.568V143.136C320.016 143.445 319.92 143.685 319.728 143.856C319.546 144.016 319.312 144.096 319.024 144.096C318.736 144.096 318.496 144.016 318.304 143.856C318.112 143.685 318.016 143.445 318.016 143.136V139.2C318.016 138.613 317.909 138.197 317.696 137.952C317.493 137.696 317.178 137.568 316.752 137.568C316.229 137.568 315.813 137.749 315.504 138.112C315.205 138.464 315.056 138.949 315.056 139.568V143.136C315.056 143.445 314.96 143.685 314.768 143.856C314.576 144.016 314.336 144.096 314.048 144.096C313.76 144.096 313.52 144.016 313.328 143.856C313.146 143.685 313.056 143.445 313.056 143.136V136.944C313.056 136.645 313.152 136.416 313.344 136.256C313.536 136.096 313.776 136.016 314.064 136.016C314.341 136.016 314.565 136.096 314.736 136.256C314.917 136.405 315.008 136.624 315.008 136.912V137.296C315.253 136.869 315.578 136.544 315.984 136.32C316.4 136.096 316.874 135.984 317.408 135.984C318.581 135.984 319.365 136.475 319.76 137.456C319.994 137.008 320.341 136.651 320.8 136.384C321.258 136.117 321.776 135.984 322.352 135.984ZM330.416 135.984C331.504 135.984 332.31 136.256 332.832 136.8C333.366 137.333 333.632 138.149 333.632 139.248V143.152C333.632 143.44 333.547 143.669 333.376 143.84C333.206 144 332.971 144.08 332.672 144.08C332.395 144.08 332.166 143.995 331.984 143.824C331.814 143.653 331.728 143.429 331.728 143.152V142.8C331.547 143.216 331.259 143.541 330.864 143.776C330.48 144.011 330.032 144.128 329.52 144.128C328.998 144.128 328.523 144.021 328.096 143.808C327.67 143.595 327.334 143.301 327.088 142.928C326.843 142.555 326.72 142.139 326.72 141.68C326.72 141.104 326.864 140.651 327.152 140.32C327.451 139.989 327.931 139.749 328.592 139.6C329.254 139.451 330.166 139.376 331.328 139.376H331.728V139.008C331.728 138.485 331.616 138.107 331.392 137.872C331.168 137.627 330.806 137.504 330.304 137.504C329.995 137.504 329.68 137.552 329.36 137.648C329.04 137.733 328.662 137.861 328.224 138.032C327.947 138.171 327.744 138.24 327.616 138.24C327.424 138.24 327.264 138.171 327.136 138.032C327.019 137.893 326.96 137.712 326.96 137.488C326.96 137.307 327.003 137.152 327.088 137.024C327.184 136.885 327.339 136.757 327.552 136.64C327.926 136.437 328.368 136.277 328.88 136.16C329.403 136.043 329.915 135.984 330.416 135.984ZM329.92 142.688C330.454 142.688 330.886 142.512 331.216 142.16C331.558 141.797 331.728 141.333 331.728 140.768V140.432H331.44C330.726 140.432 330.171 140.464 329.776 140.528C329.382 140.592 329.099 140.704 328.928 140.864C328.758 141.024 328.672 141.243 328.672 141.52C328.672 141.861 328.79 142.144 329.024 142.368C329.27 142.581 329.568 142.688 329.92 142.688ZM336.657 144.096C336.369 144.096 336.129 144.016 335.937 143.856C335.756 143.685 335.665 143.445 335.665 143.136V136.96C335.665 136.651 335.756 136.416 335.937 136.256C336.129 136.096 336.369 136.016 336.657 136.016C336.945 136.016 337.185 136.096 337.377 136.256C337.569 136.416 337.665 136.651 337.665 136.96V143.136C337.665 143.445 337.569 143.685 337.377 143.856C337.185 144.016 336.945 144.096 336.657 144.096ZM336.657 134.592C336.294 134.592 336.006 134.496 335.793 134.304C335.58 134.101 335.473 133.84 335.473 133.52C335.473 133.2 335.58 132.944 335.793 132.752C336.006 132.56 336.294 132.464 336.657 132.464C337.009 132.464 337.292 132.56 337.505 132.752C337.729 132.944 337.841 133.2 337.841 133.52C337.841 133.84 337.734 134.101 337.521 134.304C337.308 134.496 337.02 134.592 336.657 134.592ZM340.72 144.096C340.432 144.096 340.192 144.016 340 143.856C339.818 143.685 339.728 143.445 339.728 143.136V133.584C339.728 133.275 339.818 133.04 340 132.88C340.192 132.72 340.432 132.64 340.72 132.64C341.008 132.64 341.248 132.72 341.44 132.88C341.632 133.04 341.728 133.275 341.728 133.584V143.136C341.728 143.445 341.632 143.685 341.44 143.856C341.248 144.016 341.008 144.096 340.72 144.096ZM346.622 144.128C345.459 144.128 344.521 143.899 343.806 143.44C343.465 143.237 343.294 142.949 343.294 142.576C343.294 142.363 343.353 142.192 343.47 142.064C343.587 141.925 343.731 141.856 343.902 141.856C344.083 141.856 344.334 141.941 344.654 142.112C344.995 142.272 345.305 142.395 345.582 142.48C345.87 142.565 346.233 142.608 346.67 142.608C347.118 142.608 347.465 142.533 347.71 142.384C347.966 142.235 348.094 142.027 348.094 141.76C348.094 141.579 348.041 141.435 347.934 141.328C347.838 141.221 347.657 141.125 347.39 141.04C347.134 140.944 346.739 140.837 346.206 140.72C345.257 140.528 344.574 140.256 344.158 139.904C343.753 139.552 343.55 139.067 343.55 138.448C343.55 137.979 343.689 137.557 343.966 137.184C344.243 136.8 344.622 136.507 345.102 136.304C345.593 136.091 346.147 135.984 346.766 135.984C347.214 135.984 347.646 136.043 348.062 136.16C348.478 136.267 348.851 136.427 349.182 136.64C349.523 136.853 349.694 137.136 349.694 137.488C349.694 137.701 349.635 137.883 349.518 138.032C349.401 138.171 349.257 138.24 349.086 138.24C348.969 138.24 348.851 138.219 348.734 138.176C348.627 138.123 348.489 138.048 348.318 137.952C348.009 137.792 347.742 137.675 347.518 137.6C347.294 137.515 347.017 137.472 346.686 137.472C346.291 137.472 345.977 137.552 345.742 137.712C345.518 137.872 345.406 138.091 345.406 138.368C345.406 138.635 345.523 138.837 345.758 138.976C345.993 139.115 346.446 139.253 347.118 139.392C347.833 139.541 348.393 139.712 348.798 139.904C349.203 140.096 349.491 140.336 349.662 140.624C349.843 140.912 349.934 141.28 349.934 141.728C349.934 142.453 349.63 143.035 349.022 143.472C348.425 143.909 347.625 144.128 346.622 144.128Z" fill="#234CAD"/>
</g>
<circle cx="211" cy="150" r="29" stroke="#234CAD" stroke-width="2"/>
<path d="M203.333 143.333C203.333 143.886 203.781 144.333 204.333 144.333C204.886 144.333 205.333 143.886 205.333 143.333H203.333ZM205.333 140C205.333 139.448 204.886 139 204.333 139C203.781 139 203.333 139.448 203.333 140H205.333ZM207.778 143.333C207.778 143.886 208.225 144.333 208.778 144.333C209.33 144.333 209.778 143.886 209.778 143.333H207.778ZM209.778 140C209.778 139.448 209.33 139 208.778 139C208.225 139 207.778 139.448 207.778 140H209.778ZM212.222 143.333C212.222 143.886 212.67 144.333 213.222 144.333C213.775 144.333 214.222 143.886 214.222 143.333H212.222ZM214.222 140C214.222 139.448 213.775 139 213.222 139C212.67 139 212.222 139.448 212.222 140H214.222ZM216.667 143.333C216.667 143.886 217.114 144.333 217.667 144.333C218.219 144.333 218.667 143.886 218.667 143.333H216.667ZM218.667 140C218.667 139.448 218.219 139 217.667 139C217.114 139 216.667 139.448 216.667 140H218.667ZM221 148.778C221.552 148.778 222 148.33 222 147.778C222 147.225 221.552 146.778 221 146.778V148.778ZM201 146.778C200.448 146.778 200 147.225 200 147.778C200 148.33 200.448 148.778 201 148.778V146.778ZM205.333 143.333V140H203.333V143.333H205.333ZM209.778 143.333V140H207.778V143.333H209.778ZM214.222 143.333V140H212.222V143.333H214.222ZM218.667 143.333V140H216.667V143.333H218.667ZM221 146.778H201V148.778H221V146.778ZM203.222 161H218.778V159H203.222V161ZM218.778 161C220.557 161 222 159.557 222 157.778H220C220 158.453 219.453 159 218.778 159V161ZM222 157.778V144.444H220V157.778H222ZM222 144.444C222 142.665 220.557 141.222 218.778 141.222V143.222C219.453 143.222 220 143.769 220 144.444H222ZM218.778 141.222H203.222V143.222H218.778V141.222ZM203.222 141.222C201.443 141.222 200 142.665 200 144.444H202C202 143.769 202.547 143.222 203.222 143.222V141.222ZM200 144.444V157.778H202V144.444H200ZM200 157.778C200 159.557 201.443 161 203.222 161V159C202.547 159 202 158.453 202 157.778H200Z" fill="#234CAD"/>
<defs>
<filter id="filter0_f_12263_305" x="0.085907" y="-35.9141" width="597.828" height="481.828" filterUnits="userSpaceOnUse" color-interpolation-filters="sRGB">
<feFlood flood-opacity="0" result="BackgroundImageFix"/>
<feBlend mode="normal" in="SourceGraphic" in2="BackgroundImageFix" result="shape"/>
<feGaussianBlur stdDeviation="67.957" result="effect1_foregroundBlur_12263_305"/>
</filter>
<linearGradient id="paint0_linear_12263_305" x1="382.875" y1="386.855" x2="515.77" y2="87.2761" gradientUnits="userSpaceOnUse">
<stop stop-color="#234CAD"/>
<stop offset="1" stop-color="#234CAD" stop-opacity="0.5"/>
</linearGradient>
<clipPath id="clip0_12263_305">
<rect width="40" height="40" fill="white" transform="translate(241 200)"/>
</clipPath>
<clipPath id="clip1_12263_305">
<rect width="40" height="40" fill="white" transform="translate(211 200)"/>
</clipPath>
<clipPath id="clip2_12263_305">
<rect width="40" height="40" fill="white" transform="translate(181 200)"/>
</clipPath>
<clipPath id="clip3_12263_305">
<rect width="119" height="45" fill="white" transform="translate(261 128)"/>
</clipPath>
</defs>
</svg>
