<svg width="537" height="446" viewBox="0 0 537 446" fill="none" xmlns="http://www.w3.org/2000/svg">
<g opacity="0.1" filter="url(#filter0_f_12263_332)">
<rect x="75" y="100" width="326" height="210" rx="25" fill="url(#paint0_linear_12263_332)"/>
</g>
<rect x="100" y="100" width="276" height="160" rx="25" fill="white"/>
<g clip-path="url(#clip0_12263_332)">
<circle cx="230" cy="220" r="19" fill="#F2F6FF" stroke="white" stroke-width="2"/>
<path d="M226 219.7C226.127 219.7 226.23 219.743 226.31 219.83C226.397 219.91 226.44 220.013 226.44 220.14C226.44 220.267 226.397 220.373 226.31 220.46C226.23 220.54 226.127 220.58 226 220.58H224.44V222.13C224.44 222.257 224.397 222.363 224.31 222.45C224.23 222.537 224.127 222.58 224 222.58C223.873 222.58 223.767 222.537 223.68 222.45C223.6 222.363 223.56 222.257 223.56 222.13V220.58H222C221.873 220.58 221.767 220.54 221.68 220.46C221.6 220.373 221.56 220.267 221.56 220.14C221.56 220.013 221.6 219.91 221.68 219.83C221.767 219.743 221.873 219.7 222 219.7H223.56V218.14C223.56 218.013 223.6 217.91 223.68 217.83C223.767 217.743 223.873 217.7 224 217.7C224.127 217.7 224.23 217.743 224.31 217.83C224.397 217.91 224.44 218.013 224.44 218.14V219.7H226ZM231.976 221.96C232.376 221.96 232.576 222.13 232.576 222.47C232.576 222.823 232.376 223 231.976 223H228.176C228.003 223 227.866 222.95 227.766 222.85C227.666 222.743 227.616 222.613 227.616 222.46C227.616 222.26 227.693 222.08 227.846 221.92L230.126 219.47C230.406 219.163 230.609 218.883 230.736 218.63C230.869 218.37 230.936 218.113 230.936 217.86C230.936 217.547 230.846 217.307 230.666 217.14C230.486 216.973 230.229 216.89 229.896 216.89C229.623 216.89 229.356 216.943 229.096 217.05C228.843 217.15 228.586 217.29 228.326 217.47C228.259 217.517 228.193 217.557 228.126 217.59C228.059 217.617 227.993 217.63 227.926 217.63C227.813 217.63 227.713 217.577 227.626 217.47C227.546 217.363 227.506 217.237 227.506 217.09C227.506 216.99 227.523 216.903 227.556 216.83C227.596 216.757 227.656 216.687 227.736 216.62C228.029 216.387 228.373 216.203 228.766 216.07C229.159 215.93 229.553 215.86 229.946 215.86C230.633 215.86 231.179 216.033 231.586 216.38C231.999 216.727 232.206 217.193 232.206 217.78C232.206 218.187 232.119 218.57 231.946 218.93C231.773 219.283 231.479 219.68 231.066 220.12L229.336 221.96H231.976ZM235.772 215.86C236.665 215.86 237.352 216.163 237.832 216.77C238.319 217.37 238.562 218.23 238.562 219.35C238.562 220.117 238.449 220.783 238.222 221.35C237.995 221.91 237.669 222.34 237.242 222.64C236.822 222.94 236.325 223.09 235.752 223.09C235.372 223.09 234.989 223.023 234.602 222.89C234.222 222.75 233.899 222.563 233.632 222.33C233.545 222.257 233.482 222.187 233.442 222.12C233.409 222.047 233.392 221.96 233.392 221.86C233.392 221.713 233.432 221.59 233.512 221.49C233.599 221.383 233.699 221.33 233.812 221.33C233.879 221.33 233.942 221.343 234.002 221.37C234.062 221.39 234.135 221.427 234.222 221.48C234.775 221.867 235.269 222.06 235.702 222.06C236.189 222.06 236.572 221.837 236.852 221.39C237.132 220.937 237.279 220.303 237.292 219.49C237.139 219.79 236.909 220.03 236.602 220.21C236.295 220.383 235.952 220.47 235.572 220.47C235.152 220.47 234.779 220.377 234.452 220.19C234.125 219.997 233.869 219.73 233.682 219.39C233.502 219.043 233.412 218.65 233.412 218.21C233.412 217.757 233.512 217.353 233.712 217C233.919 216.64 234.199 216.36 234.552 216.16C234.912 215.96 235.319 215.86 235.772 215.86ZM235.842 219.45C236.215 219.45 236.515 219.333 236.742 219.1C236.975 218.86 237.092 218.55 237.092 218.17C237.092 217.783 236.975 217.473 236.742 217.24C236.515 217 236.215 216.88 235.842 216.88C235.475 216.88 235.182 217 234.962 217.24C234.742 217.473 234.632 217.783 234.632 218.17C234.632 218.557 234.742 218.867 234.962 219.1C235.182 219.333 235.475 219.45 235.842 219.45Z" fill="#234CAD"/>
</g>
<g clip-path="url(#clip1_12263_332)">
<circle cx="200" cy="220" r="19" fill="#F2F6FF" stroke="white" stroke-width="2"/>
<path d="M202.15 222.23C202.19 222.317 202.21 222.403 202.21 222.49C202.21 222.643 202.147 222.773 202.02 222.88C201.9 222.987 201.76 223.04 201.6 223.04C201.493 223.04 201.393 223.013 201.3 222.96C201.207 222.9 201.133 222.81 201.08 222.69L200.48 221.35H196.96L196.36 222.69C196.307 222.81 196.233 222.9 196.14 222.96C196.047 223.013 195.943 223.04 195.83 223.04C195.677 223.04 195.537 222.987 195.41 222.88C195.283 222.773 195.22 222.643 195.22 222.49C195.22 222.403 195.24 222.317 195.28 222.23L198.04 216.3C198.1 216.167 198.19 216.067 198.31 216C198.437 215.927 198.57 215.89 198.71 215.89C198.85 215.89 198.98 215.927 199.1 216C199.227 216.067 199.32 216.167 199.38 216.3L202.15 222.23ZM197.4 220.35H200.04L198.72 217.38L197.4 220.35ZM203.822 223.06C203.629 223.06 203.472 223 203.352 222.88C203.239 222.76 203.182 222.603 203.182 222.41V216.54C203.182 216.347 203.239 216.193 203.352 216.08C203.472 215.96 203.629 215.9 203.822 215.9C204.022 215.9 204.179 215.96 204.292 216.08C204.412 216.193 204.472 216.347 204.472 216.54V222.41C204.472 222.603 204.412 222.76 204.292 222.88C204.179 223 204.022 223.06 203.822 223.06Z" fill="#234CAD"/>
</g>
<g clip-path="url(#clip2_12263_332)">
<circle cx="170" cy="220" r="19" fill="#F2F6FF" stroke="white" stroke-width="2"/>
<path d="M169.02 215.9C169.207 215.9 169.357 215.96 169.47 216.08C169.583 216.193 169.64 216.347 169.64 216.54V222.46C169.64 222.647 169.587 222.793 169.48 222.9C169.373 223.007 169.233 223.06 169.06 223.06C168.887 223.06 168.75 223.007 168.65 222.9C168.55 222.793 168.5 222.647 168.5 222.46V218.34L166.8 221.56C166.72 221.707 166.633 221.817 166.54 221.89C166.447 221.957 166.337 221.99 166.21 221.99C166.083 221.99 165.973 221.957 165.88 221.89C165.787 221.823 165.7 221.713 165.62 221.56L163.91 218.39V222.46C163.91 222.64 163.857 222.787 163.75 222.9C163.65 223.007 163.513 223.06 163.34 223.06C163.167 223.06 163.03 223.007 162.93 222.9C162.83 222.793 162.78 222.647 162.78 222.46V216.54C162.78 216.347 162.833 216.193 162.94 216.08C163.053 215.96 163.203 215.9 163.39 215.9C163.65 215.9 163.853 216.043 164 216.33L166.22 220.56L168.43 216.33C168.577 216.043 168.773 215.9 169.02 215.9ZM176.538 219.19C176.692 219.19 176.815 219.237 176.908 219.33C177.002 219.417 177.048 219.533 177.048 219.68V221.83C177.048 222.137 177.008 222.353 176.928 222.48C176.848 222.607 176.685 222.71 176.438 222.79C176.172 222.883 175.862 222.957 175.508 223.01C175.155 223.063 174.815 223.09 174.488 223.09C173.762 223.09 173.132 222.947 172.598 222.66C172.065 222.373 171.655 221.96 171.368 221.42C171.088 220.873 170.948 220.223 170.948 219.47C170.948 218.73 171.088 218.09 171.368 217.55C171.655 217.003 172.058 216.587 172.578 216.3C173.098 216.007 173.712 215.86 174.418 215.86C175.358 215.86 176.128 216.113 176.728 216.62C176.808 216.693 176.865 216.767 176.898 216.84C176.938 216.913 176.958 217 176.958 217.1C176.958 217.247 176.918 217.37 176.838 217.47C176.758 217.57 176.662 217.62 176.548 217.62C176.475 217.62 176.408 217.61 176.348 217.59C176.288 217.563 176.218 217.523 176.138 217.47C175.845 217.263 175.572 217.12 175.318 217.04C175.065 216.953 174.778 216.91 174.458 216.91C173.732 216.91 173.182 217.127 172.808 217.56C172.442 217.987 172.258 218.623 172.258 219.47C172.258 221.203 173.018 222.07 174.538 222.07C174.992 222.07 175.445 222.007 175.898 221.88V220.11H174.768C174.608 220.11 174.482 220.07 174.388 219.99C174.302 219.91 174.258 219.797 174.258 219.65C174.258 219.503 174.302 219.39 174.388 219.31C174.482 219.23 174.608 219.19 174.768 219.19H176.538Z" fill="#234CAD"/>
</g>
<g clip-path="url(#clip3_12263_332)">
<circle cx="140" cy="220" r="19" fill="#F2F6FF" stroke="white" stroke-width="2"/>
<path d="M139.23 222.03C139.363 222.157 139.43 222.3 139.43 222.46C139.43 222.613 139.37 222.75 139.25 222.87C139.137 222.983 139 223.04 138.84 223.04C138.673 223.04 138.52 222.97 138.38 222.83L135.05 219.71V222.41C135.05 222.603 134.99 222.76 134.87 222.88C134.757 223 134.6 223.06 134.4 223.06C134.207 223.06 134.05 223 133.93 222.88C133.817 222.76 133.76 222.603 133.76 222.41V216.54C133.76 216.347 133.817 216.193 133.93 216.08C134.05 215.96 134.207 215.9 134.4 215.9C134.6 215.9 134.757 215.96 134.87 216.08C134.99 216.193 135.05 216.347 135.05 216.54V219.11L138.27 216.09C138.39 215.97 138.527 215.91 138.68 215.91C138.833 215.91 138.967 215.97 139.08 216.09C139.2 216.203 139.26 216.337 139.26 216.49C139.26 216.643 139.193 216.783 139.06 216.91L136.37 219.37L139.23 222.03ZM143.174 223.09C142.207 223.09 141.474 222.84 140.974 222.34C140.474 221.84 140.224 221.11 140.224 220.15V216.54C140.224 216.347 140.281 216.193 140.394 216.08C140.507 215.96 140.661 215.9 140.854 215.9C141.047 215.9 141.201 215.96 141.314 216.08C141.427 216.193 141.484 216.347 141.484 216.54V220.22C141.484 220.827 141.627 221.287 141.914 221.6C142.201 221.907 142.621 222.06 143.174 222.06C143.721 222.06 144.137 221.903 144.424 221.59C144.711 221.277 144.854 220.82 144.854 220.22V216.54C144.854 216.347 144.911 216.193 145.024 216.08C145.137 215.96 145.291 215.9 145.484 215.9C145.677 215.9 145.831 215.96 145.944 216.08C146.057 216.193 146.114 216.347 146.114 216.54V220.15C146.114 221.103 145.864 221.833 145.364 222.34C144.864 222.84 144.134 223.09 143.174 223.09Z" fill="#234CAD"/>
</g>
<g clip-path="url(#clip4_12263_332)">
<path d="M206.096 165.172C206.24 165.172 206.352 165.208 206.432 165.28C206.512 165.352 206.552 165.452 206.552 165.58C206.552 165.86 206.4 166 206.096 166H201.392C201.256 166 201.144 165.96 201.056 165.88C200.968 165.792 200.924 165.688 200.924 165.568C200.924 165.416 200.98 165.284 201.092 165.172L203.984 161.992C204.384 161.544 204.672 161.144 204.848 160.792C205.032 160.432 205.124 160.072 205.124 159.712C205.124 159.248 204.988 158.892 204.716 158.644C204.452 158.396 204.076 158.272 203.588 158.272C203.204 158.272 202.836 158.344 202.484 158.488C202.132 158.624 201.78 158.836 201.428 159.124C201.308 159.22 201.196 159.268 201.092 159.268C201.004 159.268 200.928 159.228 200.864 159.148C200.8 159.06 200.768 158.956 200.768 158.836C200.768 158.668 200.832 158.532 200.96 158.428C201.288 158.124 201.688 157.884 202.16 157.708C202.632 157.532 203.116 157.444 203.612 157.444C204.372 157.444 204.976 157.644 205.424 158.044C205.88 158.444 206.108 158.984 206.108 159.664C206.108 160.152 205.996 160.62 205.772 161.068C205.556 161.516 205.196 162.016 204.692 162.568L202.292 165.172H206.096ZM208.575 161.38C208.383 161.38 208.223 161.32 208.095 161.2C207.967 161.072 207.903 160.908 207.903 160.708C207.903 160.508 207.967 160.348 208.095 160.228C208.223 160.1 208.383 160.036 208.575 160.036C208.759 160.036 208.911 160.1 209.031 160.228C209.159 160.348 209.223 160.508 209.223 160.708C209.223 160.908 209.159 161.072 209.031 161.2C208.911 161.32 208.759 161.38 208.575 161.38ZM208.575 166.06C208.383 166.06 208.223 166 208.095 165.88C207.967 165.752 207.903 165.588 207.903 165.388C207.903 165.188 207.967 165.024 208.095 164.896C208.223 164.768 208.383 164.704 208.575 164.704C208.759 164.704 208.911 164.768 209.031 164.896C209.159 165.024 209.223 165.188 209.223 165.388C209.223 165.588 209.159 165.752 209.031 165.88C208.911 166 208.759 166.06 208.575 166.06ZM214.666 161.656C215.178 161.8 215.566 162.048 215.83 162.4C216.102 162.752 216.238 163.188 216.238 163.708C216.238 164.444 215.99 165.024 215.494 165.448C214.998 165.872 214.322 166.084 213.465 166.084C212.946 166.084 212.446 165.996 211.966 165.82C211.494 165.644 211.094 165.404 210.766 165.1C210.638 164.98 210.574 164.844 210.574 164.692C210.574 164.572 210.606 164.472 210.67 164.392C210.734 164.312 210.81 164.272 210.898 164.272C211.01 164.272 211.122 164.316 211.234 164.404C211.602 164.7 211.962 164.916 212.314 165.052C212.666 165.188 213.046 165.256 213.454 165.256C214.046 165.256 214.494 165.12 214.798 164.848C215.11 164.576 215.266 164.184 215.266 163.672C215.266 162.64 214.618 162.124 213.322 162.124H212.686C212.558 162.124 212.454 162.084 212.374 162.004C212.302 161.916 212.266 161.816 212.266 161.704C212.266 161.592 212.302 161.496 212.374 161.416C212.454 161.336 212.558 161.296 212.686 161.296H213.13C213.754 161.296 214.234 161.16 214.57 160.888C214.906 160.608 215.074 160.208 215.074 159.688C215.074 159.232 214.938 158.884 214.666 158.644C214.394 158.396 214.01 158.272 213.514 158.272C213.138 158.272 212.774 158.344 212.422 158.488C212.07 158.624 211.718 158.836 211.366 159.124C211.254 159.212 211.142 159.256 211.03 159.256C210.942 159.256 210.866 159.216 210.802 159.136C210.738 159.056 210.706 158.956 210.706 158.836C210.706 158.684 210.77 158.548 210.898 158.428C211.226 158.124 211.622 157.884 212.086 157.708C212.558 157.532 213.042 157.444 213.538 157.444C214.306 157.444 214.918 157.64 215.374 158.032C215.83 158.424 216.054 158.952 216.046 159.616C216.038 160.096 215.91 160.516 215.662 160.876C215.422 161.236 215.09 161.496 214.666 161.656ZM220.733 166.096C219.765 166.096 219.029 165.728 218.525 164.992C218.021 164.256 217.769 163.184 217.769 161.776C217.769 160.36 218.021 159.284 218.525 158.548C219.029 157.812 219.765 157.444 220.733 157.444C221.701 157.444 222.437 157.812 222.941 158.548C223.445 159.276 223.697 160.348 223.697 161.764C223.697 163.18 223.445 164.256 222.941 164.992C222.437 165.728 221.701 166.096 220.733 166.096ZM220.733 165.268C221.405 165.268 221.901 164.984 222.221 164.416C222.541 163.848 222.701 162.964 222.701 161.764C222.701 160.556 222.541 159.672 222.221 159.112C221.909 158.552 221.413 158.272 220.733 158.272C220.061 158.272 219.565 158.556 219.245 159.124C218.925 159.684 218.765 160.564 218.765 161.764C218.765 162.964 218.925 163.848 219.245 164.416C219.565 164.984 220.061 165.268 220.733 165.268ZM228.958 166.06C228.806 166.06 228.686 166.016 228.598 165.928C228.51 165.832 228.466 165.708 228.466 165.556V158.02C228.466 157.876 228.51 157.76 228.598 157.672C228.694 157.584 228.818 157.54 228.97 157.54H231.814C232.702 157.54 233.39 157.756 233.878 158.188C234.374 158.62 234.622 159.232 234.622 160.024C234.622 160.816 234.374 161.432 233.878 161.872C233.382 162.312 232.694 162.532 231.814 162.532H229.45V165.556C229.45 165.708 229.406 165.832 229.318 165.928C229.23 166.016 229.11 166.06 228.958 166.06ZM231.718 161.716C233.006 161.716 233.65 161.152 233.65 160.024C233.65 158.912 233.006 158.356 231.718 158.356H229.45V161.716H231.718ZM243.712 157.48C243.864 157.48 243.98 157.528 244.06 157.624C244.148 157.712 244.192 157.832 244.192 157.984V165.58C244.192 165.724 244.152 165.84 244.072 165.928C243.992 166.016 243.88 166.06 243.736 166.06C243.592 166.06 243.484 166.016 243.412 165.928C243.34 165.84 243.304 165.724 243.304 165.58V159.448L240.7 164.44C240.588 164.672 240.424 164.788 240.208 164.788C240 164.788 239.836 164.672 239.716 164.44L237.1 159.508V165.58C237.1 165.724 237.06 165.84 236.98 165.928C236.908 166.016 236.8 166.06 236.656 166.06C236.512 166.06 236.4 166.016 236.32 165.928C236.24 165.84 236.2 165.724 236.2 165.58V157.984C236.2 157.832 236.244 157.712 236.332 157.624C236.42 157.528 236.54 157.48 236.692 157.48C236.892 157.48 237.052 157.596 237.172 157.828L240.22 163.672L243.232 157.828C243.296 157.7 243.364 157.612 243.436 157.564C243.516 157.508 243.608 157.48 243.712 157.48ZM254.244 165.172C254.388 165.172 254.5 165.208 254.58 165.28C254.66 165.352 254.7 165.452 254.7 165.58C254.7 165.716 254.66 165.82 254.58 165.892C254.508 165.964 254.396 166 254.244 166H250.272C250.12 166 250.004 165.964 249.924 165.892C249.852 165.82 249.816 165.716 249.816 165.58C249.816 165.452 249.856 165.352 249.936 165.28C250.016 165.208 250.128 165.172 250.272 165.172H251.76V158.74L250.452 159.592C250.388 159.632 250.324 159.652 250.26 159.652C250.148 159.652 250.048 159.6 249.96 159.496C249.88 159.392 249.84 159.28 249.84 159.16C249.84 158.992 249.904 158.872 250.032 158.8L251.856 157.612C251.992 157.524 252.132 157.48 252.276 157.48C252.412 157.48 252.524 157.524 252.612 157.612C252.7 157.7 252.744 157.824 252.744 157.984V165.172H254.244ZM259.459 160.696C259.995 160.696 260.463 160.808 260.863 161.032C261.271 161.256 261.583 161.572 261.799 161.98C262.023 162.38 262.135 162.844 262.135 163.372C262.135 163.9 262.015 164.372 261.775 164.788C261.535 165.196 261.199 165.516 260.767 165.748C260.343 165.972 259.851 166.084 259.291 166.084C258.795 166.084 258.311 165.996 257.839 165.82C257.367 165.644 256.967 165.404 256.639 165.1C256.511 164.98 256.447 164.844 256.447 164.692C256.447 164.572 256.479 164.472 256.543 164.392C256.607 164.312 256.683 164.272 256.771 164.272C256.883 164.272 256.995 164.316 257.107 164.404C257.459 164.692 257.811 164.908 258.163 165.052C258.515 165.188 258.883 165.256 259.267 165.256C259.859 165.256 260.323 165.088 260.659 164.752C260.995 164.416 261.163 163.96 261.163 163.384C261.163 162.824 260.995 162.372 260.659 162.028C260.323 161.684 259.871 161.512 259.303 161.512C258.575 161.512 257.983 161.792 257.527 162.352C257.415 162.472 257.279 162.532 257.119 162.532C257.007 162.532 256.911 162.5 256.831 162.436C256.759 162.364 256.723 162.268 256.723 162.148V158.008C256.723 157.872 256.763 157.76 256.843 157.672C256.931 157.584 257.051 157.54 257.203 157.54H261.427C261.571 157.54 261.683 157.576 261.763 157.648C261.851 157.72 261.895 157.82 261.895 157.948C261.895 158.076 261.851 158.176 261.763 158.248C261.683 158.32 261.571 158.356 261.427 158.356H257.695V161.368C257.919 161.152 258.179 160.988 258.475 160.876C258.779 160.756 259.107 160.696 259.459 160.696ZM274.152 165.436C274.184 165.5 274.2 165.568 274.2 165.64C274.2 165.76 274.152 165.86 274.056 165.94C273.968 166.02 273.86 166.06 273.732 166.06C273.532 166.06 273.392 165.964 273.312 165.772L272.46 163.828H267.936L267.072 165.772C266.992 165.964 266.852 166.06 266.652 166.06C266.524 166.06 266.412 166.02 266.316 165.94C266.22 165.852 266.172 165.748 266.172 165.628C266.172 165.564 266.188 165.5 266.22 165.436L269.652 157.804C269.7 157.692 269.772 157.608 269.868 157.552C269.964 157.496 270.068 157.468 270.18 157.468C270.3 157.468 270.408 157.5 270.504 157.564C270.6 157.62 270.672 157.7 270.72 157.804L274.152 165.436ZM268.296 163.012H272.1L270.192 158.704L268.296 163.012ZM278.383 160.012C278.895 160.012 279.347 160.14 279.739 160.396C280.131 160.652 280.435 161.012 280.651 161.476C280.867 161.932 280.975 162.464 280.975 163.072C280.975 163.68 280.867 164.212 280.651 164.668C280.435 165.116 280.131 165.464 279.739 165.712C279.355 165.96 278.903 166.084 278.383 166.084C277.927 166.084 277.527 165.984 277.183 165.784C276.847 165.584 276.591 165.3 276.415 164.932V167.752C276.415 167.896 276.371 168.008 276.283 168.088C276.203 168.176 276.087 168.22 275.935 168.22C275.783 168.22 275.663 168.176 275.575 168.088C275.487 168 275.443 167.888 275.443 167.752V160.516C275.443 160.372 275.487 160.256 275.575 160.168C275.663 160.08 275.783 160.036 275.935 160.036C276.087 160.036 276.203 160.08 276.283 160.168C276.371 160.256 276.415 160.372 276.415 160.516V161.164C276.591 160.796 276.847 160.512 277.183 160.312C277.527 160.112 277.927 160.012 278.383 160.012ZM278.191 165.28C278.759 165.28 279.199 165.088 279.511 164.704C279.823 164.32 279.979 163.776 279.979 163.072C279.979 162.368 279.823 161.82 279.511 161.428C279.199 161.028 278.759 160.828 278.191 160.828C277.623 160.828 277.183 161.02 276.871 161.404C276.567 161.788 276.415 162.336 276.415 163.048C276.415 163.76 276.567 164.312 276.871 164.704C277.183 165.088 277.623 165.28 278.191 165.28ZM285.319 160.036C285.655 160.012 285.823 160.148 285.823 160.444C285.823 160.572 285.787 160.676 285.715 160.756C285.643 160.828 285.519 160.872 285.343 160.888L284.983 160.924C284.447 160.972 284.047 161.164 283.783 161.5C283.527 161.828 283.399 162.216 283.399 162.664V165.58C283.399 165.74 283.355 165.86 283.267 165.94C283.179 166.02 283.063 166.06 282.919 166.06C282.775 166.06 282.655 166.02 282.559 165.94C282.471 165.852 282.427 165.732 282.427 165.58V160.516C282.427 160.364 282.475 160.248 282.571 160.168C282.667 160.08 282.783 160.036 282.919 160.036C283.047 160.036 283.155 160.08 283.243 160.168C283.331 160.248 283.375 160.36 283.375 160.504V161.176C283.543 160.824 283.779 160.556 284.083 160.372C284.395 160.188 284.751 160.08 285.151 160.048L285.319 160.036ZM294.948 165.172C295.092 165.172 295.204 165.208 295.284 165.28C295.364 165.352 295.404 165.452 295.404 165.58C295.404 165.86 295.252 166 294.948 166H290.244C290.108 166 289.996 165.96 289.908 165.88C289.82 165.792 289.776 165.688 289.776 165.568C289.776 165.416 289.832 165.284 289.944 165.172L292.836 161.992C293.236 161.544 293.524 161.144 293.7 160.792C293.884 160.432 293.976 160.072 293.976 159.712C293.976 159.248 293.84 158.892 293.568 158.644C293.304 158.396 292.928 158.272 292.44 158.272C292.056 158.272 291.688 158.344 291.336 158.488C290.984 158.624 290.632 158.836 290.28 159.124C290.16 159.22 290.048 159.268 289.944 159.268C289.856 159.268 289.78 159.228 289.716 159.148C289.652 159.06 289.62 158.956 289.62 158.836C289.62 158.668 289.684 158.532 289.812 158.428C290.14 158.124 290.54 157.884 291.012 157.708C291.484 157.532 291.968 157.444 292.464 157.444C293.224 157.444 293.828 157.644 294.276 158.044C294.732 158.444 294.96 158.984 294.96 159.664C294.96 160.152 294.848 160.62 294.624 161.068C294.408 161.516 294.048 162.016 293.544 162.568L291.144 165.172H294.948ZM299.647 166.096C298.679 166.096 297.943 165.728 297.439 164.992C296.935 164.256 296.683 163.184 296.683 161.776C296.683 160.36 296.935 159.284 297.439 158.548C297.943 157.812 298.679 157.444 299.647 157.444C300.615 157.444 301.351 157.812 301.855 158.548C302.359 159.276 302.611 160.348 302.611 161.764C302.611 163.18 302.359 164.256 301.855 164.992C301.351 165.728 300.615 166.096 299.647 166.096ZM299.647 165.268C300.319 165.268 300.815 164.984 301.135 164.416C301.455 163.848 301.615 162.964 301.615 161.764C301.615 160.556 301.455 159.672 301.135 159.112C300.823 158.552 300.327 158.272 299.647 158.272C298.975 158.272 298.479 158.556 298.159 159.124C297.839 159.684 297.679 160.564 297.679 161.764C297.679 162.964 297.839 163.848 298.159 164.416C298.479 164.984 298.975 165.268 299.647 165.268ZM309.338 165.172C309.482 165.172 309.594 165.208 309.674 165.28C309.754 165.352 309.794 165.452 309.794 165.58C309.794 165.86 309.642 166 309.338 166H304.634C304.498 166 304.386 165.96 304.298 165.88C304.21 165.792 304.166 165.688 304.166 165.568C304.166 165.416 304.222 165.284 304.334 165.172L307.226 161.992C307.626 161.544 307.914 161.144 308.09 160.792C308.274 160.432 308.366 160.072 308.366 159.712C308.366 159.248 308.23 158.892 307.958 158.644C307.694 158.396 307.318 158.272 306.83 158.272C306.446 158.272 306.078 158.344 305.726 158.488C305.374 158.624 305.022 158.836 304.67 159.124C304.55 159.22 304.438 159.268 304.334 159.268C304.246 159.268 304.17 159.228 304.106 159.148C304.042 159.06 304.01 158.956 304.01 158.836C304.01 158.668 304.074 158.532 304.202 158.428C304.53 158.124 304.93 157.884 305.402 157.708C305.874 157.532 306.358 157.444 306.854 157.444C307.614 157.444 308.218 157.644 308.666 158.044C309.122 158.444 309.35 158.984 309.35 159.664C309.35 160.152 309.238 160.62 309.014 161.068C308.798 161.516 308.438 162.016 307.934 162.568L305.534 165.172H309.338ZM314.038 166.096C313.07 166.096 312.334 165.728 311.83 164.992C311.326 164.256 311.074 163.184 311.074 161.776C311.074 160.36 311.326 159.284 311.83 158.548C312.334 157.812 313.07 157.444 314.038 157.444C315.006 157.444 315.742 157.812 316.246 158.548C316.75 159.276 317.002 160.348 317.002 161.764C317.002 163.18 316.75 164.256 316.246 164.992C315.742 165.728 315.006 166.096 314.038 166.096ZM314.038 165.268C314.71 165.268 315.206 164.984 315.526 164.416C315.846 163.848 316.006 162.964 316.006 161.764C316.006 160.556 315.846 159.672 315.526 159.112C315.214 158.552 314.718 158.272 314.038 158.272C313.366 158.272 312.87 158.556 312.55 159.124C312.23 159.684 312.07 160.564 312.07 161.764C312.07 162.964 312.23 163.848 312.55 164.416C312.87 164.984 313.366 165.268 314.038 165.268Z" fill="#234CAD"/>
<path d="M202.208 144C201.899 144 201.653 143.915 201.472 143.744C201.301 143.573 201.216 143.333 201.216 143.024V133.696C201.216 133.387 201.301 133.147 201.472 132.976C201.653 132.805 201.899 132.72 202.208 132.72H205.376C207.221 132.72 208.651 133.216 209.664 134.208C210.688 135.189 211.2 136.571 211.2 138.352C211.2 140.144 210.688 141.536 209.664 142.528C208.651 143.509 207.221 144 205.376 144H202.208ZM205.248 142.32C207.84 142.32 209.136 140.997 209.136 138.352C209.136 135.717 207.84 134.4 205.248 134.4H203.28V142.32H205.248ZM216.495 135.984C217.583 135.984 218.388 136.256 218.911 136.8C219.444 137.333 219.711 138.149 219.711 139.248V143.152C219.711 143.44 219.625 143.669 219.455 143.84C219.284 144 219.049 144.08 218.751 144.08C218.473 144.08 218.244 143.995 218.063 143.824C217.892 143.653 217.807 143.429 217.807 143.152V142.8C217.625 143.216 217.337 143.541 216.943 143.776C216.559 144.011 216.111 144.128 215.599 144.128C215.076 144.128 214.601 144.021 214.174 143.808C213.748 143.595 213.412 143.301 213.167 142.928C212.921 142.555 212.799 142.139 212.799 141.68C212.799 141.104 212.943 140.651 213.231 140.32C213.529 139.989 214.009 139.749 214.671 139.6C215.332 139.451 216.244 139.376 217.407 139.376H217.807V139.008C217.807 138.485 217.695 138.107 217.471 137.872C217.247 137.627 216.884 137.504 216.383 137.504C216.073 137.504 215.759 137.552 215.439 137.648C215.119 137.733 214.74 137.861 214.303 138.032C214.025 138.171 213.823 138.24 213.695 138.24C213.503 138.24 213.343 138.171 213.215 138.032C213.097 137.893 213.039 137.712 213.039 137.488C213.039 137.307 213.081 137.152 213.167 137.024C213.263 136.885 213.417 136.757 213.631 136.64C214.004 136.437 214.447 136.277 214.959 136.16C215.481 136.043 215.993 135.984 216.495 135.984ZM215.999 142.688C216.532 142.688 216.964 142.512 217.295 142.16C217.636 141.797 217.807 141.333 217.807 140.768V140.432H217.519C216.804 140.432 216.249 140.464 215.855 140.528C215.46 140.592 215.177 140.704 215.007 140.864C214.836 141.024 214.751 141.243 214.751 141.52C214.751 141.861 214.868 142.144 215.103 142.368C215.348 142.581 215.647 142.688 215.999 142.688ZM222.735 144.096C222.447 144.096 222.207 144.016 222.015 143.856C221.834 143.685 221.743 143.445 221.743 143.136V136.96C221.743 136.651 221.834 136.416 222.015 136.256C222.207 136.096 222.447 136.016 222.735 136.016C223.023 136.016 223.263 136.096 223.455 136.256C223.647 136.416 223.743 136.651 223.743 136.96V143.136C223.743 143.445 223.647 143.685 223.455 143.856C223.263 144.016 223.023 144.096 222.735 144.096ZM222.735 134.592C222.372 134.592 222.084 134.496 221.871 134.304C221.658 134.101 221.551 133.84 221.551 133.52C221.551 133.2 221.658 132.944 221.871 132.752C222.084 132.56 222.372 132.464 222.735 132.464C223.087 132.464 223.37 132.56 223.583 132.752C223.807 132.944 223.919 133.2 223.919 133.52C223.919 133.84 223.812 134.101 223.599 134.304C223.386 134.496 223.098 134.592 222.735 134.592ZM226.798 144.096C226.51 144.096 226.27 144.016 226.078 143.856C225.896 143.685 225.806 143.445 225.806 143.136V133.584C225.806 133.275 225.896 133.04 226.078 132.88C226.27 132.72 226.51 132.64 226.798 132.64C227.086 132.64 227.326 132.72 227.518 132.88C227.71 133.04 227.806 133.275 227.806 133.584V143.136C227.806 143.445 227.71 143.685 227.518 143.856C227.326 144.016 227.086 144.096 226.798 144.096ZM235.324 136.592C235.409 136.4 235.521 136.261 235.66 136.176C235.809 136.08 235.969 136.032 236.14 136.032C236.385 136.032 236.604 136.117 236.796 136.288C236.999 136.448 237.1 136.651 237.1 136.896C237.1 137.013 237.068 137.136 237.004 137.264L232.636 146.416C232.455 146.779 232.172 146.96 231.788 146.96C231.543 146.96 231.324 146.88 231.132 146.72C230.951 146.571 230.86 146.379 230.86 146.144C230.86 146.027 230.892 145.893 230.956 145.744L232.044 143.456L229.068 137.264C229.015 137.157 228.988 137.035 228.988 136.896C228.988 136.651 229.089 136.443 229.292 136.272C229.505 136.101 229.745 136.016 230.012 136.016C230.193 136.016 230.359 136.064 230.508 136.16C230.657 136.245 230.775 136.384 230.86 136.576L233.1 141.52L235.324 136.592ZM246.714 144.144C245.892 144.144 245.114 144.037 244.378 143.824C243.652 143.6 243.06 143.301 242.602 142.928C242.356 142.747 242.234 142.491 242.234 142.16C242.234 141.936 242.298 141.744 242.426 141.584C242.564 141.413 242.724 141.328 242.906 141.328C243.098 141.328 243.316 141.403 243.562 141.552C244.02 141.883 244.5 142.123 245.002 142.272C245.503 142.421 246.058 142.496 246.666 142.496C247.444 142.496 248.042 142.363 248.458 142.096C248.874 141.819 249.082 141.419 249.082 140.896C249.082 140.491 248.884 140.181 248.49 139.968C248.106 139.744 247.46 139.531 246.554 139.328C245.615 139.125 244.852 138.891 244.266 138.624C243.679 138.357 243.236 138.016 242.938 137.6C242.639 137.184 242.49 136.656 242.49 136.016C242.49 135.355 242.676 134.763 243.05 134.24C243.423 133.717 243.94 133.312 244.602 133.024C245.274 132.725 246.026 132.576 246.858 132.576C248.383 132.576 249.626 132.981 250.586 133.792C250.724 133.909 250.82 134.027 250.874 134.144C250.938 134.251 250.97 134.389 250.97 134.56C250.97 134.784 250.9 134.981 250.762 135.152C250.634 135.312 250.479 135.392 250.298 135.392C250.191 135.392 250.09 135.376 249.994 135.344C249.908 135.312 249.791 135.253 249.642 135.168C249.204 134.848 248.778 134.613 248.362 134.464C247.956 134.304 247.455 134.224 246.858 134.224C246.132 134.224 245.556 134.373 245.13 134.672C244.714 134.96 244.506 135.365 244.506 135.888C244.506 136.325 244.692 136.661 245.066 136.896C245.439 137.131 246.074 137.349 246.97 137.552C247.919 137.765 248.687 138.005 249.274 138.272C249.871 138.528 250.324 138.859 250.634 139.264C250.954 139.669 251.114 140.176 251.114 140.784C251.114 141.445 250.927 142.032 250.554 142.544C250.191 143.045 249.674 143.44 249.002 143.728C248.34 144.005 247.578 144.144 246.714 144.144ZM256.792 142.608C257.325 142.64 257.592 142.88 257.592 143.328C257.592 143.584 257.485 143.781 257.272 143.92C257.069 144.048 256.776 144.101 256.391 144.08L255.96 144.048C254.168 143.92 253.272 142.96 253.272 141.168V137.68H252.472C252.184 137.68 251.96 137.616 251.8 137.488C251.65 137.36 251.575 137.173 251.575 136.928C251.575 136.683 251.65 136.496 251.8 136.368C251.96 136.24 252.184 136.176 252.472 136.176H253.272V134.704C253.272 134.416 253.362 134.187 253.544 134.016C253.725 133.845 253.97 133.76 254.28 133.76C254.578 133.76 254.818 133.845 255 134.016C255.181 134.187 255.272 134.416 255.272 134.704V136.176H256.632C256.92 136.176 257.138 136.24 257.288 136.368C257.448 136.496 257.528 136.683 257.528 136.928C257.528 137.173 257.448 137.36 257.288 137.488C257.138 137.616 256.92 137.68 256.632 137.68H255.272V141.312C255.272 142.101 255.634 142.523 256.36 142.576L256.792 142.608ZM262.026 135.984C263.114 135.984 263.919 136.256 264.442 136.8C264.975 137.333 265.242 138.149 265.242 139.248V143.152C265.242 143.44 265.156 143.669 264.986 143.84C264.815 144 264.58 144.08 264.282 144.08C264.004 144.08 263.775 143.995 263.594 143.824C263.423 143.653 263.338 143.429 263.338 143.152V142.8C263.156 143.216 262.868 143.541 262.474 143.776C262.09 144.011 261.642 144.128 261.13 144.128C260.607 144.128 260.132 144.021 259.706 143.808C259.279 143.595 258.943 143.301 258.698 142.928C258.452 142.555 258.33 142.139 258.33 141.68C258.33 141.104 258.474 140.651 258.762 140.32C259.06 139.989 259.54 139.749 260.202 139.6C260.863 139.451 261.775 139.376 262.938 139.376H263.338V139.008C263.338 138.485 263.226 138.107 263.002 137.872C262.778 137.627 262.415 137.504 261.914 137.504C261.604 137.504 261.29 137.552 260.97 137.648C260.65 137.733 260.271 137.861 259.834 138.032C259.556 138.171 259.354 138.24 259.226 138.24C259.034 138.24 258.874 138.171 258.746 138.032C258.628 137.893 258.57 137.712 258.57 137.488C258.57 137.307 258.612 137.152 258.698 137.024C258.794 136.885 258.948 136.757 259.162 136.64C259.535 136.437 259.978 136.277 260.49 136.16C261.012 136.043 261.524 135.984 262.026 135.984ZM261.53 142.688C262.063 142.688 262.495 142.512 262.826 142.16C263.167 141.797 263.338 141.333 263.338 140.768V140.432H263.05C262.335 140.432 261.78 140.464 261.386 140.528C260.991 140.592 260.708 140.704 260.538 140.864C260.367 141.024 260.282 141.243 260.282 141.52C260.282 141.861 260.399 142.144 260.634 142.368C260.879 142.581 261.178 142.688 261.53 142.688ZM271.818 135.984C272.757 135.984 273.456 136.251 273.914 136.784C274.373 137.317 274.602 138.123 274.602 139.2V143.136C274.602 143.435 274.512 143.669 274.33 143.84C274.16 144.011 273.92 144.096 273.61 144.096C273.301 144.096 273.056 144.011 272.874 143.84C272.693 143.669 272.602 143.435 272.602 143.136V139.312C272.602 138.704 272.485 138.261 272.25 137.984C272.026 137.707 271.669 137.568 271.178 137.568C270.602 137.568 270.138 137.749 269.786 138.112C269.445 138.475 269.274 138.96 269.274 139.568V143.136C269.274 143.435 269.184 143.669 269.002 143.84C268.821 144.011 268.576 144.096 268.266 144.096C267.957 144.096 267.712 144.011 267.53 143.84C267.36 143.669 267.274 143.435 267.274 143.136V136.944C267.274 136.667 267.365 136.443 267.546 136.272C267.728 136.101 267.973 136.016 268.282 136.016C268.56 136.016 268.784 136.101 268.954 136.272C269.136 136.432 269.226 136.645 269.226 136.912V137.344C269.493 136.907 269.85 136.571 270.298 136.336C270.746 136.101 271.253 135.984 271.818 135.984ZM283.162 132.64C283.46 132.64 283.706 132.725 283.898 132.896C284.09 133.067 284.186 133.291 284.186 133.568V143.136C284.186 143.424 284.095 143.653 283.914 143.824C283.732 143.995 283.492 144.08 283.194 144.08C282.895 144.08 282.655 143.995 282.474 143.824C282.292 143.653 282.202 143.424 282.202 143.136V142.736C281.967 143.173 281.626 143.515 281.178 143.76C280.74 144.005 280.239 144.128 279.674 144.128C279.002 144.128 278.399 143.957 277.866 143.616C277.343 143.275 276.932 142.795 276.634 142.176C276.346 141.547 276.202 140.827 276.202 140.016C276.202 139.205 276.346 138.496 276.634 137.888C276.932 137.28 277.343 136.811 277.866 136.48C278.388 136.149 278.991 135.984 279.674 135.984C280.239 135.984 280.74 136.101 281.178 136.336C281.615 136.571 281.951 136.901 282.186 137.328V133.536C282.186 133.269 282.271 133.056 282.442 132.896C282.623 132.725 282.863 132.64 283.162 132.64ZM280.202 142.576C280.842 142.576 281.332 142.357 281.674 141.92C282.026 141.483 282.202 140.859 282.202 140.048C282.202 139.237 282.026 138.619 281.674 138.192C281.332 137.755 280.847 137.536 280.218 137.536C279.578 137.536 279.082 137.749 278.73 138.176C278.378 138.603 278.202 139.216 278.202 140.016C278.202 140.827 278.378 141.456 278.73 141.904C279.082 142.352 279.572 142.576 280.202 142.576ZM292.419 136.016C292.728 136.016 292.974 136.101 293.155 136.272C293.336 136.443 293.427 136.672 293.427 136.96V143.168C293.427 143.445 293.331 143.669 293.139 143.84C292.958 144.011 292.718 144.096 292.419 144.096C292.131 144.096 291.902 144.016 291.731 143.856C291.56 143.696 291.475 143.477 291.475 143.2V142.8C291.23 143.227 290.899 143.557 290.483 143.792C290.067 144.016 289.598 144.128 289.075 144.128C287.155 144.128 286.195 143.051 286.195 140.896V136.96C286.195 136.672 286.286 136.443 286.467 136.272C286.648 136.101 286.888 136.016 287.187 136.016C287.496 136.016 287.742 136.101 287.923 136.272C288.104 136.443 288.195 136.672 288.195 136.96V140.912C288.195 141.467 288.307 141.877 288.531 142.144C288.755 142.411 289.107 142.544 289.587 142.544C290.142 142.544 290.584 142.363 290.915 142C291.256 141.627 291.427 141.136 291.427 140.528V136.96C291.427 136.672 291.518 136.443 291.699 136.272C291.88 136.101 292.12 136.016 292.419 136.016ZM300.005 135.984C300.677 135.984 301.274 136.155 301.797 136.496C302.33 136.837 302.741 137.323 303.029 137.952C303.327 138.571 303.477 139.285 303.477 140.096C303.477 140.907 303.327 141.616 303.029 142.224C302.741 142.832 302.335 143.301 301.813 143.632C301.29 143.963 300.687 144.128 300.005 144.128C299.45 144.128 298.954 144.011 298.517 143.776C298.079 143.541 297.743 143.216 297.509 142.8V146.064C297.509 146.341 297.418 146.56 297.237 146.72C297.055 146.88 296.815 146.96 296.517 146.96C296.218 146.96 295.973 146.875 295.781 146.704C295.599 146.533 295.509 146.309 295.509 146.032V136.96C295.509 136.672 295.594 136.443 295.765 136.272C295.946 136.101 296.186 136.016 296.485 136.016C296.783 136.016 297.023 136.101 297.205 136.272C297.386 136.443 297.477 136.672 297.477 136.96V137.36C297.711 136.923 298.047 136.587 298.485 136.352C298.933 136.107 299.439 135.984 300.005 135.984ZM299.477 142.576C300.106 142.576 300.597 142.363 300.949 141.936C301.301 141.499 301.477 140.885 301.477 140.096C301.477 139.285 301.301 138.656 300.949 138.208C300.597 137.76 300.106 137.536 299.477 137.536C298.837 137.536 298.341 137.755 297.989 138.192C297.647 138.629 297.477 139.253 297.477 140.064C297.477 140.864 297.647 141.483 297.989 141.92C298.341 142.357 298.837 142.576 299.477 142.576Z" fill="#234CAD"/>
</g>
<circle cx="150" cy="150" r="29" stroke="#234CAD" stroke-width="2"/>
<path d="M142.333 143.333C142.333 143.886 142.781 144.333 143.333 144.333C143.886 144.333 144.333 143.886 144.333 143.333H142.333ZM144.333 140C144.333 139.448 143.886 139 143.333 139C142.781 139 142.333 139.448 142.333 140H144.333ZM146.778 143.333C146.778 143.886 147.225 144.333 147.778 144.333C148.33 144.333 148.778 143.886 148.778 143.333H146.778ZM148.778 140C148.778 139.448 148.33 139 147.778 139C147.225 139 146.778 139.448 146.778 140H148.778ZM151.222 143.333C151.222 143.886 151.67 144.333 152.222 144.333C152.775 144.333 153.222 143.886 153.222 143.333H151.222ZM153.222 140C153.222 139.448 152.775 139 152.222 139C151.67 139 151.222 139.448 151.222 140H153.222ZM155.667 143.333C155.667 143.886 156.114 144.333 156.667 144.333C157.219 144.333 157.667 143.886 157.667 143.333H155.667ZM157.667 140C157.667 139.448 157.219 139 156.667 139C156.114 139 155.667 139.448 155.667 140H157.667ZM160 148.778C160.552 148.778 161 148.33 161 147.778C161 147.225 160.552 146.778 160 146.778V148.778ZM140 146.778C139.448 146.778 139 147.225 139 147.778C139 148.33 139.448 148.778 140 148.778V146.778ZM144.333 143.333V140H142.333V143.333H144.333ZM148.778 143.333V140H146.778V143.333H148.778ZM153.222 143.333V140H151.222V143.333H153.222ZM157.667 143.333V140H155.667V143.333H157.667ZM160 146.778H140V148.778H160V146.778ZM142.222 161H157.778V159H142.222V161ZM157.778 161C159.557 161 161 159.557 161 157.778H159C159 158.453 158.453 159 157.778 159V161ZM161 157.778V144.444H159V157.778H161ZM161 144.444C161 142.665 159.557 141.222 157.778 141.222V143.222C158.453 143.222 159 143.769 159 144.444H161ZM157.778 141.222H142.222V143.222H157.778V141.222ZM142.222 141.222C140.443 141.222 139 142.665 139 144.444H141C141 143.769 141.547 143.222 142.222 143.222V141.222ZM139 144.444V157.778H141V144.444H139ZM139 157.778C139 159.557 140.443 161 142.222 161V159C141.547 159 141 158.453 141 157.778H139Z" fill="#234CAD"/>
<defs>
<filter id="filter0_f_12263_332" x="-60.9141" y="-35.9141" width="597.828" height="481.828" filterUnits="userSpaceOnUse" color-interpolation-filters="sRGB">
<feFlood flood-opacity="0" result="BackgroundImageFix"/>
<feBlend mode="normal" in="SourceGraphic" in2="BackgroundImageFix" result="shape"/>
<feGaussianBlur stdDeviation="67.957" result="effect1_foregroundBlur_12263_332"/>
</filter>
<linearGradient id="paint0_linear_12263_332" x1="321.875" y1="386.855" x2="454.77" y2="87.2761" gradientUnits="userSpaceOnUse">
<stop stop-color="#234CAD"/>
<stop offset="1" stop-color="#234CAD" stop-opacity="0.5"/>
</linearGradient>
<clipPath id="clip0_12263_332">
<rect width="40" height="40" fill="white" transform="translate(210 200)"/>
</clipPath>
<clipPath id="clip1_12263_332">
<rect width="40" height="40" fill="white" transform="translate(180 200)"/>
</clipPath>
<clipPath id="clip2_12263_332">
<rect width="40" height="40" fill="white" transform="translate(150 200)"/>
</clipPath>
<clipPath id="clip3_12263_332">
<rect width="40" height="40" fill="white" transform="translate(120 200)"/>
</clipPath>
<clipPath id="clip4_12263_332">
<rect width="118" height="45" fill="white" transform="translate(200 128)"/>
</clipPath>
</defs>
</svg>
