<svg width="335" height="241" viewBox="0 0 335 241" fill="none" xmlns="http://www.w3.org/2000/svg">
<g opacity="0.7">
<g opacity="0.0962147" filter="url(#filter0_f_12263_217)">
<rect x="136" y="136" width="326" height="185" rx="25" fill="url(#paint0_linear_12263_217)"/>
</g>
<rect x="161" y="136" width="276" height="160" rx="25" fill="white"/>
<g clip-path="url(#clip0_12263_217)">
<path d="M266.904 201.172C267.048 201.172 267.16 201.208 267.24 201.28C267.32 201.352 267.36 201.452 267.36 201.58C267.36 201.716 267.32 201.82 267.24 201.892C267.168 201.964 267.056 202 266.904 202H262.932C262.78 202 262.664 201.964 262.584 201.892C262.512 201.82 262.476 201.716 262.476 201.58C262.476 201.452 262.516 201.352 262.596 201.28C262.676 201.208 262.788 201.172 262.932 201.172H264.42V194.74L263.112 195.592C263.048 195.632 262.984 195.652 262.92 195.652C262.808 195.652 262.708 195.6 262.62 195.496C262.54 195.392 262.5 195.28 262.5 195.16C262.5 194.992 262.564 194.872 262.692 194.8L264.516 193.612C264.652 193.524 264.792 193.48 264.936 193.48C265.072 193.48 265.184 193.524 265.272 193.612C265.36 193.7 265.404 193.824 265.404 193.984V201.172H266.904ZM274.291 201.172C274.435 201.172 274.547 201.208 274.627 201.28C274.707 201.352 274.747 201.452 274.747 201.58C274.747 201.86 274.595 202 274.291 202H269.587C269.451 202 269.339 201.96 269.251 201.88C269.163 201.792 269.119 201.688 269.119 201.568C269.119 201.416 269.175 201.284 269.287 201.172L272.179 197.992C272.579 197.544 272.867 197.144 273.043 196.792C273.227 196.432 273.319 196.072 273.319 195.712C273.319 195.248 273.183 194.892 272.911 194.644C272.647 194.396 272.271 194.272 271.783 194.272C271.399 194.272 271.031 194.344 270.679 194.488C270.327 194.624 269.975 194.836 269.623 195.124C269.503 195.22 269.391 195.268 269.287 195.268C269.199 195.268 269.123 195.228 269.059 195.148C268.995 195.06 268.963 194.956 268.963 194.836C268.963 194.668 269.027 194.532 269.155 194.428C269.483 194.124 269.883 193.884 270.355 193.708C270.827 193.532 271.311 193.444 271.807 193.444C272.567 193.444 273.171 193.644 273.619 194.044C274.075 194.444 274.303 194.984 274.303 195.664C274.303 196.152 274.191 196.62 273.967 197.068C273.751 197.516 273.391 198.016 272.887 198.568L270.487 201.172H274.291ZM276.771 197.38C276.579 197.38 276.419 197.32 276.291 197.2C276.163 197.072 276.099 196.908 276.099 196.708C276.099 196.508 276.163 196.348 276.291 196.228C276.419 196.1 276.579 196.036 276.771 196.036C276.955 196.036 277.107 196.1 277.227 196.228C277.355 196.348 277.419 196.508 277.419 196.708C277.419 196.908 277.355 197.072 277.227 197.2C277.107 197.32 276.955 197.38 276.771 197.38ZM276.771 202.06C276.579 202.06 276.419 202 276.291 201.88C276.163 201.752 276.099 201.588 276.099 201.388C276.099 201.188 276.163 201.024 276.291 200.896C276.419 200.768 276.579 200.704 276.771 200.704C276.955 200.704 277.107 200.768 277.227 200.896C277.355 201.024 277.419 201.188 277.419 201.388C277.419 201.588 277.355 201.752 277.227 201.88C277.107 202 276.955 202.06 276.771 202.06ZM282.861 197.656C283.373 197.8 283.761 198.048 284.025 198.4C284.297 198.752 284.433 199.188 284.433 199.708C284.433 200.444 284.185 201.024 283.689 201.448C283.193 201.872 282.517 202.084 281.661 202.084C281.141 202.084 280.641 201.996 280.161 201.82C279.689 201.644 279.289 201.404 278.961 201.1C278.833 200.98 278.769 200.844 278.769 200.692C278.769 200.572 278.801 200.472 278.865 200.392C278.929 200.312 279.005 200.272 279.093 200.272C279.205 200.272 279.317 200.316 279.429 200.404C279.797 200.7 280.157 200.916 280.509 201.052C280.861 201.188 281.241 201.256 281.649 201.256C282.241 201.256 282.689 201.12 282.993 200.848C283.305 200.576 283.461 200.184 283.461 199.672C283.461 198.64 282.813 198.124 281.517 198.124H280.881C280.753 198.124 280.649 198.084 280.569 198.004C280.497 197.916 280.461 197.816 280.461 197.704C280.461 197.592 280.497 197.496 280.569 197.416C280.649 197.336 280.753 197.296 280.881 197.296H281.325C281.949 197.296 282.429 197.16 282.765 196.888C283.101 196.608 283.269 196.208 283.269 195.688C283.269 195.232 283.133 194.884 282.861 194.644C282.589 194.396 282.205 194.272 281.709 194.272C281.333 194.272 280.969 194.344 280.617 194.488C280.265 194.624 279.913 194.836 279.561 195.124C279.449 195.212 279.337 195.256 279.225 195.256C279.137 195.256 279.061 195.216 278.997 195.136C278.933 195.056 278.901 194.956 278.901 194.836C278.901 194.684 278.965 194.548 279.093 194.428C279.421 194.124 279.817 193.884 280.281 193.708C280.753 193.532 281.237 193.444 281.733 193.444C282.501 193.444 283.113 193.64 283.569 194.032C284.025 194.424 284.249 194.952 284.241 195.616C284.233 196.096 284.105 196.516 283.857 196.876C283.617 197.236 283.285 197.496 282.861 197.656ZM288.928 202.096C287.96 202.096 287.224 201.728 286.72 200.992C286.216 200.256 285.964 199.184 285.964 197.776C285.964 196.36 286.216 195.284 286.72 194.548C287.224 193.812 287.96 193.444 288.928 193.444C289.896 193.444 290.632 193.812 291.136 194.548C291.64 195.276 291.892 196.348 291.892 197.764C291.892 199.18 291.64 200.256 291.136 200.992C290.632 201.728 289.896 202.096 288.928 202.096ZM288.928 201.268C289.6 201.268 290.096 200.984 290.416 200.416C290.736 199.848 290.896 198.964 290.896 197.764C290.896 196.556 290.736 195.672 290.416 195.112C290.104 194.552 289.608 194.272 288.928 194.272C288.256 194.272 287.76 194.556 287.44 195.124C287.12 195.684 286.96 196.564 286.96 197.764C286.96 198.964 287.12 199.848 287.44 200.416C287.76 200.984 288.256 201.268 288.928 201.268ZM297.153 202.06C297.001 202.06 296.881 202.016 296.793 201.928C296.705 201.832 296.661 201.708 296.661 201.556V194.02C296.661 193.876 296.705 193.76 296.793 193.672C296.889 193.584 297.013 193.54 297.165 193.54H300.009C300.897 193.54 301.585 193.756 302.073 194.188C302.569 194.62 302.817 195.232 302.817 196.024C302.817 196.816 302.569 197.432 302.073 197.872C301.577 198.312 300.889 198.532 300.009 198.532H297.645V201.556C297.645 201.708 297.601 201.832 297.513 201.928C297.425 202.016 297.305 202.06 297.153 202.06ZM299.913 197.716C301.201 197.716 301.845 197.152 301.845 196.024C301.845 194.912 301.201 194.356 299.913 194.356H297.645V197.716H299.913ZM311.908 193.48C312.06 193.48 312.176 193.528 312.256 193.624C312.344 193.712 312.388 193.832 312.388 193.984V201.58C312.388 201.724 312.348 201.84 312.268 201.928C312.188 202.016 312.076 202.06 311.932 202.06C311.788 202.06 311.68 202.016 311.608 201.928C311.536 201.84 311.5 201.724 311.5 201.58V195.448L308.896 200.44C308.784 200.672 308.62 200.788 308.404 200.788C308.196 200.788 308.032 200.672 307.912 200.44L305.296 195.508V201.58C305.296 201.724 305.256 201.84 305.176 201.928C305.104 202.016 304.996 202.06 304.852 202.06C304.708 202.06 304.596 202.016 304.516 201.928C304.436 201.84 304.396 201.724 304.396 201.58V193.984C304.396 193.832 304.44 193.712 304.528 193.624C304.616 193.528 304.736 193.48 304.888 193.48C305.088 193.48 305.248 193.596 305.368 193.828L308.416 199.672L311.428 193.828C311.492 193.7 311.56 193.612 311.632 193.564C311.712 193.508 311.804 193.48 311.908 193.48ZM320.459 196.696C320.995 196.696 321.463 196.808 321.863 197.032C322.271 197.256 322.583 197.572 322.799 197.98C323.023 198.38 323.135 198.844 323.135 199.372C323.135 199.9 323.015 200.372 322.775 200.788C322.535 201.196 322.199 201.516 321.767 201.748C321.343 201.972 320.851 202.084 320.291 202.084C319.795 202.084 319.311 201.996 318.839 201.82C318.367 201.644 317.967 201.404 317.639 201.1C317.511 200.98 317.447 200.844 317.447 200.692C317.447 200.572 317.479 200.472 317.543 200.392C317.607 200.312 317.683 200.272 317.771 200.272C317.883 200.272 317.995 200.316 318.107 200.404C318.459 200.692 318.811 200.908 319.163 201.052C319.515 201.188 319.883 201.256 320.267 201.256C320.859 201.256 321.323 201.088 321.659 200.752C321.995 200.416 322.163 199.96 322.163 199.384C322.163 198.824 321.995 198.372 321.659 198.028C321.323 197.684 320.871 197.512 320.303 197.512C319.575 197.512 318.983 197.792 318.527 198.352C318.415 198.472 318.279 198.532 318.119 198.532C318.007 198.532 317.911 198.5 317.831 198.436C317.759 198.364 317.723 198.268 317.723 198.148V194.008C317.723 193.872 317.763 193.76 317.843 193.672C317.931 193.584 318.051 193.54 318.203 193.54H322.427C322.571 193.54 322.683 193.576 322.763 193.648C322.851 193.72 322.895 193.82 322.895 193.948C322.895 194.076 322.851 194.176 322.763 194.248C322.683 194.32 322.571 194.356 322.427 194.356H318.695V197.368C318.919 197.152 319.179 196.988 319.475 196.876C319.779 196.756 320.107 196.696 320.459 196.696ZM335.38 193.48C335.532 193.48 335.648 193.528 335.728 193.624C335.816 193.712 335.86 193.832 335.86 193.984V201.58C335.86 201.724 335.82 201.84 335.74 201.928C335.66 202.016 335.548 202.06 335.404 202.06C335.26 202.06 335.152 202.016 335.08 201.928C335.008 201.84 334.972 201.724 334.972 201.58V195.448L332.368 200.44C332.256 200.672 332.092 200.788 331.876 200.788C331.668 200.788 331.504 200.672 331.384 200.44L328.768 195.508V201.58C328.768 201.724 328.728 201.84 328.648 201.928C328.576 202.016 328.468 202.06 328.324 202.06C328.18 202.06 328.068 202.016 327.988 201.928C327.908 201.84 327.868 201.724 327.868 201.58V193.984C327.868 193.832 327.912 193.712 328 193.624C328.088 193.528 328.208 193.48 328.36 193.48C328.56 193.48 328.72 193.596 328.84 193.828L331.888 199.672L334.9 193.828C334.964 193.7 335.032 193.612 335.104 193.564C335.184 193.508 335.276 193.48 335.38 193.48ZM340.202 196.012C341.666 196.012 342.398 196.78 342.398 198.316V201.58C342.398 201.724 342.354 201.84 342.266 201.928C342.186 202.016 342.074 202.06 341.93 202.06C341.786 202.06 341.67 202.016 341.582 201.928C341.494 201.84 341.45 201.724 341.45 201.58V201.004C341.298 201.348 341.066 201.616 340.754 201.808C340.442 201.992 340.082 202.084 339.674 202.084C339.298 202.084 338.95 202.008 338.63 201.856C338.318 201.704 338.07 201.492 337.886 201.22C337.702 200.948 337.61 200.648 337.61 200.32C337.61 199.88 337.722 199.54 337.946 199.3C338.17 199.052 338.538 198.876 339.05 198.772C339.562 198.66 340.274 198.604 341.186 198.604H341.45V198.208C341.45 197.728 341.35 197.376 341.15 197.152C340.958 196.928 340.642 196.816 340.202 196.816C339.658 196.816 339.106 196.964 338.546 197.26C338.33 197.396 338.178 197.464 338.09 197.464C337.994 197.464 337.914 197.428 337.85 197.356C337.786 197.284 337.754 197.192 337.754 197.08C337.754 196.968 337.786 196.872 337.85 196.792C337.922 196.704 338.034 196.616 338.186 196.528C338.466 196.368 338.782 196.244 339.134 196.156C339.494 196.06 339.85 196.012 340.202 196.012ZM339.806 201.316C340.286 201.316 340.678 201.156 340.982 200.836C341.294 200.508 341.45 200.088 341.45 199.576V199.228H341.234C340.53 199.228 339.994 199.26 339.626 199.324C339.258 199.38 338.994 199.48 338.834 199.624C338.682 199.76 338.606 199.964 338.606 200.236C338.606 200.548 338.718 200.808 338.942 201.016C339.174 201.216 339.462 201.316 339.806 201.316ZM348.389 196.336C348.477 196.144 348.617 196.048 348.809 196.048C348.929 196.048 349.037 196.088 349.133 196.168C349.229 196.248 349.277 196.348 349.277 196.468C349.277 196.54 349.261 196.604 349.229 196.66L345.857 203.932C345.817 204.02 345.757 204.088 345.677 204.136C345.605 204.184 345.529 204.208 345.449 204.208C345.329 204.208 345.221 204.168 345.125 204.088C345.037 204.016 344.993 203.92 344.993 203.8C344.993 203.736 345.009 203.672 345.041 203.608L345.881 201.796L343.505 196.66C343.473 196.604 343.457 196.544 343.457 196.48C343.457 196.36 343.509 196.256 343.613 196.168C343.725 196.08 343.845 196.036 343.973 196.036C344.053 196.036 344.129 196.06 344.201 196.108C344.281 196.156 344.341 196.224 344.381 196.312L346.385 200.812L348.389 196.336ZM358.631 201.172C358.775 201.172 358.887 201.208 358.967 201.28C359.047 201.352 359.087 201.452 359.087 201.58C359.087 201.86 358.935 202 358.631 202H353.927C353.791 202 353.679 201.96 353.591 201.88C353.503 201.792 353.459 201.688 353.459 201.568C353.459 201.416 353.515 201.284 353.627 201.172L356.519 197.992C356.919 197.544 357.207 197.144 357.383 196.792C357.567 196.432 357.659 196.072 357.659 195.712C357.659 195.248 357.523 194.892 357.251 194.644C356.987 194.396 356.611 194.272 356.123 194.272C355.739 194.272 355.371 194.344 355.019 194.488C354.667 194.624 354.315 194.836 353.963 195.124C353.843 195.22 353.731 195.268 353.627 195.268C353.539 195.268 353.463 195.228 353.399 195.148C353.335 195.06 353.303 194.956 353.303 194.836C353.303 194.668 353.367 194.532 353.495 194.428C353.823 194.124 354.223 193.884 354.695 193.708C355.167 193.532 355.651 193.444 356.147 193.444C356.907 193.444 357.511 193.644 357.959 194.044C358.415 194.444 358.643 194.984 358.643 195.664C358.643 196.152 358.531 196.62 358.307 197.068C358.091 197.516 357.731 198.016 357.227 198.568L354.827 201.172H358.631ZM363.33 202.096C362.362 202.096 361.626 201.728 361.122 200.992C360.618 200.256 360.366 199.184 360.366 197.776C360.366 196.36 360.618 195.284 361.122 194.548C361.626 193.812 362.362 193.444 363.33 193.444C364.298 193.444 365.034 193.812 365.538 194.548C366.042 195.276 366.294 196.348 366.294 197.764C366.294 199.18 366.042 200.256 365.538 200.992C365.034 201.728 364.298 202.096 363.33 202.096ZM363.33 201.268C364.002 201.268 364.498 200.984 364.818 200.416C365.138 199.848 365.298 198.964 365.298 197.764C365.298 196.556 365.138 195.672 364.818 195.112C364.506 194.552 364.01 194.272 363.33 194.272C362.658 194.272 362.162 194.556 361.842 195.124C361.522 195.684 361.362 196.564 361.362 197.764C361.362 198.964 361.522 199.848 361.842 200.416C362.162 200.984 362.658 201.268 363.33 201.268ZM373.022 201.172C373.166 201.172 373.278 201.208 373.358 201.28C373.438 201.352 373.478 201.452 373.478 201.58C373.478 201.86 373.326 202 373.022 202H368.318C368.182 202 368.07 201.96 367.982 201.88C367.894 201.792 367.85 201.688 367.85 201.568C367.85 201.416 367.906 201.284 368.018 201.172L370.91 197.992C371.31 197.544 371.598 197.144 371.774 196.792C371.958 196.432 372.05 196.072 372.05 195.712C372.05 195.248 371.914 194.892 371.642 194.644C371.378 194.396 371.002 194.272 370.514 194.272C370.13 194.272 369.762 194.344 369.41 194.488C369.058 194.624 368.706 194.836 368.354 195.124C368.234 195.22 368.122 195.268 368.018 195.268C367.93 195.268 367.854 195.228 367.79 195.148C367.726 195.06 367.694 194.956 367.694 194.836C367.694 194.668 367.758 194.532 367.886 194.428C368.214 194.124 368.614 193.884 369.086 193.708C369.558 193.532 370.042 193.444 370.538 193.444C371.298 193.444 371.902 193.644 372.35 194.044C372.806 194.444 373.034 194.984 373.034 195.664C373.034 196.152 372.922 196.62 372.698 197.068C372.482 197.516 372.122 198.016 371.618 198.568L369.218 201.172H373.022ZM377.721 202.096C376.753 202.096 376.017 201.728 375.513 200.992C375.009 200.256 374.757 199.184 374.757 197.776C374.757 196.36 375.009 195.284 375.513 194.548C376.017 193.812 376.753 193.444 377.721 193.444C378.689 193.444 379.425 193.812 379.929 194.548C380.433 195.276 380.685 196.348 380.685 197.764C380.685 199.18 380.433 200.256 379.929 200.992C379.425 201.728 378.689 202.096 377.721 202.096ZM377.721 201.268C378.393 201.268 378.889 200.984 379.209 200.416C379.529 199.848 379.689 198.964 379.689 197.764C379.689 196.556 379.529 195.672 379.209 195.112C378.897 194.552 378.401 194.272 377.721 194.272C377.049 194.272 376.553 194.556 376.233 195.124C375.913 195.684 375.753 196.564 375.753 197.764C375.753 198.964 375.913 199.848 376.233 200.416C376.553 200.984 377.049 201.268 377.721 201.268Z" fill="#234CAD"/>
<path d="M266.12 180.144C265.299 180.144 264.52 180.037 263.784 179.824C263.059 179.6 262.467 179.301 262.008 178.928C261.763 178.747 261.64 178.491 261.64 178.16C261.64 177.936 261.704 177.744 261.832 177.584C261.971 177.413 262.131 177.328 262.312 177.328C262.504 177.328 262.723 177.403 262.968 177.552C263.427 177.883 263.907 178.123 264.408 178.272C264.909 178.421 265.464 178.496 266.072 178.496C266.851 178.496 267.448 178.363 267.864 178.096C268.28 177.819 268.488 177.419 268.488 176.896C268.488 176.491 268.291 176.181 267.896 175.968C267.512 175.744 266.867 175.531 265.96 175.328C265.021 175.125 264.259 174.891 263.672 174.624C263.085 174.357 262.643 174.016 262.344 173.6C262.045 173.184 261.896 172.656 261.896 172.016C261.896 171.355 262.083 170.763 262.456 170.24C262.829 169.717 263.347 169.312 264.008 169.024C264.68 168.725 265.432 168.576 266.264 168.576C267.789 168.576 269.032 168.981 269.992 169.792C270.131 169.909 270.227 170.027 270.28 170.144C270.344 170.251 270.376 170.389 270.376 170.56C270.376 170.784 270.307 170.981 270.168 171.152C270.04 171.312 269.885 171.392 269.704 171.392C269.597 171.392 269.496 171.376 269.4 171.344C269.315 171.312 269.197 171.253 269.048 171.168C268.611 170.848 268.184 170.613 267.768 170.464C267.363 170.304 266.861 170.224 266.264 170.224C265.539 170.224 264.963 170.373 264.536 170.672C264.12 170.96 263.912 171.365 263.912 171.888C263.912 172.325 264.099 172.661 264.472 172.896C264.845 173.131 265.48 173.349 266.376 173.552C267.325 173.765 268.093 174.005 268.68 174.272C269.277 174.528 269.731 174.859 270.04 175.264C270.36 175.669 270.52 176.176 270.52 176.784C270.52 177.445 270.333 178.032 269.96 178.544C269.597 179.045 269.08 179.44 268.408 179.728C267.747 180.005 266.984 180.144 266.12 180.144ZM275.635 171.984C276.723 171.984 277.528 172.256 278.051 172.8C278.584 173.333 278.851 174.149 278.851 175.248V179.152C278.851 179.44 278.766 179.669 278.595 179.84C278.424 180 278.19 180.08 277.891 180.08C277.614 180.08 277.384 179.995 277.203 179.824C277.032 179.653 276.947 179.429 276.947 179.152V178.8C276.766 179.216 276.478 179.541 276.083 179.776C275.699 180.011 275.251 180.128 274.739 180.128C274.216 180.128 273.742 180.021 273.315 179.808C272.888 179.595 272.552 179.301 272.307 178.928C272.062 178.555 271.939 178.139 271.939 177.68C271.939 177.104 272.083 176.651 272.371 176.32C272.67 175.989 273.15 175.749 273.811 175.6C274.472 175.451 275.384 175.376 276.547 175.376H276.947V175.008C276.947 174.485 276.835 174.107 276.611 173.872C276.387 173.627 276.024 173.504 275.523 173.504C275.214 173.504 274.899 173.552 274.579 173.648C274.259 173.733 273.88 173.861 273.443 174.032C273.166 174.171 272.963 174.24 272.835 174.24C272.643 174.24 272.483 174.171 272.355 174.032C272.238 173.893 272.179 173.712 272.179 173.488C272.179 173.307 272.222 173.152 272.307 173.024C272.403 172.885 272.558 172.757 272.771 172.64C273.144 172.437 273.587 172.277 274.099 172.16C274.622 172.043 275.134 171.984 275.635 171.984ZM275.139 178.688C275.672 178.688 276.104 178.512 276.435 178.16C276.776 177.797 276.947 177.333 276.947 176.768V176.432H276.659C275.944 176.432 275.39 176.464 274.995 176.528C274.6 176.592 274.318 176.704 274.147 176.864C273.976 177.024 273.891 177.243 273.891 177.52C273.891 177.861 274.008 178.144 274.243 178.368C274.488 178.581 274.787 178.688 275.139 178.688ZM281.876 180.096C281.588 180.096 281.348 180.016 281.156 179.856C280.974 179.685 280.884 179.445 280.884 179.136V169.584C280.884 169.275 280.974 169.04 281.156 168.88C281.348 168.72 281.588 168.64 281.876 168.64C282.164 168.64 282.404 168.72 282.596 168.88C282.788 169.04 282.884 169.275 282.884 169.584V179.136C282.884 179.445 282.788 179.685 282.596 179.856C282.404 180.016 282.164 180.096 281.876 180.096ZM291.138 177.856C291.32 177.856 291.464 177.925 291.57 178.064C291.688 178.203 291.746 178.389 291.746 178.624C291.746 178.955 291.549 179.232 291.154 179.456C290.792 179.659 290.381 179.824 289.922 179.952C289.464 180.069 289.026 180.128 288.61 180.128C287.352 180.128 286.354 179.765 285.618 179.04C284.882 178.315 284.514 177.323 284.514 176.064C284.514 175.264 284.674 174.555 284.994 173.936C285.314 173.317 285.762 172.837 286.338 172.496C286.925 172.155 287.586 171.984 288.322 171.984C289.026 171.984 289.64 172.139 290.162 172.448C290.685 172.757 291.09 173.195 291.378 173.76C291.666 174.325 291.81 174.992 291.81 175.76C291.81 176.219 291.608 176.448 291.202 176.448H286.482C286.546 177.184 286.754 177.728 287.106 178.08C287.458 178.421 287.97 178.592 288.642 178.592C288.984 178.592 289.282 178.549 289.538 178.464C289.805 178.379 290.104 178.261 290.434 178.112C290.754 177.941 290.989 177.856 291.138 177.856ZM288.37 173.392C287.826 173.392 287.389 173.563 287.058 173.904C286.738 174.245 286.546 174.736 286.482 175.376H290.098C290.077 174.725 289.917 174.235 289.618 173.904C289.32 173.563 288.904 173.392 288.37 173.392ZM296.278 180.128C295.116 180.128 294.177 179.899 293.462 179.44C293.121 179.237 292.95 178.949 292.95 178.576C292.95 178.363 293.009 178.192 293.126 178.064C293.244 177.925 293.388 177.856 293.558 177.856C293.74 177.856 293.99 177.941 294.31 178.112C294.652 178.272 294.961 178.395 295.238 178.48C295.526 178.565 295.889 178.608 296.326 178.608C296.774 178.608 297.121 178.533 297.366 178.384C297.622 178.235 297.75 178.027 297.75 177.76C297.75 177.579 297.697 177.435 297.59 177.328C297.494 177.221 297.313 177.125 297.046 177.04C296.79 176.944 296.396 176.837 295.862 176.72C294.913 176.528 294.23 176.256 293.814 175.904C293.409 175.552 293.206 175.067 293.206 174.448C293.206 173.979 293.345 173.557 293.622 173.184C293.9 172.8 294.278 172.507 294.758 172.304C295.249 172.091 295.804 171.984 296.422 171.984C296.87 171.984 297.302 172.043 297.718 172.16C298.134 172.267 298.508 172.427 298.838 172.64C299.18 172.853 299.35 173.136 299.35 173.488C299.35 173.701 299.292 173.883 299.174 174.032C299.057 174.171 298.913 174.24 298.742 174.24C298.625 174.24 298.508 174.219 298.39 174.176C298.284 174.123 298.145 174.048 297.974 173.952C297.665 173.792 297.398 173.675 297.174 173.6C296.95 173.515 296.673 173.472 296.342 173.472C295.948 173.472 295.633 173.552 295.398 173.712C295.174 173.872 295.062 174.091 295.062 174.368C295.062 174.635 295.18 174.837 295.414 174.976C295.649 175.115 296.102 175.253 296.774 175.392C297.489 175.541 298.049 175.712 298.454 175.904C298.86 176.096 299.148 176.336 299.318 176.624C299.5 176.912 299.59 177.28 299.59 177.728C299.59 178.453 299.286 179.035 298.678 179.472C298.081 179.909 297.281 180.128 296.278 180.128ZM310.772 180.144C309.684 180.144 308.729 179.909 307.908 179.44C307.097 178.971 306.473 178.299 306.036 177.424C305.598 176.549 305.38 175.525 305.38 174.352C305.38 173.179 305.598 172.16 306.036 171.296C306.473 170.421 307.097 169.749 307.908 169.28C308.729 168.811 309.684 168.576 310.772 168.576C311.476 168.576 312.137 168.683 312.756 168.896C313.374 169.099 313.924 169.397 314.404 169.792C314.542 169.899 314.638 170.011 314.692 170.128C314.745 170.245 314.772 170.389 314.772 170.56C314.772 170.795 314.708 170.992 314.58 171.152C314.452 171.312 314.297 171.392 314.116 171.392C313.902 171.392 313.684 171.317 313.46 171.168C313.001 170.827 312.574 170.592 312.18 170.464C311.785 170.325 311.348 170.256 310.868 170.256C309.758 170.256 308.916 170.603 308.34 171.296C307.774 171.989 307.492 173.008 307.492 174.352C307.492 175.707 307.774 176.731 308.34 177.424C308.916 178.117 309.758 178.464 310.868 178.464C311.326 178.464 311.748 178.395 312.132 178.256C312.526 178.117 312.969 177.883 313.46 177.552C313.566 177.488 313.673 177.435 313.78 177.392C313.886 177.349 313.998 177.328 314.116 177.328C314.297 177.328 314.452 177.408 314.58 177.568C314.708 177.728 314.772 177.925 314.772 178.16C314.772 178.32 314.745 178.464 314.692 178.592C314.638 178.709 314.542 178.821 314.404 178.928C313.924 179.323 313.374 179.627 312.756 179.84C312.137 180.043 311.476 180.144 310.772 180.144ZM319.635 171.984C320.723 171.984 321.528 172.256 322.051 172.8C322.584 173.333 322.851 174.149 322.851 175.248V179.152C322.851 179.44 322.766 179.669 322.595 179.84C322.424 180 322.19 180.08 321.891 180.08C321.614 180.08 321.384 179.995 321.203 179.824C321.032 179.653 320.947 179.429 320.947 179.152V178.8C320.766 179.216 320.478 179.541 320.083 179.776C319.699 180.011 319.251 180.128 318.739 180.128C318.216 180.128 317.742 180.021 317.315 179.808C316.888 179.595 316.552 179.301 316.307 178.928C316.062 178.555 315.939 178.139 315.939 177.68C315.939 177.104 316.083 176.651 316.371 176.32C316.67 175.989 317.15 175.749 317.811 175.6C318.472 175.451 319.384 175.376 320.547 175.376H320.947V175.008C320.947 174.485 320.835 174.107 320.611 173.872C320.387 173.627 320.024 173.504 319.523 173.504C319.214 173.504 318.899 173.552 318.579 173.648C318.259 173.733 317.88 173.861 317.443 174.032C317.166 174.171 316.963 174.24 316.835 174.24C316.643 174.24 316.483 174.171 316.355 174.032C316.238 173.893 316.179 173.712 316.179 173.488C316.179 173.307 316.222 173.152 316.307 173.024C316.403 172.885 316.558 172.757 316.771 172.64C317.144 172.437 317.587 172.277 318.099 172.16C318.622 172.043 319.134 171.984 319.635 171.984ZM319.139 178.688C319.672 178.688 320.104 178.512 320.435 178.16C320.776 177.797 320.947 177.333 320.947 176.768V176.432H320.659C319.944 176.432 319.39 176.464 318.995 176.528C318.6 176.592 318.318 176.704 318.147 176.864C317.976 177.024 317.891 177.243 317.891 177.52C317.891 177.861 318.008 178.144 318.243 178.368C318.488 178.581 318.787 178.688 319.139 178.688ZM325.876 180.096C325.588 180.096 325.348 180.016 325.156 179.856C324.974 179.685 324.884 179.445 324.884 179.136V169.584C324.884 169.275 324.974 169.04 325.156 168.88C325.348 168.72 325.588 168.64 325.876 168.64C326.164 168.64 326.404 168.72 326.596 168.88C326.788 169.04 326.884 169.275 326.884 169.584V179.136C326.884 179.445 326.788 179.685 326.596 179.856C326.404 180.016 326.164 180.096 325.876 180.096ZM329.938 180.096C329.65 180.096 329.41 180.016 329.218 179.856C329.037 179.685 328.946 179.445 328.946 179.136V169.584C328.946 169.275 329.037 169.04 329.218 168.88C329.41 168.72 329.65 168.64 329.938 168.64C330.226 168.64 330.466 168.72 330.658 168.88C330.85 169.04 330.946 169.275 330.946 169.584V179.136C330.946 179.445 330.85 179.685 330.658 179.856C330.466 180.016 330.226 180.096 329.938 180.096Z" fill="#234CAD"/>
</g>
<circle cx="211" cy="186" r="29" stroke="#234CAD" stroke-width="2"/>
<path d="M203.333 179.333C203.333 179.886 203.781 180.333 204.333 180.333C204.886 180.333 205.333 179.886 205.333 179.333H203.333ZM205.333 176C205.333 175.448 204.886 175 204.333 175C203.781 175 203.333 175.448 203.333 176H205.333ZM207.778 179.333C207.778 179.886 208.225 180.333 208.778 180.333C209.33 180.333 209.778 179.886 209.778 179.333H207.778ZM209.778 176C209.778 175.448 209.33 175 208.778 175C208.225 175 207.778 175.448 207.778 176H209.778ZM212.222 179.333C212.222 179.886 212.67 180.333 213.222 180.333C213.775 180.333 214.222 179.886 214.222 179.333H212.222ZM214.222 176C214.222 175.448 213.775 175 213.222 175C212.67 175 212.222 175.448 212.222 176H214.222ZM216.667 179.333C216.667 179.886 217.114 180.333 217.667 180.333C218.219 180.333 218.667 179.886 218.667 179.333H216.667ZM218.667 176C218.667 175.448 218.219 175 217.667 175C217.114 175 216.667 175.448 216.667 176H218.667ZM221 184.778C221.552 184.778 222 184.33 222 183.778C222 183.225 221.552 182.778 221 182.778V184.778ZM201 182.778C200.448 182.778 200 183.225 200 183.778C200 184.33 200.448 184.778 201 184.778V182.778ZM205.333 179.333V176H203.333V179.333H205.333ZM209.778 179.333V176H207.778V179.333H209.778ZM214.222 179.333V176H212.222V179.333H214.222ZM218.667 179.333V176H216.667V179.333H218.667ZM221 182.778H201V184.778H221V182.778ZM203.222 197H218.778V195H203.222V197ZM218.778 197C220.557 197 222 195.557 222 193.778H220C220 194.453 219.453 195 218.778 195V197ZM222 193.778V180.444H220V193.778H222ZM222 180.444C222 178.665 220.557 177.222 218.778 177.222V179.222C219.453 179.222 220 179.769 220 180.444H222ZM218.778 177.222H203.222V179.222H218.778V177.222ZM203.222 177.222C201.443 177.222 200 178.665 200 180.444H202C202 179.769 202.547 179.222 203.222 179.222V177.222ZM200 180.444V193.778H202V180.444H200ZM200 193.778C200 195.557 201.443 197 203.222 197V195C202.547 195 202 194.453 202 193.778H200Z" fill="#234CAD"/>
</g>
<defs>
<filter id="filter0_f_12263_217" x="0.085907" y="0.085907" width="597.828" height="456.828" filterUnits="userSpaceOnUse" color-interpolation-filters="sRGB">
<feFlood flood-opacity="0" result="BackgroundImageFix"/>
<feBlend mode="normal" in="SourceGraphic" in2="BackgroundImageFix" result="shape"/>
<feGaussianBlur stdDeviation="67.957" result="effect1_foregroundBlur_12263_217"/>
</filter>
<linearGradient id="paint0_linear_12263_217" x1="382.875" y1="388.706" x2="489.954" y2="114.702" gradientUnits="userSpaceOnUse">
<stop stop-color="#234CAD"/>
<stop offset="1" stop-color="#234CAD" stop-opacity="0.5"/>
</linearGradient>
<clipPath id="clip0_12263_217">
<rect width="121" height="45" fill="white" transform="translate(261 164)"/>
</clipPath>
</defs>
</svg>
