<svg width="537" height="426" viewBox="0 0 537 426" fill="none" xmlns="http://www.w3.org/2000/svg">
<g opacity="0.85">
<g opacity="0.05" filter="url(#filter0_f_12263_281)">
<rect x="75" y="136" width="326" height="185" rx="25" fill="url(#paint0_linear_12263_281)"/>
</g>
<rect x="100" y="136" width="276" height="160" rx="25" fill="white"/>
<g clip-path="url(#clip0_12263_281)">
<circle cx="170" cy="256" r="19" fill="#F2F6FF" stroke="white" stroke-width="2"/>
<path d="M168.89 252.23C168.997 252.003 169.173 251.89 169.42 251.89C169.587 251.89 169.737 251.943 169.87 252.05C170.003 252.157 170.07 252.29 170.07 252.45C170.07 252.523 170.05 252.607 170.01 252.7L167.24 258.66C167.18 258.787 167.087 258.887 166.96 258.96C166.84 259.027 166.71 259.06 166.57 259.06C166.43 259.06 166.297 259.027 166.17 258.96C166.05 258.887 165.96 258.787 165.9 258.66L163.14 252.7C163.1 252.607 163.08 252.527 163.08 252.46C163.08 252.293 163.147 252.157 163.28 252.05C163.42 251.943 163.577 251.89 163.75 251.89C163.863 251.89 163.967 251.92 164.06 251.98C164.16 252.033 164.237 252.117 164.29 252.23L166.59 257.34L168.89 252.23ZM176.239 251.9C176.425 251.9 176.572 251.96 176.679 252.08C176.792 252.193 176.849 252.347 176.849 252.54V258.41C176.849 258.603 176.792 258.76 176.679 258.88C176.565 259 176.419 259.06 176.239 259.06C176.025 259.06 175.862 258.983 175.749 258.83L172.099 254.08V258.41C172.099 258.603 172.045 258.76 171.939 258.88C171.832 259 171.685 259.06 171.499 259.06C171.312 259.06 171.165 259 171.059 258.88C170.952 258.76 170.899 258.603 170.899 258.41V252.54C170.899 252.347 170.955 252.193 171.069 252.08C171.182 251.96 171.332 251.9 171.519 251.9C171.725 251.9 171.885 251.977 171.999 252.13L175.639 256.86V252.54C175.639 252.347 175.692 252.193 175.799 252.08C175.912 251.96 176.059 251.9 176.239 251.9Z" fill="#234CAD"/>
</g>
<g clip-path="url(#clip1_12263_281)">
<circle cx="140" cy="256" r="19" fill="#F2F6FF" stroke="white" stroke-width="2"/>
<path d="M135.91 259.09C135.23 259.09 134.633 258.943 134.12 258.65C133.613 258.357 133.223 257.937 132.95 257.39C132.677 256.843 132.54 256.203 132.54 255.47C132.54 254.737 132.677 254.1 132.95 253.56C133.223 253.013 133.613 252.593 134.12 252.3C134.633 252.007 135.23 251.86 135.91 251.86C136.35 251.86 136.763 251.927 137.15 252.06C137.537 252.187 137.88 252.373 138.18 252.62C138.267 252.687 138.327 252.757 138.36 252.83C138.393 252.903 138.41 252.993 138.41 253.1C138.41 253.247 138.37 253.37 138.29 253.47C138.21 253.57 138.113 253.62 138 253.62C137.867 253.62 137.73 253.573 137.59 253.48C137.303 253.267 137.037 253.12 136.79 253.04C136.543 252.953 136.27 252.91 135.97 252.91C135.277 252.91 134.75 253.127 134.39 253.56C134.037 253.993 133.86 254.63 133.86 255.47C133.86 256.317 134.037 256.957 134.39 257.39C134.75 257.823 135.277 258.04 135.97 258.04C136.257 258.04 136.52 257.997 136.76 257.91C137.007 257.823 137.283 257.677 137.59 257.47C137.657 257.43 137.723 257.397 137.79 257.37C137.857 257.343 137.927 257.33 138 257.33C138.113 257.33 138.21 257.38 138.29 257.48C138.37 257.58 138.41 257.703 138.41 257.85C138.41 257.95 138.393 258.04 138.36 258.12C138.327 258.193 138.267 258.263 138.18 258.33C137.88 258.577 137.537 258.767 137.15 258.9C136.763 259.027 136.35 259.09 135.91 259.09ZM142.55 259.09C141.864 259.09 141.267 258.943 140.76 258.65C140.26 258.357 139.874 257.937 139.6 257.39C139.327 256.843 139.19 256.203 139.19 255.47C139.19 254.737 139.324 254.1 139.59 253.56C139.864 253.013 140.254 252.593 140.76 252.3C141.267 252.007 141.864 251.86 142.55 251.86C143.237 251.86 143.83 252.007 144.33 252.3C144.837 252.593 145.224 253.013 145.49 253.56C145.764 254.1 145.9 254.737 145.9 255.47C145.9 256.203 145.764 256.843 145.49 257.39C145.217 257.937 144.827 258.357 144.32 258.65C143.82 258.943 143.23 259.09 142.55 259.09ZM142.55 258.06C143.197 258.06 143.7 257.837 144.06 257.39C144.427 256.943 144.61 256.303 144.61 255.47C144.61 254.637 144.427 254 144.06 253.56C143.7 253.113 143.197 252.89 142.55 252.89C141.897 252.89 141.387 253.113 141.02 253.56C140.66 254 140.48 254.637 140.48 255.47C140.48 256.303 140.66 256.943 141.02 257.39C141.387 257.837 141.897 258.06 142.55 258.06Z" fill="#234CAD"/>
</g>
<g clip-path="url(#clip2_12263_281)">
<path d="M206.396 199.348C206.54 199.348 206.652 199.388 206.732 199.468C206.812 199.54 206.852 199.636 206.852 199.756C206.852 200.028 206.7 200.164 206.396 200.164H205.496V201.556C205.496 201.716 205.448 201.84 205.352 201.928C205.264 202.016 205.148 202.06 205.004 202.06C204.86 202.06 204.744 202.016 204.656 201.928C204.568 201.84 204.524 201.716 204.524 201.556V200.164H200.972C200.828 200.164 200.716 200.124 200.636 200.044C200.556 199.964 200.516 199.864 200.516 199.744C200.516 199.632 200.56 199.508 200.648 199.372L204.572 193.696C204.684 193.552 204.828 193.48 205.004 193.48C205.14 193.48 205.256 193.524 205.352 193.612C205.448 193.7 205.496 193.824 205.496 193.984V199.348H206.396ZM201.632 199.348H204.524V195.184L201.632 199.348ZM208.575 197.38C208.383 197.38 208.223 197.32 208.095 197.2C207.967 197.072 207.903 196.908 207.903 196.708C207.903 196.508 207.967 196.348 208.095 196.228C208.223 196.1 208.383 196.036 208.575 196.036C208.759 196.036 208.911 196.1 209.031 196.228C209.159 196.348 209.223 196.508 209.223 196.708C209.223 196.908 209.159 197.072 209.031 197.2C208.911 197.32 208.759 197.38 208.575 197.38ZM208.575 202.06C208.383 202.06 208.223 202 208.095 201.88C207.967 201.752 207.903 201.588 207.903 201.388C207.903 201.188 207.967 201.024 208.095 200.896C208.223 200.768 208.383 200.704 208.575 200.704C208.759 200.704 208.911 200.768 209.031 200.896C209.159 201.024 209.223 201.188 209.223 201.388C209.223 201.588 209.159 201.752 209.031 201.88C208.911 202 208.759 202.06 208.575 202.06ZM216.334 199.348C216.478 199.348 216.59 199.388 216.67 199.468C216.75 199.54 216.79 199.636 216.79 199.756C216.79 200.028 216.638 200.164 216.334 200.164H215.434V201.556C215.434 201.716 215.386 201.84 215.29 201.928C215.202 202.016 215.086 202.06 214.942 202.06C214.798 202.06 214.682 202.016 214.594 201.928C214.506 201.84 214.462 201.716 214.462 201.556V200.164H210.91C210.766 200.164 210.654 200.124 210.574 200.044C210.494 199.964 210.454 199.864 210.454 199.744C210.454 199.632 210.498 199.508 210.586 199.372L214.51 193.696C214.622 193.552 214.766 193.48 214.942 193.48C215.078 193.48 215.194 193.524 215.29 193.612C215.386 193.7 215.434 193.824 215.434 193.984V199.348H216.334ZM211.57 199.348H214.462V195.184L211.57 199.348ZM221.057 196.696C221.593 196.696 222.061 196.808 222.461 197.032C222.869 197.256 223.181 197.572 223.397 197.98C223.621 198.38 223.733 198.844 223.733 199.372C223.733 199.9 223.613 200.372 223.373 200.788C223.133 201.196 222.797 201.516 222.365 201.748C221.941 201.972 221.449 202.084 220.889 202.084C220.393 202.084 219.909 201.996 219.437 201.82C218.965 201.644 218.565 201.404 218.237 201.1C218.109 200.98 218.045 200.844 218.045 200.692C218.045 200.572 218.077 200.472 218.141 200.392C218.205 200.312 218.281 200.272 218.369 200.272C218.481 200.272 218.593 200.316 218.705 200.404C219.057 200.692 219.409 200.908 219.761 201.052C220.113 201.188 220.481 201.256 220.865 201.256C221.457 201.256 221.921 201.088 222.257 200.752C222.593 200.416 222.761 199.96 222.761 199.384C222.761 198.824 222.593 198.372 222.257 198.028C221.921 197.684 221.469 197.512 220.901 197.512C220.173 197.512 219.581 197.792 219.125 198.352C219.013 198.472 218.877 198.532 218.717 198.532C218.605 198.532 218.509 198.5 218.429 198.436C218.357 198.364 218.321 198.268 218.321 198.148V194.008C218.321 193.872 218.361 193.76 218.441 193.672C218.529 193.584 218.649 193.54 218.801 193.54H223.025C223.169 193.54 223.281 193.576 223.361 193.648C223.449 193.72 223.493 193.82 223.493 193.948C223.493 194.076 223.449 194.176 223.361 194.248C223.281 194.32 223.169 194.356 223.025 194.356H219.293V197.368C219.517 197.152 219.777 196.988 220.073 196.876C220.377 196.756 220.705 196.696 221.057 196.696ZM228.958 202.06C228.806 202.06 228.686 202.016 228.598 201.928C228.51 201.832 228.466 201.708 228.466 201.556V194.02C228.466 193.876 228.51 193.76 228.598 193.672C228.694 193.584 228.818 193.54 228.97 193.54H231.814C232.702 193.54 233.39 193.756 233.878 194.188C234.374 194.62 234.622 195.232 234.622 196.024C234.622 196.816 234.374 197.432 233.878 197.872C233.382 198.312 232.694 198.532 231.814 198.532H229.45V201.556C229.45 201.708 229.406 201.832 229.318 201.928C229.23 202.016 229.11 202.06 228.958 202.06ZM231.718 197.716C233.006 197.716 233.65 197.152 233.65 196.024C233.65 194.912 233.006 194.356 231.718 194.356H229.45V197.716H231.718ZM243.712 193.48C243.864 193.48 243.98 193.528 244.06 193.624C244.148 193.712 244.192 193.832 244.192 193.984V201.58C244.192 201.724 244.152 201.84 244.072 201.928C243.992 202.016 243.88 202.06 243.736 202.06C243.592 202.06 243.484 202.016 243.412 201.928C243.34 201.84 243.304 201.724 243.304 201.58V195.448L240.7 200.44C240.588 200.672 240.424 200.788 240.208 200.788C240 200.788 239.836 200.672 239.716 200.44L237.1 195.508V201.58C237.1 201.724 237.06 201.84 236.98 201.928C236.908 202.016 236.8 202.06 236.656 202.06C236.512 202.06 236.4 202.016 236.32 201.928C236.24 201.84 236.2 201.724 236.2 201.58V193.984C236.2 193.832 236.244 193.712 236.332 193.624C236.42 193.528 236.54 193.48 236.692 193.48C236.892 193.48 237.052 193.596 237.172 193.828L240.22 199.672L243.232 193.828C243.296 193.7 243.364 193.612 243.436 193.564C243.516 193.508 243.608 193.48 243.712 193.48ZM253.068 197.656C253.58 197.8 253.968 198.048 254.232 198.4C254.504 198.752 254.64 199.188 254.64 199.708C254.64 200.444 254.392 201.024 253.896 201.448C253.4 201.872 252.724 202.084 251.868 202.084C251.348 202.084 250.848 201.996 250.368 201.82C249.896 201.644 249.496 201.404 249.168 201.1C249.04 200.98 248.976 200.844 248.976 200.692C248.976 200.572 249.008 200.472 249.072 200.392C249.136 200.312 249.212 200.272 249.3 200.272C249.412 200.272 249.524 200.316 249.636 200.404C250.004 200.7 250.364 200.916 250.716 201.052C251.068 201.188 251.448 201.256 251.856 201.256C252.448 201.256 252.896 201.12 253.2 200.848C253.512 200.576 253.668 200.184 253.668 199.672C253.668 198.64 253.02 198.124 251.724 198.124H251.088C250.96 198.124 250.856 198.084 250.776 198.004C250.704 197.916 250.668 197.816 250.668 197.704C250.668 197.592 250.704 197.496 250.776 197.416C250.856 197.336 250.96 197.296 251.088 197.296H251.532C252.156 197.296 252.636 197.16 252.972 196.888C253.308 196.608 253.476 196.208 253.476 195.688C253.476 195.232 253.34 194.884 253.068 194.644C252.796 194.396 252.412 194.272 251.916 194.272C251.54 194.272 251.176 194.344 250.824 194.488C250.472 194.624 250.12 194.836 249.768 195.124C249.656 195.212 249.544 195.256 249.432 195.256C249.344 195.256 249.268 195.216 249.204 195.136C249.14 195.056 249.108 194.956 249.108 194.836C249.108 194.684 249.172 194.548 249.3 194.428C249.628 194.124 250.024 193.884 250.488 193.708C250.96 193.532 251.444 193.444 251.94 193.444C252.708 193.444 253.32 193.64 253.776 194.032C254.232 194.424 254.456 194.952 254.448 195.616C254.44 196.096 254.312 196.516 254.064 196.876C253.824 197.236 253.492 197.496 253.068 197.656ZM259.135 202.096C258.167 202.096 257.431 201.728 256.927 200.992C256.423 200.256 256.171 199.184 256.171 197.776C256.171 196.36 256.423 195.284 256.927 194.548C257.431 193.812 258.167 193.444 259.135 193.444C260.103 193.444 260.839 193.812 261.343 194.548C261.847 195.276 262.099 196.348 262.099 197.764C262.099 199.18 261.847 200.256 261.343 200.992C260.839 201.728 260.103 202.096 259.135 202.096ZM259.135 201.268C259.807 201.268 260.303 200.984 260.623 200.416C260.943 199.848 261.103 198.964 261.103 197.764C261.103 196.556 260.943 195.672 260.623 195.112C260.311 194.552 259.815 194.272 259.135 194.272C258.463 194.272 257.967 194.556 257.647 195.124C257.327 195.684 257.167 196.564 257.167 197.764C257.167 198.964 257.327 199.848 257.647 200.416C257.967 200.984 258.463 201.268 259.135 201.268ZM274.38 193.48C274.532 193.48 274.648 193.528 274.728 193.624C274.816 193.712 274.86 193.832 274.86 193.984V201.58C274.86 201.724 274.82 201.84 274.74 201.928C274.66 202.016 274.548 202.06 274.404 202.06C274.26 202.06 274.152 202.016 274.08 201.928C274.008 201.84 273.972 201.724 273.972 201.58V195.448L271.368 200.44C271.256 200.672 271.092 200.788 270.876 200.788C270.668 200.788 270.504 200.672 270.384 200.44L267.768 195.508V201.58C267.768 201.724 267.728 201.84 267.648 201.928C267.576 202.016 267.468 202.06 267.324 202.06C267.18 202.06 267.068 202.016 266.988 201.928C266.908 201.84 266.868 201.724 266.868 201.58V193.984C266.868 193.832 266.912 193.712 267 193.624C267.088 193.528 267.208 193.48 267.36 193.48C267.56 193.48 267.72 193.596 267.84 193.828L270.888 199.672L273.9 193.828C273.964 193.7 274.032 193.612 274.104 193.564C274.184 193.508 274.276 193.48 274.38 193.48ZM279.202 196.012C280.666 196.012 281.398 196.78 281.398 198.316V201.58C281.398 201.724 281.354 201.84 281.266 201.928C281.186 202.016 281.074 202.06 280.93 202.06C280.786 202.06 280.67 202.016 280.582 201.928C280.494 201.84 280.45 201.724 280.45 201.58V201.004C280.298 201.348 280.066 201.616 279.754 201.808C279.442 201.992 279.082 202.084 278.674 202.084C278.298 202.084 277.95 202.008 277.63 201.856C277.318 201.704 277.07 201.492 276.886 201.22C276.702 200.948 276.61 200.648 276.61 200.32C276.61 199.88 276.722 199.54 276.946 199.3C277.17 199.052 277.538 198.876 278.05 198.772C278.562 198.66 279.274 198.604 280.186 198.604H280.45V198.208C280.45 197.728 280.35 197.376 280.15 197.152C279.958 196.928 279.642 196.816 279.202 196.816C278.658 196.816 278.106 196.964 277.546 197.26C277.33 197.396 277.178 197.464 277.09 197.464C276.994 197.464 276.914 197.428 276.85 197.356C276.786 197.284 276.754 197.192 276.754 197.08C276.754 196.968 276.786 196.872 276.85 196.792C276.922 196.704 277.034 196.616 277.186 196.528C277.466 196.368 277.782 196.244 278.134 196.156C278.494 196.06 278.85 196.012 279.202 196.012ZM278.806 201.316C279.286 201.316 279.678 201.156 279.982 200.836C280.294 200.508 280.45 200.088 280.45 199.576V199.228H280.234C279.53 199.228 278.994 199.26 278.626 199.324C278.258 199.38 277.994 199.48 277.834 199.624C277.682 199.76 277.606 199.964 277.606 200.236C277.606 200.548 277.718 200.808 277.942 201.016C278.174 201.216 278.462 201.316 278.806 201.316ZM287.389 196.336C287.477 196.144 287.617 196.048 287.809 196.048C287.929 196.048 288.037 196.088 288.133 196.168C288.229 196.248 288.277 196.348 288.277 196.468C288.277 196.54 288.261 196.604 288.229 196.66L284.857 203.932C284.817 204.02 284.757 204.088 284.677 204.136C284.605 204.184 284.529 204.208 284.449 204.208C284.329 204.208 284.221 204.168 284.125 204.088C284.037 204.016 283.993 203.92 283.993 203.8C283.993 203.736 284.009 203.672 284.041 203.608L284.881 201.796L282.505 196.66C282.473 196.604 282.457 196.544 282.457 196.48C282.457 196.36 282.509 196.256 282.613 196.168C282.725 196.08 282.845 196.036 282.973 196.036C283.053 196.036 283.129 196.06 283.201 196.108C283.281 196.156 283.341 196.224 283.381 196.312L285.385 200.812L287.389 196.336ZM297.631 201.172C297.775 201.172 297.887 201.208 297.967 201.28C298.047 201.352 298.087 201.452 298.087 201.58C298.087 201.86 297.935 202 297.631 202H292.927C292.791 202 292.679 201.96 292.591 201.88C292.503 201.792 292.459 201.688 292.459 201.568C292.459 201.416 292.515 201.284 292.627 201.172L295.519 197.992C295.919 197.544 296.207 197.144 296.383 196.792C296.567 196.432 296.659 196.072 296.659 195.712C296.659 195.248 296.523 194.892 296.251 194.644C295.987 194.396 295.611 194.272 295.123 194.272C294.739 194.272 294.371 194.344 294.019 194.488C293.667 194.624 293.315 194.836 292.963 195.124C292.843 195.22 292.731 195.268 292.627 195.268C292.539 195.268 292.463 195.228 292.399 195.148C292.335 195.06 292.303 194.956 292.303 194.836C292.303 194.668 292.367 194.532 292.495 194.428C292.823 194.124 293.223 193.884 293.695 193.708C294.167 193.532 294.651 193.444 295.147 193.444C295.907 193.444 296.511 193.644 296.959 194.044C297.415 194.444 297.643 194.984 297.643 195.664C297.643 196.152 297.531 196.62 297.307 197.068C297.091 197.516 296.731 198.016 296.227 198.568L293.827 201.172H297.631ZM302.33 202.096C301.362 202.096 300.626 201.728 300.122 200.992C299.618 200.256 299.366 199.184 299.366 197.776C299.366 196.36 299.618 195.284 300.122 194.548C300.626 193.812 301.362 193.444 302.33 193.444C303.298 193.444 304.034 193.812 304.538 194.548C305.042 195.276 305.294 196.348 305.294 197.764C305.294 199.18 305.042 200.256 304.538 200.992C304.034 201.728 303.298 202.096 302.33 202.096ZM302.33 201.268C303.002 201.268 303.498 200.984 303.818 200.416C304.138 199.848 304.298 198.964 304.298 197.764C304.298 196.556 304.138 195.672 303.818 195.112C303.506 194.552 303.01 194.272 302.33 194.272C301.658 194.272 301.162 194.556 300.842 195.124C300.522 195.684 300.362 196.564 300.362 197.764C300.362 198.964 300.522 199.848 300.842 200.416C301.162 200.984 301.658 201.268 302.33 201.268ZM312.022 201.172C312.166 201.172 312.278 201.208 312.358 201.28C312.438 201.352 312.478 201.452 312.478 201.58C312.478 201.86 312.326 202 312.022 202H307.318C307.182 202 307.07 201.96 306.982 201.88C306.894 201.792 306.85 201.688 306.85 201.568C306.85 201.416 306.906 201.284 307.018 201.172L309.91 197.992C310.31 197.544 310.598 197.144 310.774 196.792C310.958 196.432 311.05 196.072 311.05 195.712C311.05 195.248 310.914 194.892 310.642 194.644C310.378 194.396 310.002 194.272 309.514 194.272C309.13 194.272 308.762 194.344 308.41 194.488C308.058 194.624 307.706 194.836 307.354 195.124C307.234 195.22 307.122 195.268 307.018 195.268C306.93 195.268 306.854 195.228 306.79 195.148C306.726 195.06 306.694 194.956 306.694 194.836C306.694 194.668 306.758 194.532 306.886 194.428C307.214 194.124 307.614 193.884 308.086 193.708C308.558 193.532 309.042 193.444 309.538 193.444C310.298 193.444 310.902 193.644 311.35 194.044C311.806 194.444 312.034 194.984 312.034 195.664C312.034 196.152 311.922 196.62 311.698 197.068C311.482 197.516 311.122 198.016 310.618 198.568L308.218 201.172H312.022ZM316.721 202.096C315.753 202.096 315.017 201.728 314.513 200.992C314.009 200.256 313.757 199.184 313.757 197.776C313.757 196.36 314.009 195.284 314.513 194.548C315.017 193.812 315.753 193.444 316.721 193.444C317.689 193.444 318.425 193.812 318.929 194.548C319.433 195.276 319.685 196.348 319.685 197.764C319.685 199.18 319.433 200.256 318.929 200.992C318.425 201.728 317.689 202.096 316.721 202.096ZM316.721 201.268C317.393 201.268 317.889 200.984 318.209 200.416C318.529 199.848 318.689 198.964 318.689 197.764C318.689 196.556 318.529 195.672 318.209 195.112C317.897 194.552 317.401 194.272 316.721 194.272C316.049 194.272 315.553 194.556 315.233 195.124C314.913 195.684 314.753 196.564 314.753 197.764C314.753 198.964 314.913 199.848 315.233 200.416C315.553 200.984 316.049 201.268 316.721 201.268Z" fill="#234CAD"/>
<path d="M211.232 168.64C211.531 168.64 211.771 168.736 211.952 168.928C212.133 169.109 212.224 169.355 212.224 169.664V179.136C212.224 179.435 212.139 179.669 211.968 179.84C211.797 180.011 211.573 180.096 211.296 180.096C211.019 180.096 210.8 180.011 210.64 179.84C210.48 179.669 210.4 179.435 210.4 179.136V172.544L207.68 177.696C207.552 177.931 207.413 178.107 207.264 178.224C207.115 178.331 206.939 178.384 206.736 178.384C206.533 178.384 206.357 178.331 206.208 178.224C206.059 178.117 205.92 177.941 205.792 177.696L203.056 172.624V179.136C203.056 179.424 202.971 179.659 202.8 179.84C202.64 180.011 202.421 180.096 202.144 180.096C201.867 180.096 201.648 180.011 201.488 179.84C201.328 179.669 201.248 179.435 201.248 179.136V169.664C201.248 169.355 201.333 169.109 201.504 168.928C201.685 168.736 201.925 168.64 202.224 168.64C202.64 168.64 202.965 168.869 203.2 169.328L206.752 176.096L210.288 169.328C210.523 168.869 210.837 168.64 211.232 168.64ZM217.885 171.984C218.973 171.984 219.778 172.256 220.301 172.8C220.834 173.333 221.101 174.149 221.101 175.248V179.152C221.101 179.44 221.016 179.669 220.845 179.84C220.674 180 220.44 180.08 220.141 180.08C219.864 180.08 219.634 179.995 219.453 179.824C219.282 179.653 219.197 179.429 219.197 179.152V178.8C219.016 179.216 218.728 179.541 218.333 179.776C217.949 180.011 217.501 180.128 216.989 180.128C216.466 180.128 215.992 180.021 215.565 179.808C215.138 179.595 214.802 179.301 214.557 178.928C214.312 178.555 214.189 178.139 214.189 177.68C214.189 177.104 214.333 176.651 214.621 176.32C214.92 175.989 215.4 175.749 216.061 175.6C216.722 175.451 217.634 175.376 218.797 175.376H219.197V175.008C219.197 174.485 219.085 174.107 218.861 173.872C218.637 173.627 218.274 173.504 217.773 173.504C217.464 173.504 217.149 173.552 216.829 173.648C216.509 173.733 216.13 173.861 215.693 174.032C215.416 174.171 215.213 174.24 215.085 174.24C214.893 174.24 214.733 174.171 214.605 174.032C214.488 173.893 214.429 173.712 214.429 173.488C214.429 173.307 214.472 173.152 214.557 173.024C214.653 172.885 214.808 172.757 215.021 172.64C215.394 172.437 215.837 172.277 216.349 172.16C216.872 172.043 217.384 171.984 217.885 171.984ZM217.389 178.688C217.922 178.688 218.354 178.512 218.685 178.16C219.026 177.797 219.197 177.333 219.197 176.768V176.432H218.909C218.194 176.432 217.64 176.464 217.245 176.528C216.85 176.592 216.568 176.704 216.397 176.864C216.226 177.024 216.141 177.243 216.141 177.52C216.141 177.861 216.258 178.144 216.493 178.368C216.738 178.581 217.037 178.688 217.389 178.688ZM227.502 172.016C227.779 171.995 227.998 172.053 228.158 172.192C228.318 172.331 228.398 172.539 228.398 172.816C228.398 173.104 228.328 173.317 228.19 173.456C228.051 173.595 227.8 173.685 227.438 173.728L226.958 173.776C226.328 173.84 225.864 174.053 225.566 174.416C225.278 174.779 225.134 175.232 225.134 175.776V179.136C225.134 179.445 225.038 179.685 224.846 179.856C224.654 180.016 224.414 180.096 224.126 180.096C223.838 180.096 223.598 180.016 223.406 179.856C223.224 179.685 223.134 179.445 223.134 179.136V172.944C223.134 172.645 223.224 172.416 223.406 172.256C223.598 172.096 223.832 172.016 224.11 172.016C224.387 172.016 224.611 172.096 224.782 172.256C224.952 172.405 225.038 172.624 225.038 172.912V173.552C225.24 173.083 225.539 172.72 225.934 172.464C226.339 172.208 226.787 172.064 227.278 172.032L227.502 172.016ZM236.219 178.448C236.432 178.651 236.539 178.88 236.539 179.136C236.539 179.381 236.448 179.6 236.267 179.792C236.096 179.984 235.893 180.08 235.659 180.08C235.424 180.08 235.205 179.984 235.003 179.792L231.259 176.4V179.136C231.259 179.445 231.163 179.68 230.971 179.84C230.779 180 230.539 180.08 230.251 180.08C229.963 180.08 229.723 180 229.531 179.84C229.349 179.68 229.259 179.445 229.259 179.136V169.584C229.259 169.275 229.349 169.04 229.531 168.88C229.723 168.72 229.963 168.64 230.251 168.64C230.539 168.64 230.779 168.72 230.971 168.88C231.163 169.04 231.259 169.275 231.259 169.584V175.6L234.683 172.32C234.875 172.128 235.093 172.032 235.339 172.032C235.584 172.032 235.797 172.123 235.979 172.304C236.16 172.485 236.251 172.699 236.251 172.944C236.251 173.189 236.149 173.413 235.947 173.616L233.435 175.952L236.219 178.448ZM243.92 177.856C244.101 177.856 244.245 177.925 244.352 178.064C244.469 178.203 244.528 178.389 244.528 178.624C244.528 178.955 244.33 179.232 243.936 179.456C243.573 179.659 243.162 179.824 242.704 179.952C242.245 180.069 241.808 180.128 241.391 180.128C240.133 180.128 239.136 179.765 238.4 179.04C237.664 178.315 237.296 177.323 237.296 176.064C237.296 175.264 237.456 174.555 237.776 173.936C238.096 173.317 238.544 172.837 239.12 172.496C239.706 172.155 240.368 171.984 241.104 171.984C241.808 171.984 242.421 172.139 242.944 172.448C243.466 172.757 243.872 173.195 244.16 173.76C244.448 174.325 244.592 174.992 244.592 175.76C244.592 176.219 244.389 176.448 243.984 176.448H239.264C239.328 177.184 239.536 177.728 239.888 178.08C240.24 178.421 240.752 178.592 241.424 178.592C241.765 178.592 242.064 178.549 242.32 178.464C242.586 178.379 242.885 178.261 243.216 178.112C243.536 177.941 243.77 177.856 243.92 177.856ZM241.152 173.392C240.608 173.392 240.17 173.563 239.84 173.904C239.52 174.245 239.328 174.736 239.264 175.376H242.88C242.858 174.725 242.698 174.235 242.4 173.904C242.101 173.563 241.685 173.392 241.152 173.392ZM250.182 178.608C250.715 178.64 250.982 178.88 250.982 179.328C250.982 179.584 250.875 179.781 250.662 179.92C250.459 180.048 250.166 180.101 249.782 180.08L249.35 180.048C247.558 179.92 246.662 178.96 246.662 177.168V173.68H245.862C245.574 173.68 245.35 173.616 245.19 173.488C245.041 173.36 244.966 173.173 244.966 172.928C244.966 172.683 245.041 172.496 245.19 172.368C245.35 172.24 245.574 172.176 245.862 172.176H246.662V170.704C246.662 170.416 246.753 170.187 246.934 170.016C247.115 169.845 247.361 169.76 247.67 169.76C247.969 169.76 248.209 169.845 248.39 170.016C248.571 170.187 248.662 170.416 248.662 170.704V172.176H250.022C250.31 172.176 250.529 172.24 250.678 172.368C250.838 172.496 250.918 172.683 250.918 172.928C250.918 173.173 250.838 173.36 250.678 173.488C250.529 173.616 250.31 173.68 250.022 173.68H248.662V177.312C248.662 178.101 249.025 178.523 249.75 178.576L250.182 178.608ZM253.016 180.096C252.728 180.096 252.488 180.016 252.296 179.856C252.115 179.685 252.024 179.445 252.024 179.136V172.96C252.024 172.651 252.115 172.416 252.296 172.256C252.488 172.096 252.728 172.016 253.016 172.016C253.304 172.016 253.544 172.096 253.736 172.256C253.928 172.416 254.024 172.651 254.024 172.96V179.136C254.024 179.445 253.928 179.685 253.736 179.856C253.544 180.016 253.304 180.096 253.016 180.096ZM253.016 170.592C252.654 170.592 252.366 170.496 252.152 170.304C251.939 170.101 251.832 169.84 251.832 169.52C251.832 169.2 251.939 168.944 252.152 168.752C252.366 168.56 252.654 168.464 253.016 168.464C253.368 168.464 253.651 168.56 253.864 168.752C254.088 168.944 254.2 169.2 254.2 169.52C254.2 169.84 254.094 170.101 253.88 170.304C253.667 170.496 253.379 170.592 253.016 170.592ZM260.631 171.984C261.57 171.984 262.268 172.251 262.727 172.784C263.186 173.317 263.415 174.123 263.415 175.2V179.136C263.415 179.435 263.324 179.669 263.143 179.84C262.972 180.011 262.732 180.096 262.423 180.096C262.114 180.096 261.868 180.011 261.687 179.84C261.506 179.669 261.415 179.435 261.415 179.136V175.312C261.415 174.704 261.298 174.261 261.063 173.984C260.839 173.707 260.482 173.568 259.991 173.568C259.415 173.568 258.951 173.749 258.599 174.112C258.258 174.475 258.087 174.96 258.087 175.568V179.136C258.087 179.435 257.996 179.669 257.815 179.84C257.634 180.011 257.388 180.096 257.079 180.096C256.77 180.096 256.524 180.011 256.343 179.84C256.172 179.669 256.087 179.435 256.087 179.136V172.944C256.087 172.667 256.178 172.443 256.359 172.272C256.54 172.101 256.786 172.016 257.095 172.016C257.372 172.016 257.596 172.101 257.767 172.272C257.948 172.432 258.039 172.645 258.039 172.912V173.344C258.306 172.907 258.663 172.571 259.111 172.336C259.559 172.101 260.066 171.984 260.631 171.984ZM272.07 172.016C272.369 172.016 272.609 172.101 272.79 172.272C272.972 172.443 273.062 172.672 273.062 172.96V179.28C273.062 180.507 272.721 181.435 272.038 182.064C271.356 182.693 270.348 183.008 269.014 183.008C267.852 183.008 266.881 182.789 266.102 182.352C265.708 182.117 265.51 181.835 265.51 181.504C265.51 181.269 265.564 181.083 265.67 180.944C265.788 180.805 265.937 180.736 266.118 180.736C266.214 180.736 266.332 180.757 266.47 180.8C266.609 180.853 266.753 180.912 266.902 180.976C267.286 181.136 267.628 181.259 267.926 181.344C268.236 181.429 268.588 181.472 268.982 181.472C270.38 181.472 271.078 180.789 271.078 179.424V178.4C270.844 178.837 270.502 179.179 270.054 179.424C269.606 179.659 269.094 179.776 268.518 179.776C267.836 179.776 267.228 179.616 266.694 179.296C266.172 178.965 265.761 178.507 265.462 177.92C265.164 177.333 265.014 176.656 265.014 175.888C265.014 175.12 265.158 174.443 265.446 173.856C265.745 173.259 266.161 172.8 266.694 172.48C267.228 172.149 267.836 171.984 268.518 171.984C269.094 171.984 269.606 172.107 270.054 172.352C270.502 172.587 270.844 172.923 271.078 173.36V172.944C271.078 172.667 271.169 172.443 271.35 172.272C271.532 172.101 271.772 172.016 272.07 172.016ZM269.046 178.224C269.686 178.224 270.182 178.016 270.534 177.6C270.897 177.184 271.078 176.613 271.078 175.888C271.078 175.152 270.897 174.576 270.534 174.16C270.182 173.744 269.686 173.536 269.046 173.536C268.417 173.536 267.921 173.744 267.558 174.16C267.196 174.576 267.014 175.152 267.014 175.888C267.014 176.613 267.196 177.184 267.558 177.6C267.921 178.016 268.417 178.224 269.046 178.224ZM284.694 180.144C283.606 180.144 282.651 179.909 281.83 179.44C281.019 178.971 280.395 178.299 279.958 177.424C279.52 176.549 279.302 175.525 279.302 174.352C279.302 173.179 279.52 172.16 279.958 171.296C280.395 170.421 281.019 169.749 281.83 169.28C282.651 168.811 283.606 168.576 284.694 168.576C285.398 168.576 286.059 168.683 286.678 168.896C287.296 169.099 287.846 169.397 288.326 169.792C288.464 169.899 288.56 170.011 288.614 170.128C288.667 170.245 288.694 170.389 288.694 170.56C288.694 170.795 288.63 170.992 288.502 171.152C288.374 171.312 288.219 171.392 288.038 171.392C287.824 171.392 287.606 171.317 287.382 171.168C286.923 170.827 286.496 170.592 286.102 170.464C285.707 170.325 285.27 170.256 284.79 170.256C283.68 170.256 282.838 170.603 282.262 171.296C281.696 171.989 281.414 173.008 281.414 174.352C281.414 175.707 281.696 176.731 282.262 177.424C282.838 178.117 283.68 178.464 284.79 178.464C285.248 178.464 285.67 178.395 286.054 178.256C286.448 178.117 286.891 177.883 287.382 177.552C287.488 177.488 287.595 177.435 287.702 177.392C287.808 177.349 287.92 177.328 288.038 177.328C288.219 177.328 288.374 177.408 288.502 177.568C288.63 177.728 288.694 177.925 288.694 178.16C288.694 178.32 288.667 178.464 288.614 178.592C288.56 178.709 288.464 178.821 288.326 178.928C287.846 179.323 287.296 179.627 286.678 179.84C286.059 180.043 285.398 180.144 284.694 180.144ZM293.557 171.984C294.645 171.984 295.45 172.256 295.973 172.8C296.506 173.333 296.773 174.149 296.773 175.248V179.152C296.773 179.44 296.688 179.669 296.517 179.84C296.346 180 296.112 180.08 295.813 180.08C295.536 180.08 295.306 179.995 295.125 179.824C294.954 179.653 294.869 179.429 294.869 179.152V178.8C294.688 179.216 294.4 179.541 294.005 179.776C293.621 180.011 293.173 180.128 292.661 180.128C292.138 180.128 291.664 180.021 291.237 179.808C290.81 179.595 290.474 179.301 290.229 178.928C289.984 178.555 289.861 178.139 289.861 177.68C289.861 177.104 290.005 176.651 290.293 176.32C290.592 175.989 291.072 175.749 291.733 175.6C292.394 175.451 293.306 175.376 294.469 175.376H294.869V175.008C294.869 174.485 294.757 174.107 294.533 173.872C294.309 173.627 293.946 173.504 293.445 173.504C293.136 173.504 292.821 173.552 292.501 173.648C292.181 173.733 291.802 173.861 291.365 174.032C291.088 174.171 290.885 174.24 290.757 174.24C290.565 174.24 290.405 174.171 290.277 174.032C290.16 173.893 290.101 173.712 290.101 173.488C290.101 173.307 290.144 173.152 290.229 173.024C290.325 172.885 290.48 172.757 290.693 172.64C291.066 172.437 291.509 172.277 292.021 172.16C292.544 172.043 293.056 171.984 293.557 171.984ZM293.061 178.688C293.594 178.688 294.026 178.512 294.357 178.16C294.698 177.797 294.869 177.333 294.869 176.768V176.432H294.581C293.866 176.432 293.312 176.464 292.917 176.528C292.522 176.592 292.24 176.704 292.069 176.864C291.898 177.024 291.813 177.243 291.813 177.52C291.813 177.861 291.93 178.144 292.165 178.368C292.41 178.581 292.709 178.688 293.061 178.688ZM299.798 180.096C299.51 180.096 299.27 180.016 299.078 179.856C298.896 179.685 298.806 179.445 298.806 179.136V169.584C298.806 169.275 298.896 169.04 299.078 168.88C299.27 168.72 299.51 168.64 299.798 168.64C300.086 168.64 300.326 168.72 300.518 168.88C300.71 169.04 300.806 169.275 300.806 169.584V179.136C300.806 179.445 300.71 179.685 300.518 179.856C300.326 180.016 300.086 180.096 299.798 180.096ZM303.86 180.096C303.572 180.096 303.332 180.016 303.14 179.856C302.959 179.685 302.868 179.445 302.868 179.136V169.584C302.868 169.275 302.959 169.04 303.14 168.88C303.332 168.72 303.572 168.64 303.86 168.64C304.148 168.64 304.388 168.72 304.58 168.88C304.772 169.04 304.868 169.275 304.868 169.584V179.136C304.868 179.445 304.772 179.685 304.58 179.856C304.388 180.016 304.148 180.096 303.86 180.096Z" fill="#234CAD"/>
</g>
<circle cx="150" cy="186" r="29" stroke="#234CAD" stroke-width="2"/>
<path d="M142.333 179.333C142.333 179.886 142.781 180.333 143.333 180.333C143.886 180.333 144.333 179.886 144.333 179.333H142.333ZM144.333 176C144.333 175.448 143.886 175 143.333 175C142.781 175 142.333 175.448 142.333 176H144.333ZM146.778 179.333C146.778 179.886 147.225 180.333 147.778 180.333C148.33 180.333 148.778 179.886 148.778 179.333H146.778ZM148.778 176C148.778 175.448 148.33 175 147.778 175C147.225 175 146.778 175.448 146.778 176H148.778ZM151.222 179.333C151.222 179.886 151.67 180.333 152.222 180.333C152.775 180.333 153.222 179.886 153.222 179.333H151.222ZM153.222 176C153.222 175.448 152.775 175 152.222 175C151.67 175 151.222 175.448 151.222 176H153.222ZM155.667 179.333C155.667 179.886 156.114 180.333 156.667 180.333C157.219 180.333 157.667 179.886 157.667 179.333H155.667ZM157.667 176C157.667 175.448 157.219 175 156.667 175C156.114 175 155.667 175.448 155.667 176H157.667ZM160 184.778C160.552 184.778 161 184.33 161 183.778C161 183.225 160.552 182.778 160 182.778V184.778ZM140 182.778C139.448 182.778 139 183.225 139 183.778C139 184.33 139.448 184.778 140 184.778V182.778ZM144.333 179.333V176H142.333V179.333H144.333ZM148.778 179.333V176H146.778V179.333H148.778ZM153.222 179.333V176H151.222V179.333H153.222ZM157.667 179.333V176H155.667V179.333H157.667ZM160 182.778H140V184.778H160V182.778ZM142.222 197H157.778V195H142.222V197ZM157.778 197C159.557 197 161 195.557 161 193.778H159C159 194.453 158.453 195 157.778 195V197ZM161 193.778V180.444H159V193.778H161ZM161 180.444C161 178.665 159.557 177.222 157.778 177.222V179.222C158.453 179.222 159 179.769 159 180.444H161ZM157.778 177.222H142.222V179.222H157.778V177.222ZM142.222 177.222C140.443 177.222 139 178.665 139 180.444H141C141 179.769 141.547 179.222 142.222 179.222V177.222ZM139 180.444V193.778H141V180.444H139ZM139 193.778C139 195.557 140.443 197 142.222 197V195C141.547 195 141 194.453 141 193.778H139Z" fill="#234CAD"/>
</g>
<defs>
<filter id="filter0_f_12263_281" x="-60.9141" y="0.085907" width="597.828" height="456.828" filterUnits="userSpaceOnUse" color-interpolation-filters="sRGB">
<feFlood flood-opacity="0" result="BackgroundImageFix"/>
<feBlend mode="normal" in="SourceGraphic" in2="BackgroundImageFix" result="shape"/>
<feGaussianBlur stdDeviation="67.957" result="effect1_foregroundBlur_12263_281"/>
</filter>
<linearGradient id="paint0_linear_12263_281" x1="321.875" y1="388.706" x2="428.954" y2="114.702" gradientUnits="userSpaceOnUse">
<stop stop-color="#234CAD"/>
<stop offset="1" stop-color="#234CAD" stop-opacity="0.5"/>
</linearGradient>
<clipPath id="clip0_12263_281">
<rect width="40" height="40" fill="white" transform="translate(150 236)"/>
</clipPath>
<clipPath id="clip1_12263_281">
<rect width="40" height="40" fill="white" transform="translate(120 236)"/>
</clipPath>
<clipPath id="clip2_12263_281">
<rect width="121" height="45" fill="white" transform="translate(200 164)"/>
</clipPath>
</defs>
</svg>
