<svg width="622" height="372" viewBox="0 0 622 372" fill="none" xmlns="http://www.w3.org/2000/svg">
<g opacity="0.05" filter="url(#filter0_f_12263_404)">
<rect x="136" y="136" width="350" height="100" rx="20" fill="url(#paint0_linear_12263_404)"/>
</g>
<rect x="136" y="136" width="350" height="100" rx="20" fill="white"/>
<g clip-path="url(#clip0_12263_404)">
<circle cx="186" cy="186" r="30" fill="#F2F6FF"/>
<path d="M186.87 190.614C186.942 190.77 186.978 190.926 186.978 191.082C186.978 191.358 186.864 191.592 186.636 191.784C186.42 191.976 186.168 192.072 185.88 192.072C185.688 192.072 185.508 192.024 185.34 191.928C185.172 191.82 185.04 191.658 184.944 191.442L183.864 189.03H177.528L176.448 191.442C176.352 191.658 176.22 191.82 176.052 191.928C175.884 192.024 175.698 192.072 175.494 192.072C175.218 192.072 174.966 191.976 174.738 191.784C174.51 191.592 174.396 191.358 174.396 191.082C174.396 190.926 174.432 190.77 174.504 190.614L179.472 179.94C179.58 179.7 179.742 179.52 179.958 179.4C180.186 179.268 180.426 179.202 180.678 179.202C180.93 179.202 181.164 179.268 181.38 179.4C181.608 179.52 181.776 179.7 181.884 179.94L186.87 190.614ZM178.32 187.23H183.072L180.696 181.884L178.32 187.23ZM192.979 192.162C192.055 192.162 191.179 192.042 190.351 191.802C189.535 191.55 188.869 191.214 188.353 190.794C188.077 190.59 187.939 190.302 187.939 189.93C187.939 189.678 188.011 189.462 188.155 189.282C188.311 189.09 188.491 188.994 188.695 188.994C188.911 188.994 189.157 189.078 189.433 189.246C189.949 189.618 190.489 189.888 191.053 190.056C191.617 190.224 192.241 190.308 192.925 190.308C193.801 190.308 194.473 190.158 194.941 189.858C195.409 189.546 195.643 189.096 195.643 188.508C195.643 188.052 195.421 187.704 194.977 187.464C194.545 187.212 193.819 186.972 192.799 186.744C191.743 186.516 190.885 186.252 190.225 185.952C189.565 185.652 189.067 185.268 188.731 184.8C188.395 184.332 188.227 183.738 188.227 183.018C188.227 182.274 188.437 181.608 188.857 181.02C189.277 180.432 189.859 179.976 190.603 179.652C191.359 179.316 192.205 179.148 193.141 179.148C194.857 179.148 196.255 179.604 197.335 180.516C197.491 180.648 197.599 180.78 197.659 180.912C197.731 181.032 197.767 181.188 197.767 181.38C197.767 181.632 197.689 181.854 197.533 182.046C197.389 182.226 197.215 182.316 197.011 182.316C196.891 182.316 196.777 182.298 196.669 182.262C196.573 182.226 196.441 182.16 196.273 182.064C195.781 181.704 195.301 181.44 194.833 181.272C194.377 181.092 193.813 181.002 193.141 181.002C192.325 181.002 191.677 181.17 191.197 181.506C190.729 181.83 190.495 182.286 190.495 182.874C190.495 183.366 190.705 183.744 191.125 184.008C191.545 184.272 192.259 184.518 193.267 184.746C194.335 184.986 195.199 185.256 195.859 185.556C196.531 185.844 197.041 186.216 197.389 186.672C197.749 187.128 197.929 187.698 197.929 188.382C197.929 189.126 197.719 189.786 197.299 190.362C196.891 190.926 196.309 191.37 195.553 191.694C194.809 192.006 193.951 192.162 192.979 192.162Z" fill="#234CAD"/>
</g>
<g clip-path="url(#clip1_12263_404)">
<circle cx="208" cy="164" r="7" fill="#234CAD" stroke="white" stroke-width="2"/>
<path d="M208.988 165.376C209.228 165.376 209.348 165.478 209.348 165.682C209.348 165.894 209.228 166 208.988 166H206.708C206.604 166 206.522 165.97 206.462 165.91C206.402 165.846 206.372 165.768 206.372 165.676C206.372 165.556 206.418 165.448 206.51 165.352L207.878 163.882C208.046 163.698 208.168 163.53 208.244 163.378C208.324 163.222 208.364 163.068 208.364 162.916C208.364 162.728 208.31 162.584 208.202 162.484C208.094 162.384 207.94 162.334 207.74 162.334C207.576 162.334 207.416 162.366 207.26 162.43C207.108 162.49 206.954 162.574 206.798 162.682C206.758 162.71 206.718 162.734 206.678 162.754C206.638 162.77 206.598 162.778 206.558 162.778C206.49 162.778 206.43 162.746 206.378 162.682C206.33 162.618 206.306 162.542 206.306 162.454C206.306 162.394 206.316 162.342 206.336 162.298C206.36 162.254 206.396 162.212 206.444 162.172C206.62 162.032 206.826 161.922 207.062 161.842C207.298 161.758 207.534 161.716 207.77 161.716C208.182 161.716 208.51 161.82 208.754 162.028C209.002 162.236 209.126 162.516 209.126 162.868C209.126 163.112 209.074 163.342 208.97 163.558C208.866 163.77 208.69 164.008 208.442 164.272L207.404 165.376H208.988Z" fill="#F7FAFC"/>
</g>
<g clip-path="url(#clip2_12263_404)">
<path opacity="0.75" d="M431.27 169.58C431.717 169.58 432.107 169.673 432.44 169.86C432.78 170.047 433.04 170.31 433.22 170.65C433.407 170.983 433.5 171.37 433.5 171.81C433.5 172.25 433.4 172.643 433.2 172.99C433 173.33 432.72 173.597 432.36 173.79C432.007 173.977 431.597 174.07 431.13 174.07C430.717 174.07 430.313 173.997 429.92 173.85C429.527 173.703 429.193 173.503 428.92 173.25C428.813 173.15 428.76 173.037 428.76 172.91C428.76 172.81 428.787 172.727 428.84 172.66C428.893 172.593 428.957 172.56 429.03 172.56C429.123 172.56 429.217 172.597 429.31 172.67C429.603 172.91 429.897 173.09 430.19 173.21C430.483 173.323 430.79 173.38 431.11 173.38C431.603 173.38 431.99 173.24 432.27 172.96C432.55 172.68 432.69 172.3 432.69 171.82C432.69 171.353 432.55 170.977 432.27 170.69C431.99 170.403 431.613 170.26 431.14 170.26C430.533 170.26 430.04 170.493 429.66 170.96C429.567 171.06 429.453 171.11 429.32 171.11C429.227 171.11 429.147 171.083 429.08 171.03C429.02 170.97 428.99 170.89 428.99 170.79V167.34C428.99 167.227 429.023 167.133 429.09 167.06C429.163 166.987 429.263 166.95 429.39 166.95H432.91C433.03 166.95 433.123 166.98 433.19 167.04C433.263 167.1 433.3 167.183 433.3 167.29C433.3 167.397 433.263 167.48 433.19 167.54C433.123 167.6 433.03 167.63 432.91 167.63H429.8V170.14C429.987 169.96 430.203 169.823 430.45 169.73C430.703 169.63 430.977 169.58 431.27 169.58ZM435.146 170.15C434.986 170.15 434.853 170.1 434.746 170C434.639 169.893 434.586 169.757 434.586 169.59C434.586 169.423 434.639 169.29 434.746 169.19C434.853 169.083 434.986 169.03 435.146 169.03C435.299 169.03 435.426 169.083 435.526 169.19C435.633 169.29 435.686 169.423 435.686 169.59C435.686 169.757 435.633 169.893 435.526 170C435.426 170.1 435.299 170.15 435.146 170.15ZM435.146 174.05C434.986 174.05 434.853 174 434.746 173.9C434.639 173.793 434.586 173.657 434.586 173.49C434.586 173.323 434.639 173.187 434.746 173.08C434.853 172.973 434.986 172.92 435.146 172.92C435.299 172.92 435.426 172.973 435.526 173.08C435.633 173.187 435.686 173.323 435.686 173.49C435.686 173.657 435.633 173.793 435.526 173.9C435.426 174 435.299 174.05 435.146 174.05ZM441.201 173.31C441.321 173.31 441.415 173.34 441.481 173.4C441.548 173.46 441.581 173.543 441.581 173.65C441.581 173.763 441.548 173.85 441.481 173.91C441.421 173.97 441.328 174 441.201 174H437.891C437.765 174 437.668 173.97 437.601 173.91C437.541 173.85 437.511 173.763 437.511 173.65C437.511 173.543 437.545 173.46 437.611 173.4C437.678 173.34 437.771 173.31 437.891 173.31H439.131V167.95L438.041 168.66C437.988 168.693 437.935 168.71 437.881 168.71C437.788 168.71 437.705 168.667 437.631 168.58C437.565 168.493 437.531 168.4 437.531 168.3C437.531 168.16 437.585 168.06 437.691 168L439.211 167.01C439.325 166.937 439.441 166.9 439.561 166.9C439.675 166.9 439.768 166.937 439.841 167.01C439.915 167.083 439.951 167.187 439.951 167.32V173.31H441.201ZM446.497 170.38C446.911 170.507 447.231 170.723 447.457 171.03C447.691 171.337 447.807 171.703 447.807 172.13C447.807 172.737 447.587 173.213 447.147 173.56C446.707 173.9 446.084 174.07 445.277 174.07C444.471 174.07 443.847 173.9 443.407 173.56C442.967 173.213 442.747 172.737 442.747 172.13C442.747 171.697 442.864 171.327 443.097 171.02C443.331 170.713 443.654 170.5 444.067 170.38C443.714 170.247 443.434 170.037 443.227 169.75C443.021 169.463 442.917 169.127 442.917 168.74C442.917 168.167 443.124 167.713 443.537 167.38C443.957 167.04 444.537 166.87 445.277 166.87C446.017 166.87 446.594 167.04 447.007 167.38C447.427 167.713 447.637 168.167 447.637 168.74C447.637 169.127 447.534 169.467 447.327 169.76C447.121 170.047 446.844 170.253 446.497 170.38ZM443.727 168.8C443.727 169.213 443.857 169.53 444.117 169.75C444.384 169.97 444.771 170.08 445.277 170.08C445.784 170.08 446.167 169.97 446.427 169.75C446.694 169.53 446.827 169.213 446.827 168.8C446.827 168.407 446.694 168.1 446.427 167.88C446.167 167.66 445.784 167.55 445.277 167.55C444.771 167.55 444.384 167.66 444.117 167.88C443.857 168.1 443.727 168.407 443.727 168.8ZM445.277 173.39C446.424 173.39 446.997 172.953 446.997 172.08C446.997 171.207 446.424 170.77 445.277 170.77C444.131 170.77 443.557 171.207 443.557 172.08C443.557 172.953 444.131 173.39 445.277 173.39ZM452.132 174.05C452.005 174.05 451.905 174.013 451.832 173.94C451.758 173.86 451.722 173.757 451.722 173.63V167.35C451.722 167.23 451.758 167.133 451.832 167.06C451.912 166.987 452.015 166.95 452.142 166.95H454.512C455.252 166.95 455.825 167.13 456.232 167.49C456.645 167.85 456.852 168.36 456.852 169.02C456.852 169.68 456.645 170.193 456.232 170.56C455.818 170.927 455.245 171.11 454.512 171.11H452.542V173.63C452.542 173.757 452.505 173.86 452.432 173.94C452.358 174.013 452.258 174.05 452.132 174.05ZM454.432 170.43C455.505 170.43 456.042 169.96 456.042 169.02C456.042 168.093 455.505 167.63 454.432 167.63H452.542V170.43H454.432ZM464.427 166.9C464.554 166.9 464.65 166.94 464.717 167.02C464.79 167.093 464.827 167.193 464.827 167.32V173.65C464.827 173.77 464.794 173.867 464.727 173.94C464.66 174.013 464.567 174.05 464.447 174.05C464.327 174.05 464.237 174.013 464.177 173.94C464.117 173.867 464.087 173.77 464.087 173.65V168.54L461.917 172.7C461.824 172.893 461.687 172.99 461.507 172.99C461.334 172.99 461.197 172.893 461.097 172.7L458.917 168.59V173.65C458.917 173.77 458.884 173.867 458.817 173.94C458.757 174.013 458.667 174.05 458.547 174.05C458.427 174.05 458.334 174.013 458.267 173.94C458.2 173.867 458.167 173.77 458.167 173.65V167.32C458.167 167.193 458.204 167.093 458.277 167.02C458.35 166.94 458.45 166.9 458.577 166.9C458.744 166.9 458.877 166.997 458.977 167.19L461.517 172.06L464.027 167.19C464.08 167.083 464.137 167.01 464.197 166.97C464.264 166.923 464.34 166.9 464.427 166.9Z" fill="#234CAD"/>
<g clip-path="url(#clip3_12263_404)">
<path d="M240.632 202.096C239.832 202.096 239.14 201.924 238.556 201.58C237.972 201.228 237.52 200.728 237.2 200.08C236.888 199.424 236.732 198.652 236.732 197.764C236.732 196.884 236.888 196.12 237.2 195.472C237.52 194.816 237.972 194.316 238.556 193.972C239.14 193.62 239.832 193.444 240.632 193.444C241.168 193.444 241.672 193.532 242.144 193.708C242.624 193.876 243.04 194.12 243.392 194.44C243.52 194.56 243.584 194.7 243.584 194.86C243.584 194.972 243.552 195.072 243.488 195.16C243.424 195.24 243.348 195.28 243.26 195.28C243.164 195.28 243.048 195.236 242.912 195.148C242.504 194.828 242.132 194.604 241.796 194.476C241.468 194.348 241.088 194.284 240.656 194.284C239.728 194.284 239.012 194.588 238.508 195.196C238.012 195.796 237.764 196.652 237.764 197.764C237.764 198.884 238.012 199.748 238.508 200.356C239.012 200.956 239.728 201.256 240.656 201.256C241.08 201.256 241.46 201.192 241.796 201.064C242.132 200.936 242.504 200.712 242.912 200.392C243.048 200.304 243.164 200.26 243.26 200.26C243.348 200.26 243.424 200.3 243.488 200.38C243.552 200.46 243.584 200.56 243.584 200.68C243.584 200.84 243.52 200.98 243.392 201.1C243.04 201.42 242.624 201.668 242.144 201.844C241.672 202.012 241.168 202.096 240.632 202.096ZM247.328 202.084C246.776 202.084 246.288 201.96 245.864 201.712C245.448 201.464 245.124 201.112 244.892 200.656C244.668 200.192 244.556 199.656 244.556 199.048C244.556 198.44 244.668 197.908 244.892 197.452C245.124 196.988 245.448 196.632 245.864 196.384C246.288 196.136 246.776 196.012 247.328 196.012C247.88 196.012 248.368 196.136 248.792 196.384C249.216 196.632 249.54 196.988 249.764 197.452C249.996 197.908 250.112 198.44 250.112 199.048C250.112 199.656 249.996 200.192 249.764 200.656C249.54 201.112 249.216 201.464 248.792 201.712C248.368 201.96 247.88 202.084 247.328 202.084ZM247.328 201.28C247.904 201.28 248.344 201.092 248.648 200.716C248.96 200.332 249.116 199.776 249.116 199.048C249.116 198.336 248.96 197.788 248.648 197.404C248.336 197.012 247.896 196.816 247.328 196.816C246.76 196.816 246.32 197.012 246.008 197.404C245.696 197.788 245.54 198.336 245.54 199.048C245.54 199.768 245.692 200.32 245.996 200.704C246.308 201.088 246.752 201.28 247.328 201.28ZM256 196.036C256.152 196.036 256.268 196.08 256.348 196.168C256.436 196.256 256.48 196.372 256.48 196.516V201.592C256.48 201.728 256.436 201.84 256.348 201.928C256.268 202.016 256.152 202.06 256 202.06C255.856 202.06 255.74 202.02 255.652 201.94C255.572 201.852 255.532 201.74 255.532 201.604V201.004C255.348 201.356 255.088 201.624 254.752 201.808C254.424 201.992 254.052 202.084 253.636 202.084C252.94 202.084 252.416 201.892 252.064 201.508C251.712 201.116 251.536 200.54 251.536 199.78V196.516C251.536 196.372 251.58 196.256 251.668 196.168C251.756 196.08 251.876 196.036 252.028 196.036C252.18 196.036 252.296 196.08 252.376 196.168C252.464 196.256 252.508 196.372 252.508 196.516V199.756C252.508 200.276 252.612 200.66 252.82 200.908C253.028 201.148 253.356 201.268 253.804 201.268C254.316 201.268 254.728 201.104 255.04 200.776C255.352 200.44 255.508 200 255.508 199.456V196.516C255.508 196.372 255.552 196.256 255.64 196.168C255.728 196.08 255.848 196.036 256 196.036ZM258.779 202.06C258.635 202.06 258.515 202.02 258.419 201.94C258.331 201.852 258.287 201.732 258.287 201.58V193.96C258.287 193.808 258.331 193.692 258.419 193.612C258.515 193.524 258.635 193.48 258.779 193.48C258.915 193.48 259.027 193.524 259.115 193.612C259.211 193.692 259.259 193.808 259.259 193.96V201.58C259.259 201.732 259.211 201.852 259.115 201.94C259.027 202.02 258.915 202.06 258.779 202.06ZM265.768 193.48C265.92 193.48 266.04 193.524 266.128 193.612C266.216 193.7 266.26 193.812 266.26 193.948V201.58C266.26 201.724 266.216 201.84 266.128 201.928C266.04 202.016 265.92 202.06 265.768 202.06C265.616 202.06 265.496 202.016 265.408 201.928C265.328 201.84 265.288 201.724 265.288 201.58V200.932C265.112 201.3 264.852 201.584 264.508 201.784C264.172 201.984 263.776 202.084 263.32 202.084C262.808 202.084 262.356 201.956 261.964 201.7C261.572 201.444 261.268 201.088 261.052 200.632C260.836 200.168 260.728 199.632 260.728 199.024C260.728 198.424 260.836 197.896 261.052 197.44C261.268 196.984 261.572 196.632 261.964 196.384C262.356 196.136 262.808 196.012 263.32 196.012C263.776 196.012 264.172 196.112 264.508 196.312C264.852 196.512 265.112 196.796 265.288 197.164V193.948C265.288 193.804 265.328 193.692 265.408 193.612C265.496 193.524 265.616 193.48 265.768 193.48ZM263.512 201.28C264.08 201.28 264.516 201.088 264.82 200.704C265.132 200.312 265.288 199.76 265.288 199.048C265.288 198.336 265.132 197.788 264.82 197.404C264.516 197.02 264.08 196.828 263.512 196.828C262.944 196.828 262.5 197.02 262.18 197.404C261.868 197.788 261.712 198.328 261.712 199.024C261.712 199.736 261.868 200.292 262.18 200.692C262.5 201.084 262.944 201.28 263.512 201.28ZM274.094 196.012C274.606 196.012 275.058 196.14 275.45 196.396C275.842 196.652 276.146 197.012 276.362 197.476C276.578 197.932 276.686 198.464 276.686 199.072C276.686 199.68 276.578 200.212 276.362 200.668C276.146 201.116 275.842 201.464 275.45 201.712C275.066 201.96 274.614 202.084 274.094 202.084C273.638 202.084 273.238 201.984 272.894 201.784C272.558 201.584 272.302 201.3 272.126 200.932V203.752C272.126 203.896 272.082 204.008 271.994 204.088C271.914 204.176 271.798 204.22 271.646 204.22C271.494 204.22 271.374 204.176 271.286 204.088C271.198 204 271.154 203.888 271.154 203.752V196.516C271.154 196.372 271.198 196.256 271.286 196.168C271.374 196.08 271.494 196.036 271.646 196.036C271.798 196.036 271.914 196.08 271.994 196.168C272.082 196.256 272.126 196.372 272.126 196.516V197.164C272.302 196.796 272.558 196.512 272.894 196.312C273.238 196.112 273.638 196.012 274.094 196.012ZM273.902 201.28C274.47 201.28 274.91 201.088 275.222 200.704C275.534 200.32 275.69 199.776 275.69 199.072C275.69 198.368 275.534 197.82 275.222 197.428C274.91 197.028 274.47 196.828 273.902 196.828C273.334 196.828 272.894 197.02 272.582 197.404C272.278 197.788 272.126 198.336 272.126 199.048C272.126 199.76 272.278 200.312 272.582 200.704C272.894 201.088 273.334 201.28 273.902 201.28ZM278.63 202.06C278.486 202.06 278.366 202.02 278.27 201.94C278.182 201.852 278.138 201.732 278.138 201.58V193.96C278.138 193.808 278.182 193.692 278.27 193.612C278.366 193.524 278.486 193.48 278.63 193.48C278.766 193.48 278.878 193.524 278.966 193.612C279.062 193.692 279.11 193.808 279.11 193.96V201.58C279.11 201.732 279.062 201.852 278.966 201.94C278.878 202.02 278.766 202.06 278.63 202.06ZM285.451 200.644C285.539 200.644 285.615 200.68 285.679 200.752C285.743 200.824 285.775 200.916 285.775 201.028C285.775 201.228 285.635 201.412 285.355 201.58C285.067 201.748 284.763 201.876 284.443 201.964C284.123 202.044 283.811 202.084 283.507 202.084C282.603 202.084 281.887 201.816 281.359 201.28C280.839 200.744 280.579 200.004 280.579 199.06C280.579 198.46 280.695 197.932 280.927 197.476C281.159 197.012 281.483 196.652 281.899 196.396C282.323 196.14 282.803 196.012 283.339 196.012C284.099 196.012 284.703 196.26 285.151 196.756C285.599 197.252 285.823 197.924 285.823 198.772C285.823 198.932 285.791 199.048 285.727 199.12C285.663 199.192 285.559 199.228 285.415 199.228H281.551C281.623 200.604 282.275 201.292 283.507 201.292C283.819 201.292 284.087 201.252 284.311 201.172C284.535 201.084 284.775 200.968 285.031 200.824C285.239 200.704 285.379 200.644 285.451 200.644ZM283.351 196.768C282.839 196.768 282.427 196.928 282.115 197.248C281.811 197.568 281.631 198.02 281.575 198.604H284.971C284.955 198.012 284.807 197.56 284.527 197.248C284.247 196.928 283.855 196.768 283.351 196.768ZM289.643 196.012C291.107 196.012 291.839 196.78 291.839 198.316V201.58C291.839 201.724 291.795 201.84 291.707 201.928C291.627 202.016 291.515 202.06 291.371 202.06C291.227 202.06 291.111 202.016 291.023 201.928C290.935 201.84 290.891 201.724 290.891 201.58V201.004C290.739 201.348 290.507 201.616 290.195 201.808C289.883 201.992 289.523 202.084 289.115 202.084C288.739 202.084 288.391 202.008 288.071 201.856C287.759 201.704 287.511 201.492 287.327 201.22C287.143 200.948 287.051 200.648 287.051 200.32C287.051 199.88 287.163 199.54 287.387 199.3C287.611 199.052 287.979 198.876 288.491 198.772C289.003 198.66 289.715 198.604 290.627 198.604H290.891V198.208C290.891 197.728 290.791 197.376 290.591 197.152C290.399 196.928 290.083 196.816 289.643 196.816C289.099 196.816 288.547 196.964 287.987 197.26C287.771 197.396 287.619 197.464 287.531 197.464C287.435 197.464 287.355 197.428 287.291 197.356C287.227 197.284 287.195 197.192 287.195 197.08C287.195 196.968 287.227 196.872 287.291 196.792C287.363 196.704 287.475 196.616 287.627 196.528C287.907 196.368 288.223 196.244 288.575 196.156C288.935 196.06 289.291 196.012 289.643 196.012ZM289.247 201.316C289.727 201.316 290.119 201.156 290.423 200.836C290.735 200.508 290.891 200.088 290.891 199.576V199.228H290.675C289.971 199.228 289.435 199.26 289.067 199.324C288.699 199.38 288.435 199.48 288.275 199.624C288.123 199.76 288.047 199.964 288.047 200.236C288.047 200.548 288.159 200.808 288.383 201.016C288.615 201.216 288.903 201.316 289.247 201.316ZM295.587 202.084C295.219 202.084 294.867 202.04 294.531 201.952C294.203 201.864 293.911 201.74 293.655 201.58C293.511 201.484 293.407 201.396 293.343 201.316C293.287 201.228 293.259 201.124 293.259 201.004C293.259 200.9 293.287 200.816 293.343 200.752C293.407 200.68 293.487 200.644 293.583 200.644C293.679 200.644 293.819 200.704 294.003 200.824C294.243 200.968 294.479 201.084 294.711 201.172C294.951 201.252 295.247 201.292 295.599 201.292C296.031 201.292 296.367 201.216 296.607 201.064C296.847 200.912 296.967 200.692 296.967 200.404C296.967 200.228 296.923 200.088 296.835 199.984C296.747 199.872 296.595 199.776 296.379 199.696C296.163 199.608 295.847 199.52 295.431 199.432C294.727 199.28 294.223 199.076 293.919 198.82C293.615 198.564 293.463 198.216 293.463 197.776C293.463 197.432 293.559 197.128 293.751 196.864C293.943 196.6 294.207 196.392 294.543 196.24C294.887 196.088 295.275 196.012 295.707 196.012C296.019 196.012 296.319 196.056 296.607 196.144C296.903 196.224 297.163 196.34 297.387 196.492C297.659 196.684 297.795 196.884 297.795 197.092C297.795 197.196 297.763 197.284 297.699 197.356C297.635 197.428 297.559 197.464 297.471 197.464C297.375 197.464 297.231 197.396 297.039 197.26C296.815 197.116 296.603 197.004 296.403 196.924C296.203 196.844 295.955 196.804 295.659 196.804C295.283 196.804 294.979 196.888 294.747 197.056C294.523 197.224 294.411 197.448 294.411 197.728C294.411 197.904 294.451 198.048 294.531 198.16C294.619 198.264 294.759 198.36 294.951 198.448C295.151 198.528 295.435 198.608 295.803 198.688C296.347 198.808 296.767 198.94 297.063 199.084C297.367 199.228 297.583 199.404 297.711 199.612C297.839 199.82 297.903 200.084 297.903 200.404C297.903 200.908 297.691 201.316 297.267 201.628C296.843 201.932 296.283 202.084 295.587 202.084ZM303.908 200.644C303.996 200.644 304.072 200.68 304.136 200.752C304.2 200.824 304.232 200.916 304.232 201.028C304.232 201.228 304.092 201.412 303.812 201.58C303.524 201.748 303.22 201.876 302.9 201.964C302.58 202.044 302.268 202.084 301.964 202.084C301.06 202.084 300.344 201.816 299.816 201.28C299.296 200.744 299.036 200.004 299.036 199.06C299.036 198.46 299.152 197.932 299.384 197.476C299.616 197.012 299.94 196.652 300.356 196.396C300.78 196.14 301.26 196.012 301.796 196.012C302.556 196.012 303.16 196.26 303.608 196.756C304.056 197.252 304.28 197.924 304.28 198.772C304.28 198.932 304.248 199.048 304.184 199.12C304.12 199.192 304.016 199.228 303.872 199.228H300.008C300.08 200.604 300.732 201.292 301.964 201.292C302.276 201.292 302.544 201.252 302.768 201.172C302.992 201.084 303.232 200.968 303.488 200.824C303.696 200.704 303.836 200.644 303.908 200.644ZM301.808 196.768C301.296 196.768 300.884 196.928 300.572 197.248C300.268 197.568 300.088 198.02 300.032 198.604H303.428C303.412 198.012 303.264 197.56 302.984 197.248C302.704 196.928 302.312 196.768 301.808 196.768ZM311.218 202.084C310.674 202.084 310.19 201.96 309.766 201.712C309.35 201.464 309.026 201.112 308.794 200.656C308.57 200.2 308.458 199.672 308.458 199.072C308.458 198.472 308.574 197.94 308.806 197.476C309.046 197.012 309.378 196.652 309.802 196.396C310.226 196.14 310.714 196.012 311.266 196.012C311.57 196.012 311.87 196.056 312.166 196.144C312.47 196.224 312.734 196.344 312.958 196.504C313.102 196.6 313.202 196.696 313.258 196.792C313.322 196.88 313.354 196.98 313.354 197.092C313.354 197.204 313.322 197.296 313.258 197.368C313.202 197.44 313.126 197.476 313.03 197.476C312.974 197.476 312.914 197.46 312.85 197.428C312.786 197.396 312.73 197.364 312.682 197.332C312.642 197.3 312.614 197.28 312.598 197.272C312.39 197.136 312.19 197.028 311.998 196.948C311.814 196.868 311.586 196.828 311.314 196.828C310.73 196.828 310.274 197.028 309.946 197.428C309.626 197.82 309.466 198.368 309.466 199.072C309.466 199.776 309.626 200.32 309.946 200.704C310.274 201.088 310.73 201.28 311.314 201.28C311.586 201.28 311.818 201.24 312.01 201.16C312.21 201.08 312.41 200.972 312.61 200.836C312.698 200.78 312.782 200.732 312.862 200.692C312.942 200.652 313.01 200.632 313.066 200.632C313.154 200.632 313.226 200.668 313.282 200.74C313.346 200.812 313.378 200.904 313.378 201.016C313.378 201.12 313.35 201.216 313.294 201.304C313.238 201.384 313.134 201.476 312.982 201.58C312.758 201.732 312.486 201.856 312.166 201.952C311.854 202.04 311.538 202.084 311.218 202.084ZM316.936 196.012C318.4 196.012 319.132 196.78 319.132 198.316V201.58C319.132 201.724 319.088 201.84 319 201.928C318.92 202.016 318.808 202.06 318.664 202.06C318.52 202.06 318.404 202.016 318.316 201.928C318.228 201.84 318.184 201.724 318.184 201.58V201.004C318.032 201.348 317.8 201.616 317.488 201.808C317.176 201.992 316.816 202.084 316.408 202.084C316.032 202.084 315.684 202.008 315.364 201.856C315.052 201.704 314.804 201.492 314.62 201.22C314.436 200.948 314.344 200.648 314.344 200.32C314.344 199.88 314.456 199.54 314.68 199.3C314.904 199.052 315.272 198.876 315.784 198.772C316.296 198.66 317.008 198.604 317.92 198.604H318.184V198.208C318.184 197.728 318.084 197.376 317.884 197.152C317.692 196.928 317.376 196.816 316.936 196.816C316.392 196.816 315.84 196.964 315.28 197.26C315.064 197.396 314.912 197.464 314.824 197.464C314.728 197.464 314.648 197.428 314.584 197.356C314.52 197.284 314.488 197.192 314.488 197.08C314.488 196.968 314.52 196.872 314.584 196.792C314.656 196.704 314.768 196.616 314.92 196.528C315.2 196.368 315.516 196.244 315.868 196.156C316.228 196.06 316.584 196.012 316.936 196.012ZM316.54 201.316C317.02 201.316 317.412 201.156 317.716 200.836C318.028 200.508 318.184 200.088 318.184 199.576V199.228H317.968C317.264 199.228 316.728 199.26 316.36 199.324C315.992 199.38 315.728 199.48 315.568 199.624C315.416 199.76 315.34 199.964 315.34 200.236C315.34 200.548 315.452 200.808 315.676 201.016C315.908 201.216 316.196 201.316 316.54 201.316ZM321.404 202.06C321.26 202.06 321.14 202.02 321.044 201.94C320.956 201.852 320.912 201.732 320.912 201.58V193.96C320.912 193.808 320.956 193.692 321.044 193.612C321.14 193.524 321.26 193.48 321.404 193.48C321.54 193.48 321.652 193.524 321.74 193.612C321.836 193.692 321.884 193.808 321.884 193.96V201.58C321.884 201.732 321.836 201.852 321.74 201.94C321.652 202.02 321.54 202.06 321.404 202.06ZM324.193 202.06C324.049 202.06 323.929 202.02 323.833 201.94C323.745 201.852 323.701 201.732 323.701 201.58V193.96C323.701 193.808 323.745 193.692 323.833 193.612C323.929 193.524 324.049 193.48 324.193 193.48C324.329 193.48 324.441 193.524 324.529 193.612C324.625 193.692 324.673 193.808 324.673 193.96V201.58C324.673 201.732 324.625 201.852 324.529 201.94C324.441 202.02 324.329 202.06 324.193 202.06ZM336.088 196.012C337.384 196.012 338.032 196.784 338.032 198.328V201.58C338.032 201.732 337.988 201.852 337.9 201.94C337.812 202.02 337.696 202.06 337.552 202.06C337.408 202.06 337.288 202.02 337.192 201.94C337.104 201.852 337.06 201.732 337.06 201.58V198.352C337.06 197.816 336.964 197.428 336.772 197.188C336.58 196.948 336.28 196.828 335.872 196.828C335.384 196.828 335 196.992 334.72 197.32C334.44 197.648 334.3 198.092 334.3 198.652V201.58C334.3 201.732 334.252 201.852 334.156 201.94C334.068 202.02 333.952 202.06 333.808 202.06C333.664 202.06 333.548 202.02 333.46 201.94C333.372 201.852 333.328 201.732 333.328 201.58V198.352C333.328 197.816 333.232 197.428 333.04 197.188C332.848 196.948 332.544 196.828 332.128 196.828C331.648 196.828 331.264 196.992 330.976 197.32C330.696 197.648 330.556 198.092 330.556 198.652V201.58C330.556 201.732 330.512 201.852 330.424 201.94C330.336 202.02 330.22 202.06 330.076 202.06C329.932 202.06 329.812 202.02 329.716 201.94C329.628 201.852 329.584 201.732 329.584 201.58V196.516C329.584 196.372 329.628 196.256 329.716 196.168C329.812 196.08 329.932 196.036 330.076 196.036C330.212 196.036 330.324 196.08 330.412 196.168C330.5 196.248 330.544 196.36 330.544 196.504V197.08C330.72 196.736 330.964 196.472 331.276 196.288C331.588 196.104 331.948 196.012 332.356 196.012C333.268 196.012 333.864 196.396 334.144 197.164C334.312 196.812 334.568 196.532 334.912 196.324C335.256 196.116 335.648 196.012 336.088 196.012ZM344.326 200.644C344.414 200.644 344.49 200.68 344.554 200.752C344.618 200.824 344.65 200.916 344.65 201.028C344.65 201.228 344.51 201.412 344.23 201.58C343.942 201.748 343.638 201.876 343.318 201.964C342.998 202.044 342.686 202.084 342.382 202.084C341.478 202.084 340.762 201.816 340.234 201.28C339.714 200.744 339.454 200.004 339.454 199.06C339.454 198.46 339.57 197.932 339.802 197.476C340.034 197.012 340.358 196.652 340.774 196.396C341.198 196.14 341.678 196.012 342.214 196.012C342.974 196.012 343.578 196.26 344.026 196.756C344.474 197.252 344.698 197.924 344.698 198.772C344.698 198.932 344.666 199.048 344.602 199.12C344.538 199.192 344.434 199.228 344.29 199.228H340.426C340.498 200.604 341.15 201.292 342.382 201.292C342.694 201.292 342.962 201.252 343.186 201.172C343.41 201.084 343.65 200.968 343.906 200.824C344.114 200.704 344.254 200.644 344.326 200.644ZM342.226 196.768C341.714 196.768 341.302 196.928 340.99 197.248C340.686 197.568 340.506 198.02 340.45 198.604H343.846C343.83 198.012 343.682 197.56 343.402 197.248C343.122 196.928 342.73 196.768 342.226 196.768ZM352.164 196.012C353.564 196.012 354.264 196.784 354.264 198.328V201.58C354.264 201.732 354.22 201.852 354.132 201.94C354.052 202.02 353.936 202.06 353.784 202.06C353.632 202.06 353.512 202.02 353.424 201.94C353.336 201.852 353.292 201.732 353.292 201.58V198.388C353.292 197.844 353.184 197.448 352.968 197.2C352.76 196.952 352.424 196.828 351.96 196.828C351.424 196.828 350.996 196.992 350.676 197.32C350.356 197.648 350.196 198.092 350.196 198.652V201.58C350.196 201.732 350.152 201.852 350.064 201.94C349.984 202.02 349.868 202.06 349.716 202.06C349.564 202.06 349.444 202.02 349.356 201.94C349.268 201.852 349.224 201.732 349.224 201.58V196.516C349.224 196.372 349.268 196.256 349.356 196.168C349.444 196.08 349.564 196.036 349.716 196.036C349.86 196.036 349.972 196.08 350.052 196.168C350.14 196.256 350.184 196.368 350.184 196.504V197.116C350.376 196.756 350.644 196.484 350.988 196.3C351.332 196.108 351.724 196.012 352.164 196.012ZM358.469 202.084C357.917 202.084 357.429 201.96 357.005 201.712C356.589 201.464 356.265 201.112 356.033 200.656C355.809 200.192 355.697 199.656 355.697 199.048C355.697 198.44 355.809 197.908 356.033 197.452C356.265 196.988 356.589 196.632 357.005 196.384C357.429 196.136 357.917 196.012 358.469 196.012C359.021 196.012 359.509 196.136 359.933 196.384C360.357 196.632 360.681 196.988 360.905 197.452C361.137 197.908 361.253 198.44 361.253 199.048C361.253 199.656 361.137 200.192 360.905 200.656C360.681 201.112 360.357 201.464 359.933 201.712C359.509 201.96 359.021 202.084 358.469 202.084ZM358.469 201.28C359.045 201.28 359.485 201.092 359.789 200.716C360.101 200.332 360.257 199.776 360.257 199.048C360.257 198.336 360.101 197.788 359.789 197.404C359.477 197.012 359.037 196.816 358.469 196.816C357.901 196.816 357.461 197.012 357.149 197.404C356.837 197.788 356.681 198.336 356.681 199.048C356.681 199.768 356.833 200.32 357.137 200.704C357.449 201.088 357.893 201.28 358.469 201.28ZM370.622 196.348C370.702 196.156 370.834 196.06 371.018 196.06C371.138 196.06 371.246 196.1 371.342 196.18C371.438 196.26 371.486 196.36 371.486 196.48C371.486 196.536 371.474 196.596 371.45 196.66L369.458 201.7C369.41 201.804 369.338 201.888 369.242 201.952C369.154 202.008 369.054 202.036 368.942 202.036C368.838 202.036 368.738 202.008 368.642 201.952C368.554 201.888 368.486 201.804 368.438 201.7L366.782 197.488L365.138 201.7C365.098 201.804 365.03 201.888 364.934 201.952C364.838 202.008 364.734 202.036 364.622 202.036C364.518 202.036 364.418 202.008 364.322 201.952C364.226 201.888 364.154 201.804 364.106 201.7L362.114 196.672C362.09 196.608 362.078 196.552 362.078 196.504C362.078 196.376 362.13 196.268 362.234 196.18C362.346 196.092 362.466 196.048 362.594 196.048C362.786 196.048 362.922 196.144 363.002 196.336L364.646 200.764L366.338 196.372C366.386 196.268 366.45 196.188 366.53 196.132C366.618 196.076 366.71 196.048 366.806 196.048C366.91 196.048 367.002 196.076 367.082 196.132C367.17 196.188 367.234 196.268 367.274 196.372L368.966 200.752L370.622 196.348ZM374.093 199.852C374.005 199.852 373.933 199.82 373.877 199.756C373.821 199.692 373.793 199.604 373.793 199.492C373.793 198.996 373.881 198.572 374.057 198.22C374.241 197.868 374.501 197.484 374.837 197.068C375.109 196.724 375.309 196.432 375.437 196.192C375.573 195.952 375.641 195.684 375.641 195.388C375.641 195.044 375.517 194.776 375.269 194.584C375.021 194.384 374.685 194.284 374.261 194.284C373.901 194.284 373.569 194.356 373.265 194.5C372.961 194.636 372.617 194.848 372.233 195.136C372.097 195.232 371.985 195.28 371.897 195.28C371.801 195.28 371.721 195.24 371.657 195.16C371.601 195.072 371.573 194.972 371.573 194.86C371.573 194.7 371.637 194.56 371.765 194.44C372.085 194.136 372.473 193.896 372.929 193.72C373.393 193.536 373.853 193.444 374.309 193.444C375.005 193.444 375.565 193.616 375.989 193.96C376.421 194.304 376.637 194.756 376.637 195.316C376.637 195.74 376.545 196.108 376.361 196.42C376.185 196.724 375.913 197.084 375.545 197.5C375.201 197.892 374.933 198.24 374.741 198.544C374.557 198.84 374.445 199.184 374.405 199.576C374.397 199.664 374.365 199.732 374.309 199.78C374.253 199.828 374.181 199.852 374.093 199.852ZM374.105 202.06C373.913 202.06 373.753 201.996 373.625 201.868C373.505 201.74 373.445 201.58 373.445 201.388C373.445 201.196 373.505 201.036 373.625 200.908C373.753 200.772 373.913 200.704 374.105 200.704C374.297 200.704 374.453 200.772 374.573 200.908C374.701 201.036 374.765 201.196 374.765 201.388C374.765 201.58 374.701 201.74 374.573 201.868C374.453 201.996 374.297 202.06 374.105 202.06ZM381.559 202.06C381.407 202.06 381.287 202.016 381.199 201.928C381.111 201.832 381.067 201.708 381.067 201.556V193.984C381.067 193.832 381.111 193.712 381.199 193.624C381.287 193.528 381.407 193.48 381.559 193.48C381.711 193.48 381.831 193.528 381.919 193.624C382.007 193.712 382.051 193.832 382.051 193.984V201.556C382.051 201.708 382.007 201.832 381.919 201.928C381.831 202.016 381.711 202.06 381.559 202.06ZM386.694 201.292C386.974 201.316 387.114 201.444 387.114 201.676C387.114 201.812 387.062 201.916 386.958 201.988C386.862 202.052 386.714 202.076 386.514 202.06L386.19 202.036C385.55 201.988 385.078 201.796 384.774 201.46C384.47 201.124 384.318 200.616 384.318 199.936V196.924H383.514C383.378 196.924 383.27 196.892 383.19 196.828C383.118 196.756 383.082 196.664 383.082 196.552C383.082 196.432 383.118 196.336 383.19 196.264C383.27 196.192 383.378 196.156 383.514 196.156H384.318V194.8C384.318 194.648 384.362 194.532 384.45 194.452C384.538 194.364 384.658 194.32 384.81 194.32C384.954 194.32 385.07 194.364 385.158 194.452C385.246 194.532 385.29 194.648 385.29 194.8V196.156H386.622C386.75 196.156 386.85 196.192 386.922 196.264C387.002 196.336 387.042 196.432 387.042 196.552C387.042 196.664 387.002 196.756 386.922 196.828C386.85 196.892 386.75 196.924 386.622 196.924H385.29V199.984C385.29 200.424 385.378 200.744 385.554 200.944C385.738 201.136 386.01 201.244 386.37 201.268L386.694 201.292ZM391.658 202.06C391.514 202.06 391.394 202.02 391.298 201.94C391.21 201.852 391.166 201.732 391.166 201.58V196.516C391.166 196.364 391.21 196.248 391.298 196.168C391.394 196.08 391.514 196.036 391.658 196.036C391.802 196.036 391.918 196.08 392.006 196.168C392.094 196.248 392.138 196.364 392.138 196.516V201.58C392.138 201.74 392.094 201.86 392.006 201.94C391.918 202.02 391.802 202.06 391.658 202.06ZM391.658 194.776C391.466 194.776 391.31 194.72 391.19 194.608C391.07 194.496 391.01 194.348 391.01 194.164C391.01 193.988 391.07 193.844 391.19 193.732C391.31 193.62 391.466 193.564 391.658 193.564C391.85 193.564 392.006 193.62 392.126 193.732C392.246 193.844 392.306 193.988 392.306 194.164C392.306 194.348 392.246 194.496 392.126 194.608C392.006 194.72 391.85 194.776 391.658 194.776ZM395.923 202.084C395.555 202.084 395.203 202.04 394.867 201.952C394.539 201.864 394.247 201.74 393.991 201.58C393.847 201.484 393.743 201.396 393.679 201.316C393.623 201.228 393.595 201.124 393.595 201.004C393.595 200.9 393.623 200.816 393.679 200.752C393.743 200.68 393.823 200.644 393.919 200.644C394.015 200.644 394.155 200.704 394.339 200.824C394.579 200.968 394.815 201.084 395.047 201.172C395.287 201.252 395.583 201.292 395.935 201.292C396.367 201.292 396.703 201.216 396.943 201.064C397.183 200.912 397.303 200.692 397.303 200.404C397.303 200.228 397.259 200.088 397.171 199.984C397.083 199.872 396.931 199.776 396.715 199.696C396.499 199.608 396.183 199.52 395.767 199.432C395.063 199.28 394.559 199.076 394.255 198.82C393.951 198.564 393.799 198.216 393.799 197.776C393.799 197.432 393.895 197.128 394.087 196.864C394.279 196.6 394.543 196.392 394.879 196.24C395.223 196.088 395.611 196.012 396.043 196.012C396.355 196.012 396.655 196.056 396.943 196.144C397.239 196.224 397.499 196.34 397.723 196.492C397.995 196.684 398.131 196.884 398.131 197.092C398.131 197.196 398.099 197.284 398.035 197.356C397.971 197.428 397.895 197.464 397.807 197.464C397.711 197.464 397.567 197.396 397.375 197.26C397.151 197.116 396.939 197.004 396.739 196.924C396.539 196.844 396.291 196.804 395.995 196.804C395.619 196.804 395.315 196.888 395.083 197.056C394.859 197.224 394.747 197.448 394.747 197.728C394.747 197.904 394.787 198.048 394.867 198.16C394.955 198.264 395.095 198.36 395.287 198.448C395.487 198.528 395.771 198.608 396.139 198.688C396.683 198.808 397.103 198.94 397.399 199.084C397.703 199.228 397.919 199.404 398.047 199.612C398.175 199.82 398.239 200.084 398.239 200.404C398.239 200.908 398.027 201.316 397.603 201.628C397.179 201.932 396.619 202.084 395.923 202.084ZM403.306 202.06C403.162 202.06 403.042 202.02 402.946 201.94C402.858 201.852 402.814 201.732 402.814 201.58V196.516C402.814 196.364 402.858 196.248 402.946 196.168C403.042 196.08 403.162 196.036 403.306 196.036C403.45 196.036 403.566 196.08 403.654 196.168C403.742 196.248 403.786 196.364 403.786 196.516V201.58C403.786 201.74 403.742 201.86 403.654 201.94C403.566 202.02 403.45 202.06 403.306 202.06ZM403.306 194.776C403.114 194.776 402.958 194.72 402.838 194.608C402.718 194.496 402.658 194.348 402.658 194.164C402.658 193.988 402.718 193.844 402.838 193.732C402.958 193.62 403.114 193.564 403.306 193.564C403.498 193.564 403.654 193.62 403.774 193.732C403.894 193.844 403.954 193.988 403.954 194.164C403.954 194.348 403.894 194.496 403.774 194.608C403.654 194.72 403.498 194.776 403.306 194.776ZM406.083 202.06C405.891 202.06 405.731 202 405.603 201.88C405.475 201.752 405.411 201.588 405.411 201.388C405.411 201.188 405.475 201.024 405.603 200.896C405.731 200.768 405.891 200.704 406.083 200.704C406.267 200.704 406.419 200.768 406.539 200.896C406.667 201.024 406.731 201.188 406.731 201.388C406.731 201.588 406.667 201.752 406.539 201.88C406.419 202 406.267 202.06 406.083 202.06ZM408.831 202.06C408.639 202.06 408.479 202 408.351 201.88C408.223 201.752 408.159 201.588 408.159 201.388C408.159 201.188 408.223 201.024 408.351 200.896C408.479 200.768 408.639 200.704 408.831 200.704C409.015 200.704 409.167 200.768 409.287 200.896C409.415 201.024 409.479 201.188 409.479 201.388C409.479 201.588 409.415 201.752 409.287 201.88C409.167 202 409.015 202.06 408.831 202.06ZM411.579 202.06C411.387 202.06 411.227 202 411.099 201.88C410.971 201.752 410.907 201.588 410.907 201.388C410.907 201.188 410.971 201.024 411.099 200.896C411.227 200.768 411.387 200.704 411.579 200.704C411.763 200.704 411.915 200.768 412.035 200.896C412.163 201.024 412.227 201.188 412.227 201.388C412.227 201.588 412.163 201.752 412.035 201.88C411.915 202 411.763 202.06 411.579 202.06Z" fill="#234CAD"/>
<path d="M247.44 178.768C247.504 178.907 247.536 179.045 247.536 179.184C247.536 179.429 247.435 179.637 247.232 179.808C247.04 179.979 246.816 180.064 246.56 180.064C246.389 180.064 246.229 180.021 246.08 179.936C245.931 179.84 245.813 179.696 245.728 179.504L244.768 177.36H239.136L238.176 179.504C238.091 179.696 237.973 179.84 237.824 179.936C237.675 180.021 237.509 180.064 237.328 180.064C237.083 180.064 236.859 179.979 236.656 179.808C236.453 179.637 236.352 179.429 236.352 179.184C236.352 179.045 236.384 178.907 236.448 178.768L240.864 169.28C240.96 169.067 241.104 168.907 241.296 168.8C241.499 168.683 241.712 168.624 241.936 168.624C242.16 168.624 242.368 168.683 242.56 168.8C242.763 168.907 242.912 169.067 243.008 169.28L247.44 178.768ZM239.84 175.76H244.064L241.952 171.008L239.84 175.76ZM258.211 171.984C259.064 171.984 259.715 172.24 260.163 172.752C260.622 173.253 260.851 174.069 260.851 175.2V179.136C260.851 179.445 260.755 179.685 260.563 179.856C260.382 180.016 260.142 180.096 259.843 180.096C259.555 180.096 259.315 180.016 259.123 179.856C258.942 179.685 258.851 179.445 258.851 179.136V175.2C258.851 174.613 258.744 174.197 258.531 173.952C258.328 173.696 258.014 173.568 257.587 173.568C257.064 173.568 256.648 173.749 256.339 174.112C256.03 174.464 255.875 174.949 255.875 175.568V179.136C255.875 179.445 255.779 179.685 255.587 179.856C255.406 180.016 255.171 180.096 254.883 180.096C254.595 180.096 254.355 180.016 254.163 179.856C253.971 179.685 253.875 179.445 253.875 179.136V175.2C253.875 174.613 253.768 174.197 253.555 173.952C253.352 173.696 253.038 173.568 252.611 173.568C252.088 173.568 251.672 173.749 251.363 174.112C251.064 174.464 250.915 174.949 250.915 175.568V179.136C250.915 179.445 250.819 179.685 250.627 179.856C250.435 180.016 250.195 180.096 249.907 180.096C249.619 180.096 249.379 180.016 249.187 179.856C249.006 179.685 248.915 179.445 248.915 179.136V172.944C248.915 172.645 249.011 172.416 249.203 172.256C249.395 172.096 249.635 172.016 249.923 172.016C250.2 172.016 250.424 172.096 250.595 172.256C250.776 172.405 250.867 172.624 250.867 172.912V173.296C251.112 172.869 251.438 172.544 251.843 172.32C252.259 172.096 252.734 171.984 253.267 171.984C254.44 171.984 255.224 172.475 255.619 173.456C255.854 173.008 256.2 172.651 256.659 172.384C257.118 172.117 257.635 171.984 258.211 171.984ZM268.34 172.592C268.425 172.4 268.537 172.261 268.676 172.176C268.825 172.08 268.985 172.032 269.156 172.032C269.401 172.032 269.62 172.117 269.812 172.288C270.014 172.448 270.116 172.651 270.116 172.896C270.116 173.013 270.084 173.136 270.02 173.264L265.652 182.416C265.47 182.779 265.188 182.96 264.804 182.96C264.558 182.96 264.34 182.88 264.148 182.72C263.966 182.571 263.876 182.379 263.876 182.144C263.876 182.027 263.908 181.893 263.972 181.744L265.06 179.456L262.084 173.264C262.03 173.157 262.004 173.035 262.004 172.896C262.004 172.651 262.105 172.443 262.308 172.272C262.521 172.101 262.761 172.016 263.028 172.016C263.209 172.016 263.374 172.064 263.524 172.16C263.673 172.245 263.79 172.384 263.876 172.576L266.116 177.52L268.34 172.592ZM279.729 180.144C278.908 180.144 278.129 180.037 277.393 179.824C276.668 179.6 276.076 179.301 275.617 178.928C275.372 178.747 275.249 178.491 275.249 178.16C275.249 177.936 275.313 177.744 275.441 177.584C275.58 177.413 275.74 177.328 275.921 177.328C276.113 177.328 276.332 177.403 276.577 177.552C277.036 177.883 277.516 178.123 278.017 178.272C278.519 178.421 279.073 178.496 279.681 178.496C280.46 178.496 281.057 178.363 281.473 178.096C281.889 177.819 282.097 177.419 282.097 176.896C282.097 176.491 281.9 176.181 281.505 175.968C281.121 175.744 280.476 175.531 279.569 175.328C278.631 175.125 277.868 174.891 277.281 174.624C276.695 174.357 276.252 174.016 275.953 173.6C275.655 173.184 275.505 172.656 275.505 172.016C275.505 171.355 275.692 170.763 276.065 170.24C276.439 169.717 276.956 169.312 277.617 169.024C278.289 168.725 279.041 168.576 279.873 168.576C281.399 168.576 282.641 168.981 283.601 169.792C283.74 169.909 283.836 170.027 283.889 170.144C283.953 170.251 283.985 170.389 283.985 170.56C283.985 170.784 283.916 170.981 283.777 171.152C283.649 171.312 283.495 171.392 283.313 171.392C283.207 171.392 283.105 171.376 283.009 171.344C282.924 171.312 282.807 171.253 282.657 171.168C282.22 170.848 281.793 170.613 281.377 170.464C280.972 170.304 280.471 170.224 279.873 170.224C279.148 170.224 278.572 170.373 278.145 170.672C277.729 170.96 277.521 171.365 277.521 171.888C277.521 172.325 277.708 172.661 278.081 172.896C278.455 173.131 279.089 173.349 279.985 173.552C280.935 173.765 281.703 174.005 282.289 174.272C282.887 174.528 283.34 174.859 283.649 175.264C283.969 175.669 284.129 176.176 284.129 176.784C284.129 177.445 283.943 178.032 283.569 178.544C283.207 179.045 282.689 179.44 282.017 179.728C281.356 180.005 280.593 180.144 279.729 180.144ZM295.149 171.984C296.002 171.984 296.653 172.24 297.101 172.752C297.559 173.253 297.789 174.069 297.789 175.2V179.136C297.789 179.445 297.693 179.685 297.501 179.856C297.319 180.016 297.079 180.096 296.781 180.096C296.493 180.096 296.253 180.016 296.061 179.856C295.879 179.685 295.789 179.445 295.789 179.136V175.2C295.789 174.613 295.682 174.197 295.469 173.952C295.266 173.696 294.951 173.568 294.525 173.568C294.002 173.568 293.586 173.749 293.277 174.112C292.967 174.464 292.812 174.949 292.812 175.568V179.136C292.812 179.445 292.717 179.685 292.525 179.856C292.343 180.016 292.109 180.096 291.821 180.096C291.533 180.096 291.293 180.016 291.101 179.856C290.909 179.685 290.813 179.445 290.813 179.136V175.2C290.813 174.613 290.706 174.197 290.493 173.952C290.29 173.696 289.975 173.568 289.549 173.568C289.026 173.568 288.61 173.749 288.301 174.112C288.002 174.464 287.853 174.949 287.853 175.568V179.136C287.853 179.445 287.757 179.685 287.565 179.856C287.373 180.016 287.133 180.096 286.845 180.096C286.557 180.096 286.317 180.016 286.125 179.856C285.943 179.685 285.853 179.445 285.853 179.136V172.944C285.853 172.645 285.949 172.416 286.141 172.256C286.333 172.096 286.573 172.016 286.861 172.016C287.138 172.016 287.362 172.096 287.533 172.256C287.714 172.405 287.805 172.624 287.805 172.912V173.296C288.05 172.869 288.375 172.544 288.781 172.32C289.197 172.096 289.671 171.984 290.205 171.984C291.378 171.984 292.162 172.475 292.557 173.456C292.791 173.008 293.138 172.651 293.597 172.384C294.055 172.117 294.573 171.984 295.149 171.984ZM300.813 180.096C300.525 180.096 300.285 180.016 300.093 179.856C299.912 179.685 299.821 179.445 299.821 179.136V172.96C299.821 172.651 299.912 172.416 300.093 172.256C300.285 172.096 300.525 172.016 300.813 172.016C301.101 172.016 301.341 172.096 301.533 172.256C301.725 172.416 301.821 172.651 301.821 172.96V179.136C301.821 179.445 301.725 179.685 301.533 179.856C301.341 180.016 301.101 180.096 300.813 180.096ZM300.813 170.592C300.451 170.592 300.163 170.496 299.949 170.304C299.736 170.101 299.629 169.84 299.629 169.52C299.629 169.2 299.736 168.944 299.949 168.752C300.163 168.56 300.451 168.464 300.813 168.464C301.165 168.464 301.448 168.56 301.661 168.752C301.885 168.944 301.997 169.2 301.997 169.52C301.997 169.84 301.891 170.101 301.677 170.304C301.464 170.496 301.176 170.592 300.813 170.592ZM308.292 178.608C308.825 178.64 309.092 178.88 309.092 179.328C309.092 179.584 308.985 179.781 308.772 179.92C308.569 180.048 308.276 180.101 307.891 180.08L307.46 180.048C305.668 179.92 304.772 178.96 304.772 177.168V173.68H303.972C303.684 173.68 303.46 173.616 303.3 173.488C303.15 173.36 303.075 173.173 303.075 172.928C303.075 172.683 303.15 172.496 303.3 172.368C303.46 172.24 303.684 172.176 303.972 172.176H304.772V170.704C304.772 170.416 304.862 170.187 305.044 170.016C305.225 169.845 305.47 169.76 305.78 169.76C306.078 169.76 306.318 169.845 306.5 170.016C306.681 170.187 306.772 170.416 306.772 170.704V172.176H308.132C308.42 172.176 308.638 172.24 308.788 172.368C308.948 172.496 309.028 172.683 309.028 172.928C309.028 173.173 308.948 173.36 308.788 173.488C308.638 173.616 308.42 173.68 308.132 173.68H306.772V177.312C306.772 178.101 307.134 178.523 307.86 178.576L308.292 178.608ZM314.71 171.984C316.544 171.984 317.462 173.056 317.462 175.2V179.136C317.462 179.435 317.371 179.669 317.19 179.84C317.019 180.011 316.779 180.096 316.47 180.096C316.16 180.096 315.915 180.011 315.734 179.84C315.552 179.669 315.462 179.435 315.462 179.136V175.2C315.462 174.635 315.344 174.224 315.11 173.968C314.886 173.701 314.528 173.568 314.038 173.568C313.462 173.568 312.998 173.749 312.646 174.112C312.304 174.475 312.134 174.96 312.134 175.568V179.136C312.134 179.435 312.043 179.669 311.862 179.84C311.68 180.011 311.435 180.096 311.126 180.096C310.816 180.096 310.571 180.011 310.39 179.84C310.219 179.669 310.134 179.435 310.134 179.136V169.568C310.134 169.291 310.224 169.067 310.406 168.896C310.598 168.725 310.843 168.64 311.142 168.64C311.44 168.64 311.68 168.72 311.862 168.88C312.043 169.04 312.134 169.259 312.134 169.536V173.264C312.4 172.848 312.752 172.533 313.19 172.32C313.638 172.096 314.144 171.984 314.71 171.984Z" fill="#234CAD"/>
</g>
</g>
<defs>
<filter id="filter0_f_12263_404" x="0.085907" y="0.085907" width="621.828" height="371.828" filterUnits="userSpaceOnUse" color-interpolation-filters="sRGB">
<feFlood flood-opacity="0" result="BackgroundImageFix"/>
<feBlend mode="normal" in="SourceGraphic" in2="BackgroundImageFix" result="shape"/>
<feGaussianBlur stdDeviation="67.957" result="effect1_foregroundBlur_12263_404"/>
</filter>
<linearGradient id="paint0_linear_12263_404" x1="401.05" y1="272.598" x2="433.39" y2="108.231" gradientUnits="userSpaceOnUse">
<stop stop-color="#234CAD"/>
<stop offset="1" stop-color="#234CAD" stop-opacity="0.5"/>
</linearGradient>
<clipPath id="clip0_12263_404">
<rect width="60" height="60" fill="white" transform="translate(156 156)"/>
</clipPath>
<clipPath id="clip1_12263_404">
<rect width="16" height="16" fill="white" transform="translate(200 156)"/>
</clipPath>
<clipPath id="clip2_12263_404">
<rect width="230" height="45" fill="white" transform="translate(236 164)"/>
</clipPath>
<clipPath id="clip3_12263_404">
<rect width="177" height="45" fill="white" transform="translate(236 164)"/>
</clipPath>
</defs>
</svg>
