<svg width="648" height="482" viewBox="0 0 648 482" fill="none" xmlns="http://www.w3.org/2000/svg">
<g opacity="0.1" filter="url(#filter0_f_12263_475)">
<rect x="136" y="136" width="376" height="210" rx="25" fill="url(#paint0_linear_12263_475)"/>
</g>
<rect x="186" y="136" width="276" height="160" rx="25" fill="white"/>
<g clip-path="url(#clip0_12263_475)">
<circle cx="226" cy="256" r="19" fill="#F2F6FF" stroke="white" stroke-width="2"/>
<path d="M225.23 258.03C225.363 258.157 225.43 258.3 225.43 258.46C225.43 258.613 225.37 258.75 225.25 258.87C225.137 258.983 225 259.04 224.84 259.04C224.673 259.04 224.52 258.97 224.38 258.83L221.05 255.71V258.41C221.05 258.603 220.99 258.76 220.87 258.88C220.757 259 220.6 259.06 220.4 259.06C220.207 259.06 220.05 259 219.93 258.88C219.817 258.76 219.76 258.603 219.76 258.41V252.54C219.76 252.347 219.817 252.193 219.93 252.08C220.05 251.96 220.207 251.9 220.4 251.9C220.6 251.9 220.757 251.96 220.87 252.08C220.99 252.193 221.05 252.347 221.05 252.54V255.11L224.27 252.09C224.39 251.97 224.527 251.91 224.68 251.91C224.833 251.91 224.967 251.97 225.08 252.09C225.2 252.203 225.26 252.337 225.26 252.49C225.26 252.643 225.193 252.783 225.06 252.91L222.37 255.37L225.23 258.03ZM232.002 258.19C232.082 258.31 232.122 258.427 232.122 258.54C232.122 258.693 232.058 258.82 231.932 258.92C231.812 259.02 231.668 259.07 231.502 259.07C231.395 259.07 231.292 259.047 231.192 259C231.098 258.947 231.018 258.87 230.952 258.77L229.622 256.75C229.488 256.537 229.345 256.387 229.192 256.3C229.045 256.213 228.852 256.17 228.612 256.17H227.632V258.41C227.632 258.61 227.575 258.77 227.462 258.89C227.348 259.003 227.195 259.06 227.002 259.06C226.808 259.06 226.652 259.003 226.532 258.89C226.418 258.77 226.362 258.61 226.362 258.41V252.56C226.362 252.367 226.415 252.217 226.522 252.11C226.635 252.003 226.788 251.95 226.982 251.95H229.482C230.282 251.95 230.888 252.13 231.302 252.49C231.722 252.843 231.932 253.357 231.932 254.03C231.932 254.577 231.775 255.027 231.462 255.38C231.155 255.727 230.718 255.95 230.152 256.05C230.345 256.097 230.515 256.18 230.662 256.3C230.808 256.42 230.952 256.587 231.092 256.8L232.002 258.19ZM229.302 255.18C229.788 255.18 230.145 255.09 230.372 254.91C230.598 254.723 230.712 254.44 230.712 254.06C230.712 253.673 230.598 253.393 230.372 253.22C230.145 253.04 229.788 252.95 229.302 252.95H227.622V255.18H229.302Z" fill="#234CAD"/>
</g>
<g clip-path="url(#clip1_12263_475)">
<circle cx="256" cy="256" r="19" fill="#F2F6FF" stroke="white" stroke-width="2"/>
<path d="M257.02 251.9C257.207 251.9 257.357 251.96 257.47 252.08C257.583 252.193 257.64 252.347 257.64 252.54V258.46C257.64 258.647 257.587 258.793 257.48 258.9C257.373 259.007 257.233 259.06 257.06 259.06C256.887 259.06 256.75 259.007 256.65 258.9C256.55 258.793 256.5 258.647 256.5 258.46V254.34L254.8 257.56C254.72 257.707 254.633 257.817 254.54 257.89C254.447 257.957 254.337 257.99 254.21 257.99C254.083 257.99 253.973 257.957 253.88 257.89C253.787 257.823 253.7 257.713 253.62 257.56L251.91 254.39V258.46C251.91 258.64 251.857 258.787 251.75 258.9C251.65 259.007 251.513 259.06 251.34 259.06C251.167 259.06 251.03 259.007 250.93 258.9C250.83 258.793 250.78 258.647 250.78 258.46V252.54C250.78 252.347 250.833 252.193 250.94 252.08C251.053 251.96 251.203 251.9 251.39 251.9C251.65 251.9 251.853 252.043 252 252.33L254.22 256.56L256.43 252.33C256.577 252.043 256.773 251.9 257.02 251.9ZM259.038 259.06C258.525 259.08 258.268 258.903 258.268 258.53C258.268 258.37 258.312 258.25 258.398 258.17C258.478 258.083 258.608 258.033 258.788 258.02L259.108 258C259.382 257.987 259.588 257.9 259.728 257.74C259.868 257.58 259.938 257.337 259.938 257.01V252.54C259.938 252.347 259.995 252.193 260.108 252.08C260.228 251.96 260.385 251.9 260.578 251.9C260.778 251.9 260.935 251.96 261.048 252.08C261.168 252.193 261.228 252.347 261.228 252.54V257.01C261.228 258.27 260.605 258.947 259.358 259.04L259.038 259.06Z" fill="#234CAD"/>
</g>
<g clip-path="url(#clip2_12263_475)">
<circle cx="286" cy="256" r="19" fill="#F2F6FF" stroke="white" stroke-width="2"/>
<path d="M284.9 259.09C284.213 259.09 283.617 258.943 283.11 258.65C282.61 258.357 282.223 257.937 281.95 257.39C281.677 256.843 281.54 256.203 281.54 255.47C281.54 254.737 281.673 254.1 281.94 253.56C282.213 253.013 282.603 252.593 283.11 252.3C283.617 252.007 284.213 251.86 284.9 251.86C285.587 251.86 286.18 252.007 286.68 252.3C287.187 252.593 287.573 253.013 287.84 253.56C288.113 254.1 288.25 254.737 288.25 255.47C288.25 256.203 288.113 256.843 287.84 257.39C287.567 257.937 287.177 258.357 286.67 258.65C286.17 258.943 285.58 259.09 284.9 259.09ZM284.9 258.06C285.547 258.06 286.05 257.837 286.41 257.39C286.777 256.943 286.96 256.303 286.96 255.47C286.96 254.637 286.777 254 286.41 253.56C286.05 253.113 285.547 252.89 284.9 252.89C284.247 252.89 283.737 253.113 283.37 253.56C283.01 254 282.83 254.637 282.83 255.47C282.83 256.303 283.01 256.943 283.37 257.39C283.737 257.837 284.247 258.06 284.9 258.06ZM290.193 259.06C290 259.06 289.843 259 289.723 258.88C289.61 258.76 289.553 258.603 289.553 258.41V252.54C289.553 252.347 289.61 252.193 289.723 252.08C289.843 251.96 290 251.9 290.193 251.9C290.393 251.9 290.55 251.96 290.663 252.08C290.783 252.193 290.843 252.347 290.843 252.54V258.41C290.843 258.603 290.783 258.76 290.663 258.88C290.55 259 290.393 259.06 290.193 259.06Z" fill="#234CAD"/>
</g>
<g clip-path="url(#clip3_12263_475)">
<circle cx="316" cy="256" r="19" fill="#F2F6FF" stroke="white" stroke-width="2"/>
<path d="M315 255.7C315.127 255.7 315.23 255.743 315.31 255.83C315.397 255.91 315.44 256.013 315.44 256.14C315.44 256.267 315.397 256.373 315.31 256.46C315.23 256.54 315.127 256.58 315 256.58H313.44V258.13C313.44 258.257 313.397 258.363 313.31 258.45C313.23 258.537 313.127 258.58 313 258.58C312.873 258.58 312.767 258.537 312.68 258.45C312.6 258.363 312.56 258.257 312.56 258.13V256.58H311C310.873 256.58 310.767 256.54 310.68 256.46C310.6 256.373 310.56 256.267 310.56 256.14C310.56 256.013 310.6 255.91 310.68 255.83C310.767 255.743 310.873 255.7 311 255.7H312.56V254.14C312.56 254.013 312.6 253.91 312.68 253.83C312.767 253.743 312.873 253.7 313 253.7C313.127 253.7 313.23 253.743 313.31 253.83C313.397 253.91 313.44 254.013 313.44 254.14V255.7H315ZM320.076 255.38C320.496 255.487 320.816 255.69 321.036 255.99C321.263 256.283 321.376 256.65 321.376 257.09C321.376 257.697 321.153 258.18 320.706 258.54C320.259 258.9 319.656 259.08 318.896 259.08C318.463 259.08 318.046 259.013 317.646 258.88C317.246 258.747 316.906 258.56 316.626 258.32C316.473 258.187 316.396 258.03 316.396 257.85C316.396 257.703 316.436 257.58 316.516 257.48C316.603 257.373 316.703 257.32 316.816 257.32C316.883 257.32 316.943 257.333 316.996 257.36C317.049 257.38 317.123 257.417 317.216 257.47C317.496 257.657 317.763 257.8 318.016 257.9C318.269 258 318.546 258.05 318.846 258.05C319.286 258.05 319.613 257.963 319.826 257.79C320.039 257.61 320.146 257.34 320.146 256.98C320.146 256.627 320.033 256.367 319.806 256.2C319.586 256.027 319.243 255.94 318.776 255.94H318.206C318.053 255.94 317.933 255.89 317.846 255.79C317.766 255.683 317.726 255.563 317.726 255.43C317.726 255.29 317.766 255.17 317.846 255.07C317.933 254.97 318.053 254.92 318.206 254.92H318.606C319.519 254.92 319.976 254.577 319.976 253.89C319.976 253.57 319.879 253.323 319.686 253.15C319.493 252.977 319.226 252.89 318.886 252.89C318.399 252.89 317.879 253.083 317.326 253.47C317.233 253.523 317.159 253.563 317.106 253.59C317.053 253.61 316.993 253.62 316.926 253.62C316.813 253.62 316.713 253.57 316.626 253.47C316.546 253.363 316.506 253.237 316.506 253.09C316.506 252.99 316.523 252.907 316.556 252.84C316.596 252.767 316.656 252.693 316.736 252.62C317.016 252.387 317.349 252.203 317.736 252.07C318.129 251.93 318.529 251.86 318.936 251.86C319.629 251.86 320.179 252.03 320.586 252.37C320.999 252.71 321.206 253.163 321.206 253.73C321.199 254.117 321.096 254.457 320.896 254.75C320.703 255.037 320.429 255.247 320.076 255.38Z" fill="#234CAD"/>
</g>
<g clip-path="url(#clip4_12263_475)">
<path d="M291.904 201.172C292.048 201.172 292.16 201.208 292.24 201.28C292.32 201.352 292.36 201.452 292.36 201.58C292.36 201.716 292.32 201.82 292.24 201.892C292.168 201.964 292.056 202 291.904 202H287.932C287.78 202 287.664 201.964 287.584 201.892C287.512 201.82 287.476 201.716 287.476 201.58C287.476 201.452 287.516 201.352 287.596 201.28C287.676 201.208 287.788 201.172 287.932 201.172H289.42V194.74L288.112 195.592C288.048 195.632 287.984 195.652 287.92 195.652C287.808 195.652 287.708 195.6 287.62 195.496C287.54 195.392 287.5 195.28 287.5 195.16C287.5 194.992 287.564 194.872 287.692 194.8L289.516 193.612C289.652 193.524 289.792 193.48 289.936 193.48C290.072 193.48 290.184 193.524 290.272 193.612C290.36 193.7 290.404 193.824 290.404 193.984V201.172H291.904ZM296.795 202.096C295.827 202.096 295.091 201.728 294.587 200.992C294.083 200.256 293.831 199.184 293.831 197.776C293.831 196.36 294.083 195.284 294.587 194.548C295.091 193.812 295.827 193.444 296.795 193.444C297.763 193.444 298.499 193.812 299.003 194.548C299.507 195.276 299.759 196.348 299.759 197.764C299.759 199.18 299.507 200.256 299.003 200.992C298.499 201.728 297.763 202.096 296.795 202.096ZM296.795 201.268C297.467 201.268 297.963 200.984 298.283 200.416C298.603 199.848 298.763 198.964 298.763 197.764C298.763 196.556 298.603 195.672 298.283 195.112C297.971 194.552 297.475 194.272 296.795 194.272C296.123 194.272 295.627 194.556 295.307 195.124C294.987 195.684 294.827 196.564 294.827 197.764C294.827 198.964 294.987 199.848 295.307 200.416C295.627 200.984 296.123 201.268 296.795 201.268ZM301.771 197.38C301.579 197.38 301.419 197.32 301.291 197.2C301.163 197.072 301.099 196.908 301.099 196.708C301.099 196.508 301.163 196.348 301.291 196.228C301.419 196.1 301.579 196.036 301.771 196.036C301.955 196.036 302.107 196.1 302.227 196.228C302.355 196.348 302.419 196.508 302.419 196.708C302.419 196.908 302.355 197.072 302.227 197.2C302.107 197.32 301.955 197.38 301.771 197.38ZM301.771 202.06C301.579 202.06 301.419 202 301.291 201.88C301.163 201.752 301.099 201.588 301.099 201.388C301.099 201.188 301.163 201.024 301.291 200.896C301.419 200.768 301.579 200.704 301.771 200.704C301.955 200.704 302.107 200.768 302.227 200.896C302.355 201.024 302.419 201.188 302.419 201.388C302.419 201.588 302.355 201.752 302.227 201.88C302.107 202 301.955 202.06 301.771 202.06ZM307.861 197.656C308.373 197.8 308.761 198.048 309.025 198.4C309.297 198.752 309.433 199.188 309.433 199.708C309.433 200.444 309.185 201.024 308.689 201.448C308.193 201.872 307.517 202.084 306.661 202.084C306.141 202.084 305.641 201.996 305.161 201.82C304.689 201.644 304.289 201.404 303.961 201.1C303.833 200.98 303.769 200.844 303.769 200.692C303.769 200.572 303.801 200.472 303.865 200.392C303.929 200.312 304.005 200.272 304.093 200.272C304.205 200.272 304.317 200.316 304.429 200.404C304.797 200.7 305.157 200.916 305.509 201.052C305.861 201.188 306.241 201.256 306.649 201.256C307.241 201.256 307.689 201.12 307.993 200.848C308.305 200.576 308.461 200.184 308.461 199.672C308.461 198.64 307.813 198.124 306.517 198.124H305.881C305.753 198.124 305.649 198.084 305.569 198.004C305.497 197.916 305.461 197.816 305.461 197.704C305.461 197.592 305.497 197.496 305.569 197.416C305.649 197.336 305.753 197.296 305.881 197.296H306.325C306.949 197.296 307.429 197.16 307.765 196.888C308.101 196.608 308.269 196.208 308.269 195.688C308.269 195.232 308.133 194.884 307.861 194.644C307.589 194.396 307.205 194.272 306.709 194.272C306.333 194.272 305.969 194.344 305.617 194.488C305.265 194.624 304.913 194.836 304.561 195.124C304.449 195.212 304.337 195.256 304.225 195.256C304.137 195.256 304.061 195.216 303.997 195.136C303.933 195.056 303.901 194.956 303.901 194.836C303.901 194.684 303.965 194.548 304.093 194.428C304.421 194.124 304.817 193.884 305.281 193.708C305.753 193.532 306.237 193.444 306.733 193.444C307.501 193.444 308.113 193.64 308.569 194.032C309.025 194.424 309.249 194.952 309.241 195.616C309.233 196.096 309.105 196.516 308.857 196.876C308.617 197.236 308.285 197.496 307.861 197.656ZM313.928 202.096C312.96 202.096 312.224 201.728 311.72 200.992C311.216 200.256 310.964 199.184 310.964 197.776C310.964 196.36 311.216 195.284 311.72 194.548C312.224 193.812 312.96 193.444 313.928 193.444C314.896 193.444 315.632 193.812 316.136 194.548C316.64 195.276 316.892 196.348 316.892 197.764C316.892 199.18 316.64 200.256 316.136 200.992C315.632 201.728 314.896 202.096 313.928 202.096ZM313.928 201.268C314.6 201.268 315.096 200.984 315.416 200.416C315.736 199.848 315.896 198.964 315.896 197.764C315.896 196.556 315.736 195.672 315.416 195.112C315.104 194.552 314.608 194.272 313.928 194.272C313.256 194.272 312.76 194.556 312.44 195.124C312.12 195.684 311.96 196.564 311.96 197.764C311.96 198.964 312.12 199.848 312.44 200.416C312.76 200.984 313.256 201.268 313.928 201.268ZM328.945 201.436C328.977 201.5 328.993 201.568 328.993 201.64C328.993 201.76 328.945 201.86 328.849 201.94C328.761 202.02 328.653 202.06 328.525 202.06C328.325 202.06 328.185 201.964 328.105 201.772L327.253 199.828H322.729L321.865 201.772C321.785 201.964 321.645 202.06 321.445 202.06C321.317 202.06 321.205 202.02 321.109 201.94C321.013 201.852 320.965 201.748 320.965 201.628C320.965 201.564 320.981 201.5 321.013 201.436L324.445 193.804C324.493 193.692 324.565 193.608 324.661 193.552C324.757 193.496 324.861 193.468 324.973 193.468C325.093 193.468 325.201 193.5 325.297 193.564C325.393 193.62 325.465 193.7 325.513 193.804L328.945 201.436ZM323.089 199.012H326.893L324.985 194.704L323.089 199.012ZM337.892 193.48C338.044 193.48 338.16 193.528 338.24 193.624C338.328 193.712 338.372 193.832 338.372 193.984V201.58C338.372 201.724 338.332 201.84 338.252 201.928C338.172 202.016 338.06 202.06 337.916 202.06C337.772 202.06 337.664 202.016 337.592 201.928C337.52 201.84 337.484 201.724 337.484 201.58V195.448L334.88 200.44C334.768 200.672 334.604 200.788 334.388 200.788C334.18 200.788 334.016 200.672 333.896 200.44L331.28 195.508V201.58C331.28 201.724 331.24 201.84 331.16 201.928C331.088 202.016 330.98 202.06 330.836 202.06C330.692 202.06 330.58 202.016 330.5 201.928C330.42 201.84 330.38 201.724 330.38 201.58V193.984C330.38 193.832 330.424 193.712 330.512 193.624C330.6 193.528 330.72 193.48 330.872 193.48C331.072 193.48 331.232 193.596 331.352 193.828L334.4 199.672L337.412 193.828C337.476 193.7 337.544 193.612 337.616 193.564C337.696 193.508 337.788 193.48 337.892 193.48ZM346.12 202.096C345.152 202.096 344.416 201.728 343.912 200.992C343.408 200.256 343.156 199.184 343.156 197.776C343.156 196.36 343.408 195.284 343.912 194.548C344.416 193.812 345.152 193.444 346.12 193.444C347.088 193.444 347.824 193.812 348.328 194.548C348.832 195.276 349.084 196.348 349.084 197.764C349.084 199.18 348.832 200.256 348.328 200.992C347.824 201.728 347.088 202.096 346.12 202.096ZM346.12 201.268C346.792 201.268 347.288 200.984 347.608 200.416C347.928 199.848 348.088 198.964 348.088 197.764C348.088 196.556 347.928 195.672 347.608 195.112C347.296 194.552 346.8 194.272 346.12 194.272C345.448 194.272 344.952 194.556 344.632 195.124C344.312 195.684 344.152 196.564 344.152 197.764C344.152 198.964 344.312 199.848 344.632 200.416C344.952 200.984 345.448 201.268 346.12 201.268ZM353.639 196.696C354.175 196.696 354.643 196.808 355.043 197.032C355.451 197.256 355.763 197.572 355.979 197.98C356.203 198.38 356.315 198.844 356.315 199.372C356.315 199.9 356.195 200.372 355.955 200.788C355.715 201.196 355.379 201.516 354.947 201.748C354.523 201.972 354.031 202.084 353.471 202.084C352.975 202.084 352.491 201.996 352.019 201.82C351.547 201.644 351.147 201.404 350.819 201.1C350.691 200.98 350.627 200.844 350.627 200.692C350.627 200.572 350.659 200.472 350.723 200.392C350.787 200.312 350.863 200.272 350.951 200.272C351.063 200.272 351.175 200.316 351.287 200.404C351.639 200.692 351.991 200.908 352.343 201.052C352.695 201.188 353.063 201.256 353.447 201.256C354.039 201.256 354.503 201.088 354.839 200.752C355.175 200.416 355.343 199.96 355.343 199.384C355.343 198.824 355.175 198.372 354.839 198.028C354.503 197.684 354.051 197.512 353.483 197.512C352.755 197.512 352.163 197.792 351.707 198.352C351.595 198.472 351.459 198.532 351.299 198.532C351.187 198.532 351.091 198.5 351.011 198.436C350.939 198.364 350.903 198.268 350.903 198.148V194.008C350.903 193.872 350.943 193.76 351.023 193.672C351.111 193.584 351.231 193.54 351.383 193.54H355.607C355.751 193.54 355.863 193.576 355.943 193.648C356.031 193.72 356.075 193.82 356.075 193.948C356.075 194.076 356.031 194.176 355.943 194.248C355.863 194.32 355.751 194.356 355.607 194.356H351.875V197.368C352.099 197.152 352.359 196.988 352.655 196.876C352.959 196.756 353.287 196.696 353.639 196.696ZM368.56 193.48C368.712 193.48 368.828 193.528 368.908 193.624C368.996 193.712 369.04 193.832 369.04 193.984V201.58C369.04 201.724 369 201.84 368.92 201.928C368.84 202.016 368.728 202.06 368.584 202.06C368.44 202.06 368.332 202.016 368.26 201.928C368.188 201.84 368.152 201.724 368.152 201.58V195.448L365.548 200.44C365.436 200.672 365.272 200.788 365.056 200.788C364.848 200.788 364.684 200.672 364.564 200.44L361.948 195.508V201.58C361.948 201.724 361.908 201.84 361.828 201.928C361.756 202.016 361.648 202.06 361.504 202.06C361.36 202.06 361.248 202.016 361.168 201.928C361.088 201.84 361.048 201.724 361.048 201.58V193.984C361.048 193.832 361.092 193.712 361.18 193.624C361.268 193.528 361.388 193.48 361.54 193.48C361.74 193.48 361.9 193.596 362.02 193.828L365.068 199.672L368.08 193.828C368.144 193.7 368.212 193.612 368.284 193.564C368.364 193.508 368.456 193.48 368.56 193.48ZM373.382 196.012C374.846 196.012 375.578 196.78 375.578 198.316V201.58C375.578 201.724 375.534 201.84 375.446 201.928C375.366 202.016 375.254 202.06 375.11 202.06C374.966 202.06 374.85 202.016 374.762 201.928C374.674 201.84 374.63 201.724 374.63 201.58V201.004C374.478 201.348 374.246 201.616 373.934 201.808C373.622 201.992 373.262 202.084 372.854 202.084C372.478 202.084 372.13 202.008 371.81 201.856C371.498 201.704 371.25 201.492 371.066 201.22C370.882 200.948 370.79 200.648 370.79 200.32C370.79 199.88 370.902 199.54 371.126 199.3C371.35 199.052 371.718 198.876 372.23 198.772C372.742 198.66 373.454 198.604 374.366 198.604H374.63V198.208C374.63 197.728 374.53 197.376 374.33 197.152C374.138 196.928 373.822 196.816 373.382 196.816C372.838 196.816 372.286 196.964 371.726 197.26C371.51 197.396 371.358 197.464 371.27 197.464C371.174 197.464 371.094 197.428 371.03 197.356C370.966 197.284 370.934 197.192 370.934 197.08C370.934 196.968 370.966 196.872 371.03 196.792C371.102 196.704 371.214 196.616 371.366 196.528C371.646 196.368 371.962 196.244 372.314 196.156C372.674 196.06 373.03 196.012 373.382 196.012ZM372.986 201.316C373.466 201.316 373.858 201.156 374.162 200.836C374.474 200.508 374.63 200.088 374.63 199.576V199.228H374.414C373.71 199.228 373.174 199.26 372.806 199.324C372.438 199.38 372.174 199.48 372.014 199.624C371.862 199.76 371.786 199.964 371.786 200.236C371.786 200.548 371.898 200.808 372.122 201.016C372.354 201.216 372.642 201.316 372.986 201.316ZM381.569 196.336C381.657 196.144 381.797 196.048 381.989 196.048C382.109 196.048 382.217 196.088 382.313 196.168C382.409 196.248 382.457 196.348 382.457 196.468C382.457 196.54 382.441 196.604 382.409 196.66L379.037 203.932C378.997 204.02 378.937 204.088 378.857 204.136C378.785 204.184 378.709 204.208 378.629 204.208C378.509 204.208 378.401 204.168 378.305 204.088C378.217 204.016 378.173 203.92 378.173 203.8C378.173 203.736 378.189 203.672 378.221 203.608L379.061 201.796L376.685 196.66C376.653 196.604 376.637 196.544 376.637 196.48C376.637 196.36 376.689 196.256 376.793 196.168C376.905 196.08 377.025 196.036 377.153 196.036C377.233 196.036 377.309 196.06 377.381 196.108C377.461 196.156 377.521 196.224 377.561 196.312L379.565 200.812L381.569 196.336ZM391.811 201.172C391.955 201.172 392.067 201.208 392.147 201.28C392.227 201.352 392.267 201.452 392.267 201.58C392.267 201.86 392.115 202 391.811 202H387.107C386.971 202 386.859 201.96 386.771 201.88C386.683 201.792 386.639 201.688 386.639 201.568C386.639 201.416 386.695 201.284 386.807 201.172L389.699 197.992C390.099 197.544 390.387 197.144 390.563 196.792C390.747 196.432 390.839 196.072 390.839 195.712C390.839 195.248 390.703 194.892 390.431 194.644C390.167 194.396 389.791 194.272 389.303 194.272C388.919 194.272 388.551 194.344 388.199 194.488C387.847 194.624 387.495 194.836 387.143 195.124C387.023 195.22 386.911 195.268 386.807 195.268C386.719 195.268 386.643 195.228 386.579 195.148C386.515 195.06 386.483 194.956 386.483 194.836C386.483 194.668 386.547 194.532 386.675 194.428C387.003 194.124 387.403 193.884 387.875 193.708C388.347 193.532 388.831 193.444 389.327 193.444C390.087 193.444 390.691 193.644 391.139 194.044C391.595 194.444 391.823 194.984 391.823 195.664C391.823 196.152 391.711 196.62 391.487 197.068C391.271 197.516 390.911 198.016 390.407 198.568L388.007 201.172H391.811ZM396.51 202.096C395.542 202.096 394.806 201.728 394.302 200.992C393.798 200.256 393.546 199.184 393.546 197.776C393.546 196.36 393.798 195.284 394.302 194.548C394.806 193.812 395.542 193.444 396.51 193.444C397.478 193.444 398.214 193.812 398.718 194.548C399.222 195.276 399.474 196.348 399.474 197.764C399.474 199.18 399.222 200.256 398.718 200.992C398.214 201.728 397.478 202.096 396.51 202.096ZM396.51 201.268C397.182 201.268 397.678 200.984 397.998 200.416C398.318 199.848 398.478 198.964 398.478 197.764C398.478 196.556 398.318 195.672 397.998 195.112C397.686 194.552 397.19 194.272 396.51 194.272C395.838 194.272 395.342 194.556 395.022 195.124C394.702 195.684 394.542 196.564 394.542 197.764C394.542 198.964 394.702 199.848 395.022 200.416C395.342 200.984 395.838 201.268 396.51 201.268ZM406.201 201.172C406.345 201.172 406.457 201.208 406.537 201.28C406.617 201.352 406.657 201.452 406.657 201.58C406.657 201.86 406.505 202 406.201 202H401.497C401.361 202 401.249 201.96 401.161 201.88C401.073 201.792 401.029 201.688 401.029 201.568C401.029 201.416 401.085 201.284 401.197 201.172L404.089 197.992C404.489 197.544 404.777 197.144 404.953 196.792C405.137 196.432 405.229 196.072 405.229 195.712C405.229 195.248 405.093 194.892 404.821 194.644C404.557 194.396 404.181 194.272 403.693 194.272C403.309 194.272 402.941 194.344 402.589 194.488C402.237 194.624 401.885 194.836 401.533 195.124C401.413 195.22 401.301 195.268 401.197 195.268C401.109 195.268 401.033 195.228 400.969 195.148C400.905 195.06 400.873 194.956 400.873 194.836C400.873 194.668 400.937 194.532 401.065 194.428C401.393 194.124 401.793 193.884 402.265 193.708C402.737 193.532 403.221 193.444 403.717 193.444C404.477 193.444 405.081 193.644 405.529 194.044C405.985 194.444 406.213 194.984 406.213 195.664C406.213 196.152 406.101 196.62 405.877 197.068C405.661 197.516 405.301 198.016 404.797 198.568L402.397 201.172H406.201ZM410.901 202.096C409.933 202.096 409.197 201.728 408.693 200.992C408.189 200.256 407.937 199.184 407.937 197.776C407.937 196.36 408.189 195.284 408.693 194.548C409.197 193.812 409.933 193.444 410.901 193.444C411.869 193.444 412.605 193.812 413.109 194.548C413.613 195.276 413.865 196.348 413.865 197.764C413.865 199.18 413.613 200.256 413.109 200.992C412.605 201.728 411.869 202.096 410.901 202.096ZM410.901 201.268C411.573 201.268 412.069 200.984 412.389 200.416C412.709 199.848 412.869 198.964 412.869 197.764C412.869 196.556 412.709 195.672 412.389 195.112C412.077 194.552 411.581 194.272 410.901 194.272C410.229 194.272 409.733 194.556 409.413 195.124C409.093 195.684 408.933 196.564 408.933 197.764C408.933 198.964 409.093 199.848 409.413 200.416C409.733 200.984 410.229 201.268 410.901 201.268Z" fill="#234CAD"/>
<path d="M291.12 180.144C290.299 180.144 289.52 180.037 288.784 179.824C288.059 179.6 287.467 179.301 287.008 178.928C286.763 178.747 286.64 178.491 286.64 178.16C286.64 177.936 286.704 177.744 286.832 177.584C286.971 177.413 287.131 177.328 287.312 177.328C287.504 177.328 287.723 177.403 287.968 177.552C288.427 177.883 288.907 178.123 289.408 178.272C289.909 178.421 290.464 178.496 291.072 178.496C291.851 178.496 292.448 178.363 292.864 178.096C293.28 177.819 293.488 177.419 293.488 176.896C293.488 176.491 293.291 176.181 292.896 175.968C292.512 175.744 291.867 175.531 290.96 175.328C290.021 175.125 289.259 174.891 288.672 174.624C288.085 174.357 287.643 174.016 287.344 173.6C287.045 173.184 286.896 172.656 286.896 172.016C286.896 171.355 287.083 170.763 287.456 170.24C287.829 169.717 288.347 169.312 289.008 169.024C289.68 168.725 290.432 168.576 291.264 168.576C292.789 168.576 294.032 168.981 294.992 169.792C295.131 169.909 295.227 170.027 295.28 170.144C295.344 170.251 295.376 170.389 295.376 170.56C295.376 170.784 295.307 170.981 295.168 171.152C295.04 171.312 294.885 171.392 294.704 171.392C294.597 171.392 294.496 171.376 294.4 171.344C294.315 171.312 294.197 171.253 294.048 171.168C293.611 170.848 293.184 170.613 292.768 170.464C292.363 170.304 291.861 170.224 291.264 170.224C290.539 170.224 289.963 170.373 289.536 170.672C289.12 170.96 288.912 171.365 288.912 171.888C288.912 172.325 289.099 172.661 289.472 172.896C289.845 173.131 290.48 173.349 291.376 173.552C292.325 173.765 293.093 174.005 293.68 174.272C294.277 174.528 294.731 174.859 295.04 175.264C295.36 175.669 295.52 176.176 295.52 176.784C295.52 177.445 295.333 178.032 294.96 178.544C294.597 179.045 294.08 179.44 293.408 179.728C292.747 180.005 291.984 180.144 291.12 180.144ZM300.635 171.984C301.723 171.984 302.528 172.256 303.051 172.8C303.584 173.333 303.851 174.149 303.851 175.248V179.152C303.851 179.44 303.766 179.669 303.595 179.84C303.424 180 303.19 180.08 302.891 180.08C302.614 180.08 302.384 179.995 302.203 179.824C302.032 179.653 301.947 179.429 301.947 179.152V178.8C301.766 179.216 301.478 179.541 301.083 179.776C300.699 180.011 300.251 180.128 299.739 180.128C299.216 180.128 298.742 180.021 298.315 179.808C297.888 179.595 297.552 179.301 297.307 178.928C297.062 178.555 296.939 178.139 296.939 177.68C296.939 177.104 297.083 176.651 297.371 176.32C297.67 175.989 298.15 175.749 298.811 175.6C299.472 175.451 300.384 175.376 301.547 175.376H301.947V175.008C301.947 174.485 301.835 174.107 301.611 173.872C301.387 173.627 301.024 173.504 300.523 173.504C300.214 173.504 299.899 173.552 299.579 173.648C299.259 173.733 298.88 173.861 298.443 174.032C298.166 174.171 297.963 174.24 297.835 174.24C297.643 174.24 297.483 174.171 297.355 174.032C297.238 173.893 297.179 173.712 297.179 173.488C297.179 173.307 297.222 173.152 297.307 173.024C297.403 172.885 297.558 172.757 297.771 172.64C298.144 172.437 298.587 172.277 299.099 172.16C299.622 172.043 300.134 171.984 300.635 171.984ZM300.139 178.688C300.672 178.688 301.104 178.512 301.435 178.16C301.776 177.797 301.947 177.333 301.947 176.768V176.432H301.659C300.944 176.432 300.39 176.464 299.995 176.528C299.6 176.592 299.318 176.704 299.147 176.864C298.976 177.024 298.891 177.243 298.891 177.52C298.891 177.861 299.008 178.144 299.243 178.368C299.488 178.581 299.787 178.688 300.139 178.688ZM306.876 180.096C306.588 180.096 306.348 180.016 306.156 179.856C305.974 179.685 305.884 179.445 305.884 179.136V169.584C305.884 169.275 305.974 169.04 306.156 168.88C306.348 168.72 306.588 168.64 306.876 168.64C307.164 168.64 307.404 168.72 307.596 168.88C307.788 169.04 307.884 169.275 307.884 169.584V179.136C307.884 179.445 307.788 179.685 307.596 179.856C307.404 180.016 307.164 180.096 306.876 180.096ZM316.138 177.856C316.32 177.856 316.464 177.925 316.57 178.064C316.688 178.203 316.746 178.389 316.746 178.624C316.746 178.955 316.549 179.232 316.154 179.456C315.792 179.659 315.381 179.824 314.922 179.952C314.464 180.069 314.026 180.128 313.61 180.128C312.352 180.128 311.354 179.765 310.618 179.04C309.882 178.315 309.514 177.323 309.514 176.064C309.514 175.264 309.674 174.555 309.994 173.936C310.314 173.317 310.762 172.837 311.338 172.496C311.925 172.155 312.586 171.984 313.322 171.984C314.026 171.984 314.64 172.139 315.162 172.448C315.685 172.757 316.09 173.195 316.378 173.76C316.666 174.325 316.81 174.992 316.81 175.76C316.81 176.219 316.608 176.448 316.202 176.448H311.482C311.546 177.184 311.754 177.728 312.106 178.08C312.458 178.421 312.97 178.592 313.642 178.592C313.984 178.592 314.282 178.549 314.538 178.464C314.805 178.379 315.104 178.261 315.434 178.112C315.754 177.941 315.989 177.856 316.138 177.856ZM313.37 173.392C312.826 173.392 312.389 173.563 312.058 173.904C311.738 174.245 311.546 174.736 311.482 175.376H315.098C315.077 174.725 314.917 174.235 314.618 173.904C314.32 173.563 313.904 173.392 313.37 173.392ZM321.278 180.128C320.116 180.128 319.177 179.899 318.462 179.44C318.121 179.237 317.95 178.949 317.95 178.576C317.95 178.363 318.009 178.192 318.126 178.064C318.244 177.925 318.388 177.856 318.558 177.856C318.74 177.856 318.99 177.941 319.31 178.112C319.652 178.272 319.961 178.395 320.238 178.48C320.526 178.565 320.889 178.608 321.326 178.608C321.774 178.608 322.121 178.533 322.366 178.384C322.622 178.235 322.75 178.027 322.75 177.76C322.75 177.579 322.697 177.435 322.59 177.328C322.494 177.221 322.313 177.125 322.046 177.04C321.79 176.944 321.396 176.837 320.862 176.72C319.913 176.528 319.23 176.256 318.814 175.904C318.409 175.552 318.206 175.067 318.206 174.448C318.206 173.979 318.345 173.557 318.622 173.184C318.9 172.8 319.278 172.507 319.758 172.304C320.249 172.091 320.804 171.984 321.422 171.984C321.87 171.984 322.302 172.043 322.718 172.16C323.134 172.267 323.508 172.427 323.838 172.64C324.18 172.853 324.35 173.136 324.35 173.488C324.35 173.701 324.292 173.883 324.174 174.032C324.057 174.171 323.913 174.24 323.742 174.24C323.625 174.24 323.508 174.219 323.39 174.176C323.284 174.123 323.145 174.048 322.974 173.952C322.665 173.792 322.398 173.675 322.174 173.6C321.95 173.515 321.673 173.472 321.342 173.472C320.948 173.472 320.633 173.552 320.398 173.712C320.174 173.872 320.062 174.091 320.062 174.368C320.062 174.635 320.18 174.837 320.414 174.976C320.649 175.115 321.102 175.253 321.774 175.392C322.489 175.541 323.049 175.712 323.454 175.904C323.86 176.096 324.148 176.336 324.318 176.624C324.5 176.912 324.59 177.28 324.59 177.728C324.59 178.453 324.286 179.035 323.678 179.472C323.081 179.909 322.281 180.128 321.278 180.128ZM340.748 168.64C341.046 168.64 341.286 168.736 341.468 168.928C341.649 169.109 341.74 169.355 341.74 169.664V179.136C341.74 179.435 341.654 179.669 341.484 179.84C341.313 180.011 341.089 180.096 340.812 180.096C340.534 180.096 340.316 180.011 340.156 179.84C339.996 179.669 339.916 179.435 339.916 179.136V172.544L337.196 177.696C337.068 177.931 336.929 178.107 336.78 178.224C336.63 178.331 336.454 178.384 336.252 178.384C336.049 178.384 335.873 178.331 335.724 178.224C335.574 178.117 335.436 177.941 335.308 177.696L332.572 172.624V179.136C332.572 179.424 332.486 179.659 332.316 179.84C332.156 180.011 331.937 180.096 331.66 180.096C331.382 180.096 331.164 180.011 331.004 179.84C330.844 179.669 330.764 179.435 330.764 179.136V169.664C330.764 169.355 330.849 169.109 331.02 168.928C331.201 168.736 331.441 168.64 331.74 168.64C332.156 168.64 332.481 168.869 332.716 169.328L336.268 176.096L339.804 169.328C340.038 168.869 340.353 168.64 340.748 168.64ZM350.201 177.856C350.382 177.856 350.526 177.925 350.633 178.064C350.75 178.203 350.809 178.389 350.809 178.624C350.809 178.955 350.611 179.232 350.217 179.456C349.854 179.659 349.443 179.824 348.985 179.952C348.526 180.069 348.089 180.128 347.673 180.128C346.414 180.128 345.417 179.765 344.681 179.04C343.945 178.315 343.577 177.323 343.577 176.064C343.577 175.264 343.737 174.555 344.057 173.936C344.377 173.317 344.825 172.837 345.401 172.496C345.987 172.155 346.649 171.984 347.385 171.984C348.089 171.984 348.702 172.139 349.225 172.448C349.747 172.757 350.153 173.195 350.441 173.76C350.729 174.325 350.873 174.992 350.873 175.76C350.873 176.219 350.67 176.448 350.265 176.448H345.545C345.609 177.184 345.817 177.728 346.169 178.08C346.521 178.421 347.033 178.592 347.705 178.592C348.046 178.592 348.345 178.549 348.601 178.464C348.867 178.379 349.166 178.261 349.497 178.112C349.817 177.941 350.051 177.856 350.201 177.856ZM347.433 173.392C346.889 173.392 346.451 173.563 346.121 173.904C345.801 174.245 345.609 174.736 345.545 175.376H349.161C349.139 174.725 348.979 174.235 348.681 173.904C348.382 173.563 347.966 173.392 347.433 173.392ZM358.701 177.856C358.882 177.856 359.026 177.925 359.133 178.064C359.25 178.203 359.309 178.389 359.309 178.624C359.309 178.955 359.111 179.232 358.717 179.456C358.354 179.659 357.943 179.824 357.485 179.952C357.026 180.069 356.589 180.128 356.173 180.128C354.914 180.128 353.917 179.765 353.181 179.04C352.445 178.315 352.077 177.323 352.077 176.064C352.077 175.264 352.237 174.555 352.557 173.936C352.877 173.317 353.325 172.837 353.901 172.496C354.487 172.155 355.149 171.984 355.885 171.984C356.589 171.984 357.202 172.139 357.725 172.448C358.247 172.757 358.653 173.195 358.941 173.76C359.229 174.325 359.373 174.992 359.373 175.76C359.373 176.219 359.17 176.448 358.765 176.448H354.045C354.109 177.184 354.317 177.728 354.669 178.08C355.021 178.421 355.533 178.592 356.205 178.592C356.546 178.592 356.845 178.549 357.101 178.464C357.367 178.379 357.666 178.261 357.997 178.112C358.317 177.941 358.551 177.856 358.701 177.856ZM355.933 173.392C355.389 173.392 354.951 173.563 354.621 173.904C354.301 174.245 354.109 174.736 354.045 175.376H357.661C357.639 174.725 357.479 174.235 357.181 173.904C356.882 173.563 356.466 173.392 355.933 173.392ZM364.963 178.608C365.497 178.64 365.763 178.88 365.763 179.328C365.763 179.584 365.657 179.781 365.443 179.92C365.241 180.048 364.947 180.101 364.563 180.08L364.131 180.048C362.339 179.92 361.443 178.96 361.443 177.168V173.68H360.643C360.355 173.68 360.131 173.616 359.971 173.488C359.822 173.36 359.747 173.173 359.747 172.928C359.747 172.683 359.822 172.496 359.971 172.368C360.131 172.24 360.355 172.176 360.643 172.176H361.443V170.704C361.443 170.416 361.534 170.187 361.715 170.016C361.897 169.845 362.142 169.76 362.451 169.76C362.75 169.76 362.99 169.845 363.171 170.016C363.353 170.187 363.443 170.416 363.443 170.704V172.176H364.803C365.091 172.176 365.31 172.24 365.459 172.368C365.619 172.496 365.699 172.683 365.699 172.928C365.699 173.173 365.619 173.36 365.459 173.488C365.31 173.616 365.091 173.68 364.803 173.68H363.443V177.312C363.443 178.101 363.806 178.523 364.531 178.576L364.963 178.608ZM367.798 180.096C367.51 180.096 367.27 180.016 367.078 179.856C366.896 179.685 366.806 179.445 366.806 179.136V172.96C366.806 172.651 366.896 172.416 367.078 172.256C367.27 172.096 367.51 172.016 367.798 172.016C368.086 172.016 368.326 172.096 368.518 172.256C368.71 172.416 368.806 172.651 368.806 172.96V179.136C368.806 179.445 368.71 179.685 368.518 179.856C368.326 180.016 368.086 180.096 367.798 180.096ZM367.798 170.592C367.435 170.592 367.147 170.496 366.934 170.304C366.72 170.101 366.614 169.84 366.614 169.52C366.614 169.2 366.72 168.944 366.934 168.752C367.147 168.56 367.435 168.464 367.798 168.464C368.15 168.464 368.432 168.56 368.646 168.752C368.87 168.944 368.982 169.2 368.982 169.52C368.982 169.84 368.875 170.101 368.662 170.304C368.448 170.496 368.16 170.592 367.798 170.592ZM375.412 171.984C376.351 171.984 377.049 172.251 377.508 172.784C377.967 173.317 378.196 174.123 378.196 175.2V179.136C378.196 179.435 378.105 179.669 377.924 179.84C377.753 180.011 377.513 180.096 377.204 180.096C376.895 180.096 376.649 180.011 376.468 179.84C376.287 179.669 376.196 179.435 376.196 179.136V175.312C376.196 174.704 376.079 174.261 375.844 173.984C375.62 173.707 375.263 173.568 374.772 173.568C374.196 173.568 373.732 173.749 373.38 174.112C373.039 174.475 372.868 174.96 372.868 175.568V179.136C372.868 179.435 372.777 179.669 372.596 179.84C372.415 180.011 372.169 180.096 371.86 180.096C371.551 180.096 371.305 180.011 371.124 179.84C370.953 179.669 370.868 179.435 370.868 179.136V172.944C370.868 172.667 370.959 172.443 371.14 172.272C371.321 172.101 371.567 172.016 371.876 172.016C372.153 172.016 372.377 172.101 372.548 172.272C372.729 172.432 372.82 172.645 372.82 172.912V173.344C373.087 172.907 373.444 172.571 373.892 172.336C374.34 172.101 374.847 171.984 375.412 171.984ZM386.852 172.016C387.15 172.016 387.39 172.101 387.572 172.272C387.753 172.443 387.844 172.672 387.844 172.96V179.28C387.844 180.507 387.502 181.435 386.82 182.064C386.137 182.693 385.129 183.008 383.796 183.008C382.633 183.008 381.662 182.789 380.884 182.352C380.489 182.117 380.292 181.835 380.292 181.504C380.292 181.269 380.345 181.083 380.452 180.944C380.569 180.805 380.718 180.736 380.9 180.736C380.996 180.736 381.113 180.757 381.252 180.8C381.39 180.853 381.534 180.912 381.684 180.976C382.068 181.136 382.409 181.259 382.708 181.344C383.017 181.429 383.369 181.472 383.764 181.472C385.161 181.472 385.86 180.789 385.86 179.424V178.4C385.625 178.837 385.284 179.179 384.836 179.424C384.388 179.659 383.876 179.776 383.299 179.776C382.617 179.776 382.009 179.616 381.476 179.296C380.953 178.965 380.542 178.507 380.243 177.92C379.945 177.333 379.796 176.656 379.796 175.888C379.796 175.12 379.94 174.443 380.228 173.856C380.526 173.259 380.942 172.8 381.476 172.48C382.009 172.149 382.617 171.984 383.299 171.984C383.876 171.984 384.388 172.107 384.836 172.352C385.284 172.587 385.625 172.923 385.86 173.36V172.944C385.86 172.667 385.95 172.443 386.132 172.272C386.313 172.101 386.553 172.016 386.852 172.016ZM383.828 178.224C384.468 178.224 384.964 178.016 385.316 177.6C385.678 177.184 385.86 176.613 385.86 175.888C385.86 175.152 385.678 174.576 385.316 174.16C384.964 173.744 384.468 173.536 383.828 173.536C383.198 173.536 382.702 173.744 382.34 174.16C381.977 174.576 381.796 175.152 381.796 175.888C381.796 176.613 381.977 177.184 382.34 177.6C382.702 178.016 383.198 178.224 383.828 178.224Z" fill="#234CAD"/>
</g>
<circle cx="236" cy="186" r="29" stroke="#234CAD" stroke-width="2"/>
<path d="M228.333 179.333C228.333 179.886 228.781 180.333 229.333 180.333C229.886 180.333 230.333 179.886 230.333 179.333H228.333ZM230.333 176C230.333 175.448 229.886 175 229.333 175C228.781 175 228.333 175.448 228.333 176H230.333ZM232.778 179.333C232.778 179.886 233.225 180.333 233.778 180.333C234.33 180.333 234.778 179.886 234.778 179.333H232.778ZM234.778 176C234.778 175.448 234.33 175 233.778 175C233.225 175 232.778 175.448 232.778 176H234.778ZM237.222 179.333C237.222 179.886 237.67 180.333 238.222 180.333C238.775 180.333 239.222 179.886 239.222 179.333H237.222ZM239.222 176C239.222 175.448 238.775 175 238.222 175C237.67 175 237.222 175.448 237.222 176H239.222ZM241.667 179.333C241.667 179.886 242.114 180.333 242.667 180.333C243.219 180.333 243.667 179.886 243.667 179.333H241.667ZM243.667 176C243.667 175.448 243.219 175 242.667 175C242.114 175 241.667 175.448 241.667 176H243.667ZM246 184.778C246.552 184.778 247 184.33 247 183.778C247 183.225 246.552 182.778 246 182.778V184.778ZM226 182.778C225.448 182.778 225 183.225 225 183.778C225 184.33 225.448 184.778 226 184.778V182.778ZM230.333 179.333V176H228.333V179.333H230.333ZM234.778 179.333V176H232.778V179.333H234.778ZM239.222 179.333V176H237.222V179.333H239.222ZM243.667 179.333V176H241.667V179.333H243.667ZM246 182.778H226V184.778H246V182.778ZM228.222 197H243.778V195H228.222V197ZM243.778 197C245.557 197 247 195.557 247 193.778H245C245 194.453 244.453 195 243.778 195V197ZM247 193.778V180.444H245V193.778H247ZM247 180.444C247 178.665 245.557 177.222 243.778 177.222V179.222C244.453 179.222 245 179.769 245 180.444H247ZM243.778 177.222H228.222V179.222H243.778V177.222ZM228.222 177.222C226.443 177.222 225 178.665 225 180.444H227C227 179.769 227.547 179.222 228.222 179.222V177.222ZM225 180.444V193.778H227V180.444H225ZM225 193.778C225 195.557 226.443 197 228.222 197V195C227.547 195 227 194.453 227 193.778H225Z" fill="#234CAD"/>
<defs>
<filter id="filter0_f_12263_475" x="0.085907" y="0.085907" width="647.828" height="481.828" filterUnits="userSpaceOnUse" color-interpolation-filters="sRGB">
<feFlood flood-opacity="0" result="BackgroundImageFix"/>
<feBlend mode="normal" in="SourceGraphic" in2="BackgroundImageFix" result="shape"/>
<feGaussianBlur stdDeviation="67.957" result="effect1_foregroundBlur_12263_475"/>
</filter>
<linearGradient id="paint0_linear_12263_475" x1="420.739" y1="422.855" x2="540.866" y2="110.526" gradientUnits="userSpaceOnUse">
<stop stop-color="#234CAD"/>
<stop offset="1" stop-color="#234CAD" stop-opacity="0.5"/>
</linearGradient>
<clipPath id="clip0_12263_475">
<rect width="40" height="40" fill="white" transform="translate(206 236)"/>
</clipPath>
<clipPath id="clip1_12263_475">
<rect width="40" height="40" fill="white" transform="translate(236 236)"/>
</clipPath>
<clipPath id="clip2_12263_475">
<rect width="40" height="40" fill="white" transform="translate(266 236)"/>
</clipPath>
<clipPath id="clip3_12263_475">
<rect width="40" height="40" fill="white" transform="translate(296 236)"/>
</clipPath>
<clipPath id="clip4_12263_475">
<rect width="129" height="45" fill="white" transform="translate(286 164)"/>
</clipPath>
</defs>
</svg>
