<svg width="622" height="372" viewBox="0 0 622 372" fill="none" xmlns="http://www.w3.org/2000/svg">
<g opacity="0.05" filter="url(#filter0_f_12263_418)">
<rect x="136" y="136" width="350" height="100" rx="25" fill="url(#paint0_linear_12263_418)"/>
</g>
<rect x="136" y="136" width="350" height="100" rx="25" fill="white"/>
<g clip-path="url(#clip0_12263_418)">
<path opacity="0.75" d="M431.94 170.38C432.367 170.5 432.69 170.707 432.91 171C433.137 171.293 433.25 171.657 433.25 172.09C433.25 172.703 433.043 173.187 432.63 173.54C432.217 173.893 431.653 174.07 430.94 174.07C430.507 174.07 430.09 173.997 429.69 173.85C429.297 173.703 428.963 173.503 428.69 173.25C428.583 173.15 428.53 173.037 428.53 172.91C428.53 172.81 428.557 172.727 428.61 172.66C428.663 172.593 428.727 172.56 428.8 172.56C428.893 172.56 428.987 172.597 429.08 172.67C429.387 172.917 429.687 173.097 429.98 173.21C430.273 173.323 430.59 173.38 430.93 173.38C431.423 173.38 431.797 173.267 432.05 173.04C432.31 172.813 432.44 172.487 432.44 172.06C432.44 171.2 431.9 170.77 430.82 170.77H430.29C430.183 170.77 430.097 170.737 430.03 170.67C429.97 170.597 429.94 170.513 429.94 170.42C429.94 170.327 429.97 170.247 430.03 170.18C430.097 170.113 430.183 170.08 430.29 170.08H430.66C431.18 170.08 431.58 169.967 431.86 169.74C432.14 169.507 432.28 169.173 432.28 168.74C432.28 168.36 432.167 168.07 431.94 167.87C431.713 167.663 431.393 167.56 430.98 167.56C430.667 167.56 430.363 167.62 430.07 167.74C429.777 167.853 429.483 168.03 429.19 168.27C429.097 168.343 429.003 168.38 428.91 168.38C428.837 168.38 428.773 168.347 428.72 168.28C428.667 168.213 428.64 168.13 428.64 168.03C428.64 167.903 428.693 167.79 428.8 167.69C429.073 167.437 429.403 167.237 429.79 167.09C430.183 166.943 430.587 166.87 431 166.87C431.64 166.87 432.15 167.033 432.53 167.36C432.91 167.687 433.097 168.127 433.09 168.68C433.083 169.08 432.977 169.43 432.77 169.73C432.57 170.03 432.293 170.247 431.94 170.38ZM435.146 170.15C434.986 170.15 434.853 170.1 434.746 170C434.639 169.893 434.586 169.757 434.586 169.59C434.586 169.423 434.639 169.29 434.746 169.19C434.853 169.083 434.986 169.03 435.146 169.03C435.299 169.03 435.426 169.083 435.526 169.19C435.633 169.29 435.686 169.423 435.686 169.59C435.686 169.757 435.633 169.893 435.526 170C435.426 170.1 435.299 170.15 435.146 170.15ZM435.146 174.05C434.986 174.05 434.853 174 434.746 173.9C434.639 173.793 434.586 173.657 434.586 173.49C434.586 173.323 434.639 173.187 434.746 173.08C434.853 172.973 434.986 172.92 435.146 172.92C435.299 172.92 435.426 172.973 435.526 173.08C435.633 173.187 435.686 173.323 435.686 173.49C435.686 173.657 435.633 173.793 435.526 173.9C435.426 174 435.299 174.05 435.146 174.05ZM439.281 174.08C438.475 174.08 437.861 173.773 437.441 173.16C437.021 172.547 436.811 171.653 436.811 170.48C436.811 169.3 437.021 168.403 437.441 167.79C437.861 167.177 438.475 166.87 439.281 166.87C440.088 166.87 440.701 167.177 441.121 167.79C441.541 168.397 441.751 169.29 441.751 170.47C441.751 171.65 441.541 172.547 441.121 173.16C440.701 173.773 440.088 174.08 439.281 174.08ZM439.281 173.39C439.841 173.39 440.255 173.153 440.521 172.68C440.788 172.207 440.921 171.47 440.921 170.47C440.921 169.463 440.788 168.727 440.521 168.26C440.261 167.793 439.848 167.56 439.281 167.56C438.721 167.56 438.308 167.797 438.041 168.27C437.775 168.737 437.641 169.47 437.641 170.47C437.641 171.47 437.775 172.207 438.041 172.68C438.308 173.153 438.721 173.39 439.281 173.39ZM446.497 170.38C446.911 170.507 447.231 170.723 447.457 171.03C447.691 171.337 447.807 171.703 447.807 172.13C447.807 172.737 447.587 173.213 447.147 173.56C446.707 173.9 446.084 174.07 445.277 174.07C444.471 174.07 443.847 173.9 443.407 173.56C442.967 173.213 442.747 172.737 442.747 172.13C442.747 171.697 442.864 171.327 443.097 171.02C443.331 170.713 443.654 170.5 444.067 170.38C443.714 170.247 443.434 170.037 443.227 169.75C443.021 169.463 442.917 169.127 442.917 168.74C442.917 168.167 443.124 167.713 443.537 167.38C443.957 167.04 444.537 166.87 445.277 166.87C446.017 166.87 446.594 167.04 447.007 167.38C447.427 167.713 447.637 168.167 447.637 168.74C447.637 169.127 447.534 169.467 447.327 169.76C447.121 170.047 446.844 170.253 446.497 170.38ZM443.727 168.8C443.727 169.213 443.857 169.53 444.117 169.75C444.384 169.97 444.771 170.08 445.277 170.08C445.784 170.08 446.167 169.97 446.427 169.75C446.694 169.53 446.827 169.213 446.827 168.8C446.827 168.407 446.694 168.1 446.427 167.88C446.167 167.66 445.784 167.55 445.277 167.55C444.771 167.55 444.384 167.66 444.117 167.88C443.857 168.1 443.727 168.407 443.727 168.8ZM445.277 173.39C446.424 173.39 446.997 172.953 446.997 172.08C446.997 171.207 446.424 170.77 445.277 170.77C444.131 170.77 443.557 171.207 443.557 172.08C443.557 172.953 444.131 173.39 445.277 173.39ZM452.132 174.05C452.005 174.05 451.905 174.013 451.832 173.94C451.758 173.86 451.722 173.757 451.722 173.63V167.35C451.722 167.23 451.758 167.133 451.832 167.06C451.912 166.987 452.015 166.95 452.142 166.95H454.512C455.252 166.95 455.825 167.13 456.232 167.49C456.645 167.85 456.852 168.36 456.852 169.02C456.852 169.68 456.645 170.193 456.232 170.56C455.818 170.927 455.245 171.11 454.512 171.11H452.542V173.63C452.542 173.757 452.505 173.86 452.432 173.94C452.358 174.013 452.258 174.05 452.132 174.05ZM454.432 170.43C455.505 170.43 456.042 169.96 456.042 169.02C456.042 168.093 455.505 167.63 454.432 167.63H452.542V170.43H454.432ZM464.427 166.9C464.554 166.9 464.65 166.94 464.717 167.02C464.79 167.093 464.827 167.193 464.827 167.32V173.65C464.827 173.77 464.794 173.867 464.727 173.94C464.66 174.013 464.567 174.05 464.447 174.05C464.327 174.05 464.237 174.013 464.177 173.94C464.117 173.867 464.087 173.77 464.087 173.65V168.54L461.917 172.7C461.824 172.893 461.687 172.99 461.507 172.99C461.334 172.99 461.197 172.893 461.097 172.7L458.917 168.59V173.65C458.917 173.77 458.884 173.867 458.817 173.94C458.757 174.013 458.667 174.05 458.547 174.05C458.427 174.05 458.334 174.013 458.267 173.94C458.2 173.867 458.167 173.77 458.167 173.65V167.32C458.167 167.193 458.204 167.093 458.277 167.02C458.35 166.94 458.45 166.9 458.577 166.9C458.744 166.9 458.877 166.997 458.977 167.19L461.517 172.06L464.027 167.19C464.08 167.083 464.137 167.01 464.197 166.97C464.264 166.923 464.34 166.9 464.427 166.9Z" fill="#234CAD"/>
<g clip-path="url(#clip1_12263_418)">
<path d="M243.572 193.48C243.724 193.48 243.84 193.528 243.92 193.624C244.008 193.712 244.052 193.832 244.052 193.984V201.556C244.052 201.708 244.008 201.832 243.92 201.928C243.84 202.016 243.724 202.06 243.572 202.06C243.42 202.06 243.3 202.016 243.212 201.928C243.124 201.832 243.08 201.708 243.08 201.556V198.124H238.016V201.556C238.016 201.708 237.972 201.832 237.884 201.928C237.796 202.016 237.676 202.06 237.524 202.06C237.372 202.06 237.252 202.016 237.164 201.928C237.084 201.832 237.044 201.708 237.044 201.556V193.984C237.044 193.832 237.084 193.712 237.164 193.624C237.252 193.528 237.372 193.48 237.524 193.48C237.676 193.48 237.796 193.528 237.884 193.624C237.972 193.712 238.016 193.832 238.016 193.984V197.284H243.08V193.984C243.08 193.832 243.124 193.712 243.212 193.624C243.3 193.528 243.42 193.48 243.572 193.48ZM248.382 196.012C249.846 196.012 250.578 196.78 250.578 198.316V201.58C250.578 201.724 250.534 201.84 250.446 201.928C250.366 202.016 250.254 202.06 250.11 202.06C249.966 202.06 249.85 202.016 249.762 201.928C249.674 201.84 249.63 201.724 249.63 201.58V201.004C249.478 201.348 249.246 201.616 248.934 201.808C248.622 201.992 248.262 202.084 247.854 202.084C247.478 202.084 247.13 202.008 246.81 201.856C246.498 201.704 246.25 201.492 246.066 201.22C245.882 200.948 245.79 200.648 245.79 200.32C245.79 199.88 245.902 199.54 246.126 199.3C246.35 199.052 246.718 198.876 247.23 198.772C247.742 198.66 248.454 198.604 249.366 198.604H249.63V198.208C249.63 197.728 249.53 197.376 249.33 197.152C249.138 196.928 248.822 196.816 248.382 196.816C247.838 196.816 247.286 196.964 246.726 197.26C246.51 197.396 246.358 197.464 246.27 197.464C246.174 197.464 246.094 197.428 246.03 197.356C245.966 197.284 245.934 197.192 245.934 197.08C245.934 196.968 245.966 196.872 246.03 196.792C246.102 196.704 246.214 196.616 246.366 196.528C246.646 196.368 246.962 196.244 247.314 196.156C247.674 196.06 248.03 196.012 248.382 196.012ZM247.986 201.316C248.466 201.316 248.858 201.156 249.162 200.836C249.474 200.508 249.63 200.088 249.63 199.576V199.228H249.414C248.71 199.228 248.174 199.26 247.806 199.324C247.438 199.38 247.174 199.48 247.014 199.624C246.862 199.76 246.786 199.964 246.786 200.236C246.786 200.548 246.898 200.808 247.122 201.016C247.354 201.216 247.642 201.316 247.986 201.316ZM256.569 196.336C256.657 196.144 256.797 196.048 256.989 196.048C257.109 196.048 257.217 196.088 257.313 196.168C257.409 196.248 257.457 196.348 257.457 196.468C257.457 196.54 257.441 196.604 257.409 196.66L255.069 201.7C255.021 201.804 254.949 201.888 254.853 201.952C254.757 202.008 254.653 202.036 254.541 202.036C254.437 202.036 254.337 202.008 254.241 201.952C254.145 201.888 254.069 201.804 254.013 201.7L251.685 196.66C251.653 196.604 251.637 196.544 251.637 196.48C251.637 196.36 251.689 196.256 251.793 196.168C251.905 196.08 252.025 196.036 252.153 196.036C252.233 196.036 252.309 196.06 252.381 196.108C252.461 196.156 252.521 196.224 252.561 196.312L254.565 200.812L256.569 196.336ZM262.975 200.644C263.063 200.644 263.139 200.68 263.203 200.752C263.267 200.824 263.299 200.916 263.299 201.028C263.299 201.228 263.159 201.412 262.879 201.58C262.591 201.748 262.287 201.876 261.967 201.964C261.647 202.044 261.335 202.084 261.031 202.084C260.127 202.084 259.411 201.816 258.883 201.28C258.363 200.744 258.103 200.004 258.103 199.06C258.103 198.46 258.219 197.932 258.451 197.476C258.683 197.012 259.007 196.652 259.423 196.396C259.847 196.14 260.327 196.012 260.863 196.012C261.623 196.012 262.227 196.26 262.675 196.756C263.123 197.252 263.347 197.924 263.347 198.772C263.347 198.932 263.315 199.048 263.251 199.12C263.187 199.192 263.083 199.228 262.939 199.228H259.075C259.147 200.604 259.799 201.292 261.031 201.292C261.343 201.292 261.611 201.252 261.835 201.172C262.059 201.084 262.299 200.968 262.555 200.824C262.763 200.704 262.903 200.644 262.975 200.644ZM260.875 196.768C260.363 196.768 259.951 196.928 259.639 197.248C259.335 197.568 259.155 198.02 259.099 198.604H262.495C262.479 198.012 262.331 197.56 262.051 197.248C261.771 196.928 261.379 196.768 260.875 196.768ZM272.085 196.336C272.173 196.144 272.313 196.048 272.505 196.048C272.625 196.048 272.733 196.088 272.829 196.168C272.925 196.248 272.973 196.348 272.973 196.468C272.973 196.54 272.957 196.604 272.925 196.66L269.553 203.932C269.513 204.02 269.453 204.088 269.373 204.136C269.301 204.184 269.225 204.208 269.145 204.208C269.025 204.208 268.917 204.168 268.821 204.088C268.733 204.016 268.689 203.92 268.689 203.8C268.689 203.736 268.705 203.672 268.737 203.608L269.577 201.796L267.201 196.66C267.169 196.604 267.153 196.544 267.153 196.48C267.153 196.36 267.205 196.256 267.309 196.168C267.421 196.08 267.541 196.036 267.669 196.036C267.749 196.036 267.825 196.06 267.897 196.108C267.977 196.156 268.037 196.224 268.077 196.312L270.081 200.812L272.085 196.336ZM276.39 202.084C275.838 202.084 275.35 201.96 274.926 201.712C274.51 201.464 274.186 201.112 273.954 200.656C273.73 200.192 273.618 199.656 273.618 199.048C273.618 198.44 273.73 197.908 273.954 197.452C274.186 196.988 274.51 196.632 274.926 196.384C275.35 196.136 275.838 196.012 276.39 196.012C276.942 196.012 277.43 196.136 277.854 196.384C278.278 196.632 278.602 196.988 278.826 197.452C279.058 197.908 279.174 198.44 279.174 199.048C279.174 199.656 279.058 200.192 278.826 200.656C278.602 201.112 278.278 201.464 277.854 201.712C277.43 201.96 276.942 202.084 276.39 202.084ZM276.39 201.28C276.966 201.28 277.406 201.092 277.71 200.716C278.022 200.332 278.178 199.776 278.178 199.048C278.178 198.336 278.022 197.788 277.71 197.404C277.398 197.012 276.958 196.816 276.39 196.816C275.822 196.816 275.382 197.012 275.07 197.404C274.758 197.788 274.602 198.336 274.602 199.048C274.602 199.768 274.754 200.32 275.058 200.704C275.37 201.088 275.814 201.28 276.39 201.28ZM285.063 196.036C285.215 196.036 285.331 196.08 285.411 196.168C285.499 196.256 285.543 196.372 285.543 196.516V201.592C285.543 201.728 285.499 201.84 285.411 201.928C285.331 202.016 285.215 202.06 285.063 202.06C284.919 202.06 284.803 202.02 284.715 201.94C284.635 201.852 284.595 201.74 284.595 201.604V201.004C284.411 201.356 284.151 201.624 283.815 201.808C283.487 201.992 283.115 202.084 282.699 202.084C282.003 202.084 281.479 201.892 281.127 201.508C280.775 201.116 280.599 200.54 280.599 199.78V196.516C280.599 196.372 280.643 196.256 280.731 196.168C280.819 196.08 280.939 196.036 281.091 196.036C281.243 196.036 281.359 196.08 281.439 196.168C281.527 196.256 281.571 196.372 281.571 196.516V199.756C281.571 200.276 281.675 200.66 281.883 200.908C282.091 201.148 282.419 201.268 282.867 201.268C283.379 201.268 283.791 201.104 284.103 200.776C284.415 200.44 284.571 200 284.571 199.456V196.516C284.571 196.372 284.615 196.256 284.703 196.168C284.791 196.08 284.911 196.036 285.063 196.036ZM292.411 202.084C292.043 202.084 291.691 202.04 291.355 201.952C291.027 201.864 290.735 201.74 290.479 201.58C290.335 201.484 290.231 201.396 290.167 201.316C290.111 201.228 290.083 201.124 290.083 201.004C290.083 200.9 290.111 200.816 290.167 200.752C290.231 200.68 290.311 200.644 290.407 200.644C290.503 200.644 290.643 200.704 290.827 200.824C291.067 200.968 291.303 201.084 291.535 201.172C291.775 201.252 292.071 201.292 292.423 201.292C292.855 201.292 293.191 201.216 293.431 201.064C293.671 200.912 293.791 200.692 293.791 200.404C293.791 200.228 293.747 200.088 293.659 199.984C293.571 199.872 293.419 199.776 293.203 199.696C292.987 199.608 292.671 199.52 292.255 199.432C291.551 199.28 291.047 199.076 290.743 198.82C290.439 198.564 290.287 198.216 290.287 197.776C290.287 197.432 290.383 197.128 290.575 196.864C290.767 196.6 291.031 196.392 291.367 196.24C291.711 196.088 292.099 196.012 292.531 196.012C292.843 196.012 293.143 196.056 293.431 196.144C293.727 196.224 293.987 196.34 294.211 196.492C294.483 196.684 294.619 196.884 294.619 197.092C294.619 197.196 294.587 197.284 294.523 197.356C294.459 197.428 294.383 197.464 294.295 197.464C294.199 197.464 294.055 197.396 293.863 197.26C293.639 197.116 293.427 197.004 293.227 196.924C293.027 196.844 292.779 196.804 292.483 196.804C292.107 196.804 291.803 196.888 291.571 197.056C291.347 197.224 291.235 197.448 291.235 197.728C291.235 197.904 291.275 198.048 291.355 198.16C291.443 198.264 291.583 198.36 291.775 198.448C291.975 198.528 292.259 198.608 292.627 198.688C293.171 198.808 293.591 198.94 293.887 199.084C294.191 199.228 294.407 199.404 294.535 199.612C294.663 199.82 294.727 200.084 294.727 200.404C294.727 200.908 294.515 201.316 294.091 201.628C293.667 201.932 293.107 202.084 292.411 202.084ZM300.733 200.644C300.821 200.644 300.897 200.68 300.961 200.752C301.025 200.824 301.057 200.916 301.057 201.028C301.057 201.228 300.917 201.412 300.637 201.58C300.349 201.748 300.045 201.876 299.725 201.964C299.405 202.044 299.093 202.084 298.789 202.084C297.885 202.084 297.169 201.816 296.641 201.28C296.121 200.744 295.861 200.004 295.861 199.06C295.861 198.46 295.977 197.932 296.209 197.476C296.441 197.012 296.765 196.652 297.181 196.396C297.605 196.14 298.085 196.012 298.621 196.012C299.381 196.012 299.985 196.26 300.433 196.756C300.881 197.252 301.105 197.924 301.105 198.772C301.105 198.932 301.073 199.048 301.009 199.12C300.945 199.192 300.841 199.228 300.697 199.228H296.833C296.905 200.604 297.557 201.292 298.789 201.292C299.101 201.292 299.369 201.252 299.593 201.172C299.817 201.084 300.057 200.968 300.313 200.824C300.521 200.704 300.661 200.644 300.733 200.644ZM298.633 196.768C298.121 196.768 297.709 196.928 297.397 197.248C297.093 197.568 296.913 198.02 296.857 198.604H300.253C300.237 198.012 300.089 197.56 299.809 197.248C299.529 196.928 299.137 196.768 298.633 196.768ZM307.061 200.644C307.149 200.644 307.225 200.68 307.289 200.752C307.353 200.824 307.385 200.916 307.385 201.028C307.385 201.228 307.245 201.412 306.965 201.58C306.677 201.748 306.373 201.876 306.053 201.964C305.733 202.044 305.421 202.084 305.117 202.084C304.213 202.084 303.497 201.816 302.969 201.28C302.449 200.744 302.189 200.004 302.189 199.06C302.189 198.46 302.305 197.932 302.537 197.476C302.769 197.012 303.093 196.652 303.509 196.396C303.933 196.14 304.413 196.012 304.949 196.012C305.709 196.012 306.313 196.26 306.761 196.756C307.209 197.252 307.433 197.924 307.433 198.772C307.433 198.932 307.401 199.048 307.337 199.12C307.273 199.192 307.169 199.228 307.025 199.228H303.161C303.233 200.604 303.885 201.292 305.117 201.292C305.429 201.292 305.697 201.252 305.921 201.172C306.145 201.084 306.385 200.968 306.641 200.824C306.849 200.704 306.989 200.644 307.061 200.644ZM304.961 196.768C304.449 196.768 304.037 196.928 303.725 197.248C303.421 197.568 303.241 198.02 303.185 198.604H306.581C306.565 198.012 306.417 197.56 306.137 197.248C305.857 196.928 305.465 196.768 304.961 196.768ZM311.805 196.012C313.205 196.012 313.905 196.784 313.905 198.328V201.58C313.905 201.732 313.861 201.852 313.773 201.94C313.693 202.02 313.577 202.06 313.425 202.06C313.273 202.06 313.153 202.02 313.065 201.94C312.977 201.852 312.933 201.732 312.933 201.58V198.388C312.933 197.844 312.825 197.448 312.609 197.2C312.401 196.952 312.065 196.828 311.601 196.828C311.065 196.828 310.637 196.992 310.317 197.32C309.997 197.648 309.837 198.092 309.837 198.652V201.58C309.837 201.732 309.793 201.852 309.705 201.94C309.625 202.02 309.509 202.06 309.357 202.06C309.205 202.06 309.085 202.02 308.997 201.94C308.909 201.852 308.865 201.732 308.865 201.58V196.516C308.865 196.372 308.909 196.256 308.997 196.168C309.085 196.08 309.205 196.036 309.357 196.036C309.501 196.036 309.613 196.08 309.693 196.168C309.781 196.256 309.825 196.368 309.825 196.504V197.116C310.017 196.756 310.285 196.484 310.629 196.3C310.973 196.108 311.365 196.012 311.805 196.012ZM321.479 201.292C321.759 201.316 321.899 201.444 321.899 201.676C321.899 201.812 321.847 201.916 321.743 201.988C321.647 202.052 321.499 202.076 321.299 202.06L320.975 202.036C320.335 201.988 319.863 201.796 319.559 201.46C319.255 201.124 319.103 200.616 319.103 199.936V196.924H318.299C318.163 196.924 318.055 196.892 317.975 196.828C317.903 196.756 317.867 196.664 317.867 196.552C317.867 196.432 317.903 196.336 317.975 196.264C318.055 196.192 318.163 196.156 318.299 196.156H319.103V194.8C319.103 194.648 319.147 194.532 319.235 194.452C319.323 194.364 319.443 194.32 319.595 194.32C319.739 194.32 319.855 194.364 319.943 194.452C320.031 194.532 320.075 194.648 320.075 194.8V196.156H321.407C321.535 196.156 321.635 196.192 321.707 196.264C321.787 196.336 321.827 196.432 321.827 196.552C321.827 196.664 321.787 196.756 321.707 196.828C321.635 196.892 321.535 196.924 321.407 196.924H320.075V199.984C320.075 200.424 320.163 200.744 320.339 200.944C320.523 201.136 320.795 201.244 321.155 201.268L321.479 201.292ZM325.809 196.012C326.497 196.012 327.017 196.208 327.369 196.6C327.721 196.984 327.897 197.56 327.897 198.328V201.58C327.897 201.732 327.853 201.852 327.765 201.94C327.677 202.02 327.561 202.06 327.417 202.06C327.265 202.06 327.145 202.02 327.057 201.94C326.969 201.852 326.925 201.732 326.925 201.58V198.352C326.925 197.832 326.817 197.448 326.601 197.2C326.393 196.952 326.057 196.828 325.593 196.828C325.057 196.828 324.629 196.992 324.309 197.32C323.989 197.648 323.829 198.092 323.829 198.652V201.58C323.829 201.732 323.785 201.852 323.697 201.94C323.617 202.02 323.501 202.06 323.349 202.06C323.197 202.06 323.077 202.02 322.989 201.94C322.901 201.852 322.857 201.732 322.857 201.58V193.948C322.857 193.812 322.901 193.7 322.989 193.612C323.085 193.524 323.205 193.48 323.349 193.48C323.501 193.48 323.617 193.524 323.697 193.612C323.785 193.692 323.829 193.804 323.829 193.948V197.092C324.021 196.74 324.289 196.472 324.633 196.288C324.977 196.104 325.369 196.012 325.809 196.012ZM334.201 200.644C334.289 200.644 334.365 200.68 334.429 200.752C334.493 200.824 334.525 200.916 334.525 201.028C334.525 201.228 334.385 201.412 334.105 201.58C333.817 201.748 333.513 201.876 333.193 201.964C332.873 202.044 332.561 202.084 332.257 202.084C331.353 202.084 330.637 201.816 330.109 201.28C329.589 200.744 329.329 200.004 329.329 199.06C329.329 198.46 329.445 197.932 329.677 197.476C329.909 197.012 330.233 196.652 330.649 196.396C331.073 196.14 331.553 196.012 332.089 196.012C332.849 196.012 333.453 196.26 333.901 196.756C334.349 197.252 334.573 197.924 334.573 198.772C334.573 198.932 334.541 199.048 334.477 199.12C334.413 199.192 334.309 199.228 334.165 199.228H330.301C330.373 200.604 331.025 201.292 332.257 201.292C332.569 201.292 332.837 201.252 333.061 201.172C333.285 201.084 333.525 200.968 333.781 200.824C333.989 200.704 334.129 200.644 334.201 200.644ZM332.101 196.768C331.589 196.768 331.177 196.928 330.865 197.248C330.561 197.568 330.381 198.02 330.325 198.604H333.721C333.705 198.012 333.557 197.56 333.277 197.248C332.997 196.928 332.605 196.768 332.101 196.768ZM342.039 196.012C342.551 196.012 343.003 196.14 343.395 196.396C343.787 196.652 344.091 197.012 344.307 197.476C344.523 197.932 344.631 198.464 344.631 199.072C344.631 199.68 344.523 200.212 344.307 200.668C344.091 201.116 343.787 201.464 343.395 201.712C343.011 201.96 342.559 202.084 342.039 202.084C341.583 202.084 341.183 201.984 340.839 201.784C340.503 201.584 340.247 201.3 340.071 200.932V203.752C340.071 203.896 340.027 204.008 339.939 204.088C339.859 204.176 339.743 204.22 339.591 204.22C339.439 204.22 339.319 204.176 339.231 204.088C339.143 204 339.099 203.888 339.099 203.752V196.516C339.099 196.372 339.143 196.256 339.231 196.168C339.319 196.08 339.439 196.036 339.591 196.036C339.743 196.036 339.859 196.08 339.939 196.168C340.027 196.256 340.071 196.372 340.071 196.516V197.164C340.247 196.796 340.503 196.512 340.839 196.312C341.183 196.112 341.583 196.012 342.039 196.012ZM341.847 201.28C342.415 201.28 342.855 201.088 343.167 200.704C343.479 200.32 343.635 199.776 343.635 199.072C343.635 198.368 343.479 197.82 343.167 197.428C342.855 197.028 342.415 196.828 341.847 196.828C341.279 196.828 340.839 197.02 340.527 197.404C340.223 197.788 340.071 198.336 340.071 199.048C340.071 199.76 340.223 200.312 340.527 200.704C340.839 201.088 341.279 201.28 341.847 201.28ZM348.976 196.036C349.312 196.012 349.48 196.148 349.48 196.444C349.48 196.572 349.444 196.676 349.372 196.756C349.3 196.828 349.176 196.872 349 196.888L348.64 196.924C348.104 196.972 347.704 197.164 347.44 197.5C347.184 197.828 347.056 198.216 347.056 198.664V201.58C347.056 201.74 347.012 201.86 346.924 201.94C346.836 202.02 346.72 202.06 346.576 202.06C346.432 202.06 346.312 202.02 346.216 201.94C346.128 201.852 346.084 201.732 346.084 201.58V196.516C346.084 196.364 346.132 196.248 346.228 196.168C346.324 196.08 346.44 196.036 346.576 196.036C346.704 196.036 346.812 196.08 346.9 196.168C346.988 196.248 347.032 196.36 347.032 196.504V197.176C347.2 196.824 347.436 196.556 347.74 196.372C348.052 196.188 348.408 196.08 348.808 196.048L348.976 196.036ZM352.621 202.084C352.069 202.084 351.581 201.96 351.157 201.712C350.741 201.464 350.417 201.112 350.185 200.656C349.961 200.192 349.849 199.656 349.849 199.048C349.849 198.44 349.961 197.908 350.185 197.452C350.417 196.988 350.741 196.632 351.157 196.384C351.581 196.136 352.069 196.012 352.621 196.012C353.173 196.012 353.661 196.136 354.085 196.384C354.509 196.632 354.833 196.988 355.057 197.452C355.289 197.908 355.405 198.44 355.405 199.048C355.405 199.656 355.289 200.192 355.057 200.656C354.833 201.112 354.509 201.464 354.085 201.712C353.661 201.96 353.173 202.084 352.621 202.084ZM352.621 201.28C353.197 201.28 353.637 201.092 353.941 200.716C354.253 200.332 354.409 199.776 354.409 199.048C354.409 198.336 354.253 197.788 353.941 197.404C353.629 197.012 353.189 196.816 352.621 196.816C352.053 196.816 351.613 197.012 351.301 197.404C350.989 197.788 350.833 198.336 350.833 199.048C350.833 199.768 350.985 200.32 351.289 200.704C351.601 201.088 352.045 201.28 352.621 201.28ZM355.641 204.184C355.441 204.2 355.293 204.172 355.197 204.1C355.093 204.036 355.041 203.936 355.041 203.8C355.041 203.584 355.181 203.46 355.461 203.428L355.797 203.404C356.157 203.38 356.421 203.272 356.589 203.08C356.765 202.888 356.853 202.572 356.853 202.132V196.516C356.853 196.364 356.897 196.248 356.985 196.168C357.081 196.08 357.201 196.036 357.345 196.036C357.489 196.036 357.605 196.08 357.693 196.168C357.781 196.248 357.825 196.364 357.825 196.516V202.072C357.825 202.744 357.673 203.248 357.369 203.584C357.073 203.92 356.609 204.112 355.977 204.16L355.641 204.184ZM357.345 194.776C357.153 194.776 356.997 194.72 356.877 194.608C356.757 194.496 356.697 194.348 356.697 194.164C356.697 193.988 356.757 193.844 356.877 193.732C356.997 193.62 357.153 193.564 357.345 193.564C357.537 193.564 357.693 193.62 357.813 193.732C357.933 193.844 357.993 193.988 357.993 194.164C357.993 194.348 357.933 194.496 357.813 194.608C357.693 194.72 357.537 194.776 357.345 194.776ZM364.166 200.644C364.254 200.644 364.33 200.68 364.394 200.752C364.458 200.824 364.49 200.916 364.49 201.028C364.49 201.228 364.35 201.412 364.07 201.58C363.782 201.748 363.478 201.876 363.158 201.964C362.838 202.044 362.526 202.084 362.222 202.084C361.318 202.084 360.602 201.816 360.074 201.28C359.554 200.744 359.294 200.004 359.294 199.06C359.294 198.46 359.41 197.932 359.642 197.476C359.874 197.012 360.198 196.652 360.614 196.396C361.038 196.14 361.518 196.012 362.054 196.012C362.814 196.012 363.418 196.26 363.866 196.756C364.314 197.252 364.538 197.924 364.538 198.772C364.538 198.932 364.506 199.048 364.442 199.12C364.378 199.192 364.274 199.228 364.13 199.228H360.266C360.338 200.604 360.99 201.292 362.222 201.292C362.534 201.292 362.802 201.252 363.026 201.172C363.25 201.084 363.49 200.968 363.746 200.824C363.954 200.704 364.094 200.644 364.166 200.644ZM362.066 196.768C361.554 196.768 361.142 196.928 360.83 197.248C360.526 197.568 360.346 198.02 360.29 198.604H363.686C363.67 198.012 363.522 197.56 363.242 197.248C362.962 196.928 362.57 196.768 362.066 196.768ZM368.382 202.084C367.838 202.084 367.354 201.96 366.93 201.712C366.514 201.464 366.19 201.112 365.958 200.656C365.734 200.2 365.622 199.672 365.622 199.072C365.622 198.472 365.738 197.94 365.97 197.476C366.21 197.012 366.542 196.652 366.966 196.396C367.39 196.14 367.878 196.012 368.43 196.012C368.734 196.012 369.034 196.056 369.33 196.144C369.634 196.224 369.898 196.344 370.122 196.504C370.266 196.6 370.366 196.696 370.422 196.792C370.486 196.88 370.518 196.98 370.518 197.092C370.518 197.204 370.486 197.296 370.422 197.368C370.366 197.44 370.29 197.476 370.194 197.476C370.138 197.476 370.078 197.46 370.014 197.428C369.95 197.396 369.894 197.364 369.846 197.332C369.806 197.3 369.778 197.28 369.762 197.272C369.554 197.136 369.354 197.028 369.162 196.948C368.978 196.868 368.75 196.828 368.478 196.828C367.894 196.828 367.438 197.028 367.11 197.428C366.79 197.82 366.63 198.368 366.63 199.072C366.63 199.776 366.79 200.32 367.11 200.704C367.438 201.088 367.894 201.28 368.478 201.28C368.75 201.28 368.982 201.24 369.174 201.16C369.374 201.08 369.574 200.972 369.774 200.836C369.862 200.78 369.946 200.732 370.026 200.692C370.106 200.652 370.174 200.632 370.23 200.632C370.318 200.632 370.39 200.668 370.446 200.74C370.51 200.812 370.542 200.904 370.542 201.016C370.542 201.12 370.514 201.216 370.458 201.304C370.402 201.384 370.298 201.476 370.146 201.58C369.922 201.732 369.65 201.856 369.33 201.952C369.018 202.04 368.702 202.084 368.382 202.084ZM374.424 201.292C374.704 201.316 374.844 201.444 374.844 201.676C374.844 201.812 374.792 201.916 374.688 201.988C374.592 202.052 374.444 202.076 374.244 202.06L373.92 202.036C373.28 201.988 372.808 201.796 372.504 201.46C372.2 201.124 372.048 200.616 372.048 199.936V196.924H371.244C371.108 196.924 371 196.892 370.92 196.828C370.848 196.756 370.812 196.664 370.812 196.552C370.812 196.432 370.848 196.336 370.92 196.264C371 196.192 371.108 196.156 371.244 196.156H372.048V194.8C372.048 194.648 372.092 194.532 372.18 194.452C372.268 194.364 372.388 194.32 372.54 194.32C372.684 194.32 372.8 194.364 372.888 194.452C372.976 194.532 373.02 194.648 373.02 194.8V196.156H374.352C374.48 196.156 374.58 196.192 374.652 196.264C374.732 196.336 374.772 196.432 374.772 196.552C374.772 196.664 374.732 196.756 374.652 196.828C374.58 196.892 374.48 196.924 374.352 196.924H373.02V199.984C373.02 200.424 373.108 200.744 373.284 200.944C373.468 201.136 373.74 201.244 374.1 201.268L374.424 201.292ZM381.788 196.036C382.124 196.012 382.292 196.148 382.292 196.444C382.292 196.572 382.256 196.676 382.184 196.756C382.112 196.828 381.988 196.872 381.812 196.888L381.452 196.924C380.916 196.972 380.516 197.164 380.252 197.5C379.996 197.828 379.868 198.216 379.868 198.664V201.58C379.868 201.74 379.824 201.86 379.736 201.94C379.648 202.02 379.532 202.06 379.388 202.06C379.244 202.06 379.124 202.02 379.028 201.94C378.94 201.852 378.896 201.732 378.896 201.58V196.516C378.896 196.364 378.944 196.248 379.04 196.168C379.136 196.08 379.252 196.036 379.388 196.036C379.516 196.036 379.624 196.08 379.712 196.168C379.8 196.248 379.844 196.36 379.844 196.504V197.176C380.012 196.824 380.248 196.556 380.552 196.372C380.864 196.188 381.22 196.08 381.62 196.048L381.788 196.036ZM387.533 200.644C387.621 200.644 387.697 200.68 387.761 200.752C387.825 200.824 387.857 200.916 387.857 201.028C387.857 201.228 387.717 201.412 387.437 201.58C387.149 201.748 386.845 201.876 386.525 201.964C386.205 202.044 385.893 202.084 385.589 202.084C384.685 202.084 383.969 201.816 383.441 201.28C382.921 200.744 382.661 200.004 382.661 199.06C382.661 198.46 382.777 197.932 383.009 197.476C383.241 197.012 383.565 196.652 383.981 196.396C384.405 196.14 384.885 196.012 385.421 196.012C386.181 196.012 386.785 196.26 387.233 196.756C387.681 197.252 387.905 197.924 387.905 198.772C387.905 198.932 387.873 199.048 387.809 199.12C387.745 199.192 387.641 199.228 387.497 199.228H383.633C383.705 200.604 384.357 201.292 385.589 201.292C385.901 201.292 386.169 201.252 386.393 201.172C386.617 201.084 386.857 200.968 387.113 200.824C387.321 200.704 387.461 200.644 387.533 200.644ZM385.433 196.768C384.921 196.768 384.509 196.928 384.197 197.248C383.893 197.568 383.713 198.02 383.657 198.604H387.053C387.037 198.012 386.889 197.56 386.609 197.248C386.329 196.928 385.937 196.768 385.433 196.768ZM394.03 196.036C394.182 196.036 394.302 196.08 394.39 196.168C394.478 196.256 394.522 196.372 394.522 196.516V203.752C394.522 203.888 394.478 204 394.39 204.088C394.302 204.176 394.182 204.22 394.03 204.22C393.878 204.22 393.758 204.176 393.67 204.088C393.59 204.008 393.55 203.896 393.55 203.752V200.932C393.374 201.3 393.114 201.584 392.77 201.784C392.434 201.984 392.038 202.084 391.582 202.084C391.062 202.084 390.606 201.96 390.214 201.712C389.83 201.464 389.53 201.116 389.314 200.668C389.098 200.212 388.99 199.68 388.99 199.072C388.99 198.464 389.098 197.932 389.314 197.476C389.53 197.012 389.834 196.652 390.226 196.396C390.618 196.14 391.07 196.012 391.582 196.012C392.038 196.012 392.434 196.112 392.77 196.312C393.114 196.512 393.374 196.796 393.55 197.164V196.516C393.55 196.372 393.59 196.256 393.67 196.168C393.758 196.08 393.878 196.036 394.03 196.036ZM391.774 201.28C392.342 201.28 392.778 201.088 393.082 200.704C393.394 200.312 393.55 199.76 393.55 199.048C393.55 198.336 393.394 197.788 393.082 197.404C392.778 197.02 392.342 196.828 391.774 196.828C391.206 196.828 390.762 197.028 390.442 197.428C390.13 197.82 389.974 198.368 389.974 199.072C389.974 199.776 390.13 200.32 390.442 200.704C390.762 201.088 391.206 201.28 391.774 201.28ZM400.762 196.036C400.914 196.036 401.03 196.08 401.11 196.168C401.198 196.256 401.242 196.372 401.242 196.516V201.592C401.242 201.728 401.198 201.84 401.11 201.928C401.03 202.016 400.914 202.06 400.762 202.06C400.618 202.06 400.502 202.02 400.414 201.94C400.334 201.852 400.294 201.74 400.294 201.604V201.004C400.11 201.356 399.85 201.624 399.514 201.808C399.186 201.992 398.814 202.084 398.398 202.084C397.702 202.084 397.178 201.892 396.826 201.508C396.474 201.116 396.298 200.54 396.298 199.78V196.516C396.298 196.372 396.342 196.256 396.43 196.168C396.518 196.08 396.638 196.036 396.79 196.036C396.942 196.036 397.058 196.08 397.138 196.168C397.226 196.256 397.27 196.372 397.27 196.516V199.756C397.27 200.276 397.374 200.66 397.582 200.908C397.79 201.148 398.118 201.268 398.566 201.268C399.078 201.268 399.49 201.104 399.802 200.776C400.114 200.44 400.27 200 400.27 199.456V196.516C400.27 196.372 400.314 196.256 400.402 196.168C400.49 196.08 400.61 196.036 400.762 196.036ZM403.54 202.06C403.396 202.06 403.276 202.02 403.18 201.94C403.092 201.852 403.048 201.732 403.048 201.58V196.516C403.048 196.364 403.092 196.248 403.18 196.168C403.276 196.08 403.396 196.036 403.54 196.036C403.684 196.036 403.8 196.08 403.888 196.168C403.976 196.248 404.02 196.364 404.02 196.516V201.58C404.02 201.74 403.976 201.86 403.888 201.94C403.8 202.02 403.684 202.06 403.54 202.06ZM403.54 194.776C403.348 194.776 403.192 194.72 403.072 194.608C402.952 194.496 402.892 194.348 402.892 194.164C402.892 193.988 402.952 193.844 403.072 193.732C403.192 193.62 403.348 193.564 403.54 193.564C403.732 193.564 403.888 193.62 404.008 193.732C404.128 193.844 404.188 193.988 404.188 194.164C404.188 194.348 404.128 194.496 404.008 194.608C403.888 194.72 403.732 194.776 403.54 194.776ZM406.318 202.06C406.126 202.06 405.966 202 405.838 201.88C405.71 201.752 405.646 201.588 405.646 201.388C405.646 201.188 405.71 201.024 405.838 200.896C405.966 200.768 406.126 200.704 406.318 200.704C406.502 200.704 406.654 200.768 406.774 200.896C406.902 201.024 406.966 201.188 406.966 201.388C406.966 201.588 406.902 201.752 406.774 201.88C406.654 202 406.502 202.06 406.318 202.06ZM409.066 202.06C408.874 202.06 408.714 202 408.586 201.88C408.458 201.752 408.394 201.588 408.394 201.388C408.394 201.188 408.458 201.024 408.586 200.896C408.714 200.768 408.874 200.704 409.066 200.704C409.25 200.704 409.402 200.768 409.522 200.896C409.65 201.024 409.714 201.188 409.714 201.388C409.714 201.588 409.65 201.752 409.522 201.88C409.402 202 409.25 202.06 409.066 202.06ZM411.814 202.06C411.622 202.06 411.462 202 411.334 201.88C411.206 201.752 411.142 201.588 411.142 201.388C411.142 201.188 411.206 201.024 411.334 200.896C411.462 200.768 411.622 200.704 411.814 200.704C411.998 200.704 412.15 200.768 412.27 200.896C412.398 201.024 412.462 201.188 412.462 201.388C412.462 201.588 412.398 201.752 412.27 201.88C412.15 202 411.998 202.06 411.814 202.06Z" fill="#234CAD"/>
<path d="M241.12 180.144C240.299 180.144 239.52 180.037 238.784 179.824C238.059 179.6 237.467 179.301 237.008 178.928C236.763 178.747 236.64 178.491 236.64 178.16C236.64 177.936 236.704 177.744 236.832 177.584C236.971 177.413 237.131 177.328 237.312 177.328C237.504 177.328 237.723 177.403 237.968 177.552C238.427 177.883 238.907 178.123 239.408 178.272C239.909 178.421 240.464 178.496 241.072 178.496C241.851 178.496 242.448 178.363 242.864 178.096C243.28 177.819 243.488 177.419 243.488 176.896C243.488 176.491 243.291 176.181 242.896 175.968C242.512 175.744 241.867 175.531 240.96 175.328C240.021 175.125 239.259 174.891 238.672 174.624C238.085 174.357 237.643 174.016 237.344 173.6C237.045 173.184 236.896 172.656 236.896 172.016C236.896 171.355 237.083 170.763 237.456 170.24C237.829 169.717 238.347 169.312 239.008 169.024C239.68 168.725 240.432 168.576 241.264 168.576C242.789 168.576 244.032 168.981 244.992 169.792C245.131 169.909 245.227 170.027 245.28 170.144C245.344 170.251 245.376 170.389 245.376 170.56C245.376 170.784 245.307 170.981 245.168 171.152C245.04 171.312 244.885 171.392 244.704 171.392C244.597 171.392 244.496 171.376 244.4 171.344C244.315 171.312 244.197 171.253 244.048 171.168C243.611 170.848 243.184 170.613 242.768 170.464C242.363 170.304 241.861 170.224 241.264 170.224C240.539 170.224 239.963 170.373 239.536 170.672C239.12 170.96 238.912 171.365 238.912 171.888C238.912 172.325 239.099 172.661 239.472 172.896C239.845 173.131 240.48 173.349 241.376 173.552C242.325 173.765 243.093 174.005 243.68 174.272C244.277 174.528 244.731 174.859 245.04 175.264C245.36 175.669 245.52 176.176 245.52 176.784C245.52 177.445 245.333 178.032 244.96 178.544C244.597 179.045 244.08 179.44 243.408 179.728C242.747 180.005 241.984 180.144 241.12 180.144ZM251.739 171.984C252.411 171.984 253.008 172.155 253.531 172.496C254.064 172.837 254.475 173.323 254.763 173.952C255.062 174.571 255.211 175.285 255.211 176.096C255.211 176.907 255.062 177.616 254.763 178.224C254.475 178.832 254.07 179.301 253.547 179.632C253.024 179.963 252.422 180.128 251.739 180.128C251.184 180.128 250.688 180.011 250.251 179.776C249.814 179.541 249.478 179.216 249.243 178.8V182.064C249.243 182.341 249.152 182.56 248.971 182.72C248.79 182.88 248.55 182.96 248.251 182.96C247.952 182.96 247.707 182.875 247.515 182.704C247.334 182.533 247.243 182.309 247.243 182.032V172.96C247.243 172.672 247.328 172.443 247.499 172.272C247.68 172.101 247.92 172.016 248.219 172.016C248.518 172.016 248.758 172.101 248.939 172.272C249.12 172.443 249.211 172.672 249.211 172.96V173.36C249.446 172.923 249.782 172.587 250.219 172.352C250.667 172.107 251.174 171.984 251.739 171.984ZM251.211 178.576C251.84 178.576 252.331 178.363 252.683 177.936C253.035 177.499 253.211 176.885 253.211 176.096C253.211 175.285 253.035 174.656 252.683 174.208C252.331 173.76 251.84 173.536 251.211 173.536C250.571 173.536 250.075 173.755 249.723 174.192C249.382 174.629 249.211 175.253 249.211 176.064C249.211 176.864 249.382 177.483 249.723 177.92C250.075 178.357 250.571 178.576 251.211 178.576ZM263.045 177.856C263.226 177.856 263.37 177.925 263.477 178.064C263.594 178.203 263.653 178.389 263.653 178.624C263.653 178.955 263.455 179.232 263.061 179.456C262.698 179.659 262.287 179.824 261.829 179.952C261.37 180.069 260.933 180.128 260.516 180.128C259.258 180.128 258.261 179.765 257.525 179.04C256.789 178.315 256.421 177.323 256.421 176.064C256.421 175.264 256.581 174.555 256.901 173.936C257.221 173.317 257.669 172.837 258.245 172.496C258.831 172.155 259.493 171.984 260.229 171.984C260.933 171.984 261.546 172.139 262.069 172.448C262.591 172.757 262.997 173.195 263.285 173.76C263.573 174.325 263.717 174.992 263.717 175.76C263.717 176.219 263.514 176.448 263.109 176.448H258.389C258.453 177.184 258.661 177.728 259.013 178.08C259.365 178.421 259.877 178.592 260.549 178.592C260.89 178.592 261.189 178.549 261.445 178.464C261.711 178.379 262.01 178.261 262.341 178.112C262.661 177.941 262.895 177.856 263.045 177.856ZM260.277 173.392C259.733 173.392 259.295 173.563 258.965 173.904C258.645 174.245 258.453 174.736 258.389 175.376H262.005C261.983 174.725 261.823 174.235 261.525 173.904C261.226 173.563 260.81 173.392 260.277 173.392ZM269.897 171.984C270.835 171.984 271.534 172.251 271.993 172.784C272.451 173.317 272.681 174.123 272.681 175.2V179.136C272.681 179.435 272.59 179.669 272.409 179.84C272.238 180.011 271.998 180.096 271.689 180.096C271.379 180.096 271.134 180.011 270.953 179.84C270.771 179.669 270.681 179.435 270.681 179.136V175.312C270.681 174.704 270.563 174.261 270.329 173.984C270.105 173.707 269.747 173.568 269.257 173.568C268.681 173.568 268.217 173.749 267.865 174.112C267.523 174.475 267.353 174.96 267.353 175.568V179.136C267.353 179.435 267.262 179.669 267.081 179.84C266.899 180.011 266.654 180.096 266.345 180.096C266.035 180.096 265.79 180.011 265.609 179.84C265.438 179.669 265.353 179.435 265.353 179.136V172.944C265.353 172.667 265.443 172.443 265.625 172.272C265.806 172.101 266.051 172.016 266.361 172.016C266.638 172.016 266.862 172.101 267.033 172.272C267.214 172.432 267.305 172.645 267.305 172.912V173.344C267.571 172.907 267.929 172.571 268.377 172.336C268.825 172.101 269.331 171.984 269.897 171.984ZM278.184 180.128C277.405 180.128 276.717 179.963 276.12 179.632C275.533 179.301 275.08 178.832 274.76 178.224C274.44 177.616 274.28 176.907 274.28 176.096C274.28 175.285 274.445 174.571 274.776 173.952C275.117 173.323 275.592 172.837 276.2 172.496C276.808 172.155 277.507 171.984 278.296 171.984C278.712 171.984 279.128 172.043 279.544 172.16C279.971 172.277 280.344 172.437 280.664 172.64C281.005 172.864 281.176 173.147 281.176 173.488C281.176 173.723 281.117 173.915 281 174.064C280.893 174.203 280.749 174.272 280.568 174.272C280.451 174.272 280.328 174.245 280.2 174.192C280.072 174.139 279.944 174.075 279.816 174C279.581 173.861 279.357 173.755 279.144 173.68C278.931 173.595 278.685 173.552 278.408 173.552C277.747 173.552 277.235 173.771 276.872 174.208C276.52 174.635 276.344 175.253 276.344 176.064C276.344 176.864 276.52 177.483 276.872 177.92C277.235 178.347 277.747 178.56 278.408 178.56C278.675 178.56 278.909 178.523 279.112 178.448C279.325 178.363 279.56 178.251 279.816 178.112C279.976 178.016 280.115 177.947 280.232 177.904C280.349 177.851 280.467 177.824 280.584 177.824C280.755 177.824 280.899 177.899 281.016 178.048C281.133 178.197 281.192 178.384 281.192 178.608C281.192 178.789 281.149 178.949 281.064 179.088C280.989 179.216 280.861 179.333 280.68 179.44C280.349 179.653 279.965 179.824 279.528 179.952C279.091 180.069 278.643 180.128 278.184 180.128ZM288.716 177.856C288.898 177.856 289.042 177.925 289.148 178.064C289.266 178.203 289.324 178.389 289.324 178.624C289.324 178.955 289.127 179.232 288.732 179.456C288.37 179.659 287.959 179.824 287.5 179.952C287.042 180.069 286.604 180.128 286.188 180.128C284.93 180.128 283.932 179.765 283.196 179.04C282.46 178.315 282.092 177.323 282.092 176.064C282.092 175.264 282.252 174.555 282.572 173.936C282.892 173.317 283.34 172.837 283.916 172.496C284.503 172.155 285.164 171.984 285.9 171.984C286.604 171.984 287.218 172.139 287.74 172.448C288.263 172.757 288.668 173.195 288.956 173.76C289.244 174.325 289.388 174.992 289.388 175.76C289.388 176.219 289.186 176.448 288.78 176.448H284.06C284.124 177.184 284.332 177.728 284.684 178.08C285.036 178.421 285.548 178.592 286.22 178.592C286.562 178.592 286.86 178.549 287.116 178.464C287.383 178.379 287.682 178.261 288.012 178.112C288.332 177.941 288.567 177.856 288.716 177.856ZM285.948 173.392C285.404 173.392 284.967 173.563 284.636 173.904C284.316 174.245 284.124 174.736 284.06 175.376H287.676C287.655 174.725 287.495 174.235 287.196 173.904C286.898 173.563 286.482 173.392 285.948 173.392ZM295.392 172.016C295.67 171.995 295.888 172.053 296.048 172.192C296.208 172.331 296.288 172.539 296.288 172.816C296.288 173.104 296.219 173.317 296.08 173.456C295.942 173.595 295.691 173.685 295.328 173.728L294.848 173.776C294.219 173.84 293.755 174.053 293.456 174.416C293.168 174.779 293.024 175.232 293.024 175.776V179.136C293.024 179.445 292.928 179.685 292.736 179.856C292.544 180.016 292.304 180.096 292.016 180.096C291.728 180.096 291.488 180.016 291.296 179.856C291.115 179.685 291.024 179.445 291.024 179.136V172.944C291.024 172.645 291.115 172.416 291.296 172.256C291.488 172.096 291.723 172.016 292 172.016C292.278 172.016 292.502 172.096 292.672 172.256C292.843 172.405 292.928 172.624 292.928 172.912V173.552C293.131 173.083 293.43 172.72 293.824 172.464C294.23 172.208 294.678 172.064 295.168 172.032L295.392 172.016ZM308.613 174.176C309.264 174.357 309.765 174.688 310.117 175.168C310.48 175.648 310.661 176.235 310.661 176.928C310.661 177.888 310.314 178.64 309.621 179.184C308.938 179.728 307.994 180 306.789 180H302.661C302.352 180 302.106 179.915 301.925 179.744C301.754 179.573 301.669 179.333 301.669 179.024V169.696C301.669 169.387 301.754 169.147 301.925 168.976C302.106 168.805 302.352 168.72 302.661 168.72H306.629C307.802 168.72 308.72 168.981 309.381 169.504C310.053 170.016 310.389 170.736 310.389 171.664C310.389 172.261 310.229 172.779 309.909 173.216C309.6 173.653 309.168 173.973 308.613 174.176ZM303.685 173.472H306.293C307.712 173.472 308.421 172.944 308.421 171.888C308.421 171.355 308.245 170.96 307.893 170.704C307.541 170.448 307.008 170.32 306.293 170.32H303.685V173.472ZM306.565 178.4C307.312 178.4 307.856 178.267 308.197 178C308.538 177.733 308.709 177.317 308.709 176.752C308.709 176.187 308.533 175.765 308.181 175.488C307.84 175.211 307.301 175.072 306.565 175.072H303.685V178.4H306.565ZM316.783 172.016C317.06 171.995 317.279 172.053 317.439 172.192C317.599 172.331 317.679 172.539 317.679 172.816C317.679 173.104 317.61 173.317 317.471 173.456C317.332 173.595 317.082 173.685 316.719 173.728L316.239 173.776C315.61 173.84 315.146 174.053 314.847 174.416C314.559 174.779 314.415 175.232 314.415 175.776V179.136C314.415 179.445 314.319 179.685 314.127 179.856C313.935 180.016 313.695 180.096 313.407 180.096C313.119 180.096 312.879 180.016 312.687 179.856C312.506 179.685 312.415 179.445 312.415 179.136V172.944C312.415 172.645 312.506 172.416 312.687 172.256C312.879 172.096 313.114 172.016 313.391 172.016C313.668 172.016 313.892 172.096 314.063 172.256C314.234 172.405 314.319 172.624 314.319 172.912V173.552C314.522 173.083 314.82 172.72 315.215 172.464C315.62 172.208 316.068 172.064 316.559 172.032L316.783 172.016ZM321.952 180.128C321.152 180.128 320.448 179.963 319.84 179.632C319.242 179.301 318.778 178.827 318.448 178.208C318.117 177.589 317.952 176.869 317.952 176.048C317.952 175.227 318.117 174.512 318.448 173.904C318.778 173.285 319.242 172.811 319.84 172.48C320.448 172.149 321.152 171.984 321.952 171.984C322.752 171.984 323.45 172.149 324.048 172.48C324.656 172.811 325.12 173.285 325.44 173.904C325.77 174.512 325.936 175.227 325.936 176.048C325.936 176.869 325.77 177.589 325.44 178.208C325.12 178.827 324.656 179.301 324.048 179.632C323.45 179.963 322.752 180.128 321.952 180.128ZM321.936 178.576C322.586 178.576 323.082 178.363 323.424 177.936C323.765 177.509 323.936 176.88 323.936 176.048C323.936 175.227 323.765 174.603 323.424 174.176C323.082 173.739 322.592 173.52 321.952 173.52C321.312 173.52 320.816 173.739 320.464 174.176C320.122 174.603 319.952 175.227 319.952 176.048C319.952 176.88 320.122 177.509 320.464 177.936C320.805 178.363 321.296 178.576 321.936 178.576ZM331.155 180.128C330.355 180.128 329.651 179.963 329.043 179.632C328.446 179.301 327.982 178.827 327.651 178.208C327.32 177.589 327.155 176.869 327.155 176.048C327.155 175.227 327.32 174.512 327.651 173.904C327.982 173.285 328.446 172.811 329.043 172.48C329.651 172.149 330.355 171.984 331.155 171.984C331.955 171.984 332.654 172.149 333.251 172.48C333.859 172.811 334.323 173.285 334.643 173.904C334.974 174.512 335.139 175.227 335.139 176.048C335.139 176.869 334.974 177.589 334.643 178.208C334.323 178.827 333.859 179.301 333.251 179.632C332.654 179.963 331.955 180.128 331.155 180.128ZM331.139 178.576C331.79 178.576 332.286 178.363 332.627 177.936C332.968 177.509 333.139 176.88 333.139 176.048C333.139 175.227 332.968 174.603 332.627 174.176C332.286 173.739 331.795 173.52 331.155 173.52C330.515 173.52 330.019 173.739 329.667 174.176C329.326 174.603 329.155 175.227 329.155 176.048C329.155 176.88 329.326 177.509 329.667 177.936C330.008 178.363 330.499 178.576 331.139 178.576ZM343.75 178.448C343.963 178.651 344.07 178.88 344.07 179.136C344.07 179.381 343.979 179.6 343.798 179.792C343.627 179.984 343.425 180.08 343.19 180.08C342.955 180.08 342.737 179.984 342.534 179.792L338.79 176.4V179.136C338.79 179.445 338.694 179.68 338.502 179.84C338.31 180 338.07 180.08 337.782 180.08C337.494 180.08 337.254 180 337.062 179.84C336.881 179.68 336.79 179.445 336.79 179.136V169.584C336.79 169.275 336.881 169.04 337.062 168.88C337.254 168.72 337.494 168.64 337.782 168.64C338.07 168.64 338.31 168.72 338.502 168.88C338.694 169.04 338.79 169.275 338.79 169.584V175.6L342.214 172.32C342.406 172.128 342.625 172.032 342.87 172.032C343.115 172.032 343.329 172.123 343.51 172.304C343.691 172.485 343.782 172.699 343.782 172.944C343.782 173.189 343.681 173.413 343.478 173.616L340.966 175.952L343.75 178.448ZM348.091 180.128C346.928 180.128 345.989 179.899 345.275 179.44C344.933 179.237 344.763 178.949 344.763 178.576C344.763 178.363 344.821 178.192 344.939 178.064C345.056 177.925 345.2 177.856 345.371 177.856C345.552 177.856 345.803 177.941 346.123 178.112C346.464 178.272 346.773 178.395 347.051 178.48C347.339 178.565 347.701 178.608 348.139 178.608C348.587 178.608 348.933 178.533 349.179 178.384C349.435 178.235 349.563 178.027 349.563 177.76C349.563 177.579 349.509 177.435 349.403 177.328C349.307 177.221 349.125 177.125 348.859 177.04C348.603 176.944 348.208 176.837 347.675 176.72C346.725 176.528 346.043 176.256 345.627 175.904C345.221 175.552 345.019 175.067 345.019 174.448C345.019 173.979 345.157 173.557 345.435 173.184C345.712 172.8 346.091 172.507 346.571 172.304C347.061 172.091 347.616 171.984 348.235 171.984C348.683 171.984 349.115 172.043 349.531 172.16C349.947 172.267 350.32 172.427 350.651 172.64C350.992 172.853 351.163 173.136 351.163 173.488C351.163 173.701 351.104 173.883 350.987 174.032C350.869 174.171 350.725 174.24 350.555 174.24C350.437 174.24 350.32 174.219 350.203 174.176C350.096 174.123 349.957 174.048 349.787 173.952C349.477 173.792 349.211 173.675 348.987 173.6C348.763 173.515 348.485 173.472 348.155 173.472C347.76 173.472 347.445 173.552 347.211 173.712C346.987 173.872 346.875 174.091 346.875 174.368C346.875 174.635 346.992 174.837 347.227 174.976C347.461 175.115 347.915 175.253 348.587 175.392C349.301 175.541 349.861 175.712 350.267 175.904C350.672 176.096 350.96 176.336 351.131 176.624C351.312 176.912 351.403 177.28 351.403 177.728C351.403 178.453 351.099 179.035 350.491 179.472C349.893 179.909 349.093 180.128 348.091 180.128Z" fill="#234CAD"/>
</g>
</g>
<g clip-path="url(#clip2_12263_418)">
<circle cx="186" cy="186" r="30" fill="#F2F6FF"/>
<path d="M179.76 192.162C178.836 192.162 177.96 192.042 177.132 191.802C176.316 191.55 175.65 191.214 175.134 190.794C174.858 190.59 174.72 190.302 174.72 189.93C174.72 189.678 174.792 189.462 174.936 189.282C175.092 189.09 175.272 188.994 175.476 188.994C175.692 188.994 175.938 189.078 176.214 189.246C176.73 189.618 177.27 189.888 177.834 190.056C178.398 190.224 179.022 190.308 179.706 190.308C180.582 190.308 181.254 190.158 181.722 189.858C182.19 189.546 182.424 189.096 182.424 188.508C182.424 188.052 182.202 187.704 181.758 187.464C181.326 187.212 180.6 186.972 179.58 186.744C178.524 186.516 177.666 186.252 177.006 185.952C176.346 185.652 175.848 185.268 175.512 184.8C175.176 184.332 175.008 183.738 175.008 183.018C175.008 182.274 175.218 181.608 175.638 181.02C176.058 180.432 176.64 179.976 177.384 179.652C178.14 179.316 178.986 179.148 179.922 179.148C181.638 179.148 183.036 179.604 184.116 180.516C184.272 180.648 184.38 180.78 184.44 180.912C184.512 181.032 184.548 181.188 184.548 181.38C184.548 181.632 184.47 181.854 184.314 182.046C184.17 182.226 183.996 182.316 183.792 182.316C183.672 182.316 183.558 182.298 183.45 182.262C183.354 182.226 183.222 182.16 183.054 182.064C182.562 181.704 182.082 181.44 181.614 181.272C181.158 181.092 180.594 181.002 179.922 181.002C179.106 181.002 178.458 181.17 177.978 181.506C177.51 181.83 177.276 182.286 177.276 182.874C177.276 183.366 177.486 183.744 177.906 184.008C178.326 184.272 179.04 184.518 180.048 184.746C181.116 184.986 181.98 185.256 182.64 185.556C183.312 185.844 183.822 186.216 184.17 186.672C184.53 187.128 184.71 187.698 184.71 188.382C184.71 189.126 184.5 189.786 184.08 190.362C183.672 190.926 183.09 191.37 182.334 191.694C181.59 192.006 180.732 192.162 179.76 192.162ZM194.659 185.448C195.391 185.652 195.955 186.024 196.351 186.564C196.759 187.104 196.963 187.764 196.963 188.544C196.963 189.624 196.573 190.47 195.793 191.082C195.025 191.694 193.963 192 192.607 192H187.963C187.615 192 187.339 191.904 187.135 191.712C186.943 191.52 186.847 191.25 186.847 190.902V180.408C186.847 180.06 186.943 179.79 187.135 179.598C187.339 179.406 187.615 179.31 187.963 179.31H192.427C193.747 179.31 194.779 179.604 195.523 180.192C196.279 180.768 196.657 181.578 196.657 182.622C196.657 183.294 196.477 183.876 196.117 184.368C195.769 184.86 195.283 185.22 194.659 185.448ZM189.115 184.656H192.049C193.645 184.656 194.443 184.062 194.443 182.874C194.443 182.274 194.245 181.83 193.849 181.542C193.453 181.254 192.853 181.11 192.049 181.11H189.115V184.656ZM192.355 190.2C193.195 190.2 193.807 190.05 194.191 189.75C194.575 189.45 194.767 188.982 194.767 188.346C194.767 187.71 194.569 187.236 194.173 186.924C193.789 186.612 193.183 186.456 192.355 186.456H189.115V190.2H192.355Z" fill="#234CAD"/>
</g>
<g clip-path="url(#clip3_12263_418)">
<circle cx="208" cy="164" r="7" fill="#234CAD" stroke="white" stroke-width="2"/>
<path d="M208.448 163.828C208.7 163.892 208.892 164.014 209.024 164.194C209.16 164.37 209.228 164.59 209.228 164.854C209.228 165.218 209.094 165.508 208.826 165.724C208.558 165.94 208.196 166.048 207.74 166.048C207.48 166.048 207.23 166.008 206.99 165.928C206.75 165.848 206.546 165.736 206.378 165.592C206.286 165.512 206.24 165.418 206.24 165.31C206.24 165.222 206.264 165.148 206.312 165.088C206.364 165.024 206.424 164.992 206.492 164.992C206.532 164.992 206.568 165 206.6 165.016C206.632 165.028 206.676 165.05 206.732 165.082C206.9 165.194 207.06 165.28 207.212 165.34C207.364 165.4 207.53 165.43 207.71 165.43C207.974 165.43 208.17 165.378 208.298 165.274C208.426 165.166 208.49 165.004 208.49 164.788C208.49 164.576 208.422 164.42 208.286 164.32C208.154 164.216 207.948 164.164 207.668 164.164H207.326C207.234 164.164 207.162 164.134 207.11 164.074C207.062 164.01 207.038 163.938 207.038 163.858C207.038 163.774 207.062 163.702 207.11 163.642C207.162 163.582 207.234 163.552 207.326 163.552H207.566C208.114 163.552 208.388 163.346 208.388 162.934C208.388 162.742 208.33 162.594 208.214 162.49C208.098 162.386 207.938 162.334 207.734 162.334C207.442 162.334 207.13 162.45 206.798 162.682C206.742 162.714 206.698 162.738 206.666 162.754C206.634 162.766 206.598 162.772 206.558 162.772C206.49 162.772 206.43 162.742 206.378 162.682C206.33 162.618 206.306 162.542 206.306 162.454C206.306 162.394 206.316 162.344 206.336 162.304C206.36 162.26 206.396 162.216 206.444 162.172C206.612 162.032 206.812 161.922 207.044 161.842C207.28 161.758 207.52 161.716 207.764 161.716C208.18 161.716 208.51 161.818 208.754 162.022C209.002 162.226 209.126 162.498 209.126 162.838C209.122 163.07 209.06 163.274 208.94 163.45C208.824 163.622 208.66 163.748 208.448 163.828Z" fill="#F7FAFC"/>
</g>
<defs>
<filter id="filter0_f_12263_418" x="0.085907" y="0.085907" width="621.828" height="371.828" filterUnits="userSpaceOnUse" color-interpolation-filters="sRGB">
<feFlood flood-opacity="0" result="BackgroundImageFix"/>
<feBlend mode="normal" in="SourceGraphic" in2="BackgroundImageFix" result="shape"/>
<feGaussianBlur stdDeviation="67.957" result="effect1_foregroundBlur_12263_418"/>
</filter>
<linearGradient id="paint0_linear_12263_418" x1="401.05" y1="272.598" x2="433.39" y2="108.231" gradientUnits="userSpaceOnUse">
<stop stop-color="#234CAD"/>
<stop offset="1" stop-color="#234CAD" stop-opacity="0.5"/>
</linearGradient>
<clipPath id="clip0_12263_418">
<rect width="230" height="45" fill="white" transform="translate(236 164)"/>
</clipPath>
<clipPath id="clip1_12263_418">
<rect width="178" height="45" fill="white" transform="translate(236 164)"/>
</clipPath>
<clipPath id="clip2_12263_418">
<rect width="60" height="60" fill="white" transform="translate(156 156)"/>
</clipPath>
<clipPath id="clip3_12263_418">
<rect width="16" height="16" fill="white" transform="translate(200 156)"/>
</clipPath>
</defs>
</svg>
