<svg width="622" height="372" viewBox="0 0 622 372" fill="none" xmlns="http://www.w3.org/2000/svg">
<g opacity="0.05" filter="url(#filter0_f_12263_459)">
<rect x="136" y="136" width="350" height="100" rx="20" fill="url(#paint0_linear_12263_459)"/>
</g>
<rect x="136" y="136" width="350" height="100" rx="20" fill="white"/>
<path d="M229.422 206.104C229.941 205.674 230.389 205.281 230.764 204.926C231.139 204.566 231.455 204.238 231.713 203.941C231.975 203.645 232.184 203.373 232.34 203.127C232.5 202.881 232.623 202.656 232.709 202.453C232.795 202.25 232.852 202.064 232.879 201.896C232.91 201.725 232.926 201.564 232.926 201.416C232.926 201.182 232.889 200.973 232.814 200.789C232.74 200.602 232.639 200.443 232.51 200.314C232.385 200.182 232.238 200.082 232.07 200.016C231.902 199.945 231.727 199.91 231.543 199.91C231.367 199.91 231.197 199.938 231.033 199.992C230.873 200.043 230.721 200.109 230.576 200.191C230.436 200.27 230.305 200.357 230.184 200.455C230.066 200.553 229.963 200.648 229.873 200.742C229.779 200.598 229.701 200.465 229.639 200.344C229.576 200.223 229.525 200.117 229.486 200.027C229.443 199.926 229.41 199.832 229.387 199.746C229.445 199.691 229.539 199.617 229.668 199.523C229.801 199.43 229.965 199.338 230.16 199.248C230.359 199.158 230.588 199.08 230.846 199.014C231.107 198.947 231.398 198.914 231.719 198.914C232.082 198.914 232.412 198.969 232.709 199.078C233.006 199.188 233.258 199.344 233.465 199.547C233.676 199.746 233.838 199.988 233.951 200.273C234.064 200.559 234.121 200.877 234.121 201.229C234.121 201.451 234.105 201.672 234.074 201.891C234.043 202.109 233.984 202.334 233.898 202.564C233.812 202.795 233.693 203.035 233.541 203.285C233.393 203.531 233.199 203.797 232.961 204.082C232.723 204.363 232.436 204.664 232.1 204.984C231.764 205.305 231.367 205.652 230.91 206.027C231.098 206.027 231.289 206.025 231.484 206.021C231.684 206.014 231.881 206.006 232.076 205.998C232.271 205.986 232.463 205.977 232.65 205.969C232.838 205.957 233.014 205.945 233.178 205.934C233.564 205.91 233.945 205.885 234.32 205.857C234.32 205.893 234.322 205.932 234.326 205.975C234.33 206.01 234.332 206.049 234.332 206.092C234.336 206.131 234.338 206.172 234.338 206.215C234.338 206.332 234.326 206.463 234.303 206.607C234.279 206.748 234.232 206.879 234.162 207H229.422V206.104ZM235.867 206.742C236.066 206.305 236.262 205.875 236.453 205.453C236.645 205.031 236.826 204.627 236.998 204.24C237.17 203.854 237.334 203.486 237.49 203.139C237.646 202.791 237.789 202.469 237.918 202.172C238.223 201.477 238.504 200.834 238.762 200.244C238.316 200.248 237.891 200.252 237.484 200.256C237.082 200.26 236.725 200.266 236.412 200.273C236.049 200.281 235.707 200.287 235.387 200.291C235.309 200.182 235.258 200.064 235.234 199.939C235.211 199.811 235.199 199.693 235.199 199.588C235.199 199.541 235.199 199.486 235.199 199.424C235.203 199.357 235.209 199.297 235.217 199.242C235.221 199.176 235.227 199.109 235.234 199.043H239.975L240.203 199.482C240.02 199.842 239.82 200.279 239.605 200.795C239.391 201.307 239.16 201.887 238.914 202.535C238.672 203.18 238.412 203.887 238.135 204.656C237.857 205.422 237.562 206.238 237.25 207.105L237.109 207.152C236.941 207.145 236.781 207.119 236.629 207.076C236.48 207.037 236.35 206.992 236.236 206.941C236.104 206.883 235.98 206.816 235.867 206.742ZM240.279 208.986C240.424 208.701 240.555 208.393 240.672 208.061C240.77 207.775 240.859 207.443 240.941 207.064C241.023 206.689 241.064 206.287 241.064 205.857C241.084 205.854 241.127 205.848 241.193 205.84C241.264 205.832 241.346 205.828 241.439 205.828C241.514 205.828 241.594 205.834 241.68 205.846C241.77 205.854 241.857 205.871 241.943 205.898C242.029 205.926 242.109 205.963 242.184 206.01C242.262 206.053 242.33 206.111 242.389 206.186C242.389 206.393 242.369 206.596 242.33 206.795C242.291 206.994 242.24 207.188 242.178 207.375C242.115 207.566 242.043 207.748 241.961 207.92C241.883 208.096 241.803 208.258 241.721 208.406C241.525 208.758 241.305 209.086 241.059 209.391C240.953 209.383 240.852 209.367 240.754 209.344C240.672 209.324 240.586 209.293 240.496 209.25C240.406 209.211 240.334 209.152 240.279 209.074V208.986ZM246.32 207.117C245.816 207.117 245.383 207.023 245.02 206.836C244.656 206.648 244.357 206.379 244.123 206.027C243.889 205.672 243.715 205.24 243.602 204.732C243.488 204.225 243.432 203.652 243.432 203.016C243.432 202.395 243.49 201.832 243.607 201.328C243.729 200.82 243.908 200.389 244.146 200.033C244.389 199.674 244.689 199.398 245.049 199.207C245.412 199.012 245.836 198.914 246.32 198.914C246.832 198.914 247.268 199.004 247.627 199.184C247.99 199.359 248.285 199.617 248.512 199.957C248.742 200.297 248.91 200.715 249.016 201.211C249.121 201.707 249.174 202.273 249.174 202.91C249.174 203.531 249.117 204.1 249.004 204.615C248.891 205.131 248.717 205.574 248.482 205.945C248.252 206.316 247.957 206.605 247.598 206.812C247.238 207.016 246.812 207.117 246.32 207.117ZM246.314 206.174C246.58 206.174 246.807 206.088 246.994 205.916C247.182 205.74 247.334 205.506 247.451 205.213C247.572 204.916 247.66 204.57 247.715 204.176C247.77 203.777 247.797 203.355 247.797 202.91C247.797 202.43 247.77 202 247.715 201.621C247.66 201.242 247.574 200.922 247.457 200.66C247.34 200.398 247.188 200.199 247 200.062C246.812 199.922 246.586 199.852 246.32 199.852C246.047 199.852 245.812 199.93 245.617 200.086C245.426 200.242 245.27 200.461 245.148 200.742C245.027 201.023 244.939 201.357 244.885 201.744C244.83 202.131 244.803 202.555 244.803 203.016C244.803 203.477 244.83 203.9 244.885 204.287C244.939 204.674 245.027 205.008 245.148 205.289C245.27 205.566 245.426 205.783 245.617 205.939C245.809 206.096 246.041 206.174 246.314 206.174ZM255.73 202.506C255.73 204.01 255.465 205.145 254.934 205.91C254.406 206.676 253.627 207.059 252.596 207.059C252.303 207.059 252.047 207.039 251.828 207C251.609 206.965 251.426 206.924 251.277 206.877C251.102 206.822 250.951 206.76 250.826 206.689C250.826 206.576 250.838 206.457 250.861 206.332C250.881 206.23 250.912 206.117 250.955 205.992C250.998 205.863 251.062 205.742 251.148 205.629C251.266 205.699 251.4 205.762 251.553 205.816C251.682 205.863 251.834 205.906 252.01 205.945C252.186 205.98 252.381 205.998 252.596 205.998C252.943 205.998 253.229 205.93 253.451 205.793C253.678 205.652 253.857 205.469 253.99 205.242C254.127 205.016 254.225 204.758 254.283 204.469C254.342 204.176 254.379 203.877 254.395 203.572C254.34 203.627 254.258 203.688 254.148 203.754C254.043 203.82 253.918 203.883 253.773 203.941C253.633 204 253.475 204.049 253.299 204.088C253.123 204.127 252.939 204.146 252.748 204.146C252.428 204.146 252.131 204.098 251.857 204C251.584 203.898 251.348 203.742 251.148 203.531C250.949 203.32 250.793 203.053 250.68 202.729C250.57 202.4 250.516 202.008 250.516 201.551C250.516 201.141 250.576 200.773 250.697 200.449C250.822 200.121 250.996 199.844 251.219 199.617C251.445 199.391 251.715 199.217 252.027 199.096C252.344 198.975 252.691 198.914 253.07 198.914C253.598 198.914 254.031 199.008 254.371 199.195C254.715 199.379 254.986 199.633 255.186 199.957C255.389 200.277 255.529 200.656 255.607 201.094C255.689 201.531 255.73 202.002 255.73 202.506ZM254.383 201.551C254.363 201.348 254.328 201.15 254.277 200.959C254.227 200.764 254.15 200.59 254.049 200.438C253.951 200.285 253.824 200.164 253.668 200.074C253.512 199.98 253.32 199.934 253.094 199.934C252.871 199.934 252.68 199.979 252.52 200.068C252.359 200.154 252.229 200.273 252.127 200.426C252.025 200.578 251.951 200.756 251.904 200.959C251.857 201.162 251.834 201.379 251.834 201.609C251.834 202.133 251.949 202.527 252.18 202.793C252.414 203.059 252.729 203.191 253.123 203.191C253.248 203.191 253.371 203.176 253.492 203.145C253.613 203.109 253.729 203.064 253.838 203.01C253.951 202.951 254.055 202.887 254.148 202.816C254.242 202.746 254.324 202.674 254.395 202.6C254.406 202.451 254.41 202.289 254.406 202.113C254.406 201.938 254.398 201.75 254.383 201.551ZM259.322 204.164L261.203 199.33C261.129 199.24 261.035 199.172 260.922 199.125C260.809 199.074 260.695 199.033 260.582 199.002C260.453 198.971 260.318 198.947 260.178 198.932L258.42 203.795L256.779 207.896C256.881 207.986 256.99 208.061 257.107 208.119C257.229 208.178 257.344 208.225 257.453 208.26C257.582 208.303 257.709 208.336 257.834 208.359L259.322 204.164ZM266.113 206.742C266.312 206.305 266.508 205.875 266.699 205.453C266.891 205.031 267.072 204.627 267.244 204.24C267.416 203.854 267.58 203.486 267.736 203.139C267.893 202.791 268.035 202.469 268.164 202.172C268.469 201.477 268.75 200.834 269.008 200.244C268.562 200.248 268.137 200.252 267.73 200.256C267.328 200.26 266.971 200.266 266.658 200.273C266.295 200.281 265.953 200.287 265.633 200.291C265.555 200.182 265.504 200.064 265.48 199.939C265.457 199.811 265.445 199.693 265.445 199.588C265.445 199.541 265.445 199.486 265.445 199.424C265.449 199.357 265.455 199.297 265.463 199.242C265.467 199.176 265.473 199.109 265.48 199.043H270.221L270.449 199.482C270.266 199.842 270.066 200.279 269.852 200.795C269.637 201.307 269.406 201.887 269.16 202.535C268.918 203.18 268.658 203.887 268.381 204.656C268.104 205.422 267.809 206.238 267.496 207.105L267.355 207.152C267.188 207.145 267.027 207.119 266.875 207.076C266.727 207.037 266.596 206.992 266.482 206.941C266.35 206.883 266.227 206.816 266.113 206.742ZM271.293 204.85C271.293 204.623 271.33 204.404 271.404 204.193C271.479 203.979 271.58 203.783 271.709 203.607C271.842 203.428 271.998 203.273 272.178 203.145C272.357 203.012 272.551 202.914 272.758 202.852C272.391 202.707 272.1 202.484 271.885 202.184C271.67 201.883 271.562 201.512 271.562 201.07C271.562 200.754 271.619 200.463 271.732 200.197C271.85 199.932 272.016 199.705 272.23 199.518C272.445 199.326 272.707 199.178 273.016 199.072C273.324 198.967 273.672 198.914 274.059 198.914C274.426 198.914 274.76 198.967 275.061 199.072C275.365 199.178 275.625 199.326 275.84 199.518C276.059 199.705 276.229 199.932 276.35 200.197C276.471 200.463 276.531 200.754 276.531 201.07C276.531 201.277 276.502 201.473 276.443 201.656C276.389 201.84 276.309 202.01 276.203 202.166C276.098 202.318 275.969 202.453 275.816 202.57C275.668 202.684 275.5 202.773 275.312 202.84C275.523 202.902 275.719 202.996 275.898 203.121C276.082 203.242 276.24 203.389 276.373 203.561C276.506 203.732 276.609 203.928 276.684 204.146C276.762 204.365 276.801 204.6 276.801 204.85C276.801 205.201 276.73 205.518 276.59 205.799C276.449 206.076 276.256 206.312 276.01 206.508C275.764 206.703 275.473 206.854 275.137 206.959C274.805 207.064 274.445 207.117 274.059 207.117C273.652 207.117 273.279 207.064 272.939 206.959C272.604 206.85 272.312 206.697 272.066 206.502C271.824 206.303 271.635 206.064 271.498 205.787C271.361 205.506 271.293 205.193 271.293 204.85ZM272.658 204.838C272.658 205.049 272.697 205.238 272.775 205.406C272.854 205.574 272.957 205.719 273.086 205.84C273.215 205.961 273.363 206.055 273.531 206.121C273.699 206.184 273.875 206.215 274.059 206.215C274.227 206.215 274.393 206.184 274.557 206.121C274.725 206.055 274.873 205.961 275.002 205.84C275.131 205.719 275.234 205.574 275.312 205.406C275.395 205.238 275.436 205.049 275.436 204.838C275.436 204.666 275.406 204.492 275.348 204.316C275.293 204.137 275.207 203.975 275.09 203.83C274.977 203.686 274.834 203.568 274.662 203.479C274.49 203.385 274.289 203.338 274.059 203.338C273.805 203.338 273.588 203.381 273.408 203.467C273.232 203.553 273.088 203.666 272.975 203.807C272.865 203.947 272.785 204.107 272.734 204.287C272.684 204.467 272.658 204.65 272.658 204.838ZM274.059 202.418C274.207 202.418 274.352 202.391 274.492 202.336C274.633 202.281 274.756 202.199 274.861 202.09C274.971 201.98 275.057 201.846 275.119 201.686C275.186 201.521 275.219 201.334 275.219 201.123C275.219 200.912 275.186 200.725 275.119 200.561C275.057 200.396 274.971 200.26 274.861 200.15C274.756 200.041 274.633 199.959 274.492 199.904C274.352 199.846 274.207 199.816 274.059 199.816C273.883 199.816 273.723 199.848 273.578 199.91C273.434 199.969 273.309 200.055 273.203 200.168C273.102 200.277 273.021 200.414 272.963 200.578C272.908 200.738 272.881 200.92 272.881 201.123C272.881 201.326 272.908 201.508 272.963 201.668C273.021 201.828 273.102 201.965 273.203 202.078C273.305 202.188 273.428 202.271 273.572 202.33C273.721 202.389 273.883 202.418 274.059 202.418ZM277.311 208.986C277.455 208.701 277.586 208.393 277.703 208.061C277.801 207.775 277.891 207.443 277.973 207.064C278.055 206.689 278.096 206.287 278.096 205.857C278.115 205.854 278.158 205.848 278.225 205.84C278.295 205.832 278.377 205.828 278.471 205.828C278.545 205.828 278.625 205.834 278.711 205.846C278.801 205.854 278.889 205.871 278.975 205.898C279.061 205.926 279.141 205.963 279.215 206.01C279.293 206.053 279.361 206.111 279.42 206.186C279.42 206.393 279.4 206.596 279.361 206.795C279.322 206.994 279.271 207.188 279.209 207.375C279.146 207.566 279.074 207.748 278.992 207.92C278.914 208.096 278.834 208.258 278.752 208.406C278.557 208.758 278.336 209.086 278.09 209.391C277.984 209.383 277.883 209.367 277.785 209.344C277.703 209.324 277.617 209.293 277.527 209.25C277.438 209.211 277.365 209.152 277.311 209.074V208.986ZM286.047 202.506C286.047 204.01 285.781 205.145 285.25 205.91C284.723 206.676 283.943 207.059 282.912 207.059C282.619 207.059 282.363 207.039 282.145 207C281.926 206.965 281.742 206.924 281.594 206.877C281.418 206.822 281.268 206.76 281.143 206.689C281.143 206.576 281.154 206.457 281.178 206.332C281.197 206.23 281.229 206.117 281.271 205.992C281.314 205.863 281.379 205.742 281.465 205.629C281.582 205.699 281.717 205.762 281.869 205.816C281.998 205.863 282.15 205.906 282.326 205.945C282.502 205.98 282.697 205.998 282.912 205.998C283.26 205.998 283.545 205.93 283.768 205.793C283.994 205.652 284.174 205.469 284.307 205.242C284.443 205.016 284.541 204.758 284.6 204.469C284.658 204.176 284.695 203.877 284.711 203.572C284.656 203.627 284.574 203.688 284.465 203.754C284.359 203.82 284.234 203.883 284.09 203.941C283.949 204 283.791 204.049 283.615 204.088C283.439 204.127 283.256 204.146 283.064 204.146C282.744 204.146 282.447 204.098 282.174 204C281.9 203.898 281.664 203.742 281.465 203.531C281.266 203.32 281.109 203.053 280.996 202.729C280.887 202.4 280.832 202.008 280.832 201.551C280.832 201.141 280.893 200.773 281.014 200.449C281.139 200.121 281.312 199.844 281.535 199.617C281.762 199.391 282.031 199.217 282.344 199.096C282.66 198.975 283.008 198.914 283.387 198.914C283.914 198.914 284.348 199.008 284.688 199.195C285.031 199.379 285.303 199.633 285.502 199.957C285.705 200.277 285.846 200.656 285.924 201.094C286.006 201.531 286.047 202.002 286.047 202.506ZM284.699 201.551C284.68 201.348 284.645 201.15 284.594 200.959C284.543 200.764 284.467 200.59 284.365 200.438C284.268 200.285 284.141 200.164 283.984 200.074C283.828 199.98 283.637 199.934 283.41 199.934C283.188 199.934 282.996 199.979 282.836 200.068C282.676 200.154 282.545 200.273 282.443 200.426C282.342 200.578 282.268 200.756 282.221 200.959C282.174 201.162 282.15 201.379 282.15 201.609C282.15 202.133 282.266 202.527 282.496 202.793C282.73 203.059 283.045 203.191 283.439 203.191C283.564 203.191 283.688 203.176 283.809 203.145C283.93 203.109 284.045 203.064 284.154 203.01C284.268 202.951 284.371 202.887 284.465 202.816C284.559 202.746 284.641 202.674 284.711 202.6C284.723 202.451 284.727 202.289 284.723 202.113C284.723 201.938 284.715 201.75 284.699 201.551ZM287.043 206.637C287.059 206.547 287.084 206.449 287.119 206.344C287.15 206.254 287.191 206.15 287.242 206.033C287.297 205.912 287.369 205.783 287.459 205.646C287.631 205.732 287.811 205.811 287.998 205.881C288.162 205.939 288.348 205.992 288.555 206.039C288.762 206.086 288.977 206.109 289.199 206.109C289.434 206.109 289.65 206.07 289.85 205.992C290.049 205.914 290.221 205.805 290.365 205.664C290.514 205.523 290.629 205.355 290.711 205.16C290.793 204.961 290.834 204.74 290.834 204.498C290.834 204.357 290.805 204.217 290.746 204.076C290.688 203.932 290.598 203.803 290.477 203.689C290.355 203.572 290.199 203.479 290.008 203.408C289.82 203.334 289.596 203.297 289.334 203.297H288.666C288.643 203.191 288.623 203.094 288.607 203.004C288.596 202.91 288.59 202.826 288.59 202.752C288.59 202.646 288.596 202.553 288.607 202.471C288.615 202.428 288.623 202.383 288.631 202.336H289.334C289.486 202.336 289.631 202.305 289.768 202.242C289.904 202.18 290.023 202.092 290.125 201.979C290.23 201.861 290.312 201.723 290.371 201.562C290.43 201.398 290.459 201.217 290.459 201.018C290.459 200.842 290.428 200.686 290.365 200.549C290.307 200.412 290.221 200.297 290.107 200.203C289.998 200.109 289.867 200.039 289.715 199.992C289.562 199.941 289.395 199.916 289.211 199.916C289.004 199.916 288.807 199.941 288.619 199.992C288.436 200.039 288.275 200.092 288.139 200.15C287.975 200.221 287.824 200.297 287.688 200.379C287.598 200.246 287.525 200.121 287.471 200.004C287.416 199.887 287.373 199.783 287.342 199.693C287.307 199.592 287.283 199.494 287.271 199.4C287.459 199.311 287.662 199.23 287.881 199.16C288.068 199.098 288.285 199.041 288.531 198.99C288.777 198.939 289.041 198.914 289.322 198.914C290.119 198.914 290.736 199.08 291.174 199.412C291.615 199.744 291.836 200.246 291.836 200.918C291.836 201.152 291.805 201.369 291.742 201.568C291.68 201.768 291.592 201.947 291.479 202.107C291.365 202.264 291.229 202.398 291.068 202.512C290.908 202.625 290.73 202.715 290.535 202.781C290.77 202.836 290.988 202.92 291.191 203.033C291.395 203.143 291.568 203.277 291.713 203.438C291.861 203.594 291.977 203.771 292.059 203.971C292.145 204.17 292.188 204.387 292.188 204.621C292.188 205.016 292.117 205.367 291.977 205.676C291.836 205.984 291.637 206.246 291.379 206.461C291.121 206.676 290.809 206.84 290.441 206.953C290.078 207.062 289.67 207.117 289.217 207.117C288.924 207.117 288.645 207.092 288.379 207.041C288.117 206.994 287.887 206.939 287.688 206.877C287.453 206.807 287.238 206.727 287.043 206.637ZM296.389 203.092C296.389 202.424 296.469 201.83 296.629 201.311C296.793 200.787 297.031 200.348 297.344 199.992C297.66 199.633 298.047 199.359 298.504 199.172C298.965 198.984 299.494 198.891 300.092 198.891C300.318 198.891 300.549 198.908 300.783 198.943C301.021 198.975 301.238 199.012 301.434 199.055C301.66 199.102 301.879 199.154 302.09 199.213C302.082 199.311 302.066 199.414 302.043 199.523C302.023 199.617 301.994 199.727 301.955 199.852C301.916 199.973 301.863 200.102 301.797 200.238C301.633 200.18 301.457 200.129 301.27 200.086C301.109 200.047 300.926 200.012 300.719 199.98C300.516 199.949 300.307 199.934 300.092 199.934C299.729 199.934 299.4 200.008 299.107 200.156C298.818 200.305 298.572 200.518 298.369 200.795C298.17 201.068 298.016 201.4 297.906 201.791C297.801 202.178 297.748 202.611 297.748 203.092C297.748 203.568 297.799 203.994 297.9 204.369C298.002 204.744 298.152 205.061 298.352 205.318C298.551 205.576 298.795 205.773 299.084 205.91C299.377 206.047 299.713 206.115 300.092 206.115C300.154 206.115 300.225 206.115 300.303 206.115C300.381 206.115 300.459 206.113 300.537 206.109C300.615 206.105 300.691 206.104 300.766 206.104C300.84 206.1 300.906 206.094 300.965 206.086C300.965 205.961 300.963 205.826 300.959 205.682C300.955 205.537 300.951 205.391 300.947 205.242C300.943 205.09 300.938 204.939 300.93 204.791C300.926 204.643 300.922 204.5 300.918 204.363C300.902 204.043 300.889 203.721 300.877 203.396C301.018 203.357 301.145 203.332 301.258 203.32C301.375 203.309 301.475 203.303 301.557 203.303C301.639 203.303 301.719 203.309 301.797 203.32C301.879 203.332 301.953 203.344 302.02 203.355C302.094 203.371 302.164 203.387 302.23 203.402C302.23 203.863 302.227 204.307 302.219 204.732C302.215 205.154 302.209 205.529 302.201 205.857C302.189 206.244 302.18 206.604 302.172 206.936L302.061 207.012C301.854 207.039 301.641 207.062 301.422 207.082C301.234 207.102 301.023 207.117 300.789 207.129C300.555 207.145 300.322 207.152 300.092 207.152C299.494 207.152 298.965 207.066 298.504 206.895C298.047 206.723 297.66 206.467 297.344 206.127C297.031 205.783 296.793 205.359 296.629 204.855C296.469 204.348 296.389 203.76 296.389 203.092ZM303.754 199.043H306.684C306.992 199.043 307.281 199.086 307.551 199.172C307.82 199.254 308.053 199.381 308.248 199.553C308.443 199.721 308.598 199.932 308.711 200.186C308.824 200.436 308.881 200.727 308.881 201.059C308.881 201.234 308.85 201.408 308.787 201.58C308.729 201.752 308.645 201.914 308.535 202.066C308.43 202.215 308.305 202.348 308.16 202.465C308.016 202.578 307.859 202.664 307.691 202.723C307.867 202.754 308.043 202.82 308.219 202.922C308.395 203.023 308.553 203.158 308.693 203.326C308.834 203.494 308.947 203.691 309.033 203.918C309.123 204.141 309.168 204.387 309.168 204.656C309.168 205.027 309.111 205.357 308.998 205.646C308.889 205.936 308.723 206.182 308.5 206.385C308.277 206.584 308.002 206.736 307.674 206.842C307.346 206.947 306.965 207 306.531 207H303.754V199.043ZM306.391 206.004C306.605 206.004 306.799 205.98 306.971 205.934C307.146 205.887 307.297 205.811 307.422 205.705C307.547 205.6 307.643 205.463 307.709 205.295C307.779 205.127 307.814 204.922 307.814 204.68C307.814 204.434 307.779 204.229 307.709 204.064C307.643 203.896 307.549 203.762 307.428 203.66C307.311 203.555 307.17 203.48 307.006 203.438C306.846 203.395 306.672 203.373 306.484 203.373H305.084V206.004H306.391ZM306.736 202.488C307.01 202.406 307.209 202.25 307.334 202.02C307.463 201.785 307.527 201.473 307.527 201.082C307.527 200.75 307.43 200.492 307.234 200.309C307.039 200.121 306.77 200.027 306.426 200.027H305.084V202.488H306.736Z" fill="#234CAD"/>
<path d="M229.914 180.859C229.914 180.698 229.914 180.482 229.914 180.211C229.914 179.935 229.914 179.63 229.914 179.297C229.919 178.964 229.922 178.612 229.922 178.242C229.927 177.867 229.93 177.497 229.93 177.133C229.935 176.279 229.94 175.365 229.945 174.391H231.68V181.117C231.68 181.518 231.719 181.88 231.797 182.203C231.875 182.526 232 182.802 232.172 183.031C232.349 183.26 232.576 183.438 232.852 183.562C233.128 183.688 233.466 183.75 233.867 183.75C234.263 183.75 234.602 183.688 234.883 183.562C235.164 183.438 235.393 183.26 235.57 183.031C235.747 182.802 235.875 182.526 235.953 182.203C236.036 181.88 236.078 181.518 236.078 181.117C236.078 181.003 236.078 180.818 236.078 180.562C236.078 180.307 236.076 180.013 236.07 179.68C236.07 179.341 236.068 178.977 236.062 178.586C236.062 178.19 236.062 177.797 236.062 177.406C236.057 176.49 236.052 175.484 236.047 174.391H237.773V180.859C237.773 181.568 237.706 182.19 237.57 182.727C237.44 183.263 237.224 183.711 236.922 184.07C236.62 184.43 236.219 184.701 235.719 184.883C235.219 185.065 234.602 185.156 233.867 185.156C233.143 185.156 232.529 185.065 232.023 184.883C231.523 184.695 231.117 184.422 230.805 184.062C230.492 183.698 230.266 183.247 230.125 182.711C229.984 182.174 229.914 181.557 229.914 180.859ZM241.414 188.164H239.742V178.055L239.125 177.422V176.93H240.555L241.172 177.469L241.461 177.484C241.492 177.453 241.56 177.401 241.664 177.328C241.773 177.25 241.917 177.172 242.094 177.094C242.271 177.01 242.482 176.94 242.727 176.883C242.971 176.82 243.245 176.789 243.547 176.789C243.932 176.789 244.307 176.852 244.672 176.977C245.042 177.102 245.367 177.318 245.648 177.625C245.935 177.932 246.164 178.349 246.336 178.875C246.508 179.396 246.594 180.055 246.594 180.852C246.594 181.539 246.487 182.151 246.273 182.688C246.065 183.224 245.784 183.674 245.43 184.039C245.076 184.404 244.661 184.682 244.188 184.875C243.719 185.062 243.224 185.156 242.703 185.156C242.568 185.156 242.422 185.151 242.266 185.141C242.115 185.13 241.977 185.117 241.852 185.102C241.701 185.086 241.555 185.068 241.414 185.047V188.164ZM241.414 183.844C241.503 183.87 241.622 183.893 241.773 183.914C241.924 183.935 242.091 183.945 242.273 183.945C242.664 183.945 243.018 183.872 243.336 183.727C243.654 183.576 243.922 183.367 244.141 183.102C244.365 182.831 244.536 182.505 244.656 182.125C244.781 181.745 244.844 181.32 244.844 180.852C244.844 180.273 244.792 179.805 244.688 179.445C244.589 179.081 244.443 178.797 244.25 178.594C244.062 178.385 243.833 178.245 243.562 178.172C243.292 178.099 242.99 178.062 242.656 178.062C242.51 178.062 242.365 178.086 242.219 178.133C242.073 178.174 241.94 178.224 241.82 178.281C241.68 178.344 241.544 178.414 241.414 178.492V183.844ZM248.188 173.758H249.805V183.688L250.266 184.016V185H249.82L249.805 184.984V185C249.289 185 248.891 184.896 248.609 184.688C248.328 184.479 248.188 184.135 248.188 183.656V173.758ZM251.594 181.008C251.594 180.32 251.685 179.714 251.867 179.188C252.055 178.661 252.315 178.221 252.648 177.867C252.987 177.513 253.388 177.245 253.852 177.062C254.32 176.88 254.836 176.789 255.398 176.789C255.977 176.789 256.497 176.875 256.961 177.047C257.424 177.214 257.818 177.469 258.141 177.812C258.464 178.156 258.711 178.586 258.883 179.102C259.055 179.612 259.141 180.211 259.141 180.898C259.141 181.586 259.052 182.195 258.875 182.727C258.703 183.258 258.453 183.703 258.125 184.062C257.802 184.422 257.409 184.695 256.945 184.883C256.487 185.065 255.971 185.156 255.398 185.156C254.805 185.156 254.271 185.07 253.797 184.898C253.328 184.721 252.93 184.461 252.602 184.117C252.279 183.768 252.029 183.336 251.852 182.82C251.68 182.299 251.594 181.695 251.594 181.008ZM255.398 183.867C255.742 183.867 256.039 183.794 256.289 183.648C256.544 183.497 256.753 183.292 256.914 183.031C257.076 182.766 257.195 182.453 257.273 182.094C257.352 181.729 257.391 181.331 257.391 180.898C257.391 179.966 257.232 179.255 256.914 178.766C256.596 178.276 256.091 178.031 255.398 178.031C255.049 178.031 254.745 178.107 254.484 178.258C254.229 178.404 254.016 178.609 253.844 178.875C253.677 179.141 253.552 179.456 253.469 179.82C253.385 180.185 253.344 180.581 253.344 181.008C253.344 181.951 253.51 182.664 253.844 183.148C254.182 183.628 254.701 183.867 255.398 183.867ZM260.234 182.719C260.234 182.286 260.297 181.919 260.422 181.617C260.547 181.315 260.729 181.068 260.969 180.875C261.214 180.682 261.508 180.539 261.852 180.445C262.201 180.346 262.599 180.284 263.047 180.258L264.789 180.164V179.539C264.789 179.258 264.763 179.026 264.711 178.844C264.664 178.661 264.583 178.516 264.469 178.406C264.354 178.297 264.201 178.221 264.008 178.18C263.82 178.133 263.586 178.109 263.305 178.109C263.023 178.109 262.755 178.141 262.5 178.203C262.25 178.266 262.031 178.333 261.844 178.406C261.62 178.495 261.414 178.594 261.227 178.703C261.112 178.542 261.021 178.388 260.953 178.242C260.885 178.091 260.833 177.956 260.797 177.836C260.75 177.701 260.719 177.57 260.703 177.445C260.953 177.32 261.221 177.211 261.508 177.117C261.758 177.034 262.044 176.958 262.367 176.891C262.695 176.823 263.039 176.789 263.398 176.789C263.992 176.789 264.484 176.841 264.875 176.945C265.266 177.049 265.576 177.208 265.805 177.422C266.039 177.63 266.201 177.896 266.289 178.219C266.383 178.536 266.43 178.914 266.43 179.352V183.711L267.086 184.508V185H265.641L265.039 184.305H264.758C264.732 184.331 264.661 184.391 264.547 184.484C264.438 184.573 264.294 184.669 264.117 184.773C263.945 184.872 263.747 184.961 263.523 185.039C263.305 185.117 263.07 185.156 262.82 185.156C262.43 185.156 262.076 185.099 261.758 184.984C261.44 184.865 261.167 184.698 260.938 184.484C260.714 184.266 260.539 184.008 260.414 183.711C260.294 183.409 260.234 183.078 260.234 182.719ZM261.938 182.578C261.938 182.818 261.971 183.018 262.039 183.18C262.107 183.336 262.201 183.461 262.32 183.555C262.445 183.648 262.594 183.714 262.766 183.75C262.943 183.786 263.138 183.805 263.352 183.805C263.549 183.805 263.734 183.781 263.906 183.734C264.083 183.682 264.237 183.625 264.367 183.562C264.518 183.495 264.659 183.414 264.789 183.32V181.219L263.219 181.32C262.974 181.336 262.768 181.378 262.602 181.445C262.44 181.513 262.31 181.602 262.211 181.711C262.112 181.82 262.042 181.951 262 182.102C261.958 182.247 261.938 182.406 261.938 182.578ZM268.102 181.148C268.102 180.404 268.206 179.758 268.414 179.211C268.622 178.664 268.904 178.211 269.258 177.852C269.617 177.492 270.031 177.227 270.5 177.055C270.969 176.878 271.466 176.789 271.992 176.789C272.19 176.789 272.367 176.799 272.523 176.82C272.68 176.836 272.812 176.857 272.922 176.883C273.052 176.909 273.167 176.94 273.266 176.977V173.758H274.93V183.711L275.617 184.508V185H274.055L273.516 184.383H273.25C273.224 184.409 273.169 184.464 273.086 184.547C273.008 184.63 272.893 184.716 272.742 184.805C272.596 184.893 272.414 184.974 272.195 185.047C271.982 185.12 271.729 185.156 271.438 185.156C271.052 185.156 270.661 185.078 270.266 184.922C269.87 184.766 269.51 184.523 269.188 184.195C268.87 183.867 268.609 183.453 268.406 182.953C268.203 182.448 268.102 181.846 268.102 181.148ZM269.852 181.148C269.852 181.633 269.901 182.047 270 182.391C270.104 182.734 270.25 183.018 270.438 183.242C270.625 183.461 270.854 183.622 271.125 183.727C271.396 183.826 271.701 183.875 272.039 183.875C272.169 183.875 272.307 183.854 272.453 183.812C272.599 183.771 272.732 183.721 272.852 183.664C272.992 183.607 273.13 183.536 273.266 183.453V178.172C273.198 178.13 273.096 178.089 272.961 178.047C272.831 178.005 272.648 177.984 272.414 177.984C271.596 177.984 270.964 178.255 270.516 178.797C270.073 179.333 269.852 180.117 269.852 181.148ZM278 175.664C277.854 175.664 277.716 175.638 277.586 175.586C277.461 175.534 277.349 175.464 277.25 175.375C277.156 175.286 277.081 175.185 277.023 175.07C276.966 174.951 276.938 174.823 276.938 174.688C276.938 174.547 276.966 174.417 277.023 174.297C277.081 174.177 277.156 174.073 277.25 173.984C277.349 173.896 277.461 173.828 277.586 173.781C277.716 173.729 277.854 173.703 278 173.703C278.146 173.703 278.284 173.729 278.414 173.781C278.544 173.828 278.656 173.896 278.75 173.984C278.849 174.073 278.927 174.177 278.984 174.297C279.042 174.417 279.07 174.547 279.07 174.688C279.07 174.823 279.042 174.951 278.984 175.07C278.927 175.185 278.849 175.286 278.75 175.375C278.656 175.464 278.544 175.534 278.414 175.586C278.284 175.638 278.146 175.664 278 175.664ZM277.102 177.016H278.727V183.688L279.188 184.016V185H278.742L278.727 184.984V185C278.211 185 277.81 184.896 277.523 184.688C277.242 184.479 277.102 184.135 277.102 183.656V177.016ZM281.266 178.445L280.648 177.812V176.93H282.086L282.758 177.539L282.984 177.492C283.021 177.461 283.104 177.406 283.234 177.328C283.37 177.25 283.534 177.172 283.727 177.094C283.924 177.016 284.148 176.948 284.398 176.891C284.648 176.828 284.911 176.797 285.188 176.797C285.625 176.797 286.013 176.862 286.352 176.992C286.695 177.122 286.984 177.31 287.219 177.555C287.453 177.794 287.63 178.083 287.75 178.422C287.87 178.76 287.93 179.141 287.93 179.562V185H286.25V179.727C286.25 179.159 286.13 178.742 285.891 178.477C285.656 178.206 285.281 178.07 284.766 178.07C284.51 178.07 284.273 178.094 284.055 178.141C283.836 178.182 283.643 178.232 283.477 178.289C283.284 178.352 283.104 178.424 282.938 178.508V185H281.266V178.445ZM290.711 184.68C290.591 184.534 290.5 184.362 290.438 184.164C290.375 183.961 290.344 183.75 290.344 183.531C290.344 183.292 290.359 183.083 290.391 182.906C290.427 182.724 290.466 182.573 290.508 182.453C290.555 182.312 290.609 182.193 290.672 182.094V181.734C290.422 181.484 290.221 181.19 290.07 180.852C289.924 180.513 289.852 180.102 289.852 179.617C289.852 179.18 289.927 178.789 290.078 178.445C290.229 178.096 290.443 177.802 290.719 177.562C291 177.318 291.339 177.13 291.734 177C292.13 176.87 292.573 176.805 293.062 176.805H293.07C293.414 176.805 293.698 176.818 293.922 176.844C294.151 176.87 294.336 176.898 294.477 176.93C294.643 176.966 294.773 177.008 294.867 177.055L297.07 176.82V178.086H295.797C295.865 178.154 295.935 178.242 296.008 178.352C296.081 178.461 296.146 178.583 296.203 178.719C296.266 178.854 296.315 179 296.352 179.156C296.393 179.307 296.414 179.461 296.414 179.617C296.414 180.049 296.331 180.443 296.164 180.797C295.997 181.146 295.766 181.448 295.469 181.703C295.172 181.958 294.818 182.156 294.406 182.297C294 182.438 293.555 182.508 293.07 182.508H293.062C292.953 182.508 292.836 182.505 292.711 182.5C292.586 182.49 292.458 182.479 292.328 182.469C292.198 182.453 292.073 182.438 291.953 182.422C291.833 182.401 291.724 182.378 291.625 182.352V183.43C291.625 183.487 291.643 183.536 291.68 183.578C291.716 183.62 291.76 183.656 291.812 183.688C291.87 183.714 291.932 183.734 292 183.75C292.068 183.766 292.133 183.773 292.195 183.773H295.281C295.651 183.773 295.961 183.826 296.211 183.93C296.466 184.034 296.672 184.18 296.828 184.367C296.984 184.549 297.096 184.771 297.164 185.031C297.232 185.292 297.266 185.578 297.266 185.891C297.266 186.286 297.177 186.664 297 187.023C296.828 187.383 296.573 187.698 296.234 187.969C295.896 188.24 295.474 188.453 294.969 188.609C294.469 188.771 293.891 188.852 293.234 188.852H293.227C292.685 188.852 292.201 188.792 291.773 188.672C291.346 188.557 290.984 188.396 290.688 188.188C290.396 187.984 290.172 187.742 290.016 187.461C289.859 187.18 289.781 186.875 289.781 186.547C289.781 186.328 289.828 186.117 289.922 185.914C290.016 185.711 290.122 185.531 290.242 185.375C290.378 185.193 290.534 185.021 290.711 184.859V184.68ZM293.07 181.344C293.378 181.344 293.641 181.315 293.859 181.258C294.078 181.195 294.258 181.096 294.398 180.961C294.539 180.826 294.641 180.648 294.703 180.43C294.771 180.211 294.805 179.94 294.805 179.617C294.805 179.029 294.669 178.607 294.398 178.352C294.128 178.096 293.685 177.969 293.07 177.969H293.062C292.75 177.969 292.49 178 292.281 178.062C292.073 178.12 291.909 178.216 291.789 178.352C291.669 178.482 291.583 178.651 291.531 178.859C291.484 179.068 291.461 179.32 291.461 179.617C291.461 179.909 291.484 180.164 291.531 180.383C291.578 180.596 291.661 180.776 291.781 180.922C291.906 181.062 292.07 181.169 292.273 181.242C292.482 181.31 292.745 181.344 293.062 181.344H293.07ZM291.312 186.258C291.312 186.393 291.333 186.536 291.375 186.688C291.417 186.839 291.505 186.977 291.641 187.102C291.781 187.227 291.979 187.328 292.234 187.406C292.49 187.49 292.833 187.531 293.266 187.531H293.273C293.685 187.531 294.044 187.482 294.352 187.383C294.659 187.289 294.911 187.164 295.109 187.008C295.312 186.852 295.464 186.677 295.562 186.484C295.661 186.292 295.711 186.099 295.711 185.906C295.711 185.661 295.661 185.471 295.562 185.336C295.469 185.206 295.328 185.141 295.141 185.141H291.648C291.586 185.208 291.513 185.341 291.43 185.539C291.352 185.737 291.312 185.977 291.312 186.258ZM303.422 174.398C303.688 174.388 303.982 174.375 304.305 174.359C304.586 174.349 304.914 174.339 305.289 174.328C305.669 174.318 306.086 174.312 306.539 174.312C307.352 174.312 308.07 174.422 308.695 174.641C309.32 174.854 309.846 175.18 310.273 175.617C310.706 176.055 311.031 176.604 311.25 177.266C311.474 177.927 311.586 178.703 311.586 179.594C311.586 180.484 311.466 181.268 311.227 181.945C310.987 182.617 310.643 183.18 310.195 183.633C309.753 184.086 309.214 184.427 308.578 184.656C307.943 184.885 307.227 185 306.43 185H303.422V174.398ZM306.695 183.633C307.18 183.633 307.612 183.531 307.992 183.328C308.372 183.12 308.695 182.836 308.961 182.477C309.227 182.112 309.43 181.688 309.57 181.203C309.711 180.714 309.781 180.188 309.781 179.625C309.781 178.974 309.711 178.404 309.57 177.914C309.43 177.419 309.227 177.005 308.961 176.672C308.695 176.339 308.372 176.089 307.992 175.922C307.612 175.755 307.18 175.672 306.695 175.672C306.43 175.672 306.201 175.674 306.008 175.68C305.815 175.685 305.659 175.69 305.539 175.695C305.398 175.706 305.281 175.714 305.188 175.719V183.633H306.695ZM312.594 181.008C312.594 180.32 312.685 179.714 312.867 179.188C313.055 178.661 313.315 178.221 313.648 177.867C313.987 177.513 314.388 177.245 314.852 177.062C315.32 176.88 315.836 176.789 316.398 176.789C316.977 176.789 317.497 176.875 317.961 177.047C318.424 177.214 318.818 177.469 319.141 177.812C319.464 178.156 319.711 178.586 319.883 179.102C320.055 179.612 320.141 180.211 320.141 180.898C320.141 181.586 320.052 182.195 319.875 182.727C319.703 183.258 319.453 183.703 319.125 184.062C318.802 184.422 318.409 184.695 317.945 184.883C317.487 185.065 316.971 185.156 316.398 185.156C315.805 185.156 315.271 185.07 314.797 184.898C314.328 184.721 313.93 184.461 313.602 184.117C313.279 183.768 313.029 183.336 312.852 182.82C312.68 182.299 312.594 181.695 312.594 181.008ZM316.398 183.867C316.742 183.867 317.039 183.794 317.289 183.648C317.544 183.497 317.753 183.292 317.914 183.031C318.076 182.766 318.195 182.453 318.273 182.094C318.352 181.729 318.391 181.331 318.391 180.898C318.391 179.966 318.232 179.255 317.914 178.766C317.596 178.276 317.091 178.031 316.398 178.031C316.049 178.031 315.745 178.107 315.484 178.258C315.229 178.404 315.016 178.609 314.844 178.875C314.677 179.141 314.552 179.456 314.469 179.82C314.385 180.185 314.344 180.581 314.344 181.008C314.344 181.951 314.51 182.664 314.844 183.148C315.182 183.628 315.701 183.867 316.398 183.867ZM321.352 180.992C321.352 180.305 321.435 179.701 321.602 179.18C321.768 178.654 322.01 178.214 322.328 177.859C322.651 177.505 323.044 177.24 323.508 177.062C323.977 176.88 324.51 176.789 325.109 176.789C325.328 176.789 325.549 176.81 325.773 176.852C325.997 176.893 326.201 176.938 326.383 176.984C326.591 177.042 326.794 177.107 326.992 177.18C326.977 177.326 326.953 177.477 326.922 177.633C326.896 177.768 326.857 177.917 326.805 178.078C326.758 178.234 326.698 178.388 326.625 178.539C326.484 178.482 326.333 178.427 326.172 178.375C326.031 178.333 325.87 178.294 325.688 178.258C325.505 178.221 325.312 178.203 325.109 178.203C324.76 178.203 324.456 178.268 324.195 178.398C323.94 178.523 323.727 178.708 323.555 178.953C323.383 179.193 323.255 179.484 323.172 179.828C323.089 180.172 323.047 180.557 323.047 180.984C323.047 181.922 323.227 182.633 323.586 183.117C323.951 183.602 324.484 183.844 325.188 183.844C325.396 183.844 325.594 183.828 325.781 183.797C325.969 183.76 326.138 183.721 326.289 183.68C326.461 183.628 326.622 183.57 326.773 183.508C326.826 183.622 326.872 183.747 326.914 183.883C326.951 184.003 326.982 184.141 327.008 184.297C327.039 184.448 327.052 184.612 327.047 184.789C326.854 184.857 326.654 184.919 326.445 184.977C326.268 185.023 326.068 185.065 325.844 185.102C325.625 185.138 325.406 185.156 325.188 185.156C323.964 185.156 323.018 184.807 322.352 184.109C321.685 183.411 321.352 182.372 321.352 180.992ZM328.312 177.016H329.984V182.234C329.984 182.792 330.094 183.206 330.312 183.477C330.531 183.742 330.898 183.875 331.414 183.875C331.664 183.875 331.891 183.854 332.094 183.812C332.297 183.771 332.474 183.721 332.625 183.664C332.797 183.602 332.951 183.529 333.086 183.445V177.016H334.766V183.711L335.461 184.508V185H333.953L333.336 184.383H333.039C332.997 184.414 332.919 184.471 332.805 184.555C332.69 184.638 332.542 184.727 332.359 184.82C332.182 184.909 331.977 184.987 331.742 185.055C331.508 185.122 331.253 185.156 330.977 185.156C330.539 185.156 330.154 185.091 329.82 184.961C329.487 184.831 329.208 184.646 328.984 184.406C328.76 184.161 328.591 183.87 328.477 183.531C328.367 183.188 328.312 182.805 328.312 182.383V177.016ZM336.57 177.812V176.93H338.008L338.68 177.609L338.891 177.484C338.917 177.458 338.992 177.409 339.117 177.336C339.247 177.258 339.409 177.18 339.602 177.102C339.794 177.018 340.01 176.945 340.25 176.883C340.495 176.82 340.742 176.789 340.992 176.789C341.456 176.789 341.836 176.857 342.133 176.992C342.435 177.128 342.698 177.323 342.922 177.578C343.005 177.51 343.128 177.432 343.289 177.344C343.451 177.25 343.635 177.161 343.844 177.078C344.057 176.995 344.286 176.927 344.531 176.875C344.776 176.818 345.023 176.789 345.273 176.789C345.711 176.789 346.109 176.854 346.469 176.984C346.833 177.115 347.143 177.302 347.398 177.547C347.659 177.786 347.859 178.076 348 178.414C348.146 178.753 348.219 179.133 348.219 179.555V185H346.539V179.719C346.539 179.156 346.388 178.74 346.086 178.469C345.784 178.198 345.372 178.062 344.852 178.062C344.544 178.062 344.255 178.089 343.984 178.141C343.719 178.188 343.521 178.24 343.391 178.297C343.464 178.464 343.521 178.641 343.562 178.828C343.604 179.016 343.625 179.206 343.625 179.398V185H341.945V179.562C341.945 179.057 341.841 178.682 341.633 178.438C341.424 178.188 341.068 178.062 340.562 178.062C340.323 178.062 340.099 178.086 339.891 178.133C339.682 178.174 339.503 178.224 339.352 178.281C339.174 178.344 339.01 178.414 338.859 178.492V185H337.188V178.445L336.57 177.812ZM349.945 181.086C349.945 180.336 350.036 179.69 350.219 179.148C350.401 178.607 350.656 178.161 350.984 177.812C351.312 177.464 351.703 177.208 352.156 177.047C352.615 176.88 353.117 176.797 353.664 176.797C354.169 176.797 354.62 176.883 355.016 177.055C355.417 177.221 355.755 177.458 356.031 177.766C356.307 178.073 356.518 178.44 356.664 178.867C356.81 179.294 356.883 179.766 356.883 180.281C356.883 180.458 356.875 180.622 356.859 180.773C356.844 180.924 356.826 181.055 356.805 181.164C356.784 181.294 356.76 181.411 356.734 181.516L351.609 181.492C351.615 181.956 351.664 182.341 351.758 182.648C351.852 182.951 351.99 183.19 352.172 183.367C352.359 183.544 352.594 183.669 352.875 183.742C353.156 183.81 353.49 183.844 353.875 183.844C354.203 183.844 354.497 183.823 354.758 183.781C355.018 183.74 355.24 183.69 355.422 183.633C355.63 183.57 355.818 183.497 355.984 183.414C356.062 183.596 356.122 183.766 356.164 183.922C356.211 184.078 356.245 184.214 356.266 184.328C356.286 184.464 356.302 184.583 356.312 184.688C356.141 184.776 355.932 184.854 355.688 184.922C355.479 184.979 355.224 185.031 354.922 185.078C354.62 185.13 354.271 185.156 353.875 185.156C353.25 185.156 352.693 185.086 352.203 184.945C351.719 184.805 351.307 184.576 350.969 184.258C350.635 183.935 350.38 183.516 350.203 183C350.031 182.479 349.945 181.841 349.945 181.086ZM355.211 180.352V180.086C355.211 179.758 355.169 179.469 355.086 179.219C355.008 178.964 354.898 178.75 354.758 178.578C354.617 178.406 354.451 178.276 354.258 178.188C354.065 178.099 353.857 178.055 353.633 178.055C353.305 178.055 353.016 178.099 352.766 178.188C352.516 178.271 352.305 178.406 352.133 178.594C351.966 178.776 351.841 179.013 351.758 179.305C351.674 179.596 351.633 179.945 351.633 180.352H355.211ZM358.688 178.445L358.07 177.812V176.93H359.508L360.18 177.539L360.406 177.492C360.443 177.461 360.526 177.406 360.656 177.328C360.792 177.25 360.956 177.172 361.148 177.094C361.346 177.016 361.57 176.948 361.82 176.891C362.07 176.828 362.333 176.797 362.609 176.797C363.047 176.797 363.435 176.862 363.773 176.992C364.117 177.122 364.406 177.31 364.641 177.555C364.875 177.794 365.052 178.083 365.172 178.422C365.292 178.76 365.352 179.141 365.352 179.562V185H363.672V179.727C363.672 179.159 363.552 178.742 363.312 178.477C363.078 178.206 362.703 178.07 362.188 178.07C361.932 178.07 361.695 178.094 361.477 178.141C361.258 178.182 361.065 178.232 360.898 178.289C360.706 178.352 360.526 178.424 360.359 178.508V185H358.688V178.445ZM367.891 178.227H366.867C366.862 178.169 366.857 178.107 366.852 178.039C366.846 177.982 366.841 177.914 366.836 177.836C366.836 177.758 366.836 177.672 366.836 177.578C366.836 177.484 366.839 177.398 366.844 177.32C366.849 177.237 366.857 177.135 366.867 177.016H367.891V175.773L368.789 174.758H369.484V177.016H371.695C371.706 177.068 371.714 177.13 371.719 177.203C371.729 177.276 371.734 177.346 371.734 177.414C371.734 177.534 371.721 177.643 371.695 177.742C371.674 177.841 371.651 177.927 371.625 178C371.594 178.083 371.557 178.159 371.516 178.227H369.484V182.758C369.484 183.138 369.547 183.414 369.672 183.586C369.802 183.758 370.008 183.844 370.289 183.844C370.409 183.844 370.534 183.831 370.664 183.805C370.799 183.773 370.927 183.737 371.047 183.695C371.182 183.648 371.32 183.596 371.461 183.539C371.565 183.674 371.646 183.807 371.703 183.938C371.766 184.068 371.81 184.185 371.836 184.289C371.867 184.409 371.885 184.521 371.891 184.625C371.745 184.724 371.581 184.812 371.398 184.891C371.237 184.958 371.044 185.018 370.82 185.07C370.596 185.128 370.339 185.156 370.047 185.156C369.641 185.156 369.299 185.104 369.023 185C368.753 184.901 368.531 184.753 368.359 184.555C368.193 184.352 368.073 184.102 368 183.805C367.927 183.503 367.891 183.156 367.891 182.766V178.227Z" fill="#234CAD"/>
<path d="M209 190C209 173.431 195.569 160 179 160" stroke="#234CAD" stroke-width="2" stroke-linecap="round" stroke-linejoin="round"/>
<circle cx="179" cy="190" r="23" fill="#F2F6FF"/>
<path d="M174.227 197.316C174.78 197.316 175.227 196.868 175.227 196.316C175.227 195.764 174.78 195.316 174.227 195.316V197.316ZM173.545 188.263V189.263H174.545V188.263H173.545ZM184.455 188.263H183.455V189.263H184.455V188.263ZM183.773 195.316C183.22 195.316 182.773 195.764 182.773 196.316C182.773 196.868 183.22 197.316 183.773 197.316V195.316ZM178 199C178 199.552 178.448 200 179 200C179.552 200 180 199.552 180 199H178ZM180 190.947C180 190.395 179.552 189.947 179 189.947C178.448 189.947 178 190.395 178 190.947H180ZM179.701 191.66C180.095 191.273 180.1 190.64 179.713 190.246C179.325 189.852 178.692 189.847 178.299 190.235L179.701 191.66ZM175.571 192.919C175.178 193.306 175.173 193.939 175.56 194.333C175.947 194.727 176.581 194.732 176.974 194.344L175.571 192.919ZM179.701 190.235C179.308 189.847 178.675 189.852 178.287 190.246C177.9 190.64 177.905 191.273 178.299 191.66L179.701 190.235ZM181.026 194.344C181.419 194.732 182.053 194.727 182.44 194.333C182.827 193.939 182.822 193.306 182.429 192.919L181.026 194.344ZM174.227 195.316H173.091V197.316H174.227V195.316ZM173.091 195.316C171.369 195.316 170 193.946 170 192.289H168C168 195.08 170.294 197.316 173.091 197.316V195.316ZM170 192.289C170 190.633 171.369 189.263 173.091 189.263V187.263C170.294 187.263 168 189.499 168 192.289H170ZM173.091 189.263H173.545V187.263H173.091V189.263ZM174.545 188.263V187.368H172.545V188.263H174.545ZM174.545 187.368C174.545 184.971 176.525 183 179 183V181C175.45 181 172.545 183.836 172.545 187.368H174.545ZM179 183C181.475 183 183.455 184.971 183.455 187.368H185.455C185.455 183.836 182.55 181 179 181V183ZM183.455 187.368V188.263H185.455V187.368H183.455ZM184.455 189.263H184.909V187.263H184.455V189.263ZM184.909 189.263C186.631 189.263 188 190.633 188 192.289H190C190 189.499 187.706 187.263 184.909 187.263V189.263ZM188 192.289C188 193.946 186.631 195.316 184.909 195.316V197.316C187.706 197.316 190 195.08 190 192.289H188ZM184.909 195.316H183.773V197.316H184.909V195.316ZM180 199V190.947H178V199H180ZM178.299 190.235L175.571 192.919L176.974 194.344L179.701 191.66L178.299 190.235ZM178.299 191.66L181.026 194.344L182.429 192.919L179.701 190.235L178.299 191.66Z" fill="#234CAD"/>
<defs>
<filter id="filter0_f_12263_459" x="0.085907" y="0.085907" width="621.828" height="371.828" filterUnits="userSpaceOnUse" color-interpolation-filters="sRGB">
<feFlood flood-opacity="0" result="BackgroundImageFix"/>
<feBlend mode="normal" in="SourceGraphic" in2="BackgroundImageFix" result="shape"/>
<feGaussianBlur stdDeviation="67.957" result="effect1_foregroundBlur_12263_459"/>
</filter>
<linearGradient id="paint0_linear_12263_459" x1="401.05" y1="272.598" x2="433.39" y2="108.231" gradientUnits="userSpaceOnUse">
<stop stop-color="#234CAD"/>
<stop offset="1" stop-color="#234CAD" stop-opacity="0.5"/>
</linearGradient>
</defs>
</svg>
