<svg width="402" height="432" viewBox="0 0 402 432" fill="none" xmlns="http://www.w3.org/2000/svg">
<g opacity="0.0962147" filter="url(#filter0_f_12263_389)">
<rect x="136" y="136" width="130" height="160" rx="25" fill="url(#paint0_linear_12263_389)"/>
</g>
<rect x="136" y="136" width="130" height="160" rx="25" fill="white"/>
<g clip-path="url(#clip0_12263_389)">
<path d="M173.582 260.352C174.008 260.352 174.388 260.445 174.722 260.632C175.055 260.819 175.315 261.082 175.502 261.422C175.688 261.762 175.782 262.152 175.782 262.592C175.782 263.025 175.685 263.415 175.492 263.762C175.298 264.109 175.028 264.379 174.682 264.572C174.335 264.765 173.945 264.862 173.512 264.862C172.658 264.862 171.998 264.565 171.532 263.972C171.072 263.379 170.842 262.532 170.842 261.432C170.842 260.645 170.948 259.969 171.162 259.402C171.375 258.835 171.685 258.402 172.092 258.102C172.498 257.802 172.982 257.652 173.542 257.652C173.922 257.652 174.298 257.725 174.672 257.872C175.052 258.019 175.375 258.219 175.642 258.472C175.755 258.579 175.812 258.692 175.812 258.812C175.812 258.912 175.785 258.995 175.732 259.062C175.678 259.129 175.615 259.162 175.542 259.162C175.448 259.162 175.352 259.125 175.252 259.052C174.672 258.579 174.108 258.342 173.562 258.342C172.968 258.342 172.505 258.612 172.172 259.152C171.838 259.692 171.672 260.449 171.672 261.422V261.552C171.825 261.179 172.072 260.885 172.412 260.672C172.758 260.459 173.148 260.352 173.582 260.352ZM173.472 264.172C173.925 264.172 174.288 264.029 174.562 263.742C174.835 263.455 174.972 263.075 174.972 262.602C174.972 262.129 174.832 261.752 174.552 261.472C174.278 261.185 173.915 261.042 173.462 261.042C173.002 261.042 172.625 261.189 172.332 261.482C172.045 261.769 171.902 262.142 171.902 262.602C171.902 263.069 172.045 263.449 172.332 263.742C172.625 264.029 173.005 264.172 173.472 264.172ZM177.408 263.702C177.575 263.702 177.708 263.769 177.808 263.902C177.915 264.029 177.968 264.222 177.968 264.482C177.968 265.009 177.798 265.452 177.458 265.812C177.391 265.885 177.315 265.922 177.228 265.922C177.161 265.922 177.101 265.895 177.048 265.842C176.995 265.795 176.968 265.739 176.968 265.672C176.968 265.599 176.995 265.535 177.048 265.482C177.221 265.302 177.331 265.079 177.378 264.812C177.231 264.799 177.108 264.745 177.008 264.652C176.915 264.552 176.868 264.425 176.868 264.272C176.868 264.105 176.918 263.969 177.018 263.862C177.125 263.755 177.255 263.702 177.408 263.702ZM181.563 264.862C180.756 264.862 180.143 264.555 179.723 263.942C179.303 263.329 179.093 262.435 179.093 261.262C179.093 260.082 179.303 259.185 179.723 258.572C180.143 257.959 180.756 257.652 181.563 257.652C182.37 257.652 182.983 257.959 183.403 258.572C183.823 259.179 184.033 260.072 184.033 261.252C184.033 262.432 183.823 263.329 183.403 263.942C182.983 264.555 182.37 264.862 181.563 264.862ZM181.563 264.172C182.123 264.172 182.536 263.935 182.803 263.462C183.07 262.989 183.203 262.252 183.203 261.252C183.203 260.245 183.07 259.509 182.803 259.042C182.543 258.575 182.13 258.342 181.563 258.342C181.003 258.342 180.59 258.579 180.323 259.052C180.056 259.519 179.923 260.252 179.923 261.252C179.923 262.252 180.056 262.989 180.323 263.462C180.59 263.935 181.003 264.172 181.563 264.172ZM189.639 264.092C189.759 264.092 189.853 264.122 189.919 264.182C189.986 264.242 190.019 264.325 190.019 264.432C190.019 264.665 189.893 264.782 189.639 264.782H185.719C185.606 264.782 185.513 264.749 185.439 264.682C185.366 264.609 185.329 264.522 185.329 264.422C185.329 264.295 185.376 264.185 185.469 264.092L187.879 261.442C188.213 261.069 188.453 260.735 188.599 260.442C188.753 260.142 188.829 259.842 188.829 259.542C188.829 259.155 188.716 258.859 188.489 258.652C188.269 258.445 187.956 258.342 187.549 258.342C187.229 258.342 186.923 258.402 186.629 258.522C186.336 258.635 186.043 258.812 185.749 259.052C185.649 259.132 185.556 259.172 185.469 259.172C185.396 259.172 185.333 259.139 185.279 259.072C185.226 258.999 185.199 258.912 185.199 258.812C185.199 258.672 185.253 258.559 185.359 258.472C185.633 258.219 185.966 258.019 186.359 257.872C186.753 257.725 187.156 257.652 187.569 257.652C188.203 257.652 188.706 257.819 189.079 258.152C189.459 258.485 189.649 258.935 189.649 259.502C189.649 259.909 189.556 260.299 189.369 260.672C189.189 261.045 188.889 261.462 188.469 261.922L186.469 264.092H189.639ZM191.115 265.142C191.089 265.229 191.045 265.295 190.985 265.342C190.925 265.389 190.859 265.412 190.785 265.412C190.692 265.412 190.609 265.379 190.535 265.312C190.462 265.245 190.425 265.162 190.425 265.062C190.425 265.022 190.435 264.975 190.455 264.922L192.815 257.542C192.842 257.455 192.885 257.389 192.945 257.342C193.005 257.295 193.072 257.272 193.145 257.272C193.239 257.272 193.322 257.305 193.395 257.372C193.469 257.439 193.505 257.525 193.505 257.632C193.505 257.652 193.499 257.695 193.485 257.762L191.115 265.142ZM200.995 257.732C201.115 257.732 201.205 257.765 201.265 257.832C201.332 257.892 201.365 257.972 201.365 258.072C201.365 258.165 201.335 258.269 201.275 258.382L197.955 264.632C197.875 264.779 197.759 264.852 197.605 264.852C197.499 264.852 197.402 264.815 197.315 264.742C197.235 264.669 197.195 264.579 197.195 264.472C197.195 264.399 197.219 264.325 197.265 264.252L200.385 258.422H196.935C196.815 258.422 196.722 258.392 196.655 258.332C196.595 258.272 196.565 258.189 196.565 258.082C196.565 257.969 196.595 257.882 196.655 257.822C196.722 257.762 196.815 257.732 196.935 257.732H200.995ZM203.092 263.702C203.258 263.702 203.392 263.769 203.492 263.902C203.598 264.029 203.652 264.222 203.652 264.482C203.652 265.009 203.482 265.452 203.142 265.812C203.075 265.885 202.998 265.922 202.912 265.922C202.845 265.922 202.785 265.895 202.732 265.842C202.678 265.795 202.652 265.739 202.652 265.672C202.652 265.599 202.678 265.535 202.732 265.482C202.905 265.302 203.015 265.079 203.062 264.812C202.915 264.799 202.792 264.745 202.692 264.652C202.598 264.552 202.552 264.425 202.552 264.272C202.552 264.105 202.602 263.969 202.702 263.862C202.808 263.755 202.938 263.702 203.092 263.702ZM207.027 257.652C207.88 257.652 208.537 257.949 208.997 258.542C209.463 259.135 209.697 259.982 209.697 261.082C209.697 261.869 209.59 262.545 209.377 263.112C209.163 263.679 208.853 264.112 208.447 264.412C208.04 264.712 207.557 264.862 206.997 264.862C206.617 264.862 206.237 264.789 205.857 264.642C205.483 264.495 205.163 264.295 204.897 264.042C204.783 263.935 204.727 263.822 204.727 263.702C204.727 263.602 204.753 263.519 204.807 263.452C204.86 263.385 204.923 263.352 204.997 263.352C205.09 263.352 205.187 263.389 205.287 263.462C205.867 263.935 206.43 264.172 206.977 264.172C207.57 264.172 208.033 263.902 208.367 263.362C208.7 262.822 208.867 262.065 208.867 261.092V260.962C208.713 261.335 208.463 261.629 208.117 261.842C207.777 262.055 207.39 262.162 206.957 262.162C206.53 262.162 206.15 262.069 205.817 261.882C205.483 261.695 205.223 261.432 205.037 261.092C204.85 260.752 204.757 260.362 204.757 259.922C204.757 259.489 204.853 259.099 205.047 258.752C205.24 258.405 205.51 258.135 205.857 257.942C206.203 257.749 206.593 257.652 207.027 257.652ZM207.077 261.472C207.537 261.472 207.91 261.329 208.197 261.042C208.49 260.749 208.637 260.372 208.637 259.912C208.637 259.445 208.49 259.069 208.197 258.782C207.91 258.489 207.533 258.342 207.067 258.342C206.613 258.342 206.25 258.485 205.977 258.772C205.703 259.059 205.567 259.439 205.567 259.912C205.567 260.385 205.703 260.765 205.977 261.052C206.257 261.332 206.623 261.472 207.077 261.472ZM214.463 261.162C214.876 261.289 215.196 261.505 215.423 261.812C215.656 262.119 215.773 262.485 215.773 262.912C215.773 263.519 215.553 263.995 215.113 264.342C214.673 264.682 214.049 264.852 213.243 264.852C212.436 264.852 211.813 264.682 211.373 264.342C210.933 263.995 210.713 263.519 210.713 262.912C210.713 262.479 210.829 262.109 211.063 261.802C211.296 261.495 211.619 261.282 212.033 261.162C211.679 261.029 211.399 260.819 211.193 260.532C210.986 260.245 210.883 259.909 210.883 259.522C210.883 258.949 211.089 258.495 211.503 258.162C211.923 257.822 212.503 257.652 213.243 257.652C213.983 257.652 214.559 257.822 214.973 258.162C215.393 258.495 215.603 258.949 215.603 259.522C215.603 259.909 215.499 260.249 215.293 260.542C215.086 260.829 214.809 261.035 214.463 261.162ZM211.693 259.582C211.693 259.995 211.823 260.312 212.083 260.532C212.349 260.752 212.736 260.862 213.243 260.862C213.749 260.862 214.133 260.752 214.393 260.532C214.659 260.312 214.793 259.995 214.793 259.582C214.793 259.189 214.659 258.882 214.393 258.662C214.133 258.442 213.749 258.332 213.243 258.332C212.736 258.332 212.349 258.442 212.083 258.662C211.823 258.882 211.693 259.189 211.693 259.582ZM213.243 264.172C214.389 264.172 214.963 263.735 214.963 262.862C214.963 261.989 214.389 261.552 213.243 261.552C212.096 261.552 211.523 261.989 211.523 262.862C211.523 263.735 212.096 264.172 213.243 264.172ZM224.927 261.112C225.027 261.112 225.107 261.142 225.167 261.202C225.234 261.262 225.267 261.345 225.267 261.452V263.942C225.267 264.102 225.24 264.222 225.187 264.302C225.14 264.382 225.05 264.445 224.917 264.492C224.65 264.605 224.327 264.695 223.947 264.762C223.567 264.829 223.187 264.862 222.807 264.862C222.107 264.862 221.504 264.719 220.997 264.432C220.49 264.145 220.1 263.732 219.827 263.192C219.56 262.652 219.427 262.005 219.427 261.252C219.427 260.512 219.56 259.872 219.827 259.332C220.094 258.792 220.477 258.379 220.977 258.092C221.477 257.799 222.064 257.652 222.737 257.652C223.204 257.652 223.637 257.725 224.037 257.872C224.437 258.012 224.774 258.215 225.047 258.482C225.16 258.595 225.217 258.712 225.217 258.832C225.217 258.925 225.19 259.009 225.137 259.082C225.084 259.149 225.017 259.182 224.937 259.182C224.857 259.182 224.764 259.142 224.657 259.062C224.31 258.795 223.997 258.612 223.717 258.512C223.437 258.405 223.114 258.352 222.747 258.352C221.954 258.352 221.344 258.602 220.917 259.102C220.497 259.602 220.287 260.319 220.287 261.252C220.287 262.205 220.5 262.932 220.927 263.432C221.36 263.925 221.994 264.172 222.827 264.172C223.447 264.172 224.01 264.079 224.517 263.892V261.752H223.057C222.944 261.752 222.854 261.722 222.787 261.662C222.72 261.602 222.687 261.525 222.687 261.432C222.687 261.332 222.72 261.255 222.787 261.202C222.854 261.142 222.944 261.112 223.057 261.112H224.927ZM230.923 261.162C231.33 261.269 231.643 261.469 231.863 261.762C232.09 262.055 232.203 262.422 232.203 262.862C232.203 263.482 232 263.959 231.593 264.292C231.187 264.619 230.61 264.782 229.863 264.782H227.343C227.217 264.782 227.113 264.745 227.033 264.672C226.96 264.599 226.923 264.502 226.923 264.382V258.132C226.923 258.012 226.96 257.915 227.033 257.842C227.113 257.769 227.217 257.732 227.343 257.732H229.753C230.48 257.732 231.043 257.892 231.443 258.212C231.843 258.532 232.043 258.985 232.043 259.572C232.043 259.952 231.943 260.279 231.743 260.552C231.55 260.825 231.277 261.029 230.923 261.162ZM227.733 260.862H229.633C230.16 260.862 230.557 260.755 230.823 260.542C231.097 260.329 231.233 260.019 231.233 259.612C231.233 258.812 230.7 258.412 229.633 258.412H227.733V260.862ZM229.783 264.102C230.337 264.102 230.743 264.002 231.003 263.802C231.27 263.595 231.403 263.275 231.403 262.842C231.403 261.975 230.863 261.542 229.783 261.542H227.733V264.102H229.783Z" fill="#234CAD"/>
</g>
<circle cx="201.292" cy="199.782" r="25" fill="#F2F6FF"/>
<path d="M196.519 207.098C197.071 207.098 197.519 206.65 197.519 206.098C197.519 205.545 197.071 205.098 196.519 205.098V207.098ZM195.837 198.045V199.045H196.837V198.045H195.837ZM206.746 198.045H205.746V199.045H206.746V198.045ZM206.064 205.098C205.512 205.098 205.064 205.545 205.064 206.098C205.064 206.65 205.512 207.098 206.064 207.098V205.098ZM200.292 208.782C200.292 209.334 200.739 209.782 201.292 209.782C201.844 209.782 202.292 209.334 202.292 208.782H200.292ZM202.292 200.729C202.292 200.177 201.844 199.729 201.292 199.729C200.739 199.729 200.292 200.177 200.292 200.729H202.292ZM201.993 201.442C202.387 201.055 202.392 200.422 202.004 200.028C201.617 199.634 200.984 199.629 200.59 200.017L201.993 201.442ZM197.863 202.701C197.469 203.088 197.464 203.721 197.852 204.115C198.239 204.509 198.872 204.514 199.266 204.126L197.863 202.701ZM201.993 200.017C201.599 199.629 200.966 199.634 200.579 200.028C200.192 200.422 200.197 201.055 200.59 201.442L201.993 200.017ZM203.317 204.126C203.711 204.514 204.344 204.509 204.732 204.115C205.119 203.721 205.114 203.088 204.72 202.701L203.317 204.126ZM196.519 205.098H195.383V207.098H196.519V205.098ZM195.383 205.098C193.66 205.098 192.292 203.728 192.292 202.071H190.292C190.292 204.862 192.586 207.098 195.383 207.098V205.098ZM192.292 202.071C192.292 200.415 193.66 199.045 195.383 199.045V197.045C192.586 197.045 190.292 199.281 190.292 202.071H192.292ZM195.383 199.045H195.837V197.045H195.383V199.045ZM196.837 198.045V197.15H194.837V198.045H196.837ZM196.837 197.15C196.837 194.753 198.816 192.782 201.292 192.782V190.782C197.742 190.782 194.837 193.618 194.837 197.15H196.837ZM201.292 192.782C203.767 192.782 205.746 194.753 205.746 197.15H207.746C207.746 193.618 204.841 190.782 201.292 190.782V192.782ZM205.746 197.15V198.045H207.746V197.15H205.746ZM206.746 199.045H207.201V197.045H206.746V199.045ZM207.201 199.045C208.923 199.045 210.292 200.415 210.292 202.071H212.292C212.292 199.281 209.997 197.045 207.201 197.045V199.045ZM210.292 202.071C210.292 203.728 208.923 205.098 207.201 205.098V207.098C209.997 207.098 212.292 204.862 212.292 202.071H210.292ZM207.201 205.098H206.064V207.098H207.201V205.098ZM202.292 208.782V200.729H200.292V208.782H202.292ZM200.59 200.017L197.863 202.701L199.266 204.126L201.993 201.442L200.59 200.017ZM200.59 201.442L203.317 204.126L204.72 202.701L201.993 200.017L200.59 201.442Z" fill="#234CAD"/>
<path d="M166.292 199.782C166.292 219.112 181.962 234.782 201.292 234.782C220.622 234.782 236.292 219.112 236.292 199.782C236.292 180.452 220.622 164.782 201.292 164.782" stroke="#234CAD" stroke-width="2" stroke-linecap="round" stroke-linejoin="round"/>
<defs>
<filter id="filter0_f_12263_389" x="0.085907" y="0.085907" width="401.828" height="431.828" filterUnits="userSpaceOnUse" color-interpolation-filters="sRGB">
<feFlood flood-opacity="0" result="BackgroundImageFix"/>
<feBlend mode="normal" in="SourceGraphic" in2="BackgroundImageFix" result="shape"/>
<feGaussianBlur stdDeviation="67.957" result="effect1_foregroundBlur_12263_389"/>
</filter>
<linearGradient id="paint0_linear_12263_389" x1="234.447" y1="354.556" x2="369.184" y2="195.587" gradientUnits="userSpaceOnUse">
<stop stop-color="#234CAD"/>
<stop offset="1" stop-color="#234CAD" stop-opacity="0.5"/>
</linearGradient>
<clipPath id="clip0_12263_389">
<rect width="63" height="13" fill="white" transform="translate(170.292 254.782)"/>
</clipPath>
</defs>
</svg>
