<svg width="810" height="447" viewBox="0 0 810 447" fill="none" xmlns="http://www.w3.org/2000/svg">
<g opacity="0.05" filter="url(#filter0_f_12505_178)">
<rect x="136" y="136" width="538" height="175" rx="25" fill="url(#paint0_linear_12505_178)"/>
</g>
<rect x="186" y="136" width="438" height="125" rx="25" fill="white"/>
<g clip-path="url(#clip0_12505_178)">
<path opacity="0.75" d="M558.904 181.172C559.048 181.172 559.16 181.208 559.24 181.28C559.32 181.352 559.36 181.452 559.36 181.58C559.36 181.716 559.32 181.82 559.24 181.892C559.168 181.964 559.056 182 558.904 182H554.932C554.78 182 554.664 181.964 554.584 181.892C554.512 181.82 554.476 181.716 554.476 181.58C554.476 181.452 554.516 181.352 554.596 181.28C554.676 181.208 554.788 181.172 554.932 181.172H556.42V174.74L555.112 175.592C555.048 175.632 554.984 175.652 554.92 175.652C554.808 175.652 554.708 175.6 554.62 175.496C554.54 175.392 554.5 175.28 554.5 175.16C554.5 174.992 554.564 174.872 554.692 174.8L556.516 173.612C556.652 173.524 556.792 173.48 556.936 173.48C557.072 173.48 557.184 173.524 557.272 173.612C557.36 173.7 557.404 173.824 557.404 173.984V181.172H558.904ZM561.575 177.38C561.383 177.38 561.223 177.32 561.095 177.2C560.967 177.072 560.903 176.908 560.903 176.708C560.903 176.508 560.967 176.348 561.095 176.228C561.223 176.1 561.383 176.036 561.575 176.036C561.759 176.036 561.911 176.1 562.031 176.228C562.159 176.348 562.223 176.508 562.223 176.708C562.223 176.908 562.159 177.072 562.031 177.2C561.911 177.32 561.759 177.38 561.575 177.38ZM561.575 182.06C561.383 182.06 561.223 182 561.095 181.88C560.967 181.752 560.903 181.588 560.903 181.388C560.903 181.188 560.967 181.024 561.095 180.896C561.223 180.768 561.383 180.704 561.575 180.704C561.759 180.704 561.911 180.768 562.031 180.896C562.159 181.024 562.223 181.188 562.223 181.388C562.223 181.588 562.159 181.752 562.031 181.88C561.911 182 561.759 182.06 561.575 182.06ZM566.538 182.096C565.57 182.096 564.834 181.728 564.33 180.992C563.826 180.256 563.574 179.184 563.574 177.776C563.574 176.36 563.826 175.284 564.33 174.548C564.834 173.812 565.57 173.444 566.538 173.444C567.506 173.444 568.242 173.812 568.746 174.548C569.25 175.276 569.502 176.348 569.502 177.764C569.502 179.18 569.25 180.256 568.746 180.992C568.242 181.728 567.506 182.096 566.538 182.096ZM566.538 181.268C567.21 181.268 567.706 180.984 568.026 180.416C568.346 179.848 568.506 178.964 568.506 177.764C568.506 176.556 568.346 175.672 568.026 175.112C567.714 174.552 567.218 174.272 566.538 174.272C565.866 174.272 565.37 174.556 565.05 175.124C564.73 175.684 564.57 176.564 564.57 177.764C564.57 178.964 564.73 179.848 565.05 180.416C565.37 180.984 565.866 181.268 566.538 181.268ZM574.861 177.656C575.373 177.8 575.761 178.048 576.025 178.4C576.297 178.752 576.433 179.188 576.433 179.708C576.433 180.444 576.185 181.024 575.689 181.448C575.193 181.872 574.517 182.084 573.661 182.084C573.141 182.084 572.641 181.996 572.161 181.82C571.689 181.644 571.289 181.404 570.961 181.1C570.833 180.98 570.769 180.844 570.769 180.692C570.769 180.572 570.801 180.472 570.865 180.392C570.929 180.312 571.005 180.272 571.093 180.272C571.205 180.272 571.317 180.316 571.429 180.404C571.797 180.7 572.157 180.916 572.509 181.052C572.861 181.188 573.241 181.256 573.649 181.256C574.241 181.256 574.689 181.12 574.993 180.848C575.305 180.576 575.461 180.184 575.461 179.672C575.461 178.64 574.813 178.124 573.517 178.124H572.881C572.753 178.124 572.649 178.084 572.569 178.004C572.497 177.916 572.461 177.816 572.461 177.704C572.461 177.592 572.497 177.496 572.569 177.416C572.649 177.336 572.753 177.296 572.881 177.296H573.325C573.949 177.296 574.429 177.16 574.765 176.888C575.101 176.608 575.269 176.208 575.269 175.688C575.269 175.232 575.133 174.884 574.861 174.644C574.589 174.396 574.205 174.272 573.709 174.272C573.333 174.272 572.969 174.344 572.617 174.488C572.265 174.624 571.913 174.836 571.561 175.124C571.449 175.212 571.337 175.256 571.225 175.256C571.137 175.256 571.061 175.216 570.997 175.136C570.933 175.056 570.901 174.956 570.901 174.836C570.901 174.684 570.965 174.548 571.093 174.428C571.421 174.124 571.817 173.884 572.281 173.708C572.753 173.532 573.237 173.444 573.733 173.444C574.501 173.444 575.113 173.64 575.569 174.032C576.025 174.424 576.249 174.952 576.241 175.616C576.233 176.096 576.105 176.516 575.857 176.876C575.617 177.236 575.285 177.496 574.861 177.656ZM581.958 182.06C581.806 182.06 581.686 182.016 581.598 181.928C581.51 181.832 581.466 181.708 581.466 181.556V174.02C581.466 173.876 581.51 173.76 581.598 173.672C581.694 173.584 581.818 173.54 581.97 173.54H584.814C585.702 173.54 586.39 173.756 586.878 174.188C587.374 174.62 587.622 175.232 587.622 176.024C587.622 176.816 587.374 177.432 586.878 177.872C586.382 178.312 585.694 178.532 584.814 178.532H582.45V181.556C582.45 181.708 582.406 181.832 582.318 181.928C582.23 182.016 582.11 182.06 581.958 182.06ZM584.718 177.716C586.006 177.716 586.65 177.152 586.65 176.024C586.65 174.912 586.006 174.356 584.718 174.356H582.45V177.716H584.718ZM596.712 173.48C596.864 173.48 596.98 173.528 597.06 173.624C597.148 173.712 597.192 173.832 597.192 173.984V181.58C597.192 181.724 597.152 181.84 597.072 181.928C596.992 182.016 596.88 182.06 596.736 182.06C596.592 182.06 596.484 182.016 596.412 181.928C596.34 181.84 596.304 181.724 596.304 181.58V175.448L593.7 180.44C593.588 180.672 593.424 180.788 593.208 180.788C593 180.788 592.836 180.672 592.716 180.44L590.1 175.508V181.58C590.1 181.724 590.06 181.84 589.98 181.928C589.908 182.016 589.8 182.06 589.656 182.06C589.512 182.06 589.4 182.016 589.32 181.928C589.24 181.84 589.2 181.724 589.2 181.58V173.984C589.2 173.832 589.244 173.712 589.332 173.624C589.42 173.528 589.54 173.48 589.692 173.48C589.892 173.48 590.052 173.596 590.172 173.828L593.22 179.672L596.232 173.828C596.296 173.7 596.364 173.612 596.436 173.564C596.516 173.508 596.608 173.48 596.712 173.48Z" fill="#234CAD"/>
<g clip-path="url(#clip1_12505_178)">
<path d="M312.92 218.075C312.73 218.075 312.58 218.02 312.47 217.91C312.36 217.79 312.305 217.635 312.305 217.445V207.98C312.305 207.79 312.36 207.64 312.47 207.53C312.58 207.41 312.73 207.35 312.92 207.35C313.11 207.35 313.26 207.41 313.37 207.53C313.48 207.64 313.535 207.79 313.535 207.98V217.445C313.535 217.635 313.48 217.79 313.37 217.91C313.26 218.02 313.11 218.075 312.92 218.075ZM323.52 210.515C324.38 210.515 325.03 210.76 325.47 211.25C325.91 211.73 326.13 212.45 326.13 213.41V217.475C326.13 217.665 326.075 217.815 325.965 217.925C325.855 218.025 325.71 218.075 325.53 218.075C325.34 218.075 325.19 218.025 325.08 217.925C324.97 217.815 324.915 217.665 324.915 217.475V213.44C324.915 212.79 324.78 212.31 324.51 212C324.25 211.69 323.83 211.535 323.25 211.535C322.58 211.535 322.045 211.74 321.645 212.15C321.245 212.56 321.045 213.115 321.045 213.815V217.475C321.045 217.665 320.99 217.815 320.88 217.925C320.78 218.025 320.635 218.075 320.445 218.075C320.255 218.075 320.105 218.025 319.995 217.925C319.885 217.815 319.83 217.665 319.83 217.475V207.935C319.83 207.765 319.885 207.625 319.995 207.515C320.115 207.405 320.265 207.35 320.445 207.35C320.635 207.35 320.78 207.405 320.88 207.515C320.99 207.615 321.045 207.755 321.045 207.935V211.865C321.285 211.425 321.62 211.09 322.05 210.86C322.48 210.63 322.97 210.515 323.52 210.515ZM331.34 210.515C333.17 210.515 334.085 211.475 334.085 213.395V217.475C334.085 217.655 334.03 217.8 333.92 217.91C333.82 218.02 333.68 218.075 333.5 218.075C333.32 218.075 333.175 218.02 333.065 217.91C332.955 217.8 332.9 217.655 332.9 217.475V216.755C332.71 217.185 332.42 217.52 332.03 217.76C331.64 217.99 331.19 218.105 330.68 218.105C330.21 218.105 329.775 218.01 329.375 217.82C328.985 217.63 328.675 217.365 328.445 217.025C328.215 216.685 328.1 216.31 328.1 215.9C328.1 215.35 328.24 214.925 328.52 214.625C328.8 214.315 329.26 214.095 329.9 213.965C330.54 213.825 331.43 213.755 332.57 213.755H332.9V213.26C332.9 212.66 332.775 212.22 332.525 211.94C332.285 211.66 331.89 211.52 331.34 211.52C330.66 211.52 329.97 211.705 329.27 212.075C329 212.245 328.81 212.33 328.7 212.33C328.58 212.33 328.48 212.285 328.4 212.195C328.32 212.105 328.28 211.99 328.28 211.85C328.28 211.71 328.32 211.59 328.4 211.49C328.49 211.38 328.63 211.27 328.82 211.16C329.17 210.96 329.565 210.805 330.005 210.695C330.455 210.575 330.9 210.515 331.34 210.515ZM330.845 217.145C331.445 217.145 331.935 216.945 332.315 216.545C332.705 216.135 332.9 215.61 332.9 214.97V214.535H332.63C331.75 214.535 331.08 214.575 330.62 214.655C330.16 214.725 329.83 214.85 329.63 215.03C329.44 215.2 329.345 215.455 329.345 215.795C329.345 216.185 329.485 216.51 329.765 216.77C330.055 217.02 330.415 217.145 330.845 217.145ZM341.575 210.92C341.685 210.68 341.86 210.56 342.1 210.56C342.25 210.56 342.385 210.61 342.505 210.71C342.625 210.81 342.685 210.935 342.685 211.085C342.685 211.175 342.665 211.255 342.625 211.325L339.7 217.625C339.64 217.755 339.55 217.86 339.43 217.94C339.31 218.01 339.18 218.045 339.04 218.045C338.91 218.045 338.785 218.01 338.665 217.94C338.545 217.86 338.45 217.755 338.38 217.625L335.47 211.325C335.43 211.255 335.41 211.18 335.41 211.1C335.41 210.95 335.475 210.82 335.605 210.71C335.745 210.6 335.895 210.545 336.055 210.545C336.155 210.545 336.25 210.575 336.34 210.635C336.44 210.695 336.515 210.78 336.565 210.89L339.07 216.515L341.575 210.92ZM349.582 216.305C349.692 216.305 349.787 216.35 349.867 216.44C349.947 216.53 349.987 216.645 349.987 216.785C349.987 217.035 349.812 217.265 349.462 217.475C349.102 217.685 348.722 217.845 348.322 217.955C347.922 218.055 347.532 218.105 347.152 218.105C346.022 218.105 345.127 217.77 344.467 217.1C343.817 216.43 343.492 215.505 343.492 214.325C343.492 213.575 343.637 212.915 343.927 212.345C344.217 211.765 344.622 211.315 345.142 210.995C345.672 210.675 346.272 210.515 346.942 210.515C347.892 210.515 348.647 210.825 349.207 211.445C349.767 212.065 350.047 212.905 350.047 213.965C350.047 214.165 350.007 214.31 349.927 214.4C349.847 214.49 349.717 214.535 349.537 214.535H344.707C344.797 216.255 345.612 217.115 347.152 217.115C347.542 217.115 347.877 217.065 348.157 216.965C348.437 216.855 348.737 216.71 349.057 216.53C349.317 216.38 349.492 216.305 349.582 216.305ZM346.957 211.46C346.317 211.46 345.802 211.66 345.412 212.06C345.032 212.46 344.807 213.025 344.737 213.755H348.982C348.962 213.015 348.777 212.45 348.427 212.06C348.077 211.66 347.587 211.46 346.957 211.46ZM358.164 218.105C357.704 218.105 357.264 218.05 356.844 217.94C356.434 217.83 356.069 217.675 355.749 217.475C355.569 217.355 355.439 217.245 355.359 217.145C355.289 217.035 355.254 216.905 355.254 216.755C355.254 216.625 355.289 216.52 355.359 216.44C355.439 216.35 355.539 216.305 355.659 216.305C355.779 216.305 355.954 216.38 356.184 216.53C356.484 216.71 356.779 216.855 357.069 216.965C357.369 217.065 357.739 217.115 358.179 217.115C358.719 217.115 359.139 217.02 359.439 216.83C359.739 216.64 359.889 216.365 359.889 216.005C359.889 215.785 359.834 215.61 359.724 215.48C359.614 215.34 359.424 215.22 359.154 215.12C358.884 215.01 358.489 214.9 357.969 214.79C357.089 214.6 356.459 214.345 356.079 214.025C355.699 213.705 355.509 213.27 355.509 212.72C355.509 212.29 355.629 211.91 355.869 211.58C356.109 211.25 356.439 210.99 356.859 210.8C357.289 210.61 357.774 210.515 358.314 210.515C358.704 210.515 359.079 210.57 359.439 210.68C359.809 210.78 360.134 210.925 360.414 211.115C360.754 211.355 360.924 211.605 360.924 211.865C360.924 211.995 360.884 212.105 360.804 212.195C360.724 212.285 360.629 212.33 360.519 212.33C360.399 212.33 360.219 212.245 359.979 212.075C359.699 211.895 359.434 211.755 359.184 211.655C358.934 211.555 358.624 211.505 358.254 211.505C357.784 211.505 357.404 211.61 357.114 211.82C356.834 212.03 356.694 212.31 356.694 212.66C356.694 212.88 356.744 213.06 356.844 213.2C356.954 213.33 357.129 213.45 357.369 213.56C357.619 213.66 357.974 213.76 358.434 213.86C359.114 214.01 359.639 214.175 360.009 214.355C360.389 214.535 360.659 214.755 360.819 215.015C360.979 215.275 361.059 215.605 361.059 216.005C361.059 216.635 360.794 217.145 360.264 217.535C359.734 217.915 359.034 218.105 358.164 218.105ZM368.566 216.305C368.676 216.305 368.771 216.35 368.851 216.44C368.931 216.53 368.971 216.645 368.971 216.785C368.971 217.035 368.796 217.265 368.446 217.475C368.086 217.685 367.706 217.845 367.306 217.955C366.906 218.055 366.516 218.105 366.136 218.105C365.006 218.105 364.111 217.77 363.451 217.1C362.801 216.43 362.476 215.505 362.476 214.325C362.476 213.575 362.621 212.915 362.911 212.345C363.201 211.765 363.606 211.315 364.126 210.995C364.656 210.675 365.256 210.515 365.926 210.515C366.876 210.515 367.631 210.825 368.191 211.445C368.751 212.065 369.031 212.905 369.031 213.965C369.031 214.165 368.991 214.31 368.911 214.4C368.831 214.49 368.701 214.535 368.521 214.535H363.691C363.781 216.255 364.596 217.115 366.136 217.115C366.526 217.115 366.861 217.065 367.141 216.965C367.421 216.855 367.721 216.71 368.041 216.53C368.301 216.38 368.476 216.305 368.566 216.305ZM365.941 211.46C365.301 211.46 364.786 211.66 364.396 212.06C364.016 212.46 363.791 213.025 363.721 213.755H367.966C367.946 213.015 367.761 212.45 367.411 212.06C367.061 211.66 366.571 211.46 365.941 211.46ZM376.476 216.305C376.586 216.305 376.681 216.35 376.761 216.44C376.841 216.53 376.881 216.645 376.881 216.785C376.881 217.035 376.706 217.265 376.356 217.475C375.996 217.685 375.616 217.845 375.216 217.955C374.816 218.055 374.426 218.105 374.046 218.105C372.916 218.105 372.021 217.77 371.361 217.1C370.711 216.43 370.386 215.505 370.386 214.325C370.386 213.575 370.531 212.915 370.821 212.345C371.111 211.765 371.516 211.315 372.036 210.995C372.566 210.675 373.166 210.515 373.836 210.515C374.786 210.515 375.541 210.825 376.101 211.445C376.661 212.065 376.941 212.905 376.941 213.965C376.941 214.165 376.901 214.31 376.821 214.4C376.741 214.49 376.611 214.535 376.431 214.535H371.601C371.691 216.255 372.506 217.115 374.046 217.115C374.436 217.115 374.771 217.065 375.051 216.965C375.331 216.855 375.631 216.71 375.951 216.53C376.211 216.38 376.386 216.305 376.476 216.305ZM373.851 211.46C373.211 211.46 372.696 211.66 372.306 212.06C371.926 212.46 371.701 213.025 371.631 213.755H375.876C375.856 213.015 375.671 212.45 375.321 212.06C374.971 211.66 374.481 211.46 373.851 211.46ZM382.406 210.515C384.156 210.515 385.031 211.48 385.031 213.41V217.475C385.031 217.665 384.976 217.815 384.866 217.925C384.766 218.025 384.621 218.075 384.431 218.075C384.241 218.075 384.091 218.025 383.981 217.925C383.871 217.815 383.816 217.665 383.816 217.475V213.485C383.816 212.805 383.681 212.31 383.411 212C383.151 211.69 382.731 211.535 382.151 211.535C381.481 211.535 380.946 211.74 380.546 212.15C380.146 212.56 379.946 213.115 379.946 213.815V217.475C379.946 217.665 379.891 217.815 379.781 217.925C379.681 218.025 379.536 218.075 379.346 218.075C379.156 218.075 379.006 218.025 378.896 217.925C378.786 217.815 378.731 217.665 378.731 217.475V211.145C378.731 210.965 378.786 210.82 378.896 210.71C379.006 210.6 379.156 210.545 379.346 210.545C379.526 210.545 379.666 210.6 379.766 210.71C379.876 210.82 379.931 210.96 379.931 211.13V211.895C380.171 211.445 380.506 211.105 380.936 210.875C381.366 210.635 381.856 210.515 382.406 210.515ZM394.499 217.115C394.849 217.145 395.024 217.305 395.024 217.595C395.024 217.765 394.959 217.895 394.829 217.985C394.709 218.065 394.524 218.095 394.274 218.075L393.869 218.045C393.069 217.985 392.479 217.745 392.099 217.325C391.719 216.905 391.529 216.27 391.529 215.42V211.655H390.524C390.354 211.655 390.219 211.615 390.119 211.535C390.029 211.445 389.984 211.33 389.984 211.19C389.984 211.04 390.029 210.92 390.119 210.83C390.219 210.74 390.354 210.695 390.524 210.695H391.529V209C391.529 208.81 391.584 208.665 391.694 208.565C391.804 208.455 391.954 208.4 392.144 208.4C392.324 208.4 392.469 208.455 392.579 208.565C392.689 208.665 392.744 208.81 392.744 209V210.695H394.409C394.569 210.695 394.694 210.74 394.784 210.83C394.884 210.92 394.934 211.04 394.934 211.19C394.934 211.33 394.884 211.445 394.784 211.535C394.694 211.615 394.569 211.655 394.409 211.655H392.744V215.48C392.744 216.03 392.854 216.43 393.074 216.68C393.304 216.92 393.644 217.055 394.094 217.085L394.499 217.115ZM399.912 210.515C400.772 210.515 401.422 210.76 401.862 211.25C402.302 211.73 402.522 212.45 402.522 213.41V217.475C402.522 217.665 402.467 217.815 402.357 217.925C402.247 218.025 402.102 218.075 401.922 218.075C401.732 218.075 401.582 218.025 401.472 217.925C401.362 217.815 401.307 217.665 401.307 217.475V213.44C401.307 212.79 401.172 212.31 400.902 212C400.642 211.69 400.222 211.535 399.642 211.535C398.972 211.535 398.437 211.74 398.037 212.15C397.637 212.56 397.437 213.115 397.437 213.815V217.475C397.437 217.665 397.382 217.815 397.272 217.925C397.172 218.025 397.027 218.075 396.837 218.075C396.647 218.075 396.497 218.025 396.387 217.925C396.277 217.815 396.222 217.665 396.222 217.475V207.935C396.222 207.765 396.277 207.625 396.387 207.515C396.507 207.405 396.657 207.35 396.837 207.35C397.027 207.35 397.172 207.405 397.272 207.515C397.382 207.615 397.437 207.755 397.437 207.935V211.865C397.677 211.425 398.012 211.09 398.442 210.86C398.872 210.63 399.362 210.515 399.912 210.515ZM407.732 210.515C409.562 210.515 410.477 211.475 410.477 213.395V217.475C410.477 217.655 410.422 217.8 410.312 217.91C410.212 218.02 410.072 218.075 409.892 218.075C409.712 218.075 409.567 218.02 409.457 217.91C409.347 217.8 409.292 217.655 409.292 217.475V216.755C409.102 217.185 408.812 217.52 408.422 217.76C408.032 217.99 407.582 218.105 407.072 218.105C406.602 218.105 406.167 218.01 405.767 217.82C405.377 217.63 405.067 217.365 404.837 217.025C404.607 216.685 404.492 216.31 404.492 215.9C404.492 215.35 404.632 214.925 404.912 214.625C405.192 214.315 405.652 214.095 406.292 213.965C406.932 213.825 407.822 213.755 408.962 213.755H409.292V213.26C409.292 212.66 409.167 212.22 408.917 211.94C408.677 211.66 408.282 211.52 407.732 211.52C407.052 211.52 406.362 211.705 405.662 212.075C405.392 212.245 405.202 212.33 405.092 212.33C404.972 212.33 404.872 212.285 404.792 212.195C404.712 212.105 404.672 211.99 404.672 211.85C404.672 211.71 404.712 211.59 404.792 211.49C404.882 211.38 405.022 211.27 405.212 211.16C405.562 210.96 405.957 210.805 406.397 210.695C406.847 210.575 407.292 210.515 407.732 210.515ZM407.237 217.145C407.837 217.145 408.327 216.945 408.707 216.545C409.097 216.135 409.292 215.61 409.292 214.97V214.535H409.022C408.142 214.535 407.472 214.575 407.012 214.655C406.552 214.725 406.222 214.85 406.022 215.03C405.832 215.2 405.737 215.455 405.737 215.795C405.737 216.185 405.877 216.51 406.157 216.77C406.447 217.02 406.807 217.145 407.237 217.145ZM416.076 217.115C416.426 217.145 416.601 217.305 416.601 217.595C416.601 217.765 416.536 217.895 416.406 217.985C416.286 218.065 416.101 218.095 415.851 218.075L415.446 218.045C414.646 217.985 414.056 217.745 413.676 217.325C413.296 216.905 413.106 216.27 413.106 215.42V211.655H412.101C411.931 211.655 411.796 211.615 411.696 211.535C411.606 211.445 411.561 211.33 411.561 211.19C411.561 211.04 411.606 210.92 411.696 210.83C411.796 210.74 411.931 210.695 412.101 210.695H413.106V209C413.106 208.81 413.161 208.665 413.271 208.565C413.381 208.455 413.531 208.4 413.721 208.4C413.901 208.4 414.046 208.455 414.156 208.565C414.266 208.665 414.321 208.81 414.321 209V210.695H415.986C416.146 210.695 416.271 210.74 416.361 210.83C416.461 210.92 416.511 211.04 416.511 211.19C416.511 211.33 416.461 211.445 416.361 211.535C416.271 211.615 416.146 211.655 415.986 211.655H414.321V215.48C414.321 216.03 414.431 216.43 414.651 216.68C414.881 216.92 415.221 217.055 415.671 217.085L416.076 217.115ZM426.931 210.92C427.041 210.68 427.216 210.56 427.456 210.56C427.606 210.56 427.741 210.61 427.861 210.71C427.981 210.81 428.041 210.935 428.041 211.085C428.041 211.175 428.021 211.255 427.981 211.325L423.766 220.415C423.716 220.525 423.641 220.61 423.541 220.67C423.451 220.73 423.356 220.76 423.256 220.76C423.106 220.76 422.971 220.71 422.851 220.61C422.741 220.52 422.686 220.4 422.686 220.25C422.686 220.17 422.706 220.09 422.746 220.01L423.796 217.745L420.826 211.325C420.786 211.255 420.766 211.18 420.766 211.1C420.766 210.95 420.831 210.82 420.961 210.71C421.101 210.6 421.251 210.545 421.411 210.545C421.511 210.545 421.606 210.575 421.696 210.635C421.796 210.695 421.871 210.78 421.921 210.89L424.426 216.515L426.931 210.92ZM432.313 218.105C431.623 218.105 431.013 217.95 430.483 217.64C429.963 217.33 429.558 216.89 429.268 216.32C428.988 215.74 428.848 215.07 428.848 214.31C428.848 213.55 428.988 212.885 429.268 212.315C429.558 211.735 429.963 211.29 430.483 210.98C431.013 210.67 431.623 210.515 432.313 210.515C433.003 210.515 433.613 210.67 434.143 210.98C434.673 211.29 435.078 211.735 435.358 212.315C435.648 212.885 435.793 213.55 435.793 214.31C435.793 215.07 435.648 215.74 435.358 216.32C435.078 216.89 434.673 217.33 434.143 217.64C433.613 217.95 433.003 218.105 432.313 218.105ZM432.313 217.1C433.033 217.1 433.583 216.865 433.963 216.395C434.353 215.915 434.548 215.22 434.548 214.31C434.548 213.42 434.353 212.735 433.963 212.255C433.573 211.765 433.023 211.52 432.313 211.52C431.603 211.52 431.053 211.765 430.663 212.255C430.273 212.735 430.078 213.42 430.078 214.31C430.078 215.21 430.268 215.9 430.648 216.38C431.038 216.86 431.593 217.1 432.313 217.1ZM443.154 210.545C443.344 210.545 443.489 210.6 443.589 210.71C443.699 210.82 443.754 210.965 443.754 211.145V217.49C443.754 217.66 443.699 217.8 443.589 217.91C443.489 218.02 443.344 218.075 443.154 218.075C442.974 218.075 442.829 218.025 442.719 217.925C442.619 217.815 442.569 217.675 442.569 217.505V216.755C442.339 217.195 442.014 217.53 441.594 217.76C441.184 217.99 440.719 218.105 440.199 218.105C439.329 218.105 438.674 217.865 438.234 217.385C437.794 216.895 437.574 216.175 437.574 215.225V211.145C437.574 210.965 437.629 210.82 437.739 210.71C437.849 210.6 437.999 210.545 438.189 210.545C438.379 210.545 438.524 210.6 438.624 210.71C438.734 210.82 438.789 210.965 438.789 211.145V215.195C438.789 215.845 438.919 216.325 439.179 216.635C439.439 216.935 439.849 217.085 440.409 217.085C441.049 217.085 441.564 216.88 441.954 216.47C442.344 216.05 442.539 215.5 442.539 214.82V211.145C442.539 210.965 442.594 210.82 442.704 210.71C442.814 210.6 442.964 210.545 443.154 210.545ZM452.864 210.515C454.694 210.515 455.609 211.475 455.609 213.395V217.475C455.609 217.655 455.554 217.8 455.444 217.91C455.344 218.02 455.204 218.075 455.024 218.075C454.844 218.075 454.699 218.02 454.589 217.91C454.479 217.8 454.424 217.655 454.424 217.475V216.755C454.234 217.185 453.944 217.52 453.554 217.76C453.164 217.99 452.714 218.105 452.204 218.105C451.734 218.105 451.299 218.01 450.899 217.82C450.509 217.63 450.199 217.365 449.969 217.025C449.739 216.685 449.624 216.31 449.624 215.9C449.624 215.35 449.764 214.925 450.044 214.625C450.324 214.315 450.784 214.095 451.424 213.965C452.064 213.825 452.954 213.755 454.094 213.755H454.424V213.26C454.424 212.66 454.299 212.22 454.049 211.94C453.809 211.66 453.414 211.52 452.864 211.52C452.184 211.52 451.494 211.705 450.794 212.075C450.524 212.245 450.334 212.33 450.224 212.33C450.104 212.33 450.004 212.285 449.924 212.195C449.844 212.105 449.804 211.99 449.804 211.85C449.804 211.71 449.844 211.59 449.924 211.49C450.014 211.38 450.154 211.27 450.344 211.16C450.694 210.96 451.089 210.805 451.529 210.695C451.979 210.575 452.424 210.515 452.864 210.515ZM452.369 217.145C452.969 217.145 453.459 216.945 453.839 216.545C454.229 216.135 454.424 215.61 454.424 214.97V214.535H454.154C453.274 214.535 452.604 214.575 452.144 214.655C451.684 214.725 451.354 214.85 451.154 215.03C450.964 215.2 450.869 215.455 450.869 215.795C450.869 216.185 451.009 216.51 451.289 216.77C451.579 217.02 451.939 217.145 452.369 217.145ZM461.448 210.545C461.868 210.515 462.078 210.685 462.078 211.055C462.078 211.215 462.033 211.345 461.943 211.445C461.853 211.535 461.698 211.59 461.478 211.61L461.028 211.655C460.358 211.715 459.858 211.955 459.528 212.375C459.208 212.785 459.048 213.27 459.048 213.83V217.475C459.048 217.675 458.993 217.825 458.883 217.925C458.773 218.025 458.628 218.075 458.448 218.075C458.268 218.075 458.118 218.025 457.998 217.925C457.888 217.815 457.833 217.665 457.833 217.475V211.145C457.833 210.955 457.893 210.81 458.013 210.71C458.133 210.6 458.278 210.545 458.448 210.545C458.608 210.545 458.743 210.6 458.853 210.71C458.963 210.81 459.018 210.95 459.018 211.13V211.97C459.228 211.53 459.523 211.195 459.903 210.965C460.293 210.735 460.738 210.6 461.238 210.56L461.448 210.545ZM468.63 216.305C468.74 216.305 468.835 216.35 468.915 216.44C468.995 216.53 469.035 216.645 469.035 216.785C469.035 217.035 468.86 217.265 468.51 217.475C468.15 217.685 467.77 217.845 467.37 217.955C466.97 218.055 466.58 218.105 466.2 218.105C465.07 218.105 464.175 217.77 463.515 217.1C462.865 216.43 462.54 215.505 462.54 214.325C462.54 213.575 462.685 212.915 462.975 212.345C463.265 211.765 463.67 211.315 464.19 210.995C464.72 210.675 465.32 210.515 465.99 210.515C466.94 210.515 467.695 210.825 468.255 211.445C468.815 212.065 469.095 212.905 469.095 213.965C469.095 214.165 469.055 214.31 468.975 214.4C468.895 214.49 468.765 214.535 468.585 214.535H463.755C463.845 216.255 464.66 217.115 466.2 217.115C466.59 217.115 466.925 217.065 467.205 216.965C467.485 216.855 467.785 216.71 468.105 216.53C468.365 216.38 468.54 216.305 468.63 216.305ZM466.005 211.46C465.365 211.46 464.85 211.66 464.46 212.06C464.08 212.46 463.855 213.025 463.785 213.755H468.03C468.01 213.015 467.825 212.45 467.475 212.06C467.125 211.66 466.635 211.46 466.005 211.46ZM477.737 210.515C479.567 210.515 480.482 211.475 480.482 213.395V217.475C480.482 217.655 480.427 217.8 480.317 217.91C480.217 218.02 480.077 218.075 479.897 218.075C479.717 218.075 479.572 218.02 479.462 217.91C479.352 217.8 479.297 217.655 479.297 217.475V216.755C479.107 217.185 478.817 217.52 478.427 217.76C478.037 217.99 477.587 218.105 477.077 218.105C476.607 218.105 476.172 218.01 475.772 217.82C475.382 217.63 475.072 217.365 474.842 217.025C474.612 216.685 474.497 216.31 474.497 215.9C474.497 215.35 474.637 214.925 474.917 214.625C475.197 214.315 475.657 214.095 476.297 213.965C476.937 213.825 477.827 213.755 478.967 213.755H479.297V213.26C479.297 212.66 479.172 212.22 478.922 211.94C478.682 211.66 478.287 211.52 477.737 211.52C477.057 211.52 476.367 211.705 475.667 212.075C475.397 212.245 475.207 212.33 475.097 212.33C474.977 212.33 474.877 212.285 474.797 212.195C474.717 212.105 474.677 211.99 474.677 211.85C474.677 211.71 474.717 211.59 474.797 211.49C474.887 211.38 475.027 211.27 475.217 211.16C475.567 210.96 475.962 210.805 476.402 210.695C476.852 210.575 477.297 210.515 477.737 210.515ZM477.242 217.145C477.842 217.145 478.332 216.945 478.712 216.545C479.102 216.135 479.297 215.61 479.297 214.97V214.535H479.027C478.147 214.535 477.477 214.575 477.017 214.655C476.557 214.725 476.227 214.85 476.027 215.03C475.837 215.2 475.742 215.455 475.742 215.795C475.742 216.185 475.882 216.51 476.162 216.77C476.452 217.02 476.812 217.145 477.242 217.145ZM487.971 210.92C488.081 210.68 488.256 210.56 488.496 210.56C488.646 210.56 488.781 210.61 488.901 210.71C489.021 210.81 489.081 210.935 489.081 211.085C489.081 211.175 489.061 211.255 489.021 211.325L486.096 217.625C486.036 217.755 485.946 217.86 485.826 217.94C485.706 218.01 485.576 218.045 485.436 218.045C485.306 218.045 485.181 218.01 485.061 217.94C484.941 217.86 484.846 217.755 484.776 217.625L481.866 211.325C481.826 211.255 481.806 211.18 481.806 211.1C481.806 210.95 481.871 210.82 482.001 210.71C482.141 210.6 482.291 210.545 482.451 210.545C482.551 210.545 482.646 210.575 482.736 210.635C482.836 210.695 482.911 210.78 482.961 210.89L485.466 216.515L487.971 210.92ZM493.264 210.515C495.094 210.515 496.009 211.475 496.009 213.395V217.475C496.009 217.655 495.954 217.8 495.844 217.91C495.744 218.02 495.604 218.075 495.424 218.075C495.244 218.075 495.099 218.02 494.989 217.91C494.879 217.8 494.824 217.655 494.824 217.475V216.755C494.634 217.185 494.344 217.52 493.954 217.76C493.564 217.99 493.114 218.105 492.604 218.105C492.134 218.105 491.699 218.01 491.299 217.82C490.909 217.63 490.599 217.365 490.369 217.025C490.139 216.685 490.024 216.31 490.024 215.9C490.024 215.35 490.164 214.925 490.444 214.625C490.724 214.315 491.184 214.095 491.824 213.965C492.464 213.825 493.354 213.755 494.494 213.755H494.824V213.26C494.824 212.66 494.699 212.22 494.449 211.94C494.209 211.66 493.814 211.52 493.264 211.52C492.584 211.52 491.894 211.705 491.194 212.075C490.924 212.245 490.734 212.33 490.624 212.33C490.504 212.33 490.404 212.285 490.324 212.195C490.244 212.105 490.204 211.99 490.204 211.85C490.204 211.71 490.244 211.59 490.324 211.49C490.414 211.38 490.554 211.27 490.744 211.16C491.094 210.96 491.489 210.805 491.929 210.695C492.379 210.575 492.824 210.515 493.264 210.515ZM492.769 217.145C493.369 217.145 493.859 216.945 494.239 216.545C494.629 216.135 494.824 215.61 494.824 214.97V214.535H494.554C493.674 214.535 493.004 214.575 492.544 214.655C492.084 214.725 491.754 214.85 491.554 215.03C491.364 215.2 491.269 215.455 491.269 215.795C491.269 216.185 491.409 216.51 491.689 216.77C491.979 217.02 492.339 217.145 492.769 217.145ZM498.848 218.075C498.668 218.075 498.518 218.025 498.398 217.925C498.288 217.815 498.233 217.665 498.233 217.475V211.145C498.233 210.955 498.288 210.81 498.398 210.71C498.518 210.6 498.668 210.545 498.848 210.545C499.028 210.545 499.173 210.6 499.283 210.71C499.393 210.81 499.448 210.955 499.448 211.145V217.475C499.448 217.675 499.393 217.825 499.283 217.925C499.173 218.025 499.028 218.075 498.848 218.075ZM498.848 208.97C498.608 208.97 498.413 208.9 498.263 208.76C498.113 208.62 498.038 208.435 498.038 208.205C498.038 207.985 498.113 207.805 498.263 207.665C498.413 207.525 498.608 207.455 498.848 207.455C499.088 207.455 499.283 207.525 499.433 207.665C499.583 207.805 499.658 207.985 499.658 208.205C499.658 208.435 499.583 208.62 499.433 208.76C499.283 208.9 499.088 208.97 498.848 208.97ZM502.335 218.075C502.155 218.075 502.005 218.025 501.885 217.925C501.775 217.815 501.72 217.665 501.72 217.475V207.95C501.72 207.76 501.775 207.615 501.885 207.515C502.005 207.405 502.155 207.35 502.335 207.35C502.505 207.35 502.645 207.405 502.755 207.515C502.875 207.615 502.935 207.76 502.935 207.95V217.475C502.935 217.665 502.875 217.815 502.755 217.925C502.645 218.025 502.505 218.075 502.335 218.075ZM508.191 210.515C510.021 210.515 510.936 211.475 510.936 213.395V217.475C510.936 217.655 510.881 217.8 510.771 217.91C510.671 218.02 510.531 218.075 510.351 218.075C510.171 218.075 510.026 218.02 509.916 217.91C509.806 217.8 509.751 217.655 509.751 217.475V216.755C509.561 217.185 509.271 217.52 508.881 217.76C508.491 217.99 508.041 218.105 507.531 218.105C507.061 218.105 506.626 218.01 506.226 217.82C505.836 217.63 505.526 217.365 505.296 217.025C505.066 216.685 504.951 216.31 504.951 215.9C504.951 215.35 505.091 214.925 505.371 214.625C505.651 214.315 506.111 214.095 506.751 213.965C507.391 213.825 508.281 213.755 509.421 213.755H509.751V213.26C509.751 212.66 509.626 212.22 509.376 211.94C509.136 211.66 508.741 211.52 508.191 211.52C507.511 211.52 506.821 211.705 506.121 212.075C505.851 212.245 505.661 212.33 505.551 212.33C505.431 212.33 505.331 212.285 505.251 212.195C505.171 212.105 505.131 211.99 505.131 211.85C505.131 211.71 505.171 211.59 505.251 211.49C505.341 211.38 505.481 211.27 505.671 211.16C506.021 210.96 506.416 210.805 506.856 210.695C507.306 210.575 507.751 210.515 508.191 210.515ZM507.696 217.145C508.296 217.145 508.786 216.945 509.166 216.545C509.556 216.135 509.751 215.61 509.751 214.97V214.535H509.481C508.601 214.535 507.931 214.575 507.471 214.655C507.011 214.725 506.681 214.85 506.481 215.03C506.291 215.2 506.196 215.455 506.196 215.795C506.196 216.185 506.336 216.51 506.616 216.77C506.906 217.02 507.266 217.145 507.696 217.145ZM516.835 210.515C517.475 210.515 518.04 210.67 518.53 210.98C519.02 211.29 519.4 211.73 519.67 212.3C519.94 212.87 520.075 213.53 520.075 214.28C520.075 215.04 519.94 215.71 519.67 216.29C519.4 216.86 519.02 217.305 518.53 217.625C518.04 217.945 517.475 218.105 516.835 218.105C516.265 218.105 515.765 217.98 515.335 217.73C514.915 217.48 514.595 217.125 514.375 216.665V217.475C514.375 217.655 514.32 217.8 514.21 217.91C514.11 218.02 513.965 218.075 513.775 218.075C513.585 218.075 513.435 218.02 513.325 217.91C513.215 217.8 513.16 217.655 513.16 217.475V207.935C513.16 207.765 513.215 207.625 513.325 207.515C513.435 207.405 513.585 207.35 513.775 207.35C513.965 207.35 514.11 207.405 514.21 207.515C514.32 207.615 514.375 207.755 514.375 207.935V211.955C514.595 211.495 514.915 211.14 515.335 210.89C515.765 210.64 516.265 210.515 516.835 210.515ZM516.595 217.1C517.305 217.1 517.855 216.855 518.245 216.365C518.635 215.865 518.83 215.17 518.83 214.28C518.83 213.41 518.635 212.735 518.245 212.255C517.855 211.775 517.305 211.535 516.595 211.535C515.885 211.535 515.335 211.775 514.945 212.255C514.565 212.735 514.375 213.42 514.375 214.31C514.375 215.2 514.565 215.89 514.945 216.38C515.335 216.86 515.885 217.1 516.595 217.1ZM522.506 218.075C522.326 218.075 522.176 218.025 522.056 217.925C521.946 217.815 521.891 217.665 521.891 217.475V207.95C521.891 207.76 521.946 207.615 522.056 207.515C522.176 207.405 522.326 207.35 522.506 207.35C522.676 207.35 522.816 207.405 522.926 207.515C523.046 207.615 523.106 207.76 523.106 207.95V217.475C523.106 217.665 523.046 217.815 522.926 217.925C522.816 218.025 522.676 218.075 522.506 218.075ZM525.977 218.075C525.737 218.075 525.537 218 525.377 217.85C525.217 217.69 525.137 217.485 525.137 217.235C525.137 216.985 525.217 216.78 525.377 216.62C525.537 216.46 525.737 216.38 525.977 216.38C526.207 216.38 526.397 216.46 526.547 216.62C526.707 216.78 526.787 216.985 526.787 217.235C526.787 217.485 526.707 217.69 526.547 217.85C526.397 218 526.207 218.075 525.977 218.075ZM529.412 218.075C529.172 218.075 528.972 218 528.812 217.85C528.652 217.69 528.572 217.485 528.572 217.235C528.572 216.985 528.652 216.78 528.812 216.62C528.972 216.46 529.172 216.38 529.412 216.38C529.642 216.38 529.832 216.46 529.982 216.62C530.142 216.78 530.222 216.985 530.222 217.235C530.222 217.485 530.142 217.69 529.982 217.85C529.832 218 529.642 218.075 529.412 218.075ZM532.847 218.075C532.607 218.075 532.407 218 532.247 217.85C532.087 217.69 532.007 217.485 532.007 217.235C532.007 216.985 532.087 216.78 532.247 216.62C532.407 216.46 532.607 216.38 532.847 216.38C533.077 216.38 533.267 216.46 533.417 216.62C533.577 216.78 533.657 216.985 533.657 217.235C533.657 217.485 533.577 217.69 533.417 217.85C533.267 218 533.077 218.075 532.847 218.075Z" fill="#234CAD"/>
<path d="M325.3 188.46C325.38 188.633 325.42 188.807 325.42 188.98C325.42 189.287 325.293 189.547 325.04 189.76C324.8 189.973 324.52 190.08 324.2 190.08C323.987 190.08 323.787 190.027 323.6 189.92C323.413 189.8 323.267 189.62 323.16 189.38L321.96 186.7H314.92L313.72 189.38C313.613 189.62 313.467 189.8 313.28 189.92C313.093 190.027 312.887 190.08 312.66 190.08C312.353 190.08 312.073 189.973 311.82 189.76C311.567 189.547 311.44 189.287 311.44 188.98C311.44 188.807 311.48 188.633 311.56 188.46L317.08 176.6C317.2 176.333 317.38 176.133 317.62 176C317.873 175.853 318.14 175.78 318.42 175.78C318.7 175.78 318.96 175.853 319.2 176C319.453 176.133 319.64 176.333 319.76 176.6L325.3 188.46ZM315.8 184.7H321.08L318.44 178.76L315.8 184.7ZM332.824 179.98C333.997 179.98 334.87 180.313 335.444 180.98C336.017 181.647 336.304 182.653 336.304 184V188.92C336.304 189.293 336.19 189.587 335.964 189.8C335.75 190.013 335.45 190.12 335.064 190.12C334.677 190.12 334.37 190.013 334.144 189.8C333.917 189.587 333.804 189.293 333.804 188.92V184.14C333.804 183.38 333.657 182.827 333.364 182.48C333.084 182.133 332.637 181.96 332.024 181.96C331.304 181.96 330.724 182.187 330.284 182.64C329.857 183.093 329.644 183.7 329.644 184.46V188.92C329.644 189.293 329.53 189.587 329.304 189.8C329.077 190.013 328.77 190.12 328.384 190.12C327.997 190.12 327.69 190.013 327.464 189.8C327.25 189.587 327.144 189.293 327.144 188.92V181.18C327.144 180.833 327.257 180.553 327.484 180.34C327.71 180.127 328.017 180.02 328.404 180.02C328.75 180.02 329.03 180.127 329.244 180.34C329.47 180.54 329.584 180.807 329.584 181.14V181.68C329.917 181.133 330.364 180.713 330.924 180.42C331.484 180.127 332.117 179.98 332.824 179.98ZM347.003 175.8C347.376 175.8 347.683 175.907 347.923 176.12C348.163 176.333 348.283 176.613 348.283 176.96V188.92C348.283 189.28 348.17 189.567 347.943 189.78C347.716 189.993 347.416 190.1 347.043 190.1C346.67 190.1 346.37 189.993 346.143 189.78C345.916 189.567 345.803 189.28 345.803 188.92V188.42C345.51 188.967 345.083 189.393 344.523 189.7C343.976 190.007 343.35 190.16 342.643 190.16C341.803 190.16 341.05 189.947 340.383 189.52C339.73 189.093 339.216 188.493 338.843 187.72C338.483 186.933 338.303 186.033 338.303 185.02C338.303 184.007 338.483 183.12 338.843 182.36C339.216 181.6 339.73 181.013 340.383 180.6C341.036 180.187 341.79 179.98 342.643 179.98C343.35 179.98 343.976 180.127 344.523 180.42C345.07 180.713 345.49 181.127 345.783 181.66V176.92C345.783 176.587 345.89 176.32 346.103 176.12C346.33 175.907 346.63 175.8 347.003 175.8ZM343.303 188.22C344.103 188.22 344.716 187.947 345.143 187.4C345.583 186.853 345.803 186.073 345.803 185.06C345.803 184.047 345.583 183.273 345.143 182.74C344.716 182.193 344.11 181.92 343.323 181.92C342.523 181.92 341.903 182.187 341.463 182.72C341.023 183.253 340.803 184.02 340.803 185.02C340.803 186.033 341.023 186.82 341.463 187.38C341.903 187.94 342.516 188.22 343.303 188.22ZM356.315 180.02C356.661 179.993 356.935 180.067 357.135 180.24C357.335 180.413 357.435 180.673 357.435 181.02C357.435 181.38 357.348 181.647 357.175 181.82C357.001 181.993 356.688 182.107 356.235 182.16L355.635 182.22C354.848 182.3 354.268 182.567 353.895 183.02C353.535 183.473 353.355 184.04 353.355 184.72V188.92C353.355 189.307 353.235 189.607 352.995 189.82C352.755 190.02 352.455 190.12 352.095 190.12C351.735 190.12 351.435 190.02 351.195 189.82C350.968 189.607 350.855 189.307 350.855 188.92V181.18C350.855 180.807 350.968 180.52 351.195 180.32C351.435 180.12 351.728 180.02 352.075 180.02C352.421 180.02 352.701 180.12 352.915 180.32C353.128 180.507 353.235 180.78 353.235 181.14V181.94C353.488 181.353 353.861 180.9 354.355 180.58C354.861 180.26 355.421 180.08 356.035 180.04L356.315 180.02ZM366.056 187.32C366.282 187.32 366.462 187.407 366.596 187.58C366.742 187.753 366.816 187.987 366.816 188.28C366.816 188.693 366.569 189.04 366.076 189.32C365.622 189.573 365.109 189.78 364.536 189.94C363.962 190.087 363.416 190.16 362.896 190.16C361.322 190.16 360.076 189.707 359.156 188.8C358.236 187.893 357.776 186.653 357.776 185.08C357.776 184.08 357.976 183.193 358.376 182.42C358.776 181.647 359.336 181.047 360.056 180.62C360.789 180.193 361.616 179.98 362.536 179.98C363.416 179.98 364.182 180.173 364.836 180.56C365.489 180.947 365.996 181.493 366.356 182.2C366.716 182.907 366.896 183.74 366.896 184.7C366.896 185.273 366.642 185.56 366.136 185.56H360.236C360.316 186.48 360.576 187.16 361.016 187.6C361.456 188.027 362.096 188.24 362.936 188.24C363.362 188.24 363.736 188.187 364.056 188.08C364.389 187.973 364.762 187.827 365.176 187.64C365.576 187.427 365.869 187.32 366.056 187.32ZM362.596 181.74C361.916 181.74 361.369 181.953 360.956 182.38C360.556 182.807 360.316 183.42 360.236 184.22H364.756C364.729 183.407 364.529 182.793 364.156 182.38C363.782 181.953 363.262 181.74 362.596 181.74ZM382.004 180.76C382.098 180.52 382.231 180.34 382.404 180.22C382.591 180.1 382.791 180.04 383.004 180.04C383.311 180.04 383.584 180.147 383.824 180.36C384.078 180.56 384.204 180.813 384.204 181.12C384.204 181.293 384.171 181.447 384.104 181.58L380.804 189.32C380.698 189.573 380.531 189.767 380.304 189.9C380.091 190.033 379.851 190.1 379.584 190.1C379.331 190.1 379.091 190.033 378.864 189.9C378.651 189.767 378.491 189.573 378.384 189.32L376.004 183.6L373.704 189.32C373.598 189.573 373.431 189.767 373.204 189.9C372.991 190.033 372.751 190.1 372.484 190.1C372.231 190.1 371.991 190.033 371.764 189.9C371.538 189.767 371.371 189.573 371.264 189.32L367.984 181.58C367.918 181.407 367.884 181.26 367.884 181.14C367.884 180.833 368.018 180.573 368.284 180.36C368.551 180.133 368.844 180.02 369.164 180.02C369.391 180.02 369.598 180.08 369.784 180.2C369.971 180.32 370.111 180.5 370.204 180.74L372.564 186.84L374.984 180.8C375.091 180.547 375.244 180.36 375.444 180.24C375.644 180.107 375.864 180.04 376.104 180.04C376.344 180.04 376.564 180.107 376.764 180.24C376.964 180.36 377.118 180.547 377.224 180.8L379.664 186.86L382.004 180.76ZM391.303 190.12C390.276 190.16 389.763 189.807 389.763 189.06C389.763 188.74 389.85 188.5 390.023 188.34C390.183 188.167 390.443 188.067 390.803 188.04L391.443 188C391.99 187.973 392.403 187.8 392.683 187.48C392.963 187.16 393.103 186.673 393.103 186.02V177.08C393.103 176.693 393.216 176.387 393.443 176.16C393.683 175.92 393.996 175.8 394.383 175.8C394.783 175.8 395.096 175.92 395.323 176.16C395.563 176.387 395.683 176.693 395.683 177.08V186.02C395.683 188.54 394.436 189.893 391.943 190.08L391.303 190.12ZM402.971 190.16C401.971 190.16 401.091 189.953 400.331 189.54C399.584 189.127 399.004 188.533 398.591 187.76C398.178 186.987 397.971 186.087 397.971 185.06C397.971 184.033 398.178 183.14 398.591 182.38C399.004 181.607 399.584 181.013 400.331 180.6C401.091 180.187 401.971 179.98 402.971 179.98C403.971 179.98 404.844 180.187 405.591 180.6C406.351 181.013 406.931 181.607 407.331 182.38C407.744 183.14 407.951 184.033 407.951 185.06C407.951 186.087 407.744 186.987 407.331 187.76C406.931 188.533 406.351 189.127 405.591 189.54C404.844 189.953 403.971 190.16 402.971 190.16ZM402.951 188.22C403.764 188.22 404.384 187.953 404.811 187.42C405.238 186.887 405.451 186.1 405.451 185.06C405.451 184.033 405.238 183.253 404.811 182.72C404.384 182.173 403.771 181.9 402.971 181.9C402.171 181.9 401.551 182.173 401.111 182.72C400.684 183.253 400.471 184.033 400.471 185.06C400.471 186.1 400.684 186.887 401.111 187.42C401.538 187.953 402.151 188.22 402.951 188.22ZM415.735 179.98C418.028 179.98 419.175 181.32 419.175 184V188.92C419.175 189.293 419.062 189.587 418.835 189.8C418.622 190.013 418.322 190.12 417.935 190.12C417.548 190.12 417.242 190.013 417.015 189.8C416.788 189.587 416.675 189.293 416.675 188.92V184C416.675 183.293 416.528 182.78 416.235 182.46C415.955 182.127 415.508 181.96 414.895 181.96C414.175 181.96 413.595 182.187 413.155 182.64C412.728 183.093 412.515 183.7 412.515 184.46V188.92C412.515 189.293 412.402 189.587 412.175 189.8C411.948 190.013 411.642 190.12 411.255 190.12C410.868 190.12 410.562 190.013 410.335 189.8C410.122 189.587 410.015 189.293 410.015 188.92V176.96C410.015 176.613 410.128 176.333 410.355 176.12C410.595 175.907 410.902 175.8 411.275 175.8C411.648 175.8 411.948 175.9 412.175 176.1C412.402 176.3 412.515 176.573 412.515 176.92V181.58C412.848 181.06 413.288 180.667 413.835 180.4C414.395 180.12 415.028 179.98 415.735 179.98ZM427.394 179.98C428.567 179.98 429.441 180.313 430.014 180.98C430.587 181.647 430.874 182.653 430.874 184V188.92C430.874 189.293 430.761 189.587 430.534 189.8C430.321 190.013 430.021 190.12 429.634 190.12C429.247 190.12 428.941 190.013 428.714 189.8C428.487 189.587 428.374 189.293 428.374 188.92V184.14C428.374 183.38 428.227 182.827 427.934 182.48C427.654 182.133 427.207 181.96 426.594 181.96C425.874 181.96 425.294 182.187 424.854 182.64C424.427 183.093 424.214 183.7 424.214 184.46V188.92C424.214 189.293 424.101 189.587 423.874 189.8C423.647 190.013 423.341 190.12 422.954 190.12C422.567 190.12 422.261 190.013 422.034 189.8C421.821 189.587 421.714 189.293 421.714 188.92V181.18C421.714 180.833 421.827 180.553 422.054 180.34C422.281 180.127 422.587 180.02 422.974 180.02C423.321 180.02 423.601 180.127 423.814 180.34C424.041 180.54 424.154 180.807 424.154 181.14V181.68C424.487 181.133 424.934 180.713 425.494 180.42C426.054 180.127 426.687 179.98 427.394 179.98ZM436.953 190.16C435.5 190.16 434.327 189.873 433.433 189.3C433.007 189.047 432.793 188.687 432.793 188.22C432.793 187.953 432.867 187.74 433.013 187.58C433.16 187.407 433.34 187.32 433.553 187.32C433.78 187.32 434.093 187.427 434.493 187.64C434.92 187.84 435.307 187.993 435.653 188.1C436.013 188.207 436.467 188.26 437.013 188.26C437.573 188.26 438.007 188.167 438.313 187.98C438.633 187.793 438.793 187.533 438.793 187.2C438.793 186.973 438.727 186.793 438.593 186.66C438.473 186.527 438.247 186.407 437.913 186.3C437.593 186.18 437.1 186.047 436.433 185.9C435.247 185.66 434.393 185.32 433.873 184.88C433.367 184.44 433.113 183.833 433.113 183.06C433.113 182.473 433.287 181.947 433.633 181.48C433.98 181 434.453 180.633 435.053 180.38C435.667 180.113 436.36 179.98 437.133 179.98C437.693 179.98 438.233 180.053 438.753 180.2C439.273 180.333 439.74 180.533 440.153 180.8C440.58 181.067 440.793 181.42 440.793 181.86C440.793 182.127 440.72 182.353 440.573 182.54C440.427 182.713 440.247 182.8 440.033 182.8C439.887 182.8 439.74 182.773 439.593 182.72C439.46 182.653 439.287 182.56 439.073 182.44C438.687 182.24 438.353 182.093 438.073 182C437.793 181.893 437.447 181.84 437.033 181.84C436.54 181.84 436.147 181.94 435.853 182.14C435.573 182.34 435.433 182.613 435.433 182.96C435.433 183.293 435.58 183.547 435.873 183.72C436.167 183.893 436.733 184.067 437.573 184.24C438.467 184.427 439.167 184.64 439.673 184.88C440.18 185.12 440.54 185.42 440.753 185.78C440.98 186.14 441.093 186.6 441.093 187.16C441.093 188.067 440.713 188.793 439.953 189.34C439.207 189.887 438.207 190.16 436.953 190.16ZM447.58 190.16C446.58 190.16 445.7 189.953 444.94 189.54C444.194 189.127 443.614 188.533 443.2 187.76C442.787 186.987 442.58 186.087 442.58 185.06C442.58 184.033 442.787 183.14 443.2 182.38C443.614 181.607 444.194 181.013 444.94 180.6C445.7 180.187 446.58 179.98 447.58 179.98C448.58 179.98 449.454 180.187 450.2 180.6C450.96 181.013 451.54 181.607 451.94 182.38C452.354 183.14 452.56 184.033 452.56 185.06C452.56 186.087 452.354 186.987 451.94 187.76C451.54 188.533 450.96 189.127 450.2 189.54C449.454 189.953 448.58 190.16 447.58 190.16ZM447.56 188.22C448.374 188.22 448.994 187.953 449.42 187.42C449.847 186.887 450.06 186.1 450.06 185.06C450.06 184.033 449.847 183.253 449.42 182.72C448.994 182.173 448.38 181.9 447.58 181.9C446.78 181.9 446.16 182.173 445.72 182.72C445.294 183.253 445.08 184.033 445.08 185.06C445.08 186.1 445.294 186.887 445.72 187.42C446.147 187.953 446.76 188.22 447.56 188.22ZM460.304 179.98C461.478 179.98 462.351 180.313 462.924 180.98C463.498 181.647 463.784 182.653 463.784 184V188.92C463.784 189.293 463.671 189.587 463.444 189.8C463.231 190.013 462.931 190.12 462.544 190.12C462.158 190.12 461.851 190.013 461.624 189.8C461.398 189.587 461.284 189.293 461.284 188.92V184.14C461.284 183.38 461.138 182.827 460.844 182.48C460.564 182.133 460.118 181.96 459.504 181.96C458.784 181.96 458.204 182.187 457.764 182.64C457.338 183.093 457.124 183.7 457.124 184.46V188.92C457.124 189.293 457.011 189.587 456.784 189.8C456.558 190.013 456.251 190.12 455.864 190.12C455.478 190.12 455.171 190.013 454.944 189.8C454.731 189.587 454.624 189.293 454.624 188.92V181.18C454.624 180.833 454.738 180.553 454.964 180.34C455.191 180.127 455.498 180.02 455.884 180.02C456.231 180.02 456.511 180.127 456.724 180.34C456.951 180.54 457.064 180.807 457.064 181.14V181.68C457.398 181.133 457.844 180.713 458.404 180.42C458.964 180.127 459.598 179.98 460.304 179.98Z" fill="#234CAD"/>
</g>
</g>
<g clip-path="url(#clip2_12505_178)">
<circle cx="248.5" cy="198.5" r="37.5" fill="#F2F6FF"/>
<path d="M251.73 204.306C251.818 204.497 251.862 204.687 251.862 204.878C251.862 205.215 251.723 205.501 251.444 205.736C251.18 205.971 250.872 206.088 250.52 206.088C250.285 206.088 250.065 206.029 249.86 205.912C249.655 205.78 249.493 205.582 249.376 205.318L248.056 202.37H240.312L238.992 205.318C238.875 205.582 238.713 205.78 238.508 205.912C238.303 206.029 238.075 206.088 237.826 206.088C237.489 206.088 237.181 205.971 236.902 205.736C236.623 205.501 236.484 205.215 236.484 204.878C236.484 204.687 236.528 204.497 236.616 204.306L242.688 191.26C242.82 190.967 243.018 190.747 243.282 190.6C243.561 190.439 243.854 190.358 244.162 190.358C244.47 190.358 244.756 190.439 245.02 190.6C245.299 190.747 245.504 190.967 245.636 191.26L251.73 204.306ZM241.28 200.17H247.088L244.184 193.636L241.28 200.17ZM254.144 206.132C253.014 206.176 252.45 205.787 252.45 204.966C252.45 204.614 252.545 204.35 252.736 204.174C252.912 203.983 253.198 203.873 253.594 203.844L254.298 203.8C254.899 203.771 255.354 203.58 255.662 203.228C255.97 202.876 256.124 202.341 256.124 201.622V191.788C256.124 191.363 256.248 191.025 256.498 190.776C256.762 190.512 257.106 190.38 257.532 190.38C257.972 190.38 258.316 190.512 258.566 190.776C258.83 191.025 258.962 191.363 258.962 191.788V201.622C258.962 204.394 257.59 205.883 254.848 206.088L254.144 206.132Z" fill="#234CAD"/>
</g>
<g clip-path="url(#clip3_12505_178)">
<circle cx="276" cy="171" r="8.75" fill="#234CAD" stroke="white" stroke-width="2.5"/>
<path d="M277.486 172.272C277.766 172.272 277.906 172.391 277.906 172.629C277.906 172.876 277.766 173 277.486 173H274.826C274.705 173 274.609 172.965 274.539 172.895C274.469 172.82 274.434 172.729 274.434 172.622C274.434 172.482 274.488 172.356 274.595 172.244L276.191 170.529C276.387 170.314 276.529 170.118 276.618 169.941C276.711 169.759 276.758 169.579 276.758 169.402C276.758 169.183 276.695 169.015 276.569 168.898C276.443 168.781 276.263 168.723 276.03 168.723C275.839 168.723 275.652 168.76 275.47 168.835C275.293 168.905 275.113 169.003 274.931 169.129C274.884 169.162 274.838 169.19 274.791 169.213C274.744 169.232 274.698 169.241 274.651 169.241C274.572 169.241 274.502 169.204 274.441 169.129C274.385 169.054 274.357 168.966 274.357 168.863C274.357 168.793 274.369 168.732 274.392 168.681C274.42 168.63 274.462 168.581 274.518 168.534C274.723 168.371 274.964 168.242 275.239 168.149C275.514 168.051 275.79 168.002 276.065 168.002C276.546 168.002 276.928 168.123 277.213 168.366C277.502 168.609 277.647 168.935 277.647 169.346C277.647 169.631 277.586 169.899 277.465 170.151C277.344 170.398 277.138 170.676 276.849 170.984L275.638 172.272H277.486Z" fill="#F7FAFC"/>
</g>
<defs>
<filter id="filter0_f_12505_178" x="0.085907" y="0.085907" width="809.828" height="446.828" filterUnits="userSpaceOnUse" color-interpolation-filters="sRGB">
<feFlood flood-opacity="0" result="BackgroundImageFix"/>
<feBlend mode="normal" in="SourceGraphic" in2="BackgroundImageFix" result="shape"/>
<feGaussianBlur stdDeviation="67.957" result="effect1_foregroundBlur_12505_178"/>
</filter>
<linearGradient id="paint0_linear_12505_178" x1="543.419" y1="375.046" x2="607.148" y2="90.5445" gradientUnits="userSpaceOnUse">
<stop stop-color="#234CAD"/>
<stop offset="1" stop-color="#234CAD" stop-opacity="0.5"/>
</linearGradient>
<clipPath id="clip0_12505_178">
<rect width="288" height="57" fill="white" transform="translate(311 170)"/>
</clipPath>
<clipPath id="clip1_12505_178">
<rect width="224" height="57" fill="white" transform="translate(311 170)"/>
</clipPath>
<clipPath id="clip2_12505_178">
<rect width="75" height="75" fill="white" transform="translate(211 161)"/>
</clipPath>
<clipPath id="clip3_12505_178">
<rect width="20" height="20" fill="white" transform="translate(266 161)"/>
</clipPath>
</defs>
</svg>
