<svg width="554" height="357" viewBox="0 0 554 357" fill="none" xmlns="http://www.w3.org/2000/svg">
<g opacity="0.7">
<g opacity="0.05" filter="url(#filter0_f_12505_148)">
<rect x="136" y="136" width="282" height="85" rx="15" fill="url(#paint0_linear_12505_148)"/>
</g>
<rect x="146" y="136" width="262" height="75" rx="15" fill="white"/>
<g clip-path="url(#clip0_12505_148)">
<path opacity="0.75" d="M368.556 163.517C368.64 163.517 368.705 163.538 368.752 163.58C368.799 163.622 368.822 163.68 368.822 163.755C368.822 163.918 368.733 164 368.556 164H365.812C365.733 164 365.667 163.977 365.616 163.93C365.565 163.879 365.539 163.818 365.539 163.748C365.539 163.659 365.572 163.582 365.637 163.517L367.324 161.662C367.557 161.401 367.725 161.167 367.828 160.962C367.935 160.752 367.989 160.542 367.989 160.332C367.989 160.061 367.91 159.854 367.751 159.709C367.597 159.564 367.378 159.492 367.093 159.492C366.869 159.492 366.654 159.534 366.449 159.618C366.244 159.697 366.038 159.821 365.833 159.989C365.763 160.045 365.698 160.073 365.637 160.073C365.586 160.073 365.541 160.05 365.504 160.003C365.467 159.952 365.448 159.891 365.448 159.821C365.448 159.723 365.485 159.644 365.56 159.583C365.751 159.406 365.985 159.266 366.26 159.163C366.535 159.06 366.818 159.009 367.107 159.009C367.55 159.009 367.903 159.126 368.164 159.359C368.43 159.592 368.563 159.907 368.563 160.304C368.563 160.589 368.498 160.862 368.367 161.123C368.241 161.384 368.031 161.676 367.737 161.998L366.337 163.517H368.556ZM370.002 161.305C369.89 161.305 369.797 161.27 369.722 161.2C369.648 161.125 369.61 161.03 369.61 160.913C369.61 160.796 369.648 160.703 369.722 160.633C369.797 160.558 369.89 160.521 370.002 160.521C370.11 160.521 370.198 160.558 370.268 160.633C370.343 160.703 370.38 160.796 370.38 160.913C370.38 161.03 370.343 161.125 370.268 161.2C370.198 161.27 370.11 161.305 370.002 161.305ZM370.002 164.035C369.89 164.035 369.797 164 369.722 163.93C369.648 163.855 369.61 163.76 369.61 163.643C369.61 163.526 369.648 163.431 369.722 163.356C369.797 163.281 369.89 163.244 370.002 163.244C370.11 163.244 370.198 163.281 370.268 163.356C370.343 163.431 370.38 163.526 370.38 163.643C370.38 163.76 370.343 163.855 370.268 163.93C370.198 164 370.11 164.035 370.002 164.035ZM372.897 164.056C372.332 164.056 371.903 163.841 371.609 163.412C371.315 162.983 371.168 162.357 371.168 161.536C371.168 160.71 371.315 160.082 371.609 159.653C371.903 159.224 372.332 159.009 372.897 159.009C373.462 159.009 373.891 159.224 374.185 159.653C374.479 160.078 374.626 160.703 374.626 161.529C374.626 162.355 374.479 162.983 374.185 163.412C373.891 163.841 373.462 164.056 372.897 164.056ZM372.897 163.573C373.289 163.573 373.578 163.407 373.765 163.076C373.952 162.745 374.045 162.229 374.045 161.529C374.045 160.824 373.952 160.309 373.765 159.982C373.583 159.655 373.294 159.492 372.897 159.492C372.505 159.492 372.216 159.658 372.029 159.989C371.842 160.316 371.749 160.829 371.749 161.529C371.749 162.229 371.842 162.745 372.029 163.076C372.216 163.407 372.505 163.573 372.897 163.573ZM377.948 161.466C378.237 161.555 378.461 161.706 378.62 161.921C378.783 162.136 378.865 162.392 378.865 162.691C378.865 163.116 378.711 163.449 378.403 163.692C378.095 163.93 377.659 164.049 377.094 164.049C376.529 164.049 376.093 163.93 375.785 163.692C375.477 163.449 375.323 163.116 375.323 162.691C375.323 162.388 375.405 162.129 375.568 161.914C375.731 161.699 375.958 161.55 376.247 161.466C376 161.373 375.804 161.226 375.659 161.025C375.514 160.824 375.442 160.589 375.442 160.318C375.442 159.917 375.587 159.599 375.876 159.366C376.17 159.128 376.576 159.009 377.094 159.009C377.612 159.009 378.016 159.128 378.305 159.366C378.599 159.599 378.746 159.917 378.746 160.318C378.746 160.589 378.674 160.827 378.529 161.032C378.384 161.233 378.191 161.377 377.948 161.466ZM376.009 160.36C376.009 160.649 376.1 160.871 376.282 161.025C376.469 161.179 376.739 161.256 377.094 161.256C377.449 161.256 377.717 161.179 377.899 161.025C378.086 160.871 378.179 160.649 378.179 160.36C378.179 160.085 378.086 159.87 377.899 159.716C377.717 159.562 377.449 159.485 377.094 159.485C376.739 159.485 376.469 159.562 376.282 159.716C376.1 159.87 376.009 160.085 376.009 160.36ZM377.094 163.573C377.897 163.573 378.298 163.267 378.298 162.656C378.298 162.045 377.897 161.739 377.094 161.739C376.291 161.739 375.89 162.045 375.89 162.656C375.89 163.267 376.291 163.573 377.094 163.573ZM385.854 163.671C385.873 163.708 385.882 163.748 385.882 163.79C385.882 163.86 385.854 163.918 385.798 163.965C385.747 164.012 385.684 164.035 385.609 164.035C385.492 164.035 385.411 163.979 385.364 163.867L384.867 162.733H382.228L381.724 163.867C381.677 163.979 381.596 164.035 381.479 164.035C381.404 164.035 381.339 164.012 381.283 163.965C381.227 163.914 381.199 163.853 381.199 163.783C381.199 163.746 381.208 163.708 381.227 163.671L383.229 159.219C383.257 159.154 383.299 159.105 383.355 159.072C383.411 159.039 383.472 159.023 383.537 159.023C383.607 159.023 383.67 159.042 383.726 159.079C383.782 159.112 383.824 159.158 383.852 159.219L385.854 163.671ZM382.438 162.257H384.657L383.544 159.744L382.438 162.257ZM391.073 159.03C391.162 159.03 391.229 159.058 391.276 159.114C391.327 159.165 391.353 159.235 391.353 159.324V163.755C391.353 163.839 391.33 163.907 391.283 163.958C391.236 164.009 391.171 164.035 391.087 164.035C391.003 164.035 390.94 164.009 390.898 163.958C390.856 163.907 390.835 163.839 390.835 163.755V160.178L389.316 163.09C389.251 163.225 389.155 163.293 389.029 163.293C388.908 163.293 388.812 163.225 388.742 163.09L387.216 160.213V163.755C387.216 163.839 387.193 163.907 387.146 163.958C387.104 164.009 387.041 164.035 386.957 164.035C386.873 164.035 386.808 164.009 386.761 163.958C386.714 163.907 386.691 163.839 386.691 163.755V159.324C386.691 159.235 386.717 159.165 386.768 159.114C386.819 159.058 386.889 159.03 386.978 159.03C387.095 159.03 387.188 159.098 387.258 159.233L389.036 162.642L390.793 159.233C390.83 159.158 390.87 159.107 390.912 159.079C390.959 159.046 391.012 159.03 391.073 159.03Z" fill="#234CAD"/>
<g clip-path="url(#clip1_12505_148)">
<path d="M223.691 186.045C223.577 186.045 223.484 186.012 223.412 185.946C223.346 185.874 223.313 185.781 223.313 185.667V180.285H221.378C221.27 180.285 221.186 180.258 221.126 180.204C221.066 180.15 221.036 180.072 221.036 179.97C221.036 179.868 221.066 179.79 221.126 179.736C221.186 179.682 221.27 179.655 221.378 179.655H225.995C226.103 179.655 226.187 179.682 226.247 179.736C226.307 179.79 226.337 179.868 226.337 179.97C226.337 180.072 226.307 180.15 226.247 180.204C226.187 180.258 226.103 180.285 225.995 180.285H224.06V185.667C224.06 185.781 224.027 185.874 223.961 185.946C223.895 186.012 223.805 186.045 223.691 186.045ZM229.778 181.509C230.294 181.509 230.684 181.656 230.948 181.95C231.212 182.238 231.344 182.67 231.344 183.246V185.685C231.344 185.799 231.311 185.889 231.245 185.955C231.179 186.015 231.092 186.045 230.984 186.045C230.87 186.045 230.78 186.015 230.714 185.955C230.648 185.889 230.615 185.799 230.615 185.685V183.264C230.615 182.874 230.534 182.586 230.372 182.4C230.216 182.214 229.964 182.121 229.616 182.121C229.214 182.121 228.893 182.244 228.653 182.49C228.413 182.736 228.293 183.069 228.293 183.489V185.685C228.293 185.799 228.26 185.889 228.194 185.955C228.134 186.015 228.047 186.045 227.933 186.045C227.819 186.045 227.729 186.015 227.663 185.955C227.597 185.889 227.564 185.799 227.564 185.685V179.961C227.564 179.859 227.597 179.775 227.663 179.709C227.735 179.643 227.825 179.61 227.933 179.61C228.047 179.61 228.134 179.643 228.194 179.709C228.26 179.769 228.293 179.853 228.293 179.961V182.319C228.437 182.055 228.638 181.854 228.896 181.716C229.154 181.578 229.448 181.509 229.778 181.509ZM233.048 186.045C232.94 186.045 232.85 186.015 232.778 185.955C232.712 185.889 232.679 185.799 232.679 185.685V181.887C232.679 181.773 232.712 181.686 232.778 181.626C232.85 181.56 232.94 181.527 233.048 181.527C233.156 181.527 233.243 181.56 233.309 181.626C233.375 181.686 233.408 181.773 233.408 181.887V185.685C233.408 185.805 233.375 185.895 233.309 185.955C233.243 186.015 233.156 186.045 233.048 186.045ZM233.048 180.582C232.904 180.582 232.787 180.54 232.697 180.456C232.607 180.372 232.562 180.261 232.562 180.123C232.562 179.991 232.607 179.883 232.697 179.799C232.787 179.715 232.904 179.673 233.048 179.673C233.192 179.673 233.309 179.715 233.399 179.799C233.489 179.883 233.534 179.991 233.534 180.123C233.534 180.261 233.489 180.372 233.399 180.456C233.309 180.54 233.192 180.582 233.048 180.582ZM236.247 186.063C235.971 186.063 235.707 186.03 235.455 185.964C235.209 185.898 234.99 185.805 234.798 185.685C234.69 185.613 234.612 185.547 234.564 185.487C234.522 185.421 234.501 185.343 234.501 185.253C234.501 185.175 234.522 185.112 234.564 185.064C234.612 185.01 234.672 184.983 234.744 184.983C234.816 184.983 234.921 185.028 235.059 185.118C235.239 185.226 235.416 185.313 235.59 185.379C235.77 185.439 235.992 185.469 236.256 185.469C236.58 185.469 236.832 185.412 237.012 185.298C237.192 185.184 237.282 185.019 237.282 184.803C237.282 184.671 237.249 184.566 237.183 184.488C237.117 184.404 237.003 184.332 236.841 184.272C236.679 184.206 236.442 184.14 236.13 184.074C235.602 183.96 235.224 183.807 234.996 183.615C234.768 183.423 234.654 183.162 234.654 182.832C234.654 182.574 234.726 182.346 234.87 182.148C235.014 181.95 235.212 181.794 235.464 181.68C235.722 181.566 236.013 181.509 236.337 181.509C236.571 181.509 236.796 181.542 237.012 181.608C237.234 181.668 237.429 181.755 237.597 181.869C237.801 182.013 237.903 182.163 237.903 182.319C237.903 182.397 237.879 182.463 237.831 182.517C237.783 182.571 237.726 182.598 237.66 182.598C237.588 182.598 237.48 182.547 237.336 182.445C237.168 182.337 237.009 182.253 236.859 182.193C236.709 182.133 236.523 182.103 236.301 182.103C236.019 182.103 235.791 182.166 235.617 182.292C235.449 182.418 235.365 182.586 235.365 182.796C235.365 182.928 235.395 183.036 235.455 183.12C235.521 183.198 235.626 183.27 235.77 183.336C235.92 183.396 236.133 183.456 236.409 183.516C236.817 183.606 237.132 183.705 237.354 183.813C237.582 183.921 237.744 184.053 237.84 184.209C237.936 184.365 237.984 184.563 237.984 184.803C237.984 185.181 237.825 185.487 237.507 185.721C237.189 185.949 236.769 186.063 236.247 186.063ZM247.409 181.761C247.469 181.617 247.568 181.545 247.706 181.545C247.796 181.545 247.877 181.575 247.949 181.635C248.021 181.695 248.057 181.77 248.057 181.86C248.057 181.902 248.048 181.947 248.03 181.995L246.536 185.775C246.5 185.853 246.446 185.916 246.374 185.964C246.308 186.006 246.233 186.027 246.149 186.027C246.071 186.027 245.996 186.006 245.924 185.964C245.858 185.916 245.807 185.853 245.771 185.775L244.529 182.616L243.296 185.775C243.266 185.853 243.215 185.916 243.143 185.964C243.071 186.006 242.993 186.027 242.909 186.027C242.831 186.027 242.756 186.006 242.684 185.964C242.612 185.916 242.558 185.853 242.522 185.775L241.028 182.004C241.01 181.956 241.001 181.914 241.001 181.878C241.001 181.782 241.04 181.701 241.118 181.635C241.202 181.569 241.292 181.536 241.388 181.536C241.532 181.536 241.634 181.608 241.694 181.752L242.927 185.073L244.196 181.779C244.232 181.701 244.28 181.641 244.34 181.599C244.406 181.557 244.475 181.536 244.547 181.536C244.625 181.536 244.694 181.557 244.754 181.599C244.82 181.641 244.868 181.701 244.898 181.779L246.167 185.064L247.409 181.761ZM250.703 181.509C251.801 181.509 252.35 182.085 252.35 183.237V185.685C252.35 185.793 252.317 185.88 252.251 185.946C252.191 186.012 252.107 186.045 251.999 186.045C251.891 186.045 251.804 186.012 251.738 185.946C251.672 185.88 251.639 185.793 251.639 185.685V185.253C251.525 185.511 251.351 185.712 251.117 185.856C250.883 185.994 250.613 186.063 250.307 186.063C250.025 186.063 249.764 186.006 249.524 185.892C249.29 185.778 249.104 185.619 248.966 185.415C248.828 185.211 248.759 184.986 248.759 184.74C248.759 184.41 248.843 184.155 249.011 183.975C249.179 183.789 249.455 183.657 249.839 183.579C250.223 183.495 250.757 183.453 251.441 183.453H251.639V183.156C251.639 182.796 251.564 182.532 251.414 182.364C251.27 182.196 251.033 182.112 250.703 182.112C250.295 182.112 249.881 182.223 249.461 182.445C249.299 182.547 249.185 182.598 249.119 182.598C249.047 182.598 248.987 182.571 248.939 182.517C248.891 182.463 248.867 182.394 248.867 182.31C248.867 182.226 248.891 182.154 248.939 182.094C248.993 182.028 249.077 181.962 249.191 181.896C249.401 181.776 249.638 181.683 249.902 181.617C250.172 181.545 250.439 181.509 250.703 181.509ZM250.406 185.487C250.766 185.487 251.06 185.367 251.288 185.127C251.522 184.881 251.639 184.566 251.639 184.182V183.921H251.477C250.949 183.921 250.547 183.945 250.271 183.993C249.995 184.035 249.797 184.11 249.677 184.218C249.563 184.32 249.506 184.473 249.506 184.677C249.506 184.911 249.59 185.106 249.758 185.262C249.932 185.412 250.148 185.487 250.406 185.487ZM255.161 186.063C254.885 186.063 254.621 186.03 254.369 185.964C254.123 185.898 253.904 185.805 253.712 185.685C253.604 185.613 253.526 185.547 253.478 185.487C253.436 185.421 253.415 185.343 253.415 185.253C253.415 185.175 253.436 185.112 253.478 185.064C253.526 185.01 253.586 184.983 253.658 184.983C253.73 184.983 253.835 185.028 253.973 185.118C254.153 185.226 254.33 185.313 254.504 185.379C254.684 185.439 254.906 185.469 255.17 185.469C255.494 185.469 255.746 185.412 255.926 185.298C256.106 185.184 256.196 185.019 256.196 184.803C256.196 184.671 256.163 184.566 256.097 184.488C256.031 184.404 255.917 184.332 255.755 184.272C255.593 184.206 255.356 184.14 255.044 184.074C254.516 183.96 254.138 183.807 253.91 183.615C253.682 183.423 253.568 183.162 253.568 182.832C253.568 182.574 253.64 182.346 253.784 182.148C253.928 181.95 254.126 181.794 254.378 181.68C254.636 181.566 254.927 181.509 255.251 181.509C255.485 181.509 255.71 181.542 255.926 181.608C256.148 181.668 256.343 181.755 256.511 181.869C256.715 182.013 256.817 182.163 256.817 182.319C256.817 182.397 256.793 182.463 256.745 182.517C256.697 182.571 256.64 182.598 256.574 182.598C256.502 182.598 256.394 182.547 256.25 182.445C256.082 182.337 255.923 182.253 255.773 182.193C255.623 182.133 255.437 182.103 255.215 182.103C254.933 182.103 254.705 182.166 254.531 182.292C254.363 182.418 254.279 182.586 254.279 182.796C254.279 182.928 254.309 183.036 254.369 183.12C254.435 183.198 254.54 183.27 254.684 183.336C254.834 183.396 255.047 183.456 255.323 183.516C255.731 183.606 256.046 183.705 256.268 183.813C256.496 183.921 256.658 184.053 256.754 184.209C256.85 184.365 256.898 184.563 256.898 184.803C256.898 185.181 256.739 185.487 256.421 185.721C256.103 185.949 255.683 186.063 255.161 186.063ZM261.805 186.063C261.529 186.063 261.265 186.03 261.013 185.964C260.767 185.898 260.548 185.805 260.356 185.685C260.248 185.613 260.17 185.547 260.122 185.487C260.08 185.421 260.059 185.343 260.059 185.253C260.059 185.175 260.08 185.112 260.122 185.064C260.17 185.01 260.23 184.983 260.302 184.983C260.374 184.983 260.479 185.028 260.617 185.118C260.797 185.226 260.974 185.313 261.148 185.379C261.328 185.439 261.55 185.469 261.814 185.469C262.138 185.469 262.39 185.412 262.57 185.298C262.75 185.184 262.84 185.019 262.84 184.803C262.84 184.671 262.807 184.566 262.741 184.488C262.675 184.404 262.561 184.332 262.399 184.272C262.237 184.206 262 184.14 261.688 184.074C261.16 183.96 260.782 183.807 260.554 183.615C260.326 183.423 260.212 183.162 260.212 182.832C260.212 182.574 260.284 182.346 260.428 182.148C260.572 181.95 260.77 181.794 261.022 181.68C261.28 181.566 261.571 181.509 261.895 181.509C262.129 181.509 262.354 181.542 262.57 181.608C262.792 181.668 262.987 181.755 263.155 181.869C263.359 182.013 263.461 182.163 263.461 182.319C263.461 182.397 263.437 182.463 263.389 182.517C263.341 182.571 263.284 182.598 263.218 182.598C263.146 182.598 263.038 182.547 262.894 182.445C262.726 182.337 262.567 182.253 262.417 182.193C262.267 182.133 262.081 182.103 261.859 182.103C261.577 182.103 261.349 182.166 261.175 182.292C261.007 182.418 260.923 182.586 260.923 182.796C260.923 182.928 260.953 183.036 261.013 183.12C261.079 183.198 261.184 183.27 261.328 183.336C261.478 183.396 261.691 183.456 261.967 183.516C262.375 183.606 262.69 183.705 262.912 183.813C263.14 183.921 263.302 184.053 263.398 184.209C263.494 184.365 263.542 184.563 263.542 184.803C263.542 185.181 263.383 185.487 263.065 185.721C262.747 185.949 262.327 186.063 261.805 186.063ZM267.984 181.527C268.098 181.527 268.185 181.56 268.245 181.626C268.311 181.692 268.344 181.779 268.344 181.887V185.694C268.344 185.796 268.311 185.88 268.245 185.946C268.185 186.012 268.098 186.045 267.984 186.045C267.876 186.045 267.789 186.015 267.723 185.955C267.663 185.889 267.633 185.805 267.633 185.703V185.253C267.495 185.517 267.3 185.718 267.048 185.856C266.802 185.994 266.523 186.063 266.211 186.063C265.689 186.063 265.296 185.919 265.032 185.631C264.768 185.337 264.636 184.905 264.636 184.335V181.887C264.636 181.779 264.669 181.692 264.735 181.626C264.801 181.56 264.891 181.527 265.005 181.527C265.119 181.527 265.206 181.56 265.266 181.626C265.332 181.692 265.365 181.779 265.365 181.887V184.317C265.365 184.707 265.443 184.995 265.599 185.181C265.755 185.361 266.001 185.451 266.337 185.451C266.721 185.451 267.03 185.328 267.264 185.082C267.498 184.83 267.615 184.5 267.615 184.092V181.887C267.615 181.779 267.648 181.692 267.714 181.626C267.78 181.56 267.87 181.527 267.984 181.527ZM271.507 186.063C271.099 186.063 270.736 185.97 270.418 185.784C270.106 185.598 269.863 185.334 269.689 184.992C269.521 184.65 269.437 184.254 269.437 183.804C269.437 183.354 269.524 182.955 269.698 182.607C269.878 182.259 270.127 181.989 270.445 181.797C270.763 181.605 271.129 181.509 271.543 181.509C271.771 181.509 271.996 181.542 272.218 181.608C272.446 181.668 272.644 181.758 272.812 181.878C272.92 181.95 272.995 182.022 273.037 182.094C273.085 182.16 273.109 182.235 273.109 182.319C273.109 182.403 273.085 182.472 273.037 182.526C272.995 182.58 272.938 182.607 272.866 182.607C272.824 182.607 272.779 182.595 272.731 182.571C272.683 182.547 272.641 182.523 272.605 182.499C272.575 182.475 272.554 182.46 272.542 182.454C272.386 182.352 272.236 182.271 272.092 182.211C271.954 182.151 271.783 182.121 271.579 182.121C271.141 182.121 270.799 182.271 270.553 182.571C270.313 182.865 270.193 183.276 270.193 183.804C270.193 184.332 270.313 184.74 270.553 185.028C270.799 185.316 271.141 185.46 271.579 185.46C271.783 185.46 271.957 185.43 272.101 185.37C272.251 185.31 272.401 185.229 272.551 185.127C272.617 185.085 272.68 185.049 272.74 185.019C272.8 184.989 272.851 184.974 272.893 184.974C272.959 184.974 273.013 185.001 273.055 185.055C273.103 185.109 273.127 185.178 273.127 185.262C273.127 185.34 273.106 185.412 273.064 185.478C273.022 185.538 272.944 185.607 272.83 185.685C272.662 185.799 272.458 185.892 272.218 185.964C271.984 186.03 271.747 186.063 271.507 186.063ZM276.219 181.509C276.735 181.509 277.125 181.656 277.389 181.95C277.653 182.238 277.785 182.67 277.785 183.246V185.685C277.785 185.799 277.752 185.889 277.686 185.955C277.62 186.015 277.533 186.045 277.425 186.045C277.311 186.045 277.221 186.015 277.155 185.955C277.089 185.889 277.056 185.799 277.056 185.685V183.264C277.056 182.874 276.975 182.586 276.813 182.4C276.657 182.214 276.405 182.121 276.057 182.121C275.655 182.121 275.334 182.244 275.094 182.49C274.854 182.736 274.734 183.069 274.734 183.489V185.685C274.734 185.799 274.701 185.889 274.635 185.955C274.575 186.015 274.488 186.045 274.374 186.045C274.26 186.045 274.17 186.015 274.104 185.955C274.038 185.889 274.005 185.799 274.005 185.685V179.961C274.005 179.859 274.038 179.775 274.104 179.709C274.176 179.643 274.266 179.61 274.374 179.61C274.488 179.61 274.575 179.643 274.635 179.709C274.701 179.769 274.734 179.853 274.734 179.961V182.319C274.878 182.055 275.079 181.854 275.337 181.716C275.595 181.578 275.889 181.509 276.219 181.509ZM283.232 181.509C284.33 181.509 284.879 182.085 284.879 183.237V185.685C284.879 185.793 284.846 185.88 284.78 185.946C284.72 186.012 284.636 186.045 284.528 186.045C284.42 186.045 284.333 186.012 284.267 185.946C284.201 185.88 284.168 185.793 284.168 185.685V185.253C284.054 185.511 283.88 185.712 283.646 185.856C283.412 185.994 283.142 186.063 282.836 186.063C282.554 186.063 282.293 186.006 282.053 185.892C281.819 185.778 281.633 185.619 281.495 185.415C281.357 185.211 281.288 184.986 281.288 184.74C281.288 184.41 281.372 184.155 281.54 183.975C281.708 183.789 281.984 183.657 282.368 183.579C282.752 183.495 283.286 183.453 283.97 183.453H284.168V183.156C284.168 182.796 284.093 182.532 283.943 182.364C283.799 182.196 283.562 182.112 283.232 182.112C282.824 182.112 282.41 182.223 281.99 182.445C281.828 182.547 281.714 182.598 281.648 182.598C281.576 182.598 281.516 182.571 281.468 182.517C281.42 182.463 281.396 182.394 281.396 182.31C281.396 182.226 281.42 182.154 281.468 182.094C281.522 182.028 281.606 181.962 281.72 181.896C281.93 181.776 282.167 181.683 282.431 181.617C282.701 181.545 282.968 181.509 283.232 181.509ZM282.935 185.487C283.295 185.487 283.589 185.367 283.817 185.127C284.051 184.881 284.168 184.566 284.168 184.182V183.921H284.006C283.478 183.921 283.076 183.945 282.8 183.993C282.524 184.035 282.326 184.11 282.206 184.218C282.092 184.32 282.035 184.473 282.035 184.677C282.035 184.911 282.119 185.106 282.287 185.262C282.461 185.412 282.677 185.487 282.935 185.487ZM290.738 181.509C291.122 181.509 291.461 181.602 291.755 181.788C292.049 181.974 292.277 182.238 292.439 182.58C292.601 182.922 292.682 183.318 292.682 183.768C292.682 184.224 292.601 184.626 292.439 184.974C292.277 185.316 292.049 185.583 291.755 185.775C291.461 185.967 291.122 186.063 290.738 186.063C290.396 186.063 290.096 185.988 289.838 185.838C289.586 185.688 289.394 185.475 289.262 185.199V185.685C289.262 185.793 289.229 185.88 289.163 185.946C289.103 186.012 289.016 186.045 288.902 186.045C288.788 186.045 288.698 186.012 288.632 185.946C288.566 185.88 288.533 185.793 288.533 185.685V179.961C288.533 179.859 288.566 179.775 288.632 179.709C288.698 179.643 288.788 179.61 288.902 179.61C289.016 179.61 289.103 179.643 289.163 179.709C289.229 179.769 289.262 179.853 289.262 179.961V182.373C289.394 182.097 289.586 181.884 289.838 181.734C290.096 181.584 290.396 181.509 290.738 181.509ZM290.594 185.46C291.02 185.46 291.35 185.313 291.584 185.019C291.818 184.719 291.935 184.302 291.935 183.768C291.935 183.246 291.818 182.841 291.584 182.553C291.35 182.265 291.02 182.121 290.594 182.121C290.168 182.121 289.838 182.265 289.604 182.553C289.376 182.841 289.262 183.252 289.262 183.786C289.262 184.32 289.376 184.734 289.604 185.028C289.838 185.316 290.168 185.46 290.594 185.46ZM297.102 181.527C297.216 181.527 297.303 181.56 297.363 181.626C297.429 181.692 297.462 181.779 297.462 181.887V185.694C297.462 185.796 297.429 185.88 297.363 185.946C297.303 186.012 297.216 186.045 297.102 186.045C296.994 186.045 296.907 186.015 296.841 185.955C296.781 185.889 296.751 185.805 296.751 185.703V185.253C296.613 185.517 296.418 185.718 296.166 185.856C295.92 185.994 295.641 186.063 295.329 186.063C294.807 186.063 294.414 185.919 294.15 185.631C293.886 185.337 293.754 184.905 293.754 184.335V181.887C293.754 181.779 293.787 181.692 293.853 181.626C293.919 181.56 294.009 181.527 294.123 181.527C294.237 181.527 294.324 181.56 294.384 181.626C294.45 181.692 294.483 181.779 294.483 181.887V184.317C294.483 184.707 294.561 184.995 294.717 185.181C294.873 185.361 295.119 185.451 295.455 185.451C295.839 185.451 296.148 185.328 296.382 185.082C296.616 184.83 296.733 184.5 296.733 184.092V181.887C296.733 181.779 296.766 181.692 296.832 181.626C296.898 181.56 296.988 181.527 297.102 181.527ZM300.293 186.063C300.017 186.063 299.753 186.03 299.501 185.964C299.255 185.898 299.036 185.805 298.844 185.685C298.736 185.613 298.658 185.547 298.61 185.487C298.568 185.421 298.547 185.343 298.547 185.253C298.547 185.175 298.568 185.112 298.61 185.064C298.658 185.01 298.718 184.983 298.79 184.983C298.862 184.983 298.967 185.028 299.105 185.118C299.285 185.226 299.462 185.313 299.636 185.379C299.816 185.439 300.038 185.469 300.302 185.469C300.626 185.469 300.878 185.412 301.058 185.298C301.238 185.184 301.328 185.019 301.328 184.803C301.328 184.671 301.295 184.566 301.229 184.488C301.163 184.404 301.049 184.332 300.887 184.272C300.725 184.206 300.488 184.14 300.176 184.074C299.648 183.96 299.27 183.807 299.042 183.615C298.814 183.423 298.7 183.162 298.7 182.832C298.7 182.574 298.772 182.346 298.916 182.148C299.06 181.95 299.258 181.794 299.51 181.68C299.768 181.566 300.059 181.509 300.383 181.509C300.617 181.509 300.842 181.542 301.058 181.608C301.28 181.668 301.475 181.755 301.643 181.869C301.847 182.013 301.949 182.163 301.949 182.319C301.949 182.397 301.925 182.463 301.877 182.517C301.829 182.571 301.772 182.598 301.706 182.598C301.634 182.598 301.526 182.547 301.382 182.445C301.214 182.337 301.055 182.253 300.905 182.193C300.755 182.133 300.569 182.103 300.347 182.103C300.065 182.103 299.837 182.166 299.663 182.292C299.495 182.418 299.411 182.586 299.411 182.796C299.411 182.928 299.441 183.036 299.501 183.12C299.567 183.198 299.672 183.27 299.816 183.336C299.966 183.396 300.179 183.456 300.455 183.516C300.863 183.606 301.178 183.705 301.4 183.813C301.628 183.921 301.79 184.053 301.886 184.209C301.982 184.365 302.03 184.563 302.03 184.803C302.03 185.181 301.871 185.487 301.553 185.721C301.235 185.949 300.815 186.063 300.293 186.063ZM306.221 181.752C306.287 181.608 306.392 181.536 306.536 181.536C306.626 181.536 306.707 181.566 306.779 181.626C306.851 181.686 306.887 181.761 306.887 181.851C306.887 181.905 306.875 181.953 306.851 181.995L304.322 187.449C304.292 187.515 304.247 187.566 304.187 187.602C304.133 187.638 304.076 187.656 304.016 187.656C303.926 187.656 303.845 187.626 303.773 187.566C303.707 187.512 303.674 187.44 303.674 187.35C303.674 187.302 303.686 187.254 303.71 187.206L304.34 185.847L302.558 181.995C302.534 181.953 302.522 181.908 302.522 181.86C302.522 181.77 302.561 181.692 302.639 181.626C302.723 181.56 302.813 181.527 302.909 181.527C302.969 181.527 303.026 181.545 303.08 181.581C303.14 181.617 303.185 181.668 303.215 181.734L304.718 185.109L306.221 181.752ZM315.999 181.761C316.059 181.617 316.158 181.545 316.296 181.545C316.386 181.545 316.467 181.575 316.539 181.635C316.611 181.695 316.647 181.77 316.647 181.86C316.647 181.902 316.638 181.947 316.62 181.995L315.126 185.775C315.09 185.853 315.036 185.916 314.964 185.964C314.898 186.006 314.823 186.027 314.739 186.027C314.661 186.027 314.586 186.006 314.514 185.964C314.448 185.916 314.397 185.853 314.361 185.775L313.119 182.616L311.886 185.775C311.856 185.853 311.805 185.916 311.733 185.964C311.661 186.006 311.583 186.027 311.499 186.027C311.421 186.027 311.346 186.006 311.274 185.964C311.202 185.916 311.148 185.853 311.112 185.775L309.618 182.004C309.6 181.956 309.591 181.914 309.591 181.878C309.591 181.782 309.63 181.701 309.708 181.635C309.792 181.569 309.882 181.536 309.978 181.536C310.122 181.536 310.224 181.608 310.284 181.752L311.517 185.073L312.786 181.779C312.822 181.701 312.87 181.641 312.93 181.599C312.996 181.557 313.065 181.536 313.137 181.536C313.215 181.536 313.284 181.557 313.344 181.599C313.41 181.641 313.458 181.701 313.488 181.779L314.757 185.064L315.999 181.761ZM320.922 184.983C320.988 184.983 321.045 185.01 321.093 185.064C321.141 185.118 321.165 185.187 321.165 185.271C321.165 185.421 321.06 185.559 320.85 185.685C320.634 185.811 320.406 185.907 320.166 185.973C319.926 186.033 319.692 186.063 319.464 186.063C318.786 186.063 318.249 185.862 317.853 185.46C317.463 185.058 317.268 184.503 317.268 183.795C317.268 183.345 317.355 182.949 317.529 182.607C317.703 182.259 317.946 181.989 318.258 181.797C318.576 181.605 318.936 181.509 319.338 181.509C319.908 181.509 320.361 181.695 320.697 182.067C321.033 182.439 321.201 182.943 321.201 183.579C321.201 183.699 321.177 183.786 321.129 183.84C321.081 183.894 321.003 183.921 320.895 183.921H317.997C318.051 184.953 318.54 185.469 319.464 185.469C319.698 185.469 319.899 185.439 320.067 185.379C320.235 185.313 320.415 185.226 320.607 185.118C320.763 185.028 320.868 184.983 320.922 184.983ZM319.347 182.076C318.963 182.076 318.654 182.196 318.42 182.436C318.192 182.676 318.057 183.015 318.015 183.453H320.562C320.55 183.009 320.439 182.67 320.229 182.436C320.019 182.196 319.725 182.076 319.347 182.076ZM325.668 184.983C325.734 184.983 325.791 185.01 325.839 185.064C325.887 185.118 325.911 185.187 325.911 185.271C325.911 185.421 325.806 185.559 325.596 185.685C325.38 185.811 325.152 185.907 324.912 185.973C324.672 186.033 324.438 186.063 324.21 186.063C323.532 186.063 322.995 185.862 322.599 185.46C322.209 185.058 322.014 184.503 322.014 183.795C322.014 183.345 322.101 182.949 322.275 182.607C322.449 182.259 322.692 181.989 323.004 181.797C323.322 181.605 323.682 181.509 324.084 181.509C324.654 181.509 325.107 181.695 325.443 182.067C325.779 182.439 325.947 182.943 325.947 183.579C325.947 183.699 325.923 183.786 325.875 183.84C325.827 183.894 325.749 183.921 325.641 183.921H322.743C322.797 184.953 323.286 185.469 324.21 185.469C324.444 185.469 324.645 185.439 324.813 185.379C324.981 185.313 325.161 185.226 325.353 185.118C325.509 185.028 325.614 184.983 325.668 184.983ZM324.093 182.076C323.709 182.076 323.4 182.196 323.166 182.436C322.938 182.676 322.803 183.015 322.761 183.453H325.308C325.296 183.009 325.185 182.67 324.975 182.436C324.765 182.196 324.471 182.076 324.093 182.076ZM330.522 185.424C330.618 185.514 330.666 185.61 330.666 185.712C330.666 185.802 330.633 185.88 330.567 185.946C330.507 186.012 330.432 186.045 330.342 186.045C330.264 186.045 330.183 186.009 330.099 185.937L327.75 183.912V185.685C327.75 185.799 327.714 185.889 327.642 185.955C327.576 186.015 327.492 186.045 327.39 186.045C327.282 186.045 327.192 186.015 327.12 185.955C327.054 185.889 327.021 185.799 327.021 185.685V179.97C327.021 179.856 327.054 179.769 327.12 179.709C327.192 179.643 327.282 179.61 327.39 179.61C327.492 179.61 327.576 179.643 327.642 179.709C327.714 179.769 327.75 179.856 327.75 179.97V183.624L329.901 181.653C329.973 181.581 330.054 181.545 330.144 181.545C330.234 181.545 330.312 181.578 330.378 181.644C330.444 181.71 330.477 181.788 330.477 181.878C330.477 181.98 330.435 182.07 330.351 182.148L328.578 183.732L330.522 185.424ZM331.977 186.045C331.833 186.045 331.713 186 331.617 185.91C331.521 185.814 331.473 185.691 331.473 185.541C331.473 185.391 331.521 185.268 331.617 185.172C331.713 185.076 331.833 185.028 331.977 185.028C332.115 185.028 332.229 185.076 332.319 185.172C332.415 185.268 332.463 185.391 332.463 185.541C332.463 185.691 332.415 185.814 332.319 185.91C332.229 186 332.115 186.045 331.977 186.045ZM336.471 186.045C336.357 186.045 336.267 186.012 336.201 185.946C336.135 185.874 336.102 185.781 336.102 185.667V179.988C336.102 179.874 336.135 179.784 336.201 179.718C336.267 179.646 336.357 179.61 336.471 179.61C336.585 179.61 336.675 179.646 336.741 179.718C336.807 179.784 336.84 179.874 336.84 179.988V185.667C336.84 185.781 336.807 185.874 336.741 185.946C336.675 186.012 336.585 186.045 336.471 186.045ZM342.426 186.063C342.018 186.063 341.655 185.97 341.337 185.784C341.025 185.598 340.782 185.334 340.608 184.992C340.44 184.65 340.356 184.254 340.356 183.804C340.356 183.354 340.443 182.955 340.617 182.607C340.797 182.259 341.046 181.989 341.364 181.797C341.682 181.605 342.048 181.509 342.462 181.509C342.69 181.509 342.915 181.542 343.137 181.608C343.365 181.668 343.563 181.758 343.731 181.878C343.839 181.95 343.914 182.022 343.956 182.094C344.004 182.16 344.028 182.235 344.028 182.319C344.028 182.403 344.004 182.472 343.956 182.526C343.914 182.58 343.857 182.607 343.785 182.607C343.743 182.607 343.698 182.595 343.65 182.571C343.602 182.547 343.56 182.523 343.524 182.499C343.494 182.475 343.473 182.46 343.461 182.454C343.305 182.352 343.155 182.271 343.011 182.211C342.873 182.151 342.702 182.121 342.498 182.121C342.06 182.121 341.718 182.271 341.472 182.571C341.232 182.865 341.112 183.276 341.112 183.804C341.112 184.332 341.232 184.74 341.472 185.028C341.718 185.316 342.06 185.46 342.498 185.46C342.702 185.46 342.876 185.43 343.02 185.37C343.17 185.31 343.32 185.229 343.47 185.127C343.536 185.085 343.599 185.049 343.659 185.019C343.719 184.989 343.77 184.974 343.812 184.974C343.878 184.974 343.932 185.001 343.974 185.055C344.022 185.109 344.046 185.178 344.046 185.262C344.046 185.34 344.025 185.412 343.983 185.478C343.941 185.538 343.863 185.607 343.749 185.685C343.581 185.799 343.377 185.892 343.137 185.964C342.903 186.03 342.666 186.063 342.426 186.063ZM346.715 181.509C347.813 181.509 348.362 182.085 348.362 183.237V185.685C348.362 185.793 348.329 185.88 348.263 185.946C348.203 186.012 348.119 186.045 348.011 186.045C347.903 186.045 347.816 186.012 347.75 185.946C347.684 185.88 347.651 185.793 347.651 185.685V185.253C347.537 185.511 347.363 185.712 347.129 185.856C346.895 185.994 346.625 186.063 346.319 186.063C346.037 186.063 345.776 186.006 345.536 185.892C345.302 185.778 345.116 185.619 344.978 185.415C344.84 185.211 344.771 184.986 344.771 184.74C344.771 184.41 344.855 184.155 345.023 183.975C345.191 183.789 345.467 183.657 345.851 183.579C346.235 183.495 346.769 183.453 347.453 183.453H347.651V183.156C347.651 182.796 347.576 182.532 347.426 182.364C347.282 182.196 347.045 182.112 346.715 182.112C346.307 182.112 345.893 182.223 345.473 182.445C345.311 182.547 345.197 182.598 345.131 182.598C345.059 182.598 344.999 182.571 344.951 182.517C344.903 182.463 344.879 182.394 344.879 182.31C344.879 182.226 344.903 182.154 344.951 182.094C345.005 182.028 345.089 181.962 345.203 181.896C345.413 181.776 345.65 181.683 345.914 181.617C346.184 181.545 346.451 181.509 346.715 181.509ZM346.418 185.487C346.778 185.487 347.072 185.367 347.3 185.127C347.534 184.881 347.651 184.566 347.651 184.182V183.921H347.489C346.961 183.921 346.559 183.945 346.283 183.993C346.007 184.035 345.809 184.11 345.689 184.218C345.575 184.32 345.518 184.473 345.518 184.677C345.518 184.911 345.602 185.106 345.77 185.262C345.944 185.412 346.16 185.487 346.418 185.487ZM351.901 181.509C352.951 181.509 353.476 182.088 353.476 183.246V185.685C353.476 185.799 353.443 185.889 353.377 185.955C353.317 186.015 353.23 186.045 353.116 186.045C353.002 186.045 352.912 186.015 352.846 185.955C352.78 185.889 352.747 185.799 352.747 185.685V183.291C352.747 182.883 352.666 182.586 352.504 182.4C352.348 182.214 352.096 182.121 351.748 182.121C351.346 182.121 351.025 182.244 350.785 182.49C350.545 182.736 350.425 183.069 350.425 183.489V185.685C350.425 185.799 350.392 185.889 350.326 185.955C350.266 186.015 350.179 186.045 350.065 186.045C349.951 186.045 349.861 186.015 349.795 185.955C349.729 185.889 349.696 185.799 349.696 185.685V181.887C349.696 181.779 349.729 181.692 349.795 181.626C349.861 181.56 349.951 181.527 350.065 181.527C350.173 181.527 350.257 181.56 350.317 181.626C350.383 181.692 350.416 181.776 350.416 181.878V182.337C350.56 182.067 350.761 181.863 351.019 181.725C351.277 181.581 351.571 181.509 351.901 181.509ZM355.172 186.045C355.028 186.045 354.908 186 354.812 185.91C354.716 185.814 354.668 185.691 354.668 185.541C354.668 185.391 354.716 185.268 354.812 185.172C354.908 185.076 355.028 185.028 355.172 185.028C355.31 185.028 355.424 185.076 355.514 185.172C355.61 185.268 355.658 185.391 355.658 185.541C355.658 185.691 355.61 185.814 355.514 185.91C355.424 186 355.31 186.045 355.172 186.045ZM357.233 186.045C357.089 186.045 356.969 186 356.873 185.91C356.777 185.814 356.729 185.691 356.729 185.541C356.729 185.391 356.777 185.268 356.873 185.172C356.969 185.076 357.089 185.028 357.233 185.028C357.371 185.028 357.485 185.076 357.575 185.172C357.671 185.268 357.719 185.391 357.719 185.541C357.719 185.691 357.671 185.814 357.575 185.91C357.485 186 357.371 186.045 357.233 186.045ZM359.294 186.045C359.15 186.045 359.03 186 358.934 185.91C358.838 185.814 358.79 185.691 358.79 185.541C358.79 185.391 358.838 185.268 358.934 185.172C359.03 185.076 359.15 185.028 359.294 185.028C359.432 185.028 359.546 185.076 359.636 185.172C359.732 185.268 359.78 185.391 359.78 185.541C359.78 185.691 359.732 185.814 359.636 185.91C359.546 186 359.432 186.045 359.294 186.045Z" fill="#234CAD"/>
<path d="M229.424 160.48C229.648 160.48 229.828 160.552 229.964 160.696C230.1 160.832 230.168 161.016 230.168 161.248V168.352C230.168 168.576 230.104 168.752 229.976 168.88C229.848 169.008 229.68 169.072 229.472 169.072C229.264 169.072 229.1 169.008 228.98 168.88C228.86 168.752 228.8 168.576 228.8 168.352V163.408L226.76 167.272C226.664 167.448 226.56 167.58 226.448 167.668C226.336 167.748 226.204 167.788 226.052 167.788C225.9 167.788 225.768 167.748 225.656 167.668C225.544 167.588 225.44 167.456 225.344 167.272L223.292 163.468V168.352C223.292 168.568 223.228 168.744 223.1 168.88C222.98 169.008 222.816 169.072 222.608 169.072C222.4 169.072 222.236 169.008 222.116 168.88C221.996 168.752 221.936 168.576 221.936 168.352V161.248C221.936 161.016 222 160.832 222.128 160.696C222.264 160.552 222.444 160.48 222.668 160.48C222.98 160.48 223.224 160.652 223.4 160.996L226.064 166.072L228.716 160.996C228.892 160.652 229.128 160.48 229.424 160.48ZM234.414 162.988C235.23 162.988 235.834 163.192 236.226 163.6C236.626 164 236.826 164.612 236.826 165.436V168.364C236.826 168.58 236.762 168.752 236.634 168.88C236.506 169 236.33 169.06 236.106 169.06C235.898 169.06 235.726 168.996 235.59 168.868C235.462 168.74 235.398 168.572 235.398 168.364V168.1C235.262 168.412 235.046 168.656 234.75 168.832C234.462 169.008 234.126 169.096 233.742 169.096C233.35 169.096 232.994 169.016 232.674 168.856C232.354 168.696 232.102 168.476 231.918 168.196C231.734 167.916 231.642 167.604 231.642 167.26C231.642 166.828 231.75 166.488 231.966 166.24C232.19 165.992 232.55 165.812 233.046 165.7C233.542 165.588 234.226 165.532 235.098 165.532H235.398V165.256C235.398 164.864 235.314 164.58 235.146 164.404C234.978 164.22 234.706 164.128 234.33 164.128C234.098 164.128 233.862 164.164 233.622 164.236C233.382 164.3 233.098 164.396 232.77 164.524C232.562 164.628 232.41 164.68 232.314 164.68C232.17 164.68 232.05 164.628 231.954 164.524C231.866 164.42 231.822 164.284 231.822 164.116C231.822 163.98 231.854 163.864 231.918 163.768C231.99 163.664 232.106 163.568 232.266 163.48C232.546 163.328 232.878 163.208 233.262 163.12C233.654 163.032 234.038 162.988 234.414 162.988ZM234.042 168.016C234.442 168.016 234.766 167.884 235.014 167.62C235.27 167.348 235.398 167 235.398 166.576V166.324H235.182C234.646 166.324 234.23 166.348 233.934 166.396C233.638 166.444 233.426 166.528 233.298 166.648C233.17 166.768 233.106 166.932 233.106 167.14C233.106 167.396 233.194 167.608 233.37 167.776C233.554 167.936 233.778 168.016 234.042 168.016ZM241.626 163.012C241.834 162.996 241.998 163.04 242.118 163.144C242.238 163.248 242.298 163.404 242.298 163.612C242.298 163.828 242.246 163.988 242.142 164.092C242.038 164.196 241.85 164.264 241.578 164.296L241.218 164.332C240.746 164.38 240.398 164.54 240.174 164.812C239.958 165.084 239.85 165.424 239.85 165.832V168.352C239.85 168.584 239.778 168.764 239.634 168.892C239.49 169.012 239.31 169.072 239.094 169.072C238.878 169.072 238.698 169.012 238.554 168.892C238.418 168.764 238.35 168.584 238.35 168.352V163.708C238.35 163.484 238.418 163.312 238.554 163.192C238.698 163.072 238.874 163.012 239.082 163.012C239.29 163.012 239.458 163.072 239.586 163.192C239.714 163.304 239.778 163.468 239.778 163.684V164.164C239.93 163.812 240.154 163.54 240.45 163.348C240.754 163.156 241.09 163.048 241.458 163.024L241.626 163.012ZM248.164 167.836C248.324 167.988 248.404 168.16 248.404 168.352C248.404 168.536 248.336 168.7 248.2 168.844C248.072 168.988 247.92 169.06 247.744 169.06C247.568 169.06 247.404 168.988 247.252 168.844L244.444 166.3V168.352C244.444 168.584 244.372 168.76 244.228 168.88C244.084 169 243.904 169.06 243.688 169.06C243.472 169.06 243.292 169 243.148 168.88C243.012 168.76 242.944 168.584 242.944 168.352V161.188C242.944 160.956 243.012 160.78 243.148 160.66C243.292 160.54 243.472 160.48 243.688 160.48C243.904 160.48 244.084 160.54 244.228 160.66C244.372 160.78 244.444 160.956 244.444 161.188V165.7L247.012 163.24C247.156 163.096 247.32 163.024 247.504 163.024C247.688 163.024 247.848 163.092 247.984 163.228C248.12 163.364 248.188 163.524 248.188 163.708C248.188 163.892 248.112 164.06 247.96 164.212L246.076 165.964L248.164 167.836ZM256.547 169.108C255.731 169.108 255.015 168.932 254.399 168.58C253.791 168.228 253.323 167.724 252.995 167.068C252.667 166.412 252.503 165.644 252.503 164.764C252.503 163.884 252.667 163.12 252.995 162.472C253.323 161.816 253.791 161.312 254.399 160.96C255.015 160.608 255.731 160.432 256.547 160.432C257.075 160.432 257.571 160.512 258.035 160.672C258.499 160.824 258.911 161.048 259.271 161.344C259.375 161.424 259.447 161.508 259.487 161.596C259.527 161.684 259.547 161.792 259.547 161.92C259.547 162.096 259.499 162.244 259.403 162.364C259.307 162.484 259.191 162.544 259.055 162.544C258.895 162.544 258.731 162.488 258.563 162.376C258.219 162.12 257.899 161.944 257.603 161.848C257.307 161.744 256.979 161.692 256.619 161.692C255.787 161.692 255.155 161.952 254.723 162.472C254.299 162.992 254.087 163.756 254.087 164.764C254.087 165.78 254.299 166.548 254.723 167.068C255.155 167.588 255.787 167.848 256.619 167.848C256.963 167.848 257.279 167.796 257.567 167.692C257.863 167.588 258.195 167.412 258.563 167.164C258.643 167.116 258.723 167.076 258.803 167.044C258.883 167.012 258.967 166.996 259.055 166.996C259.191 166.996 259.307 167.056 259.403 167.176C259.499 167.296 259.547 167.444 259.547 167.62C259.547 167.74 259.527 167.848 259.487 167.944C259.447 168.032 259.375 168.116 259.271 168.196C258.911 168.492 258.499 168.72 258.035 168.88C257.571 169.032 257.075 169.108 256.547 169.108ZM261.512 169.072C261.296 169.072 261.116 169.012 260.972 168.892C260.836 168.764 260.768 168.584 260.768 168.352V161.188C260.768 160.956 260.836 160.78 260.972 160.66C261.116 160.54 261.296 160.48 261.512 160.48C261.728 160.48 261.908 160.54 262.052 160.66C262.196 160.78 262.268 160.956 262.268 161.188V168.352C262.268 168.584 262.196 168.764 262.052 168.892C261.908 169.012 261.728 169.072 261.512 169.072ZM266.359 162.988C267.175 162.988 267.779 163.192 268.171 163.6C268.571 164 268.771 164.612 268.771 165.436V168.364C268.771 168.58 268.707 168.752 268.579 168.88C268.451 169 268.275 169.06 268.051 169.06C267.843 169.06 267.671 168.996 267.535 168.868C267.407 168.74 267.343 168.572 267.343 168.364V168.1C267.207 168.412 266.991 168.656 266.695 168.832C266.407 169.008 266.071 169.096 265.687 169.096C265.295 169.096 264.939 169.016 264.619 168.856C264.299 168.696 264.047 168.476 263.863 168.196C263.679 167.916 263.587 167.604 263.587 167.26C263.587 166.828 263.695 166.488 263.911 166.24C264.135 165.992 264.495 165.812 264.991 165.7C265.487 165.588 266.171 165.532 267.043 165.532H267.343V165.256C267.343 164.864 267.259 164.58 267.091 164.404C266.923 164.22 266.651 164.128 266.275 164.128C266.043 164.128 265.807 164.164 265.567 164.236C265.327 164.3 265.043 164.396 264.715 164.524C264.507 164.628 264.355 164.68 264.259 164.68C264.115 164.68 263.995 164.628 263.899 164.524C263.811 164.42 263.767 164.284 263.767 164.116C263.767 163.98 263.799 163.864 263.863 163.768C263.935 163.664 264.051 163.568 264.211 163.48C264.491 163.328 264.823 163.208 265.207 163.12C265.599 163.032 265.983 162.988 266.359 162.988ZM265.987 168.016C266.387 168.016 266.711 167.884 266.959 167.62C267.215 167.348 267.343 167 267.343 166.576V166.324H267.127C266.591 166.324 266.175 166.348 265.879 166.396C265.583 166.444 265.371 166.528 265.243 166.648C265.115 166.768 265.051 166.932 265.051 167.14C265.051 167.396 265.139 167.608 265.315 167.776C265.499 167.936 265.723 168.016 265.987 168.016ZM273.572 163.012C273.78 162.996 273.944 163.04 274.064 163.144C274.184 163.248 274.244 163.404 274.244 163.612C274.244 163.828 274.192 163.988 274.088 164.092C273.984 164.196 273.796 164.264 273.524 164.296L273.164 164.332C272.692 164.38 272.344 164.54 272.12 164.812C271.904 165.084 271.796 165.424 271.796 165.832V168.352C271.796 168.584 271.724 168.764 271.58 168.892C271.436 169.012 271.256 169.072 271.04 169.072C270.824 169.072 270.644 169.012 270.5 168.892C270.364 168.764 270.296 168.584 270.296 168.352V163.708C270.296 163.484 270.364 163.312 270.5 163.192C270.644 163.072 270.82 163.012 271.028 163.012C271.236 163.012 271.404 163.072 271.532 163.192C271.66 163.304 271.724 163.468 271.724 163.684V164.164C271.876 163.812 272.1 163.54 272.396 163.348C272.7 163.156 273.036 163.048 273.404 163.024L273.572 163.012ZM280.109 167.836C280.269 167.988 280.349 168.16 280.349 168.352C280.349 168.536 280.281 168.7 280.145 168.844C280.017 168.988 279.865 169.06 279.689 169.06C279.513 169.06 279.349 168.988 279.197 168.844L276.389 166.3V168.352C276.389 168.584 276.317 168.76 276.173 168.88C276.029 169 275.849 169.06 275.633 169.06C275.417 169.06 275.237 169 275.093 168.88C274.957 168.76 274.889 168.584 274.889 168.352V161.188C274.889 160.956 274.957 160.78 275.093 160.66C275.237 160.54 275.417 160.48 275.633 160.48C275.849 160.48 276.029 160.54 276.173 160.66C276.317 160.78 276.389 160.956 276.389 161.188V165.7L278.957 163.24C279.101 163.096 279.265 163.024 279.449 163.024C279.633 163.024 279.793 163.092 279.929 163.228C280.065 163.364 280.133 163.524 280.133 163.708C280.133 163.892 280.057 164.06 279.905 164.212L278.021 165.964L280.109 167.836ZM285.885 167.392C286.021 167.392 286.129 167.444 286.209 167.548C286.297 167.652 286.341 167.792 286.341 167.968C286.341 168.216 286.193 168.424 285.897 168.592C285.625 168.744 285.317 168.868 284.973 168.964C284.629 169.052 284.301 169.096 283.989 169.096C283.045 169.096 282.297 168.824 281.745 168.28C281.193 167.736 280.917 166.992 280.917 166.048C280.917 165.448 281.037 164.916 281.277 164.452C281.517 163.988 281.853 163.628 282.285 163.372C282.725 163.116 283.221 162.988 283.773 162.988C284.301 162.988 284.761 163.104 285.153 163.336C285.545 163.568 285.849 163.896 286.065 164.32C286.281 164.744 286.389 165.244 286.389 165.82C286.389 166.164 286.237 166.336 285.933 166.336H282.393C282.441 166.888 282.597 167.296 282.861 167.56C283.125 167.816 283.509 167.944 284.013 167.944C284.269 167.944 284.493 167.912 284.685 167.848C284.885 167.784 285.109 167.696 285.357 167.584C285.597 167.456 285.773 167.392 285.885 167.392ZM283.809 164.044C283.401 164.044 283.073 164.172 282.825 164.428C282.585 164.684 282.441 165.052 282.393 165.532H285.105C285.089 165.044 284.969 164.676 284.745 164.428C284.521 164.172 284.209 164.044 283.809 164.044Z" fill="#234CAD"/>
</g>
</g>
<g clip-path="url(#clip2_12505_148)">
<circle cx="183.5" cy="173.5" r="22.5" fill="#F2F6FF"/>
<path d="M183.126 168.77C183.369 168.77 183.564 168.848 183.711 169.004C183.858 169.151 183.932 169.351 183.932 169.602V177.298C183.932 177.541 183.863 177.731 183.724 177.87C183.585 178.009 183.403 178.078 183.178 178.078C182.953 178.078 182.775 178.009 182.645 177.87C182.515 177.731 182.45 177.541 182.45 177.298V171.942L180.24 176.128C180.136 176.319 180.023 176.462 179.902 176.557C179.781 176.644 179.638 176.687 179.473 176.687C179.308 176.687 179.165 176.644 179.044 176.557C178.923 176.47 178.81 176.327 178.706 176.128L176.483 172.007V177.298C176.483 177.532 176.414 177.723 176.275 177.87C176.145 178.009 175.967 178.078 175.742 178.078C175.517 178.078 175.339 178.009 175.209 177.87C175.079 177.731 175.014 177.541 175.014 177.298V169.602C175.014 169.351 175.083 169.151 175.222 169.004C175.369 168.848 175.564 168.77 175.807 168.77C176.145 168.77 176.409 168.956 176.6 169.329L179.486 174.828L182.359 169.329C182.55 168.956 182.805 168.77 183.126 168.77ZM190.014 178.117C189.13 178.117 188.354 177.926 187.687 177.545C187.028 177.164 186.521 176.618 186.166 175.907C185.81 175.196 185.633 174.364 185.633 173.411C185.633 172.458 185.81 171.63 186.166 170.928C186.521 170.217 187.028 169.671 187.687 169.29C188.354 168.909 189.13 168.718 190.014 168.718C190.586 168.718 191.123 168.805 191.626 168.978C192.128 169.143 192.575 169.385 192.965 169.706C193.077 169.793 193.155 169.884 193.199 169.979C193.242 170.074 193.264 170.191 193.264 170.33C193.264 170.521 193.212 170.681 193.108 170.811C193.004 170.941 192.878 171.006 192.731 171.006C192.557 171.006 192.38 170.945 192.198 170.824C191.825 170.547 191.478 170.356 191.158 170.252C190.837 170.139 190.482 170.083 190.092 170.083C189.19 170.083 188.506 170.365 188.038 170.928C187.578 171.491 187.349 172.319 187.349 173.411C187.349 174.512 187.578 175.344 188.038 175.907C188.506 176.47 189.19 176.752 190.092 176.752C190.464 176.752 190.807 176.696 191.119 176.583C191.439 176.47 191.799 176.28 192.198 176.011C192.284 175.959 192.371 175.916 192.458 175.881C192.544 175.846 192.635 175.829 192.731 175.829C192.878 175.829 193.004 175.894 193.108 176.024C193.212 176.154 193.264 176.314 193.264 176.505C193.264 176.635 193.242 176.752 193.199 176.856C193.155 176.951 193.077 177.042 192.965 177.129C192.575 177.45 192.128 177.697 191.626 177.87C191.123 178.035 190.586 178.117 190.014 178.117Z" fill="#234CAD"/>
</g>
<g clip-path="url(#clip3_12505_148)">
<circle cx="200" cy="157" r="5.25" fill="#234CAD" stroke="white" stroke-width="1.5"/>
<path d="M201.1 157.048C201.18 157.048 201.24 157.065 201.28 157.1C201.32 157.135 201.34 157.184 201.34 157.248C201.34 157.381 201.26 157.448 201.1 157.448H200.896V157.764C200.896 157.847 200.872 157.911 200.824 157.956C200.779 158.001 200.719 158.024 200.644 158.024C200.569 158.024 200.508 158.001 200.46 157.956C200.415 157.911 200.392 157.847 200.392 157.764V157.448H199.344C199.272 157.448 199.216 157.428 199.176 157.388C199.136 157.345 199.116 157.293 199.116 157.232C199.116 157.168 199.137 157.107 199.18 157.048L200.416 155.272C200.443 155.235 200.476 155.207 200.516 155.188C200.556 155.167 200.597 155.156 200.64 155.156C200.709 155.156 200.769 155.179 200.82 155.224C200.871 155.269 200.896 155.333 200.896 155.416V157.048H201.1ZM199.648 157.048H200.392V155.972L199.648 157.048Z" fill="#F7FAFC"/>
</g>
</g>
<defs>
<filter id="filter0_f_12505_148" x="0.085907" y="0.085907" width="553.828" height="356.828" filterUnits="userSpaceOnUse" color-interpolation-filters="sRGB">
<feFlood flood-opacity="0" result="BackgroundImageFix"/>
<feBlend mode="normal" in="SourceGraphic" in2="BackgroundImageFix" result="shape"/>
<feGaussianBlur stdDeviation="67.957" result="effect1_foregroundBlur_12505_148"/>
</filter>
<linearGradient id="paint0_linear_12505_148" x1="349.554" y1="252.108" x2="378.433" y2="112.982" gradientUnits="userSpaceOnUse">
<stop stop-color="#234CAD"/>
<stop offset="1" stop-color="#234CAD" stop-opacity="0.5"/>
</linearGradient>
<clipPath id="clip0_12505_148">
<rect width="171" height="34" fill="white" transform="translate(221 157)"/>
</clipPath>
<clipPath id="clip1_12505_148">
<rect width="139" height="34" fill="white" transform="translate(221 157)"/>
</clipPath>
<clipPath id="clip2_12505_148">
<rect width="45" height="45" fill="white" transform="translate(161 151)"/>
</clipPath>
<clipPath id="clip3_12505_148">
<rect width="12" height="12" fill="white" transform="translate(194 151)"/>
</clipPath>
</defs>
</svg>
