<svg width="672" height="397" viewBox="0 0 672 397" fill="none" xmlns="http://www.w3.org/2000/svg">
<g opacity="0.85">
<g opacity="0.05" filter="url(#filter0_f_12505_163)">
<rect x="136" y="136" width="400" height="125" rx="20" fill="url(#paint0_linear_12505_163)"/>
</g>
<rect x="161" y="136" width="350" height="100" rx="20" fill="white"/>
<g clip-path="url(#clip0_12505_163)">
<path opacity="0.75" d="M455.27 169.58C455.717 169.58 456.107 169.673 456.44 169.86C456.78 170.047 457.04 170.31 457.22 170.65C457.407 170.983 457.5 171.37 457.5 171.81C457.5 172.25 457.4 172.643 457.2 172.99C457 173.33 456.72 173.597 456.36 173.79C456.007 173.977 455.597 174.07 455.13 174.07C454.717 174.07 454.313 173.997 453.92 173.85C453.527 173.703 453.193 173.503 452.92 173.25C452.813 173.15 452.76 173.037 452.76 172.91C452.76 172.81 452.787 172.727 452.84 172.66C452.893 172.593 452.957 172.56 453.03 172.56C453.123 172.56 453.217 172.597 453.31 172.67C453.603 172.91 453.897 173.09 454.19 173.21C454.483 173.323 454.79 173.38 455.11 173.38C455.603 173.38 455.99 173.24 456.27 172.96C456.55 172.68 456.69 172.3 456.69 171.82C456.69 171.353 456.55 170.977 456.27 170.69C455.99 170.403 455.613 170.26 455.14 170.26C454.533 170.26 454.04 170.493 453.66 170.96C453.567 171.06 453.453 171.11 453.32 171.11C453.227 171.11 453.147 171.083 453.08 171.03C453.02 170.97 452.99 170.89 452.99 170.79V167.34C452.99 167.227 453.023 167.133 453.09 167.06C453.163 166.987 453.263 166.95 453.39 166.95H456.91C457.03 166.95 457.123 166.98 457.19 167.04C457.263 167.1 457.3 167.183 457.3 167.29C457.3 167.397 457.263 167.48 457.19 167.54C457.123 167.6 457.03 167.63 456.91 167.63H453.8V170.14C453.987 169.96 454.203 169.823 454.45 169.73C454.703 169.63 454.977 169.58 455.27 169.58ZM459.146 170.15C458.986 170.15 458.853 170.1 458.746 170C458.639 169.893 458.586 169.757 458.586 169.59C458.586 169.423 458.639 169.29 458.746 169.19C458.853 169.083 458.986 169.03 459.146 169.03C459.299 169.03 459.426 169.083 459.526 169.19C459.633 169.29 459.686 169.423 459.686 169.59C459.686 169.757 459.633 169.893 459.526 170C459.426 170.1 459.299 170.15 459.146 170.15ZM459.146 174.05C458.986 174.05 458.853 174 458.746 173.9C458.639 173.793 458.586 173.657 458.586 173.49C458.586 173.323 458.639 173.187 458.746 173.08C458.853 172.973 458.986 172.92 459.146 172.92C459.299 172.92 459.426 172.973 459.526 173.08C459.633 173.187 459.686 173.323 459.686 173.49C459.686 173.657 459.633 173.793 459.526 173.9C459.426 174 459.299 174.05 459.146 174.05ZM465.361 173.31C465.481 173.31 465.575 173.34 465.641 173.4C465.708 173.46 465.741 173.543 465.741 173.65C465.741 173.883 465.615 174 465.361 174H461.441C461.328 174 461.235 173.967 461.161 173.9C461.088 173.827 461.051 173.74 461.051 173.64C461.051 173.513 461.098 173.403 461.191 173.31L463.601 170.66C463.935 170.287 464.175 169.953 464.321 169.66C464.475 169.36 464.551 169.06 464.551 168.76C464.551 168.373 464.438 168.077 464.211 167.87C463.991 167.663 463.678 167.56 463.271 167.56C462.951 167.56 462.645 167.62 462.351 167.74C462.058 167.853 461.765 168.03 461.471 168.27C461.371 168.35 461.278 168.39 461.191 168.39C461.118 168.39 461.055 168.357 461.001 168.29C460.948 168.217 460.921 168.13 460.921 168.03C460.921 167.89 460.975 167.777 461.081 167.69C461.355 167.437 461.688 167.237 462.081 167.09C462.475 166.943 462.878 166.87 463.291 166.87C463.925 166.87 464.428 167.037 464.801 167.37C465.181 167.703 465.371 168.153 465.371 168.72C465.371 169.127 465.278 169.517 465.091 169.89C464.911 170.263 464.611 170.68 464.191 171.14L462.191 173.31H465.361ZM471.307 166.95C471.427 166.95 471.517 166.983 471.577 167.05C471.644 167.11 471.677 167.19 471.677 167.29C471.677 167.383 471.647 167.487 471.587 167.6L468.267 173.85C468.187 173.997 468.071 174.07 467.917 174.07C467.811 174.07 467.714 174.033 467.627 173.96C467.547 173.887 467.507 173.797 467.507 173.69C467.507 173.617 467.531 173.543 467.577 173.47L470.697 167.64H467.247C467.127 167.64 467.034 167.61 466.967 167.55C466.907 167.49 466.877 167.407 466.877 167.3C466.877 167.187 466.907 167.1 466.967 167.04C467.034 166.98 467.127 166.95 467.247 166.95H471.307ZM481.792 173.53C481.818 173.583 481.832 173.64 481.832 173.7C481.832 173.8 481.792 173.883 481.712 173.95C481.638 174.017 481.548 174.05 481.442 174.05C481.275 174.05 481.158 173.97 481.092 173.81L480.382 172.19H476.612L475.892 173.81C475.825 173.97 475.708 174.05 475.542 174.05C475.435 174.05 475.342 174.017 475.262 173.95C475.182 173.877 475.142 173.79 475.142 173.69C475.142 173.637 475.155 173.583 475.182 173.53L478.042 167.17C478.082 167.077 478.142 167.007 478.222 166.96C478.302 166.913 478.388 166.89 478.482 166.89C478.582 166.89 478.672 166.917 478.752 166.97C478.832 167.017 478.892 167.083 478.932 167.17L481.792 173.53ZM476.912 171.51H480.082L478.492 167.92L476.912 171.51ZM489.247 166.9C489.374 166.9 489.471 166.94 489.537 167.02C489.611 167.093 489.647 167.193 489.647 167.32V173.65C489.647 173.77 489.614 173.867 489.547 173.94C489.481 174.013 489.387 174.05 489.267 174.05C489.147 174.05 489.057 174.013 488.997 173.94C488.937 173.867 488.907 173.77 488.907 173.65V168.54L486.737 172.7C486.644 172.893 486.507 172.99 486.327 172.99C486.154 172.99 486.017 172.893 485.917 172.7L483.737 168.59V173.65C483.737 173.77 483.704 173.867 483.637 173.94C483.577 174.013 483.487 174.05 483.367 174.05C483.247 174.05 483.154 174.013 483.087 173.94C483.021 173.867 482.987 173.77 482.987 173.65V167.32C482.987 167.193 483.024 167.093 483.097 167.02C483.171 166.94 483.271 166.9 483.397 166.9C483.564 166.9 483.697 166.997 483.797 167.19L486.337 172.06L488.847 167.19C488.901 167.083 488.957 167.01 489.017 166.97C489.084 166.923 489.161 166.9 489.247 166.9Z" fill="#234CAD"/>
<g clip-path="url(#clip1_12505_163)">
<path d="M272.856 193.78C272.888 193.676 272.944 193.6 273.024 193.552C273.104 193.496 273.192 193.468 273.288 193.468C273.416 193.468 273.524 193.508 273.612 193.588C273.708 193.66 273.756 193.76 273.756 193.888C273.756 193.944 273.744 194.008 273.72 194.08L271.008 201.724C270.968 201.836 270.9 201.924 270.804 201.988C270.708 202.044 270.6 202.072 270.48 202.072C270.368 202.072 270.264 202.044 270.168 201.988C270.072 201.924 270.004 201.836 269.964 201.724L267.612 195.076L265.236 201.724C265.196 201.836 265.128 201.924 265.032 201.988C264.936 202.044 264.832 202.072 264.72 202.072C264.608 202.072 264.504 202.044 264.408 201.988C264.312 201.924 264.244 201.836 264.204 201.724L261.48 194.08C261.456 194.016 261.444 193.956 261.444 193.9C261.444 193.772 261.492 193.668 261.588 193.588C261.692 193.508 261.808 193.468 261.936 193.468C262.032 193.468 262.12 193.496 262.2 193.552C262.288 193.6 262.348 193.676 262.38 193.78L264.744 200.596L267.144 193.852C267.184 193.732 267.248 193.644 267.336 193.588C267.424 193.524 267.52 193.492 267.624 193.492C267.728 193.492 267.824 193.524 267.912 193.588C268 193.652 268.064 193.744 268.104 193.864L270.468 200.62L272.856 193.78ZM276.863 202.084C276.311 202.084 275.823 201.96 275.399 201.712C274.983 201.464 274.659 201.112 274.427 200.656C274.203 200.192 274.091 199.656 274.091 199.048C274.091 198.44 274.203 197.908 274.427 197.452C274.659 196.988 274.983 196.632 275.399 196.384C275.823 196.136 276.311 196.012 276.863 196.012C277.415 196.012 277.903 196.136 278.327 196.384C278.751 196.632 279.075 196.988 279.299 197.452C279.531 197.908 279.647 198.44 279.647 199.048C279.647 199.656 279.531 200.192 279.299 200.656C279.075 201.112 278.751 201.464 278.327 201.712C277.903 201.96 277.415 202.084 276.863 202.084ZM276.863 201.28C277.439 201.28 277.879 201.092 278.183 200.716C278.495 200.332 278.651 199.776 278.651 199.048C278.651 198.336 278.495 197.788 278.183 197.404C277.871 197.012 277.431 196.816 276.863 196.816C276.295 196.816 275.855 197.012 275.543 197.404C275.231 197.788 275.075 198.336 275.075 199.048C275.075 199.768 275.227 200.32 275.531 200.704C275.843 201.088 276.287 201.28 276.863 201.28ZM285.535 196.036C285.687 196.036 285.803 196.08 285.883 196.168C285.971 196.256 286.015 196.372 286.015 196.516V201.592C286.015 201.728 285.971 201.84 285.883 201.928C285.803 202.016 285.687 202.06 285.535 202.06C285.391 202.06 285.275 202.02 285.187 201.94C285.107 201.852 285.067 201.74 285.067 201.604V201.004C284.883 201.356 284.623 201.624 284.287 201.808C283.959 201.992 283.587 202.084 283.171 202.084C282.475 202.084 281.951 201.892 281.599 201.508C281.247 201.116 281.071 200.54 281.071 199.78V196.516C281.071 196.372 281.115 196.256 281.203 196.168C281.291 196.08 281.411 196.036 281.563 196.036C281.715 196.036 281.831 196.08 281.911 196.168C281.999 196.256 282.043 196.372 282.043 196.516V199.756C282.043 200.276 282.147 200.66 282.355 200.908C282.563 201.148 282.891 201.268 283.339 201.268C283.851 201.268 284.263 201.104 284.575 200.776C284.887 200.44 285.043 200 285.043 199.456V196.516C285.043 196.372 285.087 196.256 285.175 196.168C285.263 196.08 285.383 196.036 285.535 196.036ZM288.314 202.06C288.17 202.06 288.05 202.02 287.954 201.94C287.866 201.852 287.822 201.732 287.822 201.58V193.96C287.822 193.808 287.866 193.692 287.954 193.612C288.05 193.524 288.17 193.48 288.314 193.48C288.45 193.48 288.562 193.524 288.65 193.612C288.746 193.692 288.794 193.808 288.794 193.96V201.58C288.794 201.732 288.746 201.852 288.65 201.94C288.562 202.02 288.45 202.06 288.314 202.06ZM295.303 193.48C295.455 193.48 295.575 193.524 295.663 193.612C295.751 193.7 295.795 193.812 295.795 193.948V201.58C295.795 201.724 295.751 201.84 295.663 201.928C295.575 202.016 295.455 202.06 295.303 202.06C295.151 202.06 295.031 202.016 294.943 201.928C294.863 201.84 294.823 201.724 294.823 201.58V200.932C294.647 201.3 294.387 201.584 294.043 201.784C293.707 201.984 293.311 202.084 292.855 202.084C292.343 202.084 291.891 201.956 291.499 201.7C291.107 201.444 290.803 201.088 290.587 200.632C290.371 200.168 290.263 199.632 290.263 199.024C290.263 198.424 290.371 197.896 290.587 197.44C290.803 196.984 291.107 196.632 291.499 196.384C291.891 196.136 292.343 196.012 292.855 196.012C293.311 196.012 293.707 196.112 294.043 196.312C294.387 196.512 294.647 196.796 294.823 197.164V193.948C294.823 193.804 294.863 193.692 294.943 193.612C295.031 193.524 295.151 193.48 295.303 193.48ZM293.047 201.28C293.615 201.28 294.051 201.088 294.355 200.704C294.667 200.312 294.823 199.76 294.823 199.048C294.823 198.336 294.667 197.788 294.355 197.404C294.051 197.02 293.615 196.828 293.047 196.828C292.479 196.828 292.035 197.02 291.715 197.404C291.403 197.788 291.247 198.328 291.247 199.024C291.247 199.736 291.403 200.292 291.715 200.692C292.035 201.084 292.479 201.28 293.047 201.28ZM304.901 196.336C304.989 196.144 305.129 196.048 305.321 196.048C305.441 196.048 305.549 196.088 305.645 196.168C305.741 196.248 305.789 196.348 305.789 196.468C305.789 196.54 305.773 196.604 305.741 196.66L302.369 203.932C302.329 204.02 302.269 204.088 302.189 204.136C302.117 204.184 302.041 204.208 301.961 204.208C301.841 204.208 301.733 204.168 301.637 204.088C301.549 204.016 301.505 203.92 301.505 203.8C301.505 203.736 301.521 203.672 301.553 203.608L302.393 201.796L300.017 196.66C299.985 196.604 299.969 196.544 299.969 196.48C299.969 196.36 300.021 196.256 300.125 196.168C300.237 196.08 300.357 196.036 300.485 196.036C300.565 196.036 300.641 196.06 300.713 196.108C300.793 196.156 300.853 196.224 300.893 196.312L302.897 200.812L304.901 196.336ZM309.207 202.084C308.655 202.084 308.167 201.96 307.743 201.712C307.327 201.464 307.003 201.112 306.771 200.656C306.547 200.192 306.435 199.656 306.435 199.048C306.435 198.44 306.547 197.908 306.771 197.452C307.003 196.988 307.327 196.632 307.743 196.384C308.167 196.136 308.655 196.012 309.207 196.012C309.759 196.012 310.247 196.136 310.671 196.384C311.095 196.632 311.419 196.988 311.643 197.452C311.875 197.908 311.991 198.44 311.991 199.048C311.991 199.656 311.875 200.192 311.643 200.656C311.419 201.112 311.095 201.464 310.671 201.712C310.247 201.96 309.759 202.084 309.207 202.084ZM309.207 201.28C309.783 201.28 310.223 201.092 310.527 200.716C310.839 200.332 310.995 199.776 310.995 199.048C310.995 198.336 310.839 197.788 310.527 197.404C310.215 197.012 309.775 196.816 309.207 196.816C308.639 196.816 308.199 197.012 307.887 197.404C307.575 197.788 307.419 198.336 307.419 199.048C307.419 199.768 307.571 200.32 307.875 200.704C308.187 201.088 308.631 201.28 309.207 201.28ZM317.879 196.036C318.031 196.036 318.147 196.08 318.227 196.168C318.315 196.256 318.359 196.372 318.359 196.516V201.592C318.359 201.728 318.315 201.84 318.227 201.928C318.147 202.016 318.031 202.06 317.879 202.06C317.735 202.06 317.619 202.02 317.531 201.94C317.451 201.852 317.411 201.74 317.411 201.604V201.004C317.227 201.356 316.967 201.624 316.631 201.808C316.303 201.992 315.931 202.084 315.515 202.084C314.819 202.084 314.295 201.892 313.943 201.508C313.591 201.116 313.415 200.54 313.415 199.78V196.516C313.415 196.372 313.459 196.256 313.547 196.168C313.635 196.08 313.755 196.036 313.907 196.036C314.059 196.036 314.175 196.08 314.255 196.168C314.343 196.256 314.387 196.372 314.387 196.516V199.756C314.387 200.276 314.491 200.66 314.699 200.908C314.907 201.148 315.235 201.268 315.683 201.268C316.195 201.268 316.607 201.104 316.919 200.776C317.231 200.44 317.387 200 317.387 199.456V196.516C317.387 196.372 317.431 196.256 317.519 196.168C317.607 196.08 317.727 196.036 317.879 196.036ZM323.751 202.06C323.607 202.06 323.487 202.02 323.391 201.94C323.303 201.852 323.259 201.732 323.259 201.58V193.96C323.259 193.808 323.303 193.692 323.391 193.612C323.487 193.524 323.607 193.48 323.751 193.48C323.887 193.48 323.999 193.524 324.087 193.612C324.183 193.692 324.231 193.808 324.231 193.96V201.58C324.231 201.732 324.183 201.852 324.087 201.94C323.999 202.02 323.887 202.06 323.751 202.06ZM326.54 202.06C326.396 202.06 326.276 202.02 326.18 201.94C326.092 201.852 326.048 201.732 326.048 201.58V196.516C326.048 196.364 326.092 196.248 326.18 196.168C326.276 196.08 326.396 196.036 326.54 196.036C326.684 196.036 326.8 196.08 326.888 196.168C326.976 196.248 327.02 196.364 327.02 196.516V201.58C327.02 201.74 326.976 201.86 326.888 201.94C326.8 202.02 326.684 202.06 326.54 202.06ZM326.54 194.776C326.348 194.776 326.192 194.72 326.072 194.608C325.952 194.496 325.892 194.348 325.892 194.164C325.892 193.988 325.952 193.844 326.072 193.732C326.192 193.62 326.348 193.564 326.54 193.564C326.732 193.564 326.888 193.62 327.008 193.732C327.128 193.844 327.188 193.988 327.188 194.164C327.188 194.348 327.128 194.496 327.008 194.608C326.888 194.72 326.732 194.776 326.54 194.776ZM333.506 201.232C333.634 201.352 333.698 201.48 333.698 201.616C333.698 201.736 333.654 201.84 333.566 201.928C333.486 202.016 333.386 202.06 333.266 202.06C333.162 202.06 333.054 202.012 332.942 201.916L329.81 199.216V201.58C329.81 201.732 329.762 201.852 329.666 201.94C329.578 202.02 329.466 202.06 329.33 202.06C329.186 202.06 329.066 202.02 328.97 201.94C328.882 201.852 328.838 201.732 328.838 201.58V193.96C328.838 193.808 328.882 193.692 328.97 193.612C329.066 193.524 329.186 193.48 329.33 193.48C329.466 193.48 329.578 193.524 329.666 193.612C329.762 193.692 329.81 193.808 329.81 193.96V198.832L332.678 196.204C332.774 196.108 332.882 196.06 333.002 196.06C333.122 196.06 333.226 196.104 333.314 196.192C333.402 196.28 333.446 196.384 333.446 196.504C333.446 196.64 333.39 196.76 333.278 196.864L330.914 198.976L333.506 201.232ZM339.256 200.644C339.344 200.644 339.42 200.68 339.484 200.752C339.548 200.824 339.58 200.916 339.58 201.028C339.58 201.228 339.44 201.412 339.16 201.58C338.872 201.748 338.568 201.876 338.248 201.964C337.928 202.044 337.616 202.084 337.312 202.084C336.408 202.084 335.692 201.816 335.164 201.28C334.644 200.744 334.384 200.004 334.384 199.06C334.384 198.46 334.5 197.932 334.732 197.476C334.964 197.012 335.288 196.652 335.704 196.396C336.128 196.14 336.608 196.012 337.144 196.012C337.904 196.012 338.508 196.26 338.956 196.756C339.404 197.252 339.628 197.924 339.628 198.772C339.628 198.932 339.596 199.048 339.532 199.12C339.468 199.192 339.364 199.228 339.22 199.228H335.356C335.428 200.604 336.08 201.292 337.312 201.292C337.624 201.292 337.892 201.252 338.116 201.172C338.34 201.084 338.58 200.968 338.836 200.824C339.044 200.704 339.184 200.644 339.256 200.644ZM337.156 196.768C336.644 196.768 336.232 196.928 335.92 197.248C335.616 197.568 335.436 198.02 335.38 198.604H338.776C338.76 198.012 338.612 197.56 338.332 197.248C338.052 196.928 337.66 196.768 337.156 196.768ZM346.854 201.292C347.134 201.316 347.274 201.444 347.274 201.676C347.274 201.812 347.222 201.916 347.118 201.988C347.022 202.052 346.874 202.076 346.674 202.06L346.35 202.036C345.71 201.988 345.238 201.796 344.934 201.46C344.63 201.124 344.478 200.616 344.478 199.936V196.924H343.674C343.538 196.924 343.43 196.892 343.35 196.828C343.278 196.756 343.242 196.664 343.242 196.552C343.242 196.432 343.278 196.336 343.35 196.264C343.43 196.192 343.538 196.156 343.674 196.156H344.478V194.8C344.478 194.648 344.522 194.532 344.61 194.452C344.698 194.364 344.818 194.32 344.97 194.32C345.114 194.32 345.23 194.364 345.318 194.452C345.406 194.532 345.45 194.648 345.45 194.8V196.156H346.782C346.91 196.156 347.01 196.192 347.082 196.264C347.162 196.336 347.202 196.432 347.202 196.552C347.202 196.664 347.162 196.756 347.082 196.828C347.01 196.892 346.91 196.924 346.782 196.924H345.45V199.984C345.45 200.424 345.538 200.744 345.714 200.944C345.898 201.136 346.17 201.244 346.53 201.268L346.854 201.292ZM350.656 202.084C350.104 202.084 349.616 201.96 349.192 201.712C348.776 201.464 348.452 201.112 348.22 200.656C347.996 200.192 347.884 199.656 347.884 199.048C347.884 198.44 347.996 197.908 348.22 197.452C348.452 196.988 348.776 196.632 349.192 196.384C349.616 196.136 350.104 196.012 350.656 196.012C351.208 196.012 351.696 196.136 352.12 196.384C352.544 196.632 352.868 196.988 353.092 197.452C353.324 197.908 353.44 198.44 353.44 199.048C353.44 199.656 353.324 200.192 353.092 200.656C352.868 201.112 352.544 201.464 352.12 201.712C351.696 201.96 351.208 202.084 350.656 202.084ZM350.656 201.28C351.232 201.28 351.672 201.092 351.976 200.716C352.288 200.332 352.444 199.776 352.444 199.048C352.444 198.336 352.288 197.788 351.976 197.404C351.664 197.012 351.224 196.816 350.656 196.816C350.088 196.816 349.648 197.012 349.336 197.404C349.024 197.788 348.868 198.336 348.868 199.048C348.868 199.768 349.02 200.32 349.324 200.704C349.636 201.088 350.08 201.28 350.656 201.28ZM360.934 196.012C361.622 196.012 362.142 196.208 362.494 196.6C362.846 196.984 363.022 197.56 363.022 198.328V201.58C363.022 201.732 362.978 201.852 362.89 201.94C362.802 202.02 362.686 202.06 362.542 202.06C362.39 202.06 362.27 202.02 362.182 201.94C362.094 201.852 362.05 201.732 362.05 201.58V198.352C362.05 197.832 361.942 197.448 361.726 197.2C361.518 196.952 361.182 196.828 360.718 196.828C360.182 196.828 359.754 196.992 359.434 197.32C359.114 197.648 358.954 198.092 358.954 198.652V201.58C358.954 201.732 358.91 201.852 358.822 201.94C358.742 202.02 358.626 202.06 358.474 202.06C358.322 202.06 358.202 202.02 358.114 201.94C358.026 201.852 357.982 201.732 357.982 201.58V193.948C357.982 193.812 358.026 193.7 358.114 193.612C358.21 193.524 358.33 193.48 358.474 193.48C358.626 193.48 358.742 193.524 358.822 193.612C358.91 193.692 358.954 193.804 358.954 193.948V197.092C359.146 196.74 359.414 196.472 359.758 196.288C360.102 196.104 360.494 196.012 360.934 196.012ZM367.19 196.012C368.654 196.012 369.386 196.78 369.386 198.316V201.58C369.386 201.724 369.342 201.84 369.254 201.928C369.174 202.016 369.062 202.06 368.918 202.06C368.774 202.06 368.658 202.016 368.57 201.928C368.482 201.84 368.438 201.724 368.438 201.58V201.004C368.286 201.348 368.054 201.616 367.742 201.808C367.43 201.992 367.07 202.084 366.662 202.084C366.286 202.084 365.938 202.008 365.618 201.856C365.306 201.704 365.058 201.492 364.874 201.22C364.69 200.948 364.598 200.648 364.598 200.32C364.598 199.88 364.71 199.54 364.934 199.3C365.158 199.052 365.526 198.876 366.038 198.772C366.55 198.66 367.262 198.604 368.174 198.604H368.438V198.208C368.438 197.728 368.338 197.376 368.138 197.152C367.946 196.928 367.63 196.816 367.19 196.816C366.646 196.816 366.094 196.964 365.534 197.26C365.318 197.396 365.166 197.464 365.078 197.464C364.982 197.464 364.902 197.428 364.838 197.356C364.774 197.284 364.742 197.192 364.742 197.08C364.742 196.968 364.774 196.872 364.838 196.792C364.91 196.704 365.022 196.616 365.174 196.528C365.454 196.368 365.77 196.244 366.122 196.156C366.482 196.06 366.838 196.012 367.19 196.012ZM366.794 201.316C367.274 201.316 367.666 201.156 367.97 200.836C368.282 200.508 368.438 200.088 368.438 199.576V199.228H368.222C367.518 199.228 366.982 199.26 366.614 199.324C366.246 199.38 365.982 199.48 365.822 199.624C365.67 199.76 365.594 199.964 365.594 200.236C365.594 200.548 365.706 200.808 365.93 201.016C366.162 201.216 366.45 201.316 366.794 201.316ZM375.378 196.336C375.466 196.144 375.606 196.048 375.798 196.048C375.918 196.048 376.026 196.088 376.122 196.168C376.218 196.248 376.266 196.348 376.266 196.468C376.266 196.54 376.25 196.604 376.218 196.66L373.878 201.7C373.83 201.804 373.758 201.888 373.662 201.952C373.566 202.008 373.462 202.036 373.35 202.036C373.246 202.036 373.146 202.008 373.05 201.952C372.954 201.888 372.878 201.804 372.822 201.7L370.494 196.66C370.462 196.604 370.446 196.544 370.446 196.48C370.446 196.36 370.498 196.256 370.602 196.168C370.714 196.08 370.834 196.036 370.962 196.036C371.042 196.036 371.118 196.06 371.19 196.108C371.27 196.156 371.33 196.224 371.37 196.312L373.374 200.812L375.378 196.336ZM381.783 200.644C381.871 200.644 381.947 200.68 382.011 200.752C382.075 200.824 382.107 200.916 382.107 201.028C382.107 201.228 381.967 201.412 381.687 201.58C381.399 201.748 381.095 201.876 380.775 201.964C380.455 202.044 380.143 202.084 379.839 202.084C378.935 202.084 378.219 201.816 377.691 201.28C377.171 200.744 376.911 200.004 376.911 199.06C376.911 198.46 377.027 197.932 377.259 197.476C377.491 197.012 377.815 196.652 378.231 196.396C378.655 196.14 379.135 196.012 379.671 196.012C380.431 196.012 381.035 196.26 381.483 196.756C381.931 197.252 382.155 197.924 382.155 198.772C382.155 198.932 382.123 199.048 382.059 199.12C381.995 199.192 381.891 199.228 381.747 199.228H377.883C377.955 200.604 378.607 201.292 379.839 201.292C380.151 201.292 380.419 201.252 380.643 201.172C380.867 201.084 381.107 200.968 381.363 200.824C381.571 200.704 381.711 200.644 381.783 200.644ZM379.683 196.768C379.171 196.768 378.759 196.928 378.447 197.248C378.143 197.568 377.963 198.02 377.907 198.604H381.303C381.287 198.012 381.139 197.56 380.859 197.248C380.579 196.928 380.187 196.768 379.683 196.768ZM389.069 196.012C390.533 196.012 391.265 196.78 391.265 198.316V201.58C391.265 201.724 391.221 201.84 391.133 201.928C391.053 202.016 390.941 202.06 390.797 202.06C390.653 202.06 390.537 202.016 390.449 201.928C390.361 201.84 390.317 201.724 390.317 201.58V201.004C390.165 201.348 389.933 201.616 389.621 201.808C389.309 201.992 388.949 202.084 388.541 202.084C388.165 202.084 387.817 202.008 387.497 201.856C387.185 201.704 386.937 201.492 386.753 201.22C386.569 200.948 386.477 200.648 386.477 200.32C386.477 199.88 386.589 199.54 386.813 199.3C387.037 199.052 387.405 198.876 387.917 198.772C388.429 198.66 389.141 198.604 390.053 198.604H390.317V198.208C390.317 197.728 390.217 197.376 390.017 197.152C389.825 196.928 389.509 196.816 389.069 196.816C388.525 196.816 387.973 196.964 387.413 197.26C387.197 197.396 387.045 197.464 386.957 197.464C386.861 197.464 386.781 197.428 386.717 197.356C386.653 197.284 386.621 197.192 386.621 197.08C386.621 196.968 386.653 196.872 386.717 196.792C386.789 196.704 386.901 196.616 387.053 196.528C387.333 196.368 387.649 196.244 388.001 196.156C388.361 196.06 388.717 196.012 389.069 196.012ZM388.673 201.316C389.153 201.316 389.545 201.156 389.849 200.836C390.161 200.508 390.317 200.088 390.317 199.576V199.228H390.101C389.397 199.228 388.861 199.26 388.493 199.324C388.125 199.38 387.861 199.48 387.701 199.624C387.549 199.76 387.473 199.964 387.473 200.236C387.473 200.548 387.585 200.808 387.809 201.016C388.041 201.216 388.329 201.316 388.673 201.316ZM402.642 196.012C403.938 196.012 404.586 196.784 404.586 198.328V201.58C404.586 201.732 404.542 201.852 404.454 201.94C404.366 202.02 404.25 202.06 404.106 202.06C403.962 202.06 403.842 202.02 403.746 201.94C403.658 201.852 403.614 201.732 403.614 201.58V198.352C403.614 197.816 403.518 197.428 403.326 197.188C403.134 196.948 402.834 196.828 402.426 196.828C401.938 196.828 401.554 196.992 401.274 197.32C400.994 197.648 400.854 198.092 400.854 198.652V201.58C400.854 201.732 400.806 201.852 400.71 201.94C400.622 202.02 400.506 202.06 400.362 202.06C400.218 202.06 400.102 202.02 400.014 201.94C399.926 201.852 399.882 201.732 399.882 201.58V198.352C399.882 197.816 399.786 197.428 399.594 197.188C399.402 196.948 399.098 196.828 398.682 196.828C398.202 196.828 397.818 196.992 397.53 197.32C397.25 197.648 397.11 198.092 397.11 198.652V201.58C397.11 201.732 397.066 201.852 396.978 201.94C396.89 202.02 396.774 202.06 396.63 202.06C396.486 202.06 396.366 202.02 396.27 201.94C396.182 201.852 396.138 201.732 396.138 201.58V196.516C396.138 196.372 396.182 196.256 396.27 196.168C396.366 196.08 396.486 196.036 396.63 196.036C396.766 196.036 396.878 196.08 396.966 196.168C397.054 196.248 397.098 196.36 397.098 196.504V197.08C397.274 196.736 397.518 196.472 397.83 196.288C398.142 196.104 398.502 196.012 398.91 196.012C399.822 196.012 400.418 196.396 400.698 197.164C400.866 196.812 401.122 196.532 401.466 196.324C401.81 196.116 402.202 196.012 402.642 196.012ZM410.881 200.644C410.969 200.644 411.045 200.68 411.109 200.752C411.173 200.824 411.205 200.916 411.205 201.028C411.205 201.228 411.065 201.412 410.785 201.58C410.497 201.748 410.193 201.876 409.873 201.964C409.553 202.044 409.241 202.084 408.937 202.084C408.033 202.084 407.317 201.816 406.789 201.28C406.269 200.744 406.009 200.004 406.009 199.06C406.009 198.46 406.125 197.932 406.357 197.476C406.589 197.012 406.913 196.652 407.329 196.396C407.753 196.14 408.233 196.012 408.769 196.012C409.529 196.012 410.133 196.26 410.581 196.756C411.029 197.252 411.253 197.924 411.253 198.772C411.253 198.932 411.221 199.048 411.157 199.12C411.093 199.192 410.989 199.228 410.845 199.228H406.981C407.053 200.604 407.705 201.292 408.937 201.292C409.249 201.292 409.517 201.252 409.741 201.172C409.965 201.084 410.205 200.968 410.461 200.824C410.669 200.704 410.809 200.644 410.881 200.644ZM408.781 196.768C408.269 196.768 407.857 196.928 407.545 197.248C407.241 197.568 407.061 198.02 407.005 198.604H410.401C410.385 198.012 410.237 197.56 409.957 197.248C409.677 196.928 409.285 196.768 408.781 196.768ZM417.209 200.644C417.297 200.644 417.373 200.68 417.437 200.752C417.501 200.824 417.533 200.916 417.533 201.028C417.533 201.228 417.393 201.412 417.113 201.58C416.825 201.748 416.521 201.876 416.201 201.964C415.881 202.044 415.569 202.084 415.265 202.084C414.361 202.084 413.645 201.816 413.117 201.28C412.597 200.744 412.337 200.004 412.337 199.06C412.337 198.46 412.453 197.932 412.685 197.476C412.917 197.012 413.241 196.652 413.657 196.396C414.081 196.14 414.561 196.012 415.097 196.012C415.857 196.012 416.461 196.26 416.909 196.756C417.357 197.252 417.581 197.924 417.581 198.772C417.581 198.932 417.549 199.048 417.485 199.12C417.421 199.192 417.317 199.228 417.173 199.228H413.309C413.381 200.604 414.033 201.292 415.265 201.292C415.577 201.292 415.845 201.252 416.069 201.172C416.293 201.084 416.533 200.968 416.789 200.824C416.997 200.704 417.137 200.644 417.209 200.644ZM415.109 196.768C414.597 196.768 414.185 196.928 413.873 197.248C413.569 197.568 413.389 198.02 413.333 198.604H416.729C416.713 198.012 416.565 197.56 416.285 197.248C416.005 196.928 415.613 196.768 415.109 196.768ZM421.678 201.292C421.958 201.316 422.098 201.444 422.098 201.676C422.098 201.812 422.046 201.916 421.942 201.988C421.846 202.052 421.698 202.076 421.498 202.06L421.174 202.036C420.534 201.988 420.062 201.796 419.758 201.46C419.454 201.124 419.302 200.616 419.302 199.936V196.924H418.498C418.362 196.924 418.254 196.892 418.174 196.828C418.102 196.756 418.066 196.664 418.066 196.552C418.066 196.432 418.102 196.336 418.174 196.264C418.254 196.192 418.362 196.156 418.498 196.156H419.302V194.8C419.302 194.648 419.346 194.532 419.434 194.452C419.522 194.364 419.642 194.32 419.794 194.32C419.938 194.32 420.054 194.364 420.142 194.452C420.23 194.532 420.274 194.648 420.274 194.8V196.156H421.606C421.734 196.156 421.834 196.192 421.906 196.264C421.986 196.336 422.026 196.432 422.026 196.552C422.026 196.664 421.986 196.756 421.906 196.828C421.834 196.892 421.734 196.924 421.606 196.924H420.274V199.984C420.274 200.424 420.362 200.744 420.538 200.944C420.722 201.136 420.994 201.244 421.354 201.268L421.678 201.292ZM423.548 202.06C423.404 202.06 423.284 202.02 423.188 201.94C423.1 201.852 423.056 201.732 423.056 201.58V196.516C423.056 196.364 423.1 196.248 423.188 196.168C423.284 196.08 423.404 196.036 423.548 196.036C423.692 196.036 423.808 196.08 423.896 196.168C423.984 196.248 424.028 196.364 424.028 196.516V201.58C424.028 201.74 423.984 201.86 423.896 201.94C423.808 202.02 423.692 202.06 423.548 202.06ZM423.548 194.776C423.356 194.776 423.2 194.72 423.08 194.608C422.96 194.496 422.9 194.348 422.9 194.164C422.9 193.988 422.96 193.844 423.08 193.732C423.2 193.62 423.356 193.564 423.548 193.564C423.74 193.564 423.896 193.62 424.016 193.732C424.136 193.844 424.196 193.988 424.196 194.164C424.196 194.348 424.136 194.496 424.016 194.608C423.896 194.72 423.74 194.776 423.548 194.776ZM428.785 196.012C430.185 196.012 430.885 196.784 430.885 198.328V201.58C430.885 201.732 430.841 201.852 430.753 201.94C430.673 202.02 430.557 202.06 430.405 202.06C430.253 202.06 430.133 202.02 430.045 201.94C429.957 201.852 429.913 201.732 429.913 201.58V198.388C429.913 197.844 429.805 197.448 429.589 197.2C429.381 196.952 429.045 196.828 428.581 196.828C428.045 196.828 427.617 196.992 427.297 197.32C426.977 197.648 426.817 198.092 426.817 198.652V201.58C426.817 201.732 426.773 201.852 426.685 201.94C426.605 202.02 426.489 202.06 426.337 202.06C426.185 202.06 426.065 202.02 425.977 201.94C425.889 201.852 425.845 201.732 425.845 201.58V196.516C425.845 196.372 425.889 196.256 425.977 196.168C426.065 196.08 426.185 196.036 426.337 196.036C426.481 196.036 426.593 196.08 426.673 196.168C426.761 196.256 426.805 196.368 426.805 196.504V197.116C426.997 196.756 427.265 196.484 427.609 196.3C427.953 196.108 428.345 196.012 428.785 196.012ZM433.146 202.06C432.954 202.06 432.794 202 432.666 201.88C432.538 201.752 432.474 201.588 432.474 201.388C432.474 201.188 432.538 201.024 432.666 200.896C432.794 200.768 432.954 200.704 433.146 200.704C433.33 200.704 433.482 200.768 433.602 200.896C433.73 201.024 433.794 201.188 433.794 201.388C433.794 201.588 433.73 201.752 433.602 201.88C433.482 202 433.33 202.06 433.146 202.06ZM435.894 202.06C435.702 202.06 435.542 202 435.414 201.88C435.286 201.752 435.222 201.588 435.222 201.388C435.222 201.188 435.286 201.024 435.414 200.896C435.542 200.768 435.702 200.704 435.894 200.704C436.078 200.704 436.23 200.768 436.35 200.896C436.478 201.024 436.542 201.188 436.542 201.388C436.542 201.588 436.478 201.752 436.35 201.88C436.23 202 436.078 202.06 435.894 202.06ZM438.642 202.06C438.45 202.06 438.29 202 438.162 201.88C438.034 201.752 437.97 201.588 437.97 201.388C437.97 201.188 438.034 201.024 438.162 200.896C438.29 200.768 438.45 200.704 438.642 200.704C438.826 200.704 438.978 200.768 439.098 200.896C439.226 201.024 439.29 201.188 439.29 201.388C439.29 201.588 439.226 201.752 439.098 201.88C438.978 202 438.826 202.06 438.642 202.06Z" fill="#234CAD"/>
<path d="M263.208 180C262.899 180 262.653 179.915 262.472 179.744C262.301 179.573 262.216 179.333 262.216 179.024V169.696C262.216 169.387 262.301 169.147 262.472 168.976C262.653 168.805 262.899 168.72 263.208 168.72H266.376C268.221 168.72 269.651 169.216 270.664 170.208C271.688 171.189 272.2 172.571 272.2 174.352C272.2 176.144 271.688 177.536 270.664 178.528C269.651 179.509 268.221 180 266.376 180H263.208ZM266.248 178.32C268.84 178.32 270.136 176.997 270.136 174.352C270.136 171.717 268.84 170.4 266.248 170.4H264.28V178.32H266.248ZM277.495 171.984C278.583 171.984 279.388 172.256 279.911 172.8C280.444 173.333 280.711 174.149 280.711 175.248V179.152C280.711 179.44 280.625 179.669 280.455 179.84C280.284 180 280.049 180.08 279.751 180.08C279.473 180.08 279.244 179.995 279.063 179.824C278.892 179.653 278.807 179.429 278.807 179.152V178.8C278.625 179.216 278.337 179.541 277.943 179.776C277.559 180.011 277.111 180.128 276.599 180.128C276.076 180.128 275.601 180.021 275.174 179.808C274.748 179.595 274.412 179.301 274.167 178.928C273.921 178.555 273.799 178.139 273.799 177.68C273.799 177.104 273.943 176.651 274.231 176.32C274.529 175.989 275.009 175.749 275.671 175.6C276.332 175.451 277.244 175.376 278.407 175.376H278.807V175.008C278.807 174.485 278.695 174.107 278.471 173.872C278.247 173.627 277.884 173.504 277.383 173.504C277.073 173.504 276.759 173.552 276.439 173.648C276.119 173.733 275.74 173.861 275.303 174.032C275.025 174.171 274.823 174.24 274.695 174.24C274.503 174.24 274.343 174.171 274.215 174.032C274.097 173.893 274.039 173.712 274.039 173.488C274.039 173.307 274.081 173.152 274.167 173.024C274.263 172.885 274.417 172.757 274.631 172.64C275.004 172.437 275.447 172.277 275.959 172.16C276.481 172.043 276.993 171.984 277.495 171.984ZM276.999 178.688C277.532 178.688 277.964 178.512 278.295 178.16C278.636 177.797 278.807 177.333 278.807 176.768V176.432H278.519C277.804 176.432 277.249 176.464 276.855 176.528C276.46 176.592 276.177 176.704 276.007 176.864C275.836 177.024 275.751 177.243 275.751 177.52C275.751 177.861 275.868 178.144 276.103 178.368C276.348 178.581 276.647 178.688 276.999 178.688ZM287.287 171.984C288.226 171.984 288.924 172.251 289.383 172.784C289.842 173.317 290.071 174.123 290.071 175.2V179.136C290.071 179.435 289.98 179.669 289.799 179.84C289.628 180.011 289.388 180.096 289.079 180.096C288.77 180.096 288.524 180.011 288.343 179.84C288.162 179.669 288.071 179.435 288.071 179.136V175.312C288.071 174.704 287.954 174.261 287.719 173.984C287.495 173.707 287.138 173.568 286.647 173.568C286.071 173.568 285.607 173.749 285.255 174.112C284.914 174.475 284.743 174.96 284.743 175.568V179.136C284.743 179.435 284.652 179.669 284.471 179.84C284.29 180.011 284.044 180.096 283.735 180.096C283.426 180.096 283.18 180.011 282.999 179.84C282.828 179.669 282.743 179.435 282.743 179.136V172.944C282.743 172.667 282.834 172.443 283.015 172.272C283.196 172.101 283.442 172.016 283.751 172.016C284.028 172.016 284.252 172.101 284.423 172.272C284.604 172.432 284.695 172.645 284.695 172.912V173.344C284.962 172.907 285.319 172.571 285.767 172.336C286.215 172.101 286.722 171.984 287.287 171.984ZM293.095 180.096C292.807 180.096 292.567 180.016 292.375 179.856C292.193 179.685 292.103 179.445 292.103 179.136V172.96C292.103 172.651 292.193 172.416 292.375 172.256C292.567 172.096 292.807 172.016 293.095 172.016C293.383 172.016 293.623 172.096 293.815 172.256C294.007 172.416 294.103 172.651 294.103 172.96V179.136C294.103 179.445 294.007 179.685 293.815 179.856C293.623 180.016 293.383 180.096 293.095 180.096ZM293.095 170.592C292.732 170.592 292.444 170.496 292.231 170.304C292.017 170.101 291.911 169.84 291.911 169.52C291.911 169.2 292.017 168.944 292.231 168.752C292.444 168.56 292.732 168.464 293.095 168.464C293.447 168.464 293.729 168.56 293.943 168.752C294.167 168.944 294.279 169.2 294.279 169.52C294.279 169.84 294.172 170.101 293.959 170.304C293.745 170.496 293.457 170.592 293.095 170.592ZM302.357 177.856C302.538 177.856 302.682 177.925 302.789 178.064C302.906 178.203 302.965 178.389 302.965 178.624C302.965 178.955 302.768 179.232 302.373 179.456C302.01 179.659 301.6 179.824 301.141 179.952C300.682 180.069 300.245 180.128 299.829 180.128C298.57 180.128 297.573 179.765 296.837 179.04C296.101 178.315 295.733 177.323 295.733 176.064C295.733 175.264 295.893 174.555 296.213 173.936C296.533 173.317 296.981 172.837 297.557 172.496C298.144 172.155 298.805 171.984 299.541 171.984C300.245 171.984 300.858 172.139 301.381 172.448C301.904 172.757 302.309 173.195 302.597 173.76C302.885 174.325 303.029 174.992 303.029 175.76C303.029 176.219 302.826 176.448 302.421 176.448H297.701C297.765 177.184 297.973 177.728 298.325 178.08C298.677 178.421 299.189 178.592 299.861 178.592C300.202 178.592 300.501 178.549 300.757 178.464C301.024 178.379 301.322 178.261 301.653 178.112C301.973 177.941 302.208 177.856 302.357 177.856ZM299.589 173.392C299.045 173.392 298.608 173.563 298.277 173.904C297.957 174.245 297.765 174.736 297.701 175.376H301.317C301.296 174.725 301.136 174.235 300.837 173.904C300.538 173.563 300.122 173.392 299.589 173.392ZM305.657 180.096C305.369 180.096 305.129 180.016 304.937 179.856C304.756 179.685 304.665 179.445 304.665 179.136V169.584C304.665 169.275 304.756 169.04 304.937 168.88C305.129 168.72 305.369 168.64 305.657 168.64C305.945 168.64 306.185 168.72 306.377 168.88C306.569 169.04 306.665 169.275 306.665 169.584V179.136C306.665 179.445 306.569 179.685 306.377 179.856C306.185 180.016 305.945 180.096 305.657 180.096ZM314.223 180C313.914 180 313.674 179.915 313.503 179.744C313.333 179.573 313.247 179.339 313.247 179.04V169.664C313.247 169.355 313.338 169.109 313.519 168.928C313.711 168.736 313.962 168.64 314.271 168.64C314.591 168.64 314.842 168.736 315.023 168.928C315.215 169.109 315.311 169.355 315.311 169.664V178.304H319.807C320.447 178.304 320.767 178.587 320.767 179.152C320.767 179.717 320.447 180 319.807 180H314.223ZM327.966 172.016C328.275 172.016 328.521 172.101 328.702 172.272C328.883 172.443 328.974 172.672 328.974 172.96V179.168C328.974 179.445 328.878 179.669 328.686 179.84C328.505 180.011 328.265 180.096 327.966 180.096C327.678 180.096 327.449 180.016 327.278 179.856C327.107 179.696 327.022 179.477 327.022 179.2V178.8C326.777 179.227 326.446 179.557 326.03 179.792C325.614 180.016 325.145 180.128 324.622 180.128C322.702 180.128 321.742 179.051 321.742 176.896V172.96C321.742 172.672 321.833 172.443 322.014 172.272C322.195 172.101 322.435 172.016 322.734 172.016C323.043 172.016 323.289 172.101 323.47 172.272C323.651 172.443 323.742 172.672 323.742 172.96V176.912C323.742 177.467 323.854 177.877 324.078 178.144C324.302 178.411 324.654 178.544 325.134 178.544C325.689 178.544 326.131 178.363 326.462 178C326.803 177.627 326.974 177.136 326.974 176.528V172.96C326.974 172.672 327.065 172.443 327.246 172.272C327.427 172.101 327.667 172.016 327.966 172.016ZM338.016 178.448C338.229 178.651 338.336 178.88 338.336 179.136C338.336 179.381 338.245 179.6 338.064 179.792C337.893 179.984 337.69 180.08 337.456 180.08C337.221 180.08 337.002 179.984 336.8 179.792L333.056 176.4V179.136C333.056 179.445 332.96 179.68 332.768 179.84C332.576 180 332.336 180.08 332.048 180.08C331.76 180.08 331.52 180 331.328 179.84C331.146 179.68 331.056 179.445 331.056 179.136V169.584C331.056 169.275 331.146 169.04 331.328 168.88C331.52 168.72 331.76 168.64 332.048 168.64C332.336 168.64 332.576 168.72 332.768 168.88C332.96 169.04 333.056 169.275 333.056 169.584V175.6L336.48 172.32C336.672 172.128 336.89 172.032 337.136 172.032C337.381 172.032 337.594 172.123 337.776 172.304C337.957 172.485 338.048 172.699 338.048 172.944C338.048 173.189 337.946 173.413 337.744 173.616L335.232 175.952L338.016 178.448ZM345.716 177.856C345.898 177.856 346.042 177.925 346.148 178.064C346.266 178.203 346.324 178.389 346.324 178.624C346.324 178.955 346.127 179.232 345.732 179.456C345.37 179.659 344.959 179.824 344.5 179.952C344.042 180.069 343.604 180.128 343.188 180.128C341.93 180.128 340.932 179.765 340.196 179.04C339.46 178.315 339.092 177.323 339.092 176.064C339.092 175.264 339.252 174.555 339.572 173.936C339.892 173.317 340.34 172.837 340.916 172.496C341.503 172.155 342.164 171.984 342.9 171.984C343.604 171.984 344.218 172.139 344.74 172.448C345.263 172.757 345.668 173.195 345.956 173.76C346.244 174.325 346.388 174.992 346.388 175.76C346.388 176.219 346.186 176.448 345.78 176.448H341.06C341.124 177.184 341.332 177.728 341.684 178.08C342.036 178.421 342.548 178.592 343.22 178.592C343.562 178.592 343.86 178.549 344.116 178.464C344.383 178.379 344.682 178.261 345.012 178.112C345.332 177.941 345.567 177.856 345.716 177.856ZM342.948 173.392C342.404 173.392 341.967 173.563 341.636 173.904C341.316 174.245 341.124 174.736 341.06 175.376H344.676C344.655 174.725 344.495 174.235 344.196 173.904C343.898 173.563 343.482 173.392 342.948 173.392Z" fill="#234CAD"/>
</g>
</g>
<g clip-path="url(#clip2_12505_163)">
<circle cx="211" cy="186" r="30" fill="#F2F6FF"/>
<path d="M201.484 192C201.136 192 200.86 191.904 200.656 191.712C200.464 191.52 200.368 191.25 200.368 190.902V180.408C200.368 180.06 200.464 179.79 200.656 179.598C200.86 179.406 201.136 179.31 201.484 179.31H205.048C207.124 179.31 208.732 179.868 209.872 180.984C211.024 182.088 211.6 183.642 211.6 185.646C211.6 187.662 211.024 189.228 209.872 190.344C208.732 191.448 207.124 192 205.048 192H201.484ZM204.904 190.11C207.82 190.11 209.278 188.622 209.278 185.646C209.278 182.682 207.82 181.2 204.904 181.2H202.69V190.11H204.904ZM215.036 192C214.688 192 214.418 191.904 214.226 191.712C214.034 191.52 213.938 191.256 213.938 190.92V180.372C213.938 180.024 214.04 179.748 214.244 179.544C214.46 179.328 214.742 179.22 215.09 179.22C215.45 179.22 215.732 179.328 215.936 179.544C216.152 179.748 216.26 180.024 216.26 180.372V190.092H221.318C222.038 190.092 222.398 190.41 222.398 191.046C222.398 191.682 222.038 192 221.318 192H215.036Z" fill="#234CAD"/>
</g>
<g clip-path="url(#clip3_12505_163)">
<circle cx="233" cy="164" r="7" fill="#234CAD" stroke="white" stroke-width="2"/>
<path d="M234.006 165.376C234.246 165.376 234.366 165.478 234.366 165.682C234.366 165.894 234.246 166 234.006 166H231.978C231.734 166 231.612 165.894 231.612 165.682C231.612 165.478 231.734 165.376 231.978 165.376H232.602V162.64L232.026 162.994C231.97 163.026 231.92 163.042 231.876 163.042C231.792 163.042 231.72 163.006 231.66 162.934C231.604 162.862 231.576 162.782 231.576 162.694C231.576 162.578 231.628 162.488 231.732 162.424L232.662 161.848C232.782 161.776 232.896 161.74 233.004 161.74C233.116 161.74 233.206 161.774 233.274 161.842C233.342 161.91 233.376 162.004 233.376 162.124V165.376H234.006Z" fill="#F7FAFC"/>
</g>
</g>
<defs>
<filter id="filter0_f_12505_163" x="0.085907" y="0.085907" width="671.828" height="396.828" filterUnits="userSpaceOnUse" color-interpolation-filters="sRGB">
<feFlood flood-opacity="0" result="BackgroundImageFix"/>
<feBlend mode="normal" in="SourceGraphic" in2="BackgroundImageFix" result="shape"/>
<feGaussianBlur stdDeviation="67.957" result="effect1_foregroundBlur_12505_163"/>
</filter>
<linearGradient id="paint0_linear_12505_163" x1="438.914" y1="306.747" x2="482.808" y2="102.781" gradientUnits="userSpaceOnUse">
<stop stop-color="#234CAD"/>
<stop offset="1" stop-color="#234CAD" stop-opacity="0.5"/>
</linearGradient>
<clipPath id="clip0_12505_163">
<rect width="230" height="45" fill="white" transform="translate(261 164)"/>
</clipPath>
<clipPath id="clip1_12505_163">
<rect width="180" height="45" fill="white" transform="translate(261 164)"/>
</clipPath>
<clipPath id="clip2_12505_163">
<rect width="60" height="60" fill="white" transform="translate(181 156)"/>
</clipPath>
<clipPath id="clip3_12505_163">
<rect width="16" height="16" fill="white" transform="translate(225 156)"/>
</clipPath>
</defs>
</svg>
